<svg xmlns="http://www.w3.org/2000/svg" width="225" height="47" fill="none" viewBox="0 0 225 47">
    <ellipse cx="22.585" cy="23.22" fill="#00034F" rx="15.676" ry="17.505" transform="rotate(31.103 22.585 23.22)"/>
    <ellipse fill="#fff" rx="3.205" ry="3.715" transform="matrix(.80888 .58798 -.56814 .82293 25.766 17.858)"/>
    <path stroke="#fff" stroke-width="2" d="M25.874 16.798L31.227 7.926"/>
    <path fill="#00034F" d="M49.984 14.88h2.52v5.64h6.62v-5.64h2.52v14.16h-2.52V22.8h-6.62v6.24h-2.52V14.88zm20.604 12.84h-.06c-.346.547-.786.947-1.32 1.2-.533.24-1.12.36-1.76.36-.44 0-.873-.06-1.3-.18-.413-.12-.786-.3-1.12-.54-.32-.24-.58-.54-.78-.9-.2-.36-.3-.78-.3-1.26 0-.52.094-.96.28-1.32.187-.373.434-.68.74-.92.32-.253.687-.453 1.1-.6.414-.146.84-.253 1.28-.32.454-.08.907-.126 1.36-.14.454-.026.88-.04 1.28-.04h.6v-.26c0-.6-.206-1.046-.62-1.34-.413-.306-.94-.46-1.58-.46-.506 0-.98.094-1.42.28-.44.174-.82.414-1.14.72l-1.26-1.26c.534-.546 1.154-.94 1.86-1.18.72-.24 1.46-.36 2.22-.36.68 0 1.254.08 1.72.24.467.147.854.34 1.16.58.307.24.54.52.7.84.174.307.294.62.36.94.08.32.127.634.14.94.014.294.02.554.02.78v5.52h-2.16v-1.32zm-.14-2.98h-.5c-.333 0-.706.014-1.12.04-.413.027-.806.094-1.18.2-.36.094-.666.24-.92.44-.253.187-.38.454-.38.8 0 .227.047.42.14.58.107.147.24.274.4.38.16.107.34.187.54.24.2.04.4.06.6.06.827 0 1.434-.193 1.82-.58.4-.4.6-.94.6-1.62v-.54zm11.443-2.42c-.28-.293-.574-.526-.88-.7-.307-.173-.62-.26-.94-.26-.44 0-.834.08-1.18.24-.347.16-.647.374-.9.64-.24.267-.427.574-.56.92-.12.347-.18.707-.18 1.08 0 .374.06.734.18 1.08.133.347.32.654.56.92.253.267.553.48.9.64.346.16.74.24 1.18.24.373 0 .72-.073 1.04-.22.32-.16.593-.386.82-.68l1.6 1.72c-.24.24-.52.447-.84.62-.307.174-.62.314-.94.42-.32.107-.627.18-.92.22-.294.054-.547.08-.76.08-.72 0-1.4-.12-2.04-.36-.64-.24-1.194-.58-1.66-1.02-.467-.44-.84-.966-1.12-1.58-.267-.626-.4-1.32-.4-2.08s.133-1.446.4-2.06c.28-.626.653-1.16 1.12-1.6.466-.44 1.02-.78 1.66-1.02.64-.24 1.32-.36 2.04-.36.613 0 1.226.12 1.84.36.626.227 1.173.594 1.64 1.1l-1.66 1.66zm3.088-8.4h2.4v9.5l3.7-3.98h3.08l-4.12 4.36 4.38 5.24h-3.18l-3.82-4.9h-.04v4.9h-2.4V13.92zm12.662 11.16c.08.72.36 1.28.84 1.68.48.4 1.06.6 1.74.6.6 0 1.1-.12 1.5-.36.414-.253.774-.566 1.08-.94l1.72 1.3c-.56.694-1.186 1.187-1.88 1.48-.693.294-1.42.44-2.18.44-.72 0-1.4-.12-2.04-.36-.64-.24-1.193-.58-1.66-1.02-.466-.44-.84-.966-1.12-1.58-.266-.626-.4-1.32-.4-2.08s.134-1.446.4-2.06c.28-.626.654-1.16 1.12-1.6.467-.44 1.02-.78 1.66-1.02.64-.24 1.32-.36 2.04-.36.667 0 1.274.12 1.82.36.56.227 1.034.56 1.42 1 .4.44.707.987.92 1.64.227.64.34 1.38.34 2.22v.66h-7.32zm4.92-1.8c-.013-.706-.233-1.26-.66-1.66-.426-.413-1.02-.62-1.78-.62-.72 0-1.293.207-1.72.62-.413.414-.666.967-.76 1.66h4.92zm4.645-3.84h2.4v1.52h.04c.266-.56.646-.993 1.14-1.3.493-.306 1.06-.46 1.7-.46.146 0 .286.014.42.04.146.027.293.06.44.1v2.32c-.2-.053-.4-.093-.6-.12-.187-.04-.374-.06-.56-.06-.56 0-1.014.107-1.36.32-.334.2-.594.434-.78.7-.174.267-.294.534-.36.8-.054.267-.08.467-.08.6v5.14h-2.4v-9.6zm12.893 2.66c-.467-.653-1.093-.98-1.88-.98-.32 0-.633.08-.94.24-.307.16-.46.42-.46.78 0 .294.127.507.38.64.253.134.573.247.96.34l1.24.3c.453.094.873.247 1.26.46.387.2.707.48.96.84s.38.854.38 1.48c0 .574-.127 1.06-.38 1.46-.24.387-.56.7-.96.94-.387.24-.827.414-1.32.52-.493.107-.987.16-1.48.16-.747 0-1.433-.106-2.06-.32-.627-.213-1.187-.6-1.68-1.16l1.6-1.5c.307.347.633.634.98.86.36.214.793.32 1.3.32.173 0 .353-.02.54-.06.187-.04.36-.106.52-.2.16-.093.287-.206.38-.34.107-.146.16-.313.16-.5 0-.333-.127-.58-.38-.74-.253-.16-.573-.286-.96-.38-.387-.106-.807-.2-1.26-.28-.44-.093-.853-.233-1.24-.42-.387-.2-.707-.473-.96-.82-.253-.346-.38-.826-.38-1.44 0-.533.107-.993.32-1.38.227-.4.52-.726.88-.98.36-.253.773-.44 1.24-.56.467-.12.94-.18 1.42-.18.64 0 1.273.114 1.9.34.627.214 1.133.587 1.52 1.12l-1.6 1.44zm19.805 3.6l3.06 3.34h-3.1l-1.5-1.62c-.574.68-1.187 1.18-1.84 1.5-.654.32-1.434.48-2.34.48-.627 0-1.234-.093-1.82-.28-.574-.173-1.08-.433-1.52-.78-.44-.36-.794-.793-1.06-1.3-.267-.52-.4-1.12-.4-1.8 0-.48.08-.92.24-1.32.16-.413.373-.786.64-1.12.28-.346.606-.646.98-.9.373-.266.773-.48 1.2-.64-.227-.253-.44-.5-.64-.74-.187-.24-.354-.486-.5-.74-.147-.253-.267-.526-.36-.82-.08-.293-.12-.613-.12-.96 0-.573.106-1.08.32-1.52.226-.44.526-.8.9-1.08.373-.293.806-.513 1.3-.66.493-.146 1.006-.22 1.54-.22.533 0 1.04.067 1.52.2.48.134.9.34 1.26.62.373.267.666.614.88 1.04.226.427.34.927.34 1.5 0 .44-.08.847-.24 1.22-.16.36-.374.694-.64 1-.267.294-.574.567-.92.82-.334.24-.674.447-1.02.62l2.28 2.46 1.58-2.4h2.82l-2.84 4.1zm-4.98-9.02c-.467 0-.867.134-1.2.4-.334.254-.5.594-.5 1.02 0 .187.04.374.12.56.08.174.186.354.32.54.133.174.273.34.42.5.16.16.32.314.48.46.2-.106.413-.226.64-.36.226-.146.433-.306.62-.48.2-.186.36-.386.48-.6.12-.213.18-.453.18-.72 0-.386-.154-.7-.46-.94-.307-.253-.674-.38-1.1-.38zm-.96 6c-.24.147-.474.3-.7.46-.227.147-.434.314-.62.5-.187.187-.34.4-.46.64-.107.24-.16.514-.16.82 0 .307.06.594.18.86.12.267.28.494.48.68.213.187.453.334.72.44.266.107.553.16.86.16.546 0 1.026-.146 1.44-.44.413-.293.8-.613 1.16-.96l-2.9-3.16zm16.782-7.8h4.76c.68 0 1.333.067 1.96.2.64.134 1.2.36 1.68.68.48.307.86.727 1.14 1.26.293.52.44 1.174.44 1.96 0 .894-.153 1.614-.46 2.16-.307.547-.72.974-1.24 1.28-.52.294-1.127.494-1.82.6-.68.107-1.393.16-2.14.16h-1.8v5.86h-2.52V14.88zm4.04 6.14c.36 0 .733-.013 1.12-.04.387-.026.74-.106 1.06-.24.333-.133.6-.333.8-.6.213-.266.32-.64.32-1.12 0-.44-.093-.786-.28-1.04-.187-.266-.427-.466-.72-.6-.293-.146-.62-.24-.98-.28-.36-.04-.707-.06-1.04-.06h-1.8v3.98h1.52zm13.967 6.7h-.06c-.347.547-.787.947-1.32 1.2-.534.24-1.12.36-1.76.36-.44 0-.874-.06-1.3-.18-.414-.12-.787-.3-1.12-.54-.32-.24-.58-.54-.78-.9-.2-.36-.3-.78-.3-1.26 0-.52.093-.96.28-1.32.186-.373.433-.68.74-.92.32-.253.686-.453 1.1-.6.413-.146.84-.253 1.28-.32.453-.08.906-.126 1.36-.14.453-.026.88-.04 1.28-.04h.6v-.26c0-.6-.207-1.046-.62-1.34-.414-.306-.94-.46-1.58-.46-.507 0-.98.094-1.42.28-.44.174-.82.414-1.14.72l-1.26-1.26c.533-.546 1.153-.94 1.86-1.18.72-.24 1.46-.36 2.22-.36.68 0 1.253.08 1.72.24.466.147.853.34 1.16.58.306.24.54.52.7.84.173.307.293.62.36.94.08.32.126.634.14.94.013.294.02.554.02.78v5.52h-2.16v-1.32zm-.14-2.98h-.5c-.334 0-.707.014-1.12.04-.414.027-.807.094-1.18.2-.36.094-.667.24-.92.44-.254.187-.38.454-.38.8 0 .227.046.42.14.58.106.147.24.274.4.38.16.107.34.187.54.24.2.04.4.06.6.06.826 0 1.433-.193 1.82-.58.4-.4.6-.94.6-1.62v-.54zm4.922-5.3h2.4v9.6h-2.4v-9.6zm-.34-3.26c0-.386.14-.72.42-1 .293-.293.66-.44 1.1-.44.44 0 .806.14 1.1.42.306.267.46.607.46 1.02 0 .414-.154.76-.46 1.04-.294.267-.66.4-1.1.4-.44 0-.807-.14-1.1-.42-.28-.293-.42-.633-.42-1.02zm5.495 3.26h2.28v1.54h.04c.227-.48.573-.893 1.04-1.24.467-.36 1.1-.54 1.9-.54.64 0 1.18.107 1.62.32.453.214.82.494 1.1.84.28.347.48.747.6 1.2.12.454.18.927.18 1.42v6.06h-2.4v-4.86c0-.266-.013-.56-.04-.88-.027-.333-.1-.64-.22-.92-.107-.293-.28-.533-.52-.72-.24-.2-.567-.3-.98-.3-.4 0-.74.067-1.02.2-.267.134-.493.314-.68.54-.173.227-.3.487-.38.78-.08.294-.12.6-.12.92v5.24h-2.4v-9.6zm10.364 2.04v-2.04h1.98v-2.78h2.4v2.78h2.64v2.04h-2.64v4.2c0 .48.087.86.26 1.14.187.28.547.42 1.08.42.214 0 .447-.02.7-.06.254-.053.454-.133.6-.24v2.02c-.253.12-.566.2-.94.24-.36.054-.68.08-.96.08-.64 0-1.166-.073-1.58-.22-.4-.133-.72-.34-.96-.62-.226-.293-.386-.653-.48-1.08-.08-.426-.12-.92-.12-1.48v-4.4h-1.98zm10.814 3.6c.08.72.36 1.28.84 1.68.48.4 1.06.6 1.74.6.6 0 1.1-.12 1.5-.36.413-.253.773-.566 1.08-.94l1.72 1.3c-.56.694-1.187 1.187-1.88 1.48-.693.294-1.42.44-2.18.44-.72 0-1.4-.12-2.04-.36-.64-.24-1.193-.58-1.66-1.02-.467-.44-.84-.966-1.12-1.58-.267-.626-.4-1.32-.4-2.08s.133-1.446.4-2.06c.28-.626.653-1.16 1.12-1.6.467-.44 1.02-.78 1.66-1.02.64-.24 1.32-.36 2.04-.36.667 0 1.273.12 1.82.36.56.227 1.033.56 1.42 1 .4.44.707.987.92 1.64.227.64.34 1.38.34 2.22v.66h-7.32zm4.92-1.8c-.013-.706-.233-1.26-.66-1.66-.427-.413-1.02-.62-1.78-.62-.72 0-1.293.207-1.72.62-.413.414-.667.967-.76 1.66h4.92zm4.644-3.84h2.4v1.52h.04c.267-.56.647-.993 1.14-1.3.494-.306 1.06-.46 1.7-.46.147 0 .287.014.42.04.147.027.294.06.44.1v2.32c-.2-.053-.4-.093-.6-.12-.186-.04-.373-.06-.56-.06-.56 0-1.013.107-1.36.32-.333.2-.593.434-.78.7-.173.267-.293.534-.36.8-.053.267-.08.467-.08.6v5.14h-2.4v-9.6zm12.894 2.66c-.467-.653-1.094-.98-1.88-.98-.32 0-.634.08-.94.24-.307.16-.46.42-.46.78 0 .294.126.507.38.64.253.134.573.247.96.34l1.24.3c.453.094.873.247 1.26.46.386.2.706.48.96.84.253.36.38.854.38 1.48 0 .574-.127 1.06-.38 1.46-.24.387-.56.7-.96.94-.387.24-.827.414-1.32.52-.494.107-.987.16-1.48.16-.747 0-1.434-.106-2.06-.32-.627-.213-1.187-.6-1.68-1.16l1.6-1.5c.306.347.633.634.98.86.36.214.793.32 1.3.32.173 0 .353-.02.54-.06.186-.04.36-.106.52-.2.16-.093.286-.206.38-.34.106-.146.16-.313.16-.5 0-.333-.127-.58-.38-.74-.254-.16-.574-.286-.96-.38-.387-.106-.807-.2-1.26-.28-.44-.093-.854-.233-1.24-.42-.387-.2-.707-.473-.96-.82-.254-.346-.38-.826-.38-1.44 0-.533.106-.993.32-1.38.226-.4.52-.726.88-.98.36-.253.773-.44 1.24-.56.466-.12.94-.18 1.42-.18.64 0 1.273.114 1.9.34.626.214 1.133.587 1.52 1.12l-1.6 1.44z"/>
</svg>
