<?xml version="1.0" standalone="no"?>
<!DOCTYPE svg PUBLIC "-//W3C//DTD SVG 20010904//EN"
 "http://www.w3.org/TR/2001/REC-SVG-20010904/DTD/svg10.dtd">
<svg version="1.0" xmlns="http://www.w3.org/2000/svg"
 width="200.000000pt" height="267.000000pt" viewBox="0 0 200.000000 267.000000"
 preserveAspectRatio="xMidYMid meet">
<metadata>
Created by potrace 1.16, written by Peter Selinger 2001-2019
</metadata>
<g transform="translate(0.000000,267.000000) scale(0.100000,-0.100000)"
fill="#000000" stroke="none">
<path fill="#00034F" d="M910 2305 c-384 -86 -692 -388 -797 -783 -23 -85 -26 -117 -27 -257
0 -175 10 -237 64 -371 78 -194 217 -344 405 -434 110 -53 180 -70 320 -77
246 -12 469 68 677 242 230 192 378 515 378 824 0 222 -86 454 -225 608 -44
50 -152 139 -159 132 -2 -2 -54 -86 -115 -187 l-111 -183 21 -28 c74 -101 21
-264 -106 -322 -22 -10 -54 -19 -70 -19 -41 0 -114 38 -139 72 -25 34 -33 131
-16 183 24 72 121 153 185 155 15 0 48 47 133 190 62 105 110 195 107 200 -3
5 -43 21 -88 36 -70 23 -103 27 -227 30 -102 3 -164 -1 -210 -11z"/>
</g>
</svg>
