<svg xmlns="http://www.w3.org/2000/svg" width="535" height="593" fill="none" viewBox="0 0 535 593">
    <g clip-path="url(#prefix__clip0)">
        <path fill="#fff" d="M619.736 655.29H-86.398V-50.662h706.134V655.29zm-250.22-459.617c187.083-.664 180.105-48.669.83-64.283-14.122-126.905-215.661-140.194-214.997-.996-43.697 3.654-90.883 10.963-128.765 33.885-8.972 18.77 107.498 24.252 120.956 26.245 4.154 15.448 11.465 37.042 31.569 32.557-42.202 105.478-83.573 211.62-128.434 315.934-.166 0-.332.167-.332.499-13.624 15.282 93.708 25.082 104.674 28.238 98.028 14.285 197.219 8.305 294.582-7.475 24.424-.83 6.979-24.75 2.16-37.208-40.208-98.169-76.428-198.165-114.975-296.998 6.314-1.163 14.788.498 18.941-5.648 5.151-8.139 12.628-15.115 13.791-24.75z"/>
        <path fill="#FFEB9A" d="M50.51 538.683c44.86-104.315 86.231-210.457 128.433-315.934 1.993-.332 3.987-.332 5.981-.332.498 2.823-1.495 7.64 2.326 8.803 8.972 1.495 18.276 1.163 27.415 1.661 11.63.166 13.292 3.655 13.292-9.966 4.319-.166 8.639 0 12.959.166.665 2.824-2.326 8.305.831 9.468 5.649.664 11.298.332 16.947.664 6.48 0 12.794.665 19.273.333 2.659-1.828.831-6.645 2.16-9.468 4.653 0 9.305.166 13.957.664-.166 5.648-3.655 9.966 4.652 9.136 9.803 0 19.772.166 29.575 0 3.156-.498 1.163-5.648 1.993-7.973 2.16-.332 4.486-.332 6.646-.332 41.205 108.633 84.072 217.599 125.775 325.734-9.138-9.468-24.424-8.305-36.553-11.793-123.448-25.415-252.712-27.076-375.663-.831zm208.683-168.432c8.307.831 15.451-2.657 19.439-10.132.498-1.163 2.991-2.16 1.994-3.488-1.495-1.329.997-1.994 1.495-3.323 2.659-3.82-2.16-6.146-4.652-2.99-.665.499-1.163 2.16-2.16 1.662-3.323 0-4.652 5.149-6.646 7.142-5.317 3.821-13.956 0-19.938-1.163-6.313-2.823-10.301 8.14-13.292-1.162-.166-1.994 2.825-3.156 1.662-5.814-.665-1.661-2.326.997-3.323.332-.665-.83.664-1.993 1.329-2.325 1.661-.831.166-2.326.665-3.322-1.33-2.99-5.317-5.15-7.809-7.808-8.972-4.983-17.446 7.641-13.292 15.781 3.156 6.478 11.63 3.488 13.458 12.458.332.83.332.996-.333 1.495-8.473 2.823-10.467 10.464-13.458 18.105-7.809 22.591-7.809 9.8-24.59 22.258-2.99 4.485 3.988 6.146 6.48 2.658 1.163-.664.997 1.993 2.16 1.329 4.486-1.661 9.304-2.658 13.624-4.817 8.64-3.987 9.969-14.784 16.283-21.428 1.661-1.993 4.32 2.326 6.147 2.99 17.28 10.631 2.991 24.418 24.923 23.587 8.64 1.329 20.436-3.322 27.58 2.326 7.145 11.129 9.471 24.085 25.754 20.597 4.818-.997 2.492-8.472-1.496-8.97-1.661-.332-3.489 0-4.486-1.661-7.476-10.963-10.966-23.919-26.085-25.082-1.994-1.329 9.969-4.817 11.63-6.644 1.496-.831 2.326 1.495 3.323 2.325 4.154 3.488 7.975 10.465 13.126 11.295 1.495-.498 2.492 1.163 3.489 1.828 2.659 2.823 12.96-1.495 14.289-4.153.166-7.973-7.477-3.82-11.298-5.98-9.305-5.481-17.944-23.753-29.907-18.604-6.646 2.326-19.439 11.462-25.587 9.136-2.824-5.814-4.818-11.96-6.812-18.106 1.163-1.328 4.154 0 6.314-.332z"/>
        <path fill="#CBCBCB" d="M370.346 131.224c40.374 4.817 106.003 8.305 137.572 34.716-59.149 27.906-128.267 12.624-191.736 15.282-96.699-2.658-195.059 3.987-289.598-17.275 102.846-52.822 231.446-34.052 343.762-32.723zm91.715 31.394c6.646-11.461-45.193-7.142-37.882 1.163-7.311 9.302 44.195 10.132 37.882-1.163zm-313.856-3.156c5.981-11.295-44.362-7.142-38.214 1.163-6.646 9.634 44.195 10.132 38.214-1.163zm73.272 4.319c-7.477 9.468 44.86 9.8 37.882-1.163 6.978-11.461-45.193-7.308-37.882 1.163zm141.891-.498c7.477-11.628-45.193-7.309-37.882.996-7.643 9.468 45.026 9.801 37.882-.996z" opacity=".2"/>
        <path fill="#FFC88E" d="M50.51 538.683c122.95-26.245 252.214-24.75 375.496.831 12.129 3.654 27.415 2.325 36.553 11.793 4.652 11.794-64.133 13.455-74.435 16.943-77.259 9.967-155.848 9.468-232.941-.996-12.295-3.323-119.295-12.625-104.674-28.571z"/>
        <path fill="#797A92" d="M370.346 131.224c-71.112-5.315-143.552-3.322-214.997-.997-.664-139.197 200.875-125.908 214.997.997zm-53.5-66.442c-20.602 1.993-4.818 22.424 3.489 30.065 6.813 4.983 13.791 17.441 22.431 16.61 11.298-4.651-14.455-50.164-25.92-46.675zm-21.765-1.33c8.972.665 10.135-14.118.498-12.79-7.477.499-9.138 12.79-.498 12.79zM26.584 164.113c94.539 21.262 192.899 14.618 289.598 17.275 63.303-2.657 132.587 12.624 191.736-15.282 19.938 49.002-490.638 33.388-481.334-1.993z" opacity=".5"/>
        <path fill="#292929" d="M147.374 190.192c73.604 6.81 148.039 4.817 221.975 5.315-1.163 9.801-8.639 16.777-13.956 24.418-7.145 7.973-20.27 4.485-29.907 5.814-26.75-.831-53.334-2.824-80.084-2.99-22.098.166-44.528-1.661-66.626-.166-19.937 4.651-27.248-16.943-31.402-32.391zm27.913 8.305c.831 3.821 1.163 19.767 7.643 13.289.997-4.817-1.163-10.133-1.661-15.116-1.163-3.987-6.646-1.993-5.982 1.827zm139.898 14.285c-.665 3.322 3.323 6.977 5.483 3.322.332-3.986 4.32-13.952 0-16.112-5.982-.83-4.486 8.97-5.483 12.79zm31.07-7.973c.664-4.152-4.819-5.98-5.982-1.661-.332 4.319-2.824 8.472-2.16 12.624 5.317 5.98 7.643-7.308 8.142-10.963zm-92.213-1.163c1.329-3.986-3.821-7.807-5.815-3.322-.665 3.655-1.163 7.309-.997 10.963-.166 2.99 3.821 5.814 5.649 2.492 1.329-2.99.498-6.81 1.163-10.133zm-53.666 4.319c-.665 3.156 2.824 7.309 5.483 3.821 1.329-4.153 2.16-9.468 1.329-13.787-6.314-6.146-6.48 5.98-6.812 9.966zm92.379 4.485c-.333 4.651 5.483 5.814 6.147.997.166-3.821 4.819-10.797-.332-12.79-5.151-.333-4.652 8.139-5.815 11.793zm-67.291-7.475c-1.495 4.319 3.822 12.126 6.314 5.316-.166-3.156-.166-6.146.166-9.302.831-3.488-3.821-5.648-5.649-2.492-.997 1.993-.831 4.319-.831 6.478zm48.848 2.824c.499-3.322-.332-10.465-5.15-6.644-5.816 10.298 5.482 23.255 5.15 6.644z"/>
        <path fill="#FCE969" d="M50.51 538.683c0 .166 0 .332-.333.499 0-.167.166-.333.332-.499z"/>
        <path fill="#797A92" d="M184.924 222.417c14.289-.831 28.578.166 42.866.332-.997 2.99.997 8.969-1.993 10.298-8.308 0-16.781-.83-25.089-.83-8.141-.997-18.11 2.491-15.784-9.8zM240.75 222.915c12.96 0 26.085.498 39.045.996-1.329 2.824.499 7.641-2.16 9.469-6.48.332-12.793-.333-19.273-.333-5.649-.332-11.298 0-16.947-.664-2.991-1.163 0-6.644-.665-9.468zM293.752 224.576c12.128.332 24.091 1.495 36.22 1.329-.831 2.325.997 7.475-1.994 7.973-9.803 0-19.771-.166-29.574 0-8.308.664-4.985-3.654-4.652-9.302z" opacity=".5"/>
        <path fill="#FF882C" d="M325.486 164.445c-3.821-7.308 12.794-6.312 17.113-7.474 45.525-2.326 9.471 18.437-17.113 7.474zM221.477 163.781c-4.154-8.305 19.938-6.977 24.756-7.973 4.486 0 15.784-.166 13.126 6.81-11.298 6.146-25.919 4.817-37.882 1.163zM109.991 160.459c-2.492-7.309 11.796-5.814 16.282-7.143 47.187-2.824 9.969 18.77-16.282 7.143zM424.179 163.781c-3.656-7.807 14.455-6.478 18.941-7.641 42.7-1.163 6.978 18.272-18.941 7.641z"/>
        <path fill="#C8CDE0" d="M221.477 163.781c11.963 3.654 26.584 4.983 37.882-1.163 6.812 10.963-45.359 10.631-37.882 1.163zM424.179 163.781c11.962 3.488 26.584 4.983 37.882-1.163 6.313 11.295-45.193 10.465-37.882 1.163zM109.991 160.459c11.796 3.82 27.082 5.315 38.214-1.163 5.981 11.295-44.694 10.963-38.214 1.163zM325.486 164.445c11.963 3.655 26.418 4.817 37.882-.996 7.144 10.631-45.359 10.298-37.882.996z"/>
        <path fill="#fff" d="M316.846 64.781c11.298-3.488 37.052 42.025 26.086 46.843-8.806.664-15.784-11.794-22.43-16.611-8.474-7.807-24.258-28.238-3.656-30.232zM295.081 63.453c-8.64 0-6.978-12.126.498-12.79 9.637-1.33 8.474 13.288-.498 12.79z"/>
        <path fill="#C8CDE0" d="M175.287 198.497c-.664-3.986 4.819-5.814 5.982-1.827.498 4.983 2.824 10.132 1.661 15.116-6.313 6.478-6.812-9.302-7.643-13.289zM315.185 212.782c.997-3.986-.499-13.62 5.649-12.956 4.32 2.159.332 12.126 0 16.112-2.326 3.821-6.314.166-5.649-3.156zM346.255 204.809c-.499 3.655-2.825 16.943-8.308 10.963-.664-4.152 1.828-8.471 2.16-12.624 1.329-4.319 6.812-2.491 6.148 1.661zM254.042 203.647c-.665 3.322.166 6.976-1.163 10.132-1.828 3.322-5.815.498-5.649-2.492.498-3.82-1.329-12.458 3.987-12.956 2.659.166 3.157 3.156 2.825 5.316zM200.376 207.965c.332-3.82.664-16.112 6.812-9.966.831 4.319 0 9.634-1.329 13.787-2.659 3.488-6.148-.665-5.483-3.821zM292.755 212.45c1.163-3.654.664-12.126 5.815-11.793 5.151 1.993.332 8.803.332 12.79-.664 4.817-6.48 3.654-6.147-.997zM225.464 204.975c0-2.159-.166-4.485.831-6.478 1.828-3.156 6.314-.996 5.649 2.492-.332 3.156-.332 6.146-.166 9.302-2.658 6.81-7.809-.831-6.314-5.316zM274.312 207.799c.332 16.611-10.966 3.654-5.15-6.644 4.818-3.821 5.649 3.322 5.15 6.644z"/>
        <path fill="#FFEB9A" d="M349.578 315.602H163.325v141.025h186.253V315.602z"/>
        <path fill="#D5D8EF" d="M210.012 39.367c-.332.166-.664.332-1.163.499 4.653 27.407 33.729 56.974 75.1 73.253 30.737 12.125 61.641 14.119 84.404 7.308-14.954-67.273-94.041-112.288-158.341-81.06zm85.069 24.086c-8.64 0-6.979-12.126.498-12.79 9.637-1.33 8.474 13.288-.498 12.79zm47.851 48.171c-8.806.664-15.784-11.628-22.43-16.611-8.474-7.641-24.258-28.072-3.49-30.065 11.299-3.655 37.052 41.858 25.92 46.676z" opacity=".5"/>
        <path fill="#fff" d="M187.582 415.598c-.997-.498-1.495-1.495-1.329-2.657l12.627-72.423 130.76 22.757-12.628 72.422c-.166 1.163-.996 1.993-2.159 1.993l-127.271-22.092z"/>
        <path fill="#E9E9E9" fill-rule="evenodd" d="M202.536 334.538c-1.33-.166-2.825 1.495-3.157 3.987l-1.163 6.478 130.759 22.757 1.163-6.478c.499-2.492-.332-4.651-1.661-4.818l-125.941-21.926z" clip-rule="evenodd"/>
        <path fill="#FFB881" d="M208.86 340.889c.267-1.537-.762-2.999-2.299-3.266-1.537-.268-2.999.761-3.267 2.297-.267 1.537.762 2.999 2.298 3.267 1.537.267 3-.762 3.268-2.298z"/>
        <path fill="#A2C7CC" d="M217.122 342.185c.268-1.537-.761-2.999-2.298-3.266-1.537-.268-2.999.761-3.267 2.297-.267 1.537.761 2.999 2.298 3.267 1.537.267 3-.762 3.267-2.298z"/>
        <path fill="#797A92" d="M225.194 343.616c.267-1.537-.762-2.999-2.299-3.266-1.537-.268-2.999.761-3.267 2.297-.267 1.537.762 2.999 2.298 3.267 1.537.267 3-.762 3.268-2.298z"/>
        <path fill="#122163" d="M243.865 379.654c.151-.104.337-.136.557-.095.232.043.409.153.532.332l2.268 3.295c.066.096.108.194.126.293.018.099.029.197.036.294-.039.077-.084.159-.136.245-.04.089-.103.173-.19.253l-6.742 4.67 4.629 6.77c.114.225.156.418.126.58-.04.221-.171.406-.39.558l-3.366 2.255c-.169.137-.346.188-.531.154-.197-.037-.362-.151-.494-.343l-7.408-10.807c-.141-.206-.197-.39-.167-.552.034-.186.154-.349.36-.491l10.79-7.411zm17.515-1.315c.131-.192.298-.347.499-.466.214-.116.465-.147.755-.094l4.816.889c.232.043.426.127.583.252.168.127.236.277.204.451-.023.127-.049.201-.076.219l-15.475 22.26c-.181.267-.34.447-.478.542-.135.082-.324.101-.568.057l-5.216-.963c-.475-.088-.685-.283-.629-.584.004-.023.014-.045.03-.066l.097-.234 15.458-22.263zm10.74 6.927c.151-.104.307-.201.467-.292.161-.09.357-.114.589-.071.162.03.301.122.416.275l.333.439 7.119 10.322c.142.206.195.401.161.587-.03.162-.148.314-.354.456l-10.779 7.449c-.192.132-.387.18-.584.144-.197-.036-.344-.148-.442-.333l-2.337-3.309c-.161-.233-.222-.454-.183-.663.032-.174.14-.339.325-.497l6.759-4.667-4.646-6.773c-.091-.221-.127-.413-.109-.578.048-.195.168-.358.361-.49l2.904-1.999z"/>
        <path fill="#199FB2" d="M267.002 127.736h-11.963c-.665-.166-1.163-.166-1.828 0h-.997c0-1.329 0-2.658-.498-3.987-.332-.996-.831-1.993-1.163-2.99-.831-1.827-1.496-3.82-1.828-5.813-.332-1.329-.498-2.658-.664-3.987v-.332h.166c1.495 1.661 3.489 2.99 5.483 3.986 1.163.499 2.326.997 3.489 1.163 1.329.166 1.994-.664 1.661-1.993-.664-1.827-1.661-3.322-3.157-4.485-1.495-1.163-3.156-1.661-4.984-1.827-.997-.166-1.994-.166-2.825.332 0-.166-.166-.332-.166-.332 0-1.827-.166-3.488 0-5.316.333-2.823 1.329-5.315 3.489-7.308 1.33-1.329 2.991-2.16 4.819-2.99 1.661-.665 3.323-1.163 4.984-1.495 3.157-.664 6.148-.166 8.972 1.495 2.16 1.329 3.988 3.156 5.151 5.315 1.163 1.994 1.495 4.319 1.661 6.645.167 2.823-.664 5.481-1.827 7.973-.665 1.495-1.496 3.156-2.16 4.651l-1.994 3.986c0 .166-.166.332-.166.499-.166 0-.166.166-.166.166-1.33 2.325-2.659 4.318-3.489 6.644zm7.31-18.106v-.332c-.166-1.163-.664-1.827-1.828-1.827-.83 0-1.495.166-2.159.332-1.828.665-3.323 1.827-4.819 3.156-.831.665-1.329 1.661-1.495 2.824-.166 1.329.664 2.325 1.828 2.325.498 0 .996 0 1.329-.166.332-.166.83-.332 1.163-.332 1.329-.498 2.658-.83 3.821-1.827 1.329-1.163 1.994-2.492 2.16-4.153zM241.415 111.956c.166.83 0 1.661 0 2.491 0 1.163.166 2.16.664 3.322 1.163 2.658 2.492 4.984 4.154 7.309.665.831 1.163 1.661 1.661 2.658 0 .166.167.332.167.332h-3.157c-.333-.83-.997-1.661-1.496-2.491-.83-1.495-1.827-2.824-2.658-4.319-.498-.665-.831-1.495-1.662-1.827-.664-.333-1.329-.499-2.159-.665-.831-.166-1.828-.332-2.659-.664-.332-.166-.498-.499-.498-.831 0-.332.498-.498.83-.498.499 0 .831.166 1.33.166h.166c0-.166 0-.166-.166-.166-.333-.498-.831-.997-1.163-1.495-.167-.166-.333-.498-.499-.665-.166-.332 0-.664.166-.83.166-.166.499-.166.831 0 .665.332 1.163.83 1.662 1.329.166 0 .166.166.332.166s0-.166 0-.332c-.166-.665-.499-1.495-.665-2.16 0-.166-.166-.332 0-.664 0-.498.499-.665.997-.498.332.166.499.498.665.83.332.498.498.997.83 1.661.167.332.333.665.665.997.166-.166 0-.332 0-.499v-2.657c0-.332.166-.499.332-.831.167-.332.499-.332.831-.166.332.166.499.332.499.665-.167.166-.167.166 0 .332zM282.287 122.587c-1.163 1.661-2.16 3.488-3.157 5.315h-3.156l1.495-2.492c.665-.996 1.329-1.827 1.828-2.99.83-1.162 1.495-2.491 2.16-3.82.498-.997.83-1.993.996-2.99.167-.664.167-1.329 0-1.993-.166-.665 0-1.495.167-2.16 0-.332.166-.498.498-.664.332 0 .665 0 .831.332.166.499.332.831.332 1.329v2.326c.332-.167.499-.499.499-.831.166-.83.664-1.495 1.163-2.325l.332-.333c.166-.166.498-.166.664-.166.167.166.333.332.333.499 0 .332-.166.664-.333.996-.166.499-.332 1.163-.498 1.661 0 .166-.166.332 0 .332s.166 0 .332-.166c.499-.498.997-.996 1.662-1.328.332-.333.664-.167.997.166.332.332.166.83-.166 1.162-.499.499-.997 1.163-1.33 1.661l-.166.167c0 .166.166 0 .333 0 .332 0 .83-.167 1.163-.167.498 0 .83.167.83.499.166.332 0 .664-.498.83-.665.332-1.495.499-2.326.665-.665.166-1.329.332-1.828.498-.664.166-1.163.664-1.661 1.163-.499 1.329-.997 1.993-1.496 2.824z"/>
        <path fill="#101623" d="M247.728 107.969c.831-.664 1.828-.498 2.825-.332 1.827.166 3.489.831 4.984 1.827 1.496 1.163 2.659 2.658 3.157 4.485.498 1.329-.166 2.159-1.661 1.993-1.33-.166-2.493-.498-3.49-1.162-1.993-.997-3.987-2.326-5.482-3.987h-.167c-.166-.166-.332-.498-.498-.664-.332-.831-.166-1.495.332-2.16z"/>
        <path fill="#B2B9D5" d="M253.211 127.902c.665-.166 1.163-.166 1.828 0h-1.828z"/>
        <path fill="#101623" d="M274.312 109.63c-.166 1.661-.831 2.99-2.16 3.987-1.163.83-2.492 1.329-3.821 1.827-.333.166-.831.332-1.163.332-.499.166-.997.166-1.329.166-1.33 0-2.16-.996-1.828-2.325.166-1.163.665-1.993 1.495-2.824 1.496-1.329 2.991-2.325 4.819-3.156.664-.332 1.495-.498 2.159-.332 1.164 0 1.828.664 1.828 1.827v.498z"/>
    </g>
    <defs>
        <clipPath id="prefix__clip0">
            <path fill="#fff" d="M0 0H535V593H0z"/>
        </clipPath>
    </defs>
</svg>
