<svg xmlns="http://www.w3.org/2000/svg" width="50" height="50" fill="none" viewBox="0 0 50 50">
    <path fill="#FFB881" d="M25.813 22.708c-4.73-1.229-6.25-2.5-6.25-4.479 0-2.27 2.104-3.854 5.625-3.854 3.708 0 5.083 1.77 5.208 4.375H35c-.146-3.583-2.333-6.875-6.687-7.938V6.25h-6.25v4.5c-4.042.875-7.292 3.5-7.292 7.52 0 4.813 3.98 7.21 9.792 8.605 5.208 1.25 6.25 3.083 6.25 5.02 0 1.438-1.021 3.73-5.625 3.73-4.292 0-5.98-1.917-6.209-4.375h-4.583c.25 4.563 3.667 7.125 7.667 7.98v4.52h6.25v-4.48c4.062-.77 7.291-3.124 7.291-7.395 0-5.917-5.062-7.938-9.791-9.167z"/>
</svg>
