<svg xmlns="http://www.w3.org/2000/svg" width="50" height="50" fill="none" viewBox="0 0 50 50">
    <path fill="#FFB881" fill-rule="evenodd" d="M27.324 6.252c-5.375 0-10.75 2.042-14.875 6.146l-.02.021c-8.23 8.23-8.23 21.583 0 29.813l29.79-29.813c-4.103-4.104-9.5-6.167-14.895-6.167zm16.419 34.52l-2.976 2.976-13.42-13.42 2.976-2.976 13.42 13.42zM10.408 27.336c0 3.104.833 6.062 2.375 8.646l2.895-2.875c-2.458-3.438-3.916-7.355-4.312-11.334-.625 1.771-.958 3.625-.958 5.563zm8.29 2.729c-2.812-4.271-3.874-9.375-2.874-14.23 1.208-.25 2.417-.374 3.646-.374 3.75 0 7.396 1.146 10.583 3.25L18.699 30.065zm8.626-19.646c-1.938 0-3.792.333-5.563.958 3.98.396 7.875 1.855 11.313 4.313l2.896-2.896c-2.584-1.542-5.542-2.375-8.646-2.375z" clip-rule="evenodd"/>
</svg>
