<svg xmlns="http://www.w3.org/2000/svg" width="211" height="348" fill="none" viewBox="0 0 211 348">
    <g clip-path="url(#prefix__clip0)">
        <path fill="#D2EDF2" fill-opacity=".5" d="M51.467 88.758c24.385 4.899 49.399 4.226 60.01 15.524 10.482 11.355 6.611 34.797 6.217 56.277-.472 21.653 2.584 41.46-6.844 54.143-9.298 12.626-31.08 18.128-50.4 23.928-19.45 5.858-36.358 11.84-58.085 15.369-21.546 3.586-47.883 4.429-64.871-6.541-16.988-10.971-24.68-33.87-18.533-53.589 5.965-19.777 25.767-36.374 38.162-57.756C-30.3 114.789-25.259 88.739-10.81 81.065c14.398-7.79 38.022 2.737 62.277 7.693z"/>
    </g>
    <defs>
        <clipPath id="prefix__clip0">
            <path fill="#fff" d="M0 0H283.835V254.491H0z" transform="rotate(-23.959 195.608 415.813)"/>
        </clipPath>
    </defs>
</svg>
