<svg xmlns="http://www.w3.org/2000/svg" width="92" height="91" fill="none" viewBox="0 0 92 91">
    <g clip-path="url(#prefix__clip0)">
        <path fill="#E5F4F6" d="M72.76 61.959c-5.243 4.003-11.888 5.267-18.487 8.424-6.645 3.113-13.153 8.116-20.263 8.6-7.11.529-14.776-3.463-17.377-9.648-2.603-6.23-.142-14.697 1.144-22.08 1.24-7.424 1.306-13.764 4.126-18.543 2.864-4.78 8.482-8 14.939-11.506 6.456-3.505 13.752-7.294 20.58-6.54 6.786.757 13.15 6.1 17.804 12.5 4.655 6.398 7.6 13.896 7.109 20.994-.448 7.097-4.288 13.794-9.575 17.799z"/>
        <path fill="#D2EDF2" fill-opacity=".5" d="M80.46 63.704c-3.02 5.665-6.068 12.034-11.036 14.534-5.013 2.5-11.902 1.13-17.36-1.815-5.46-2.945-9.49-7.467-13.88-12.2-4.39-4.733-9.142-9.676-9.766-15.119-.58-5.399 2.97-11.253 7.218-15.891 4.291-4.64 9.238-8.02 14.507-9.162 5.268-1.143 10.86-.05 18.12.123 7.26.172 16.234-.534 20.068 3.288 3.788 3.78 2.437 12.131.288 18.83-2.193 6.701-5.14 11.703-8.16 17.412z"/>
        <g fill="#A2C7CC" fill-opacity=".5" clip-path="url(#prefix__clip1)">
            <path d="M55.435 30.564h-6.45c-.308.007-.613-.048-.898-.16-.286-.111-.546-.278-.765-.49-.22-.213-.394-.467-.513-.747-.119-.28-.18-.581-.18-.885 0-.303.061-.604.18-.884.12-.28.293-.534.513-.747.22-.212.48-.38.765-.491.285-.112.59-.166.897-.16h6.451c.604.012 1.178.258 1.6.685.423.427.66 1 .66 1.597 0 .598-.237 1.17-.66 1.598-.422.426-.996.672-1.6.684zm-6.45-3.83c-.21-.005-.417.032-.612.107-.194.075-.371.189-.52.333-.15.144-.269.317-.35.507-.081.19-.123.395-.123.601 0 .207.042.411.123.602.081.19.2.362.35.507.149.144.326.257.52.332.195.076.402.112.611.107h6.451c.408-.01.796-.178 1.08-.467.286-.29.445-.677.445-1.08 0-.405-.16-.792-.444-1.082-.285-.289-.673-.456-1.081-.466h-6.45zM65.758 61.2h-6.453c-.303 0-.603-.059-.883-.174-.28-.114-.534-.282-.748-.494-.214-.212-.384-.464-.5-.74-.116-.277-.175-.574-.175-.874 0-.3.06-.596.175-.873.116-.277.286-.528.5-.74.214-.212.468-.38.748-.495.28-.114.58-.174.883-.174h6.45c.304 0 .604.06.883.174.28.115.534.283.749.495.214.212.384.463.5.74.115.277.175.574.175.873 0 .3-.06.597-.175.873-.116.277-.286.529-.5.74-.215.213-.469.38-.749.495-.28.115-.58.174-.882.174h.002zm-6.452-3.826c-.415 0-.813.163-1.106.453-.293.29-.458.684-.458 1.094 0 .41.165.804.458 1.094.293.29.691.453 1.106.453h6.453c.415 0 .812-.163 1.106-.453.293-.29.458-.684.458-1.094 0-.41-.165-.804-.458-1.094-.294-.29-.691-.453-1.106-.453h-6.453zM57.37 36.947H47.05c-.099 0-.193-.04-.263-.108-.07-.069-.109-.162-.11-.26v-3.83c.001-.096.04-.19.11-.259.07-.068.164-.107.263-.107H57.37c.098 0 .192.039.262.107.07.07.108.163.108.26v3.83c0 .097-.039.19-.108.26-.07.068-.164.107-.262.107zm-9.95-.735h9.579v-3.094h-9.58v3.094zM51.564 58.647H41.242c-.098 0-.193-.039-.263-.108-.07-.068-.109-.162-.109-.26V54.45c0-.097.04-.19.11-.26.07-.068.164-.107.262-.107h10.322c.098 0 .193.039.263.108.07.068.108.162.109.26v3.829c0 .097-.04.19-.11.26-.07.068-.164.107-.262.107zm-9.95-.735h9.58v-3.095h-9.58v3.095zM65.757 54.18H55.435c-.074 0-.145-.022-.206-.063-.061-.04-.109-.098-.137-.165-.028-.067-.035-.14-.02-.212.013-.071.049-.137.1-.188l3.872-3.829c.07-.069.164-.108.262-.108h10.322c.073 0 .145.022.206.062s.109.098.137.165c.028.067.035.141.02.212-.013.072-.049.137-.1.188l-3.872 3.83c-.034.034-.075.061-.12.08-.045.018-.093.027-.142.027zm-9.425-.735h9.272l3.127-3.094H59.46l-3.127 3.094zM52.21 48.435c-.046 0-.092-.009-.135-.026l-6.452-2.5c-.069-.027-.128-.074-.17-.135-.041-.06-.063-.132-.063-.206 0-.073.022-.145.063-.206.042-.06.101-.107.17-.134l6.446-2.607c.09-.036.191-.036.281 0l6.451 2.607c.069.027.128.075.169.136.041.06.063.133.062.206 0 .073-.023.145-.065.205s-.102.108-.17.134l-6.451 2.5c-.043.017-.09.026-.136.026zm-5.452-2.875l5.452 2.114 5.452-2.114-5.452-2.201-5.452 2.201z"/>
            <path d="M52.264 33.117c-.099 0-.193-.039-.263-.107-.07-.07-.109-.163-.109-.26v-2.557c.005-.095.046-.183.115-.248.07-.065.161-.101.256-.101.096 0 .187.036.256.1.07.066.11.154.116.249v2.557c0 .097-.04.19-.109.26-.07.068-.164.107-.262.108zM52.21 43.33c-.098 0-.193-.04-.262-.109-.07-.069-.109-.162-.109-.26V36.58c-.002-.05.005-.1.023-.147.017-.047.044-.09.08-.126.034-.036.076-.065.122-.085.046-.02.096-.03.147-.03.05 0 .1.01.146.03.047.02.089.049.123.085.035.036.062.08.08.126.017.047.025.097.022.147v6.382c0 .048-.01.096-.028.14-.019.045-.046.085-.08.12-.035.034-.076.06-.121.08-.046.018-.094.027-.143.027zM62.531 50.35c-.098 0-.193-.038-.262-.107-.07-.07-.109-.163-.109-.26v-4.048h-3.499c-.05.002-.1-.005-.148-.022-.047-.018-.09-.044-.127-.079-.037-.034-.066-.076-.086-.121-.02-.046-.03-.096-.03-.145 0-.05.01-.1.03-.146.02-.045.05-.087.086-.121.036-.035.08-.061.127-.079.047-.017.098-.024.148-.022h3.87c.049 0 .097.01.143.028.045.018.086.045.12.08.035.034.062.074.08.12.02.044.03.092.029.14v4.415c0 .098-.04.191-.109.26-.07.07-.164.108-.263.108zM62.532 57.374c-.05 0-.098-.01-.143-.028-.045-.018-.086-.045-.12-.08-.035-.034-.062-.074-.08-.119-.019-.045-.029-.092-.028-.14v-3.194c-.003-.05.005-.1.022-.147.018-.046.045-.09.08-.125.034-.037.076-.065.122-.085.047-.02.096-.03.147-.03.05 0 .1.01.147.03.046.02.088.048.123.085.034.036.061.079.079.125.017.047.025.097.022.147v3.19c0 .049-.008.097-.027.142-.018.045-.046.086-.08.12-.035.035-.076.063-.121.081-.046.019-.094.028-.143.028zM46.404 54.817c-.05 0-.098-.01-.143-.028-.045-.018-.086-.045-.12-.08-.035-.034-.063-.074-.081-.119-.019-.045-.028-.093-.028-.141v-3.19c0-.048.01-.096.028-.14.018-.045.046-.086.08-.12.035-.034.076-.061.121-.08.045-.018.094-.027.142-.027h5.435v-2.824c-.002-.05.005-.1.023-.146.018-.047.044-.09.08-.126.034-.036.076-.065.122-.085.046-.02.096-.03.147-.03.05 0 .1.01.146.03.047.02.089.049.123.085.035.036.062.079.08.126.017.046.025.096.022.146v3.192c0 .048-.01.096-.028.14-.019.045-.046.085-.08.12-.035.033-.076.06-.122.079-.045.018-.093.028-.142.027h-5.435v2.824c0 .097-.039.19-.108.26-.07.068-.164.107-.262.107z"/>
            <path d="M46.403 61.2h-9.032c-.099 0-.193-.039-.262-.108-.07-.068-.109-.162-.109-.259V39.77c0-.097.04-.19.109-.26.07-.068.163-.107.262-.107h14.84c.05-.002.1.005.147.023.048.017.09.044.127.078.037.034.066.076.086.121.02.046.03.096.03.146 0 .05-.01.099-.03.145-.02.046-.05.087-.086.121-.036.035-.08.061-.127.079-.047.017-.097.025-.148.022H37.743v20.328h8.289V58.28c-.003-.05.005-.1.022-.147.018-.046.045-.09.08-.125.034-.037.076-.065.122-.085.047-.02.096-.03.147-.03.05 0 .1.01.147.03.046.02.088.048.123.085.034.036.061.079.079.125.017.047.025.097.022.147v2.557c0 .097-.04.189-.11.257s-.163.106-.26.106z"/>
        </g>
    </g>
    <defs>
        <clipPath id="prefix__clip0">
            <path fill="#fff" d="M0 0H88V89H0z" transform="rotate(88.581 44.487 46.025)"/>
        </clipPath>
        <clipPath id="prefix__clip1">
            <path fill="#fff" d="M0 0H33V35.2H0z" transform="translate(37 26)"/>
        </clipPath>
    </defs>
</svg>
