<svg xmlns="http://www.w3.org/2000/svg" width="50" height="50" fill="none" viewBox="0 0 50 50">
    <path fill="#FFB881" fill-rule="evenodd" d="M41.938 17.02c3.02.897 5.333 3.46 5.854 6.605.083.438.125.896.125 1.375 0 .48-.042.938-.125 1.375-.521 3.167-2.834 5.708-5.834 6.604-1.083 2.292-2.645 4.354-4.52 6.021-3.313 2.958-7.667 4.75-12.438 4.75-4.77 0-9.125-1.792-12.416-4.75-1.875-1.667-3.438-3.708-4.521-6.02-3.021-.897-5.334-3.46-5.855-6.605-.083-.438-.125-.896-.125-1.375 0-.48.042-.938.125-1.375.521-3.167 2.834-5.708 5.855-6.604 1.083-2.313 2.646-4.375 4.562-6.063C15.917 8.021 20.25 6.25 25 6.25s9.084 1.77 12.375 4.708c1.896 1.688 3.459 3.73 4.563 6.063zm-22.146 2.25c-1.438 0-2.604 1.167-2.604 2.605s1.166 2.604 2.604 2.604c1.438 0 2.604-1.166 2.604-2.604 0-1.438-1.166-2.604-2.604-2.604zm10.416 0c-1.438 0-2.604 1.167-2.604 2.605s1.166 2.604 2.605 2.604c1.438 0 2.604-1.166 2.604-2.604 0-1.438-1.166-2.604-2.605-2.604zm9.376 9.897c-.136 0-.264-.018-.393-.036-.07-.01-.14-.02-.212-.027-.416 1.396-1.02 2.688-1.791 3.875-2.605 3.98-7.084 6.604-12.188 6.604-5.104 0-9.583-2.625-12.187-6.604-.771-1.187-1.375-2.479-1.792-3.875-.072.007-.142.017-.211.027-.13.018-.257.036-.393.036-2.292 0-4.167-1.875-4.167-4.167s1.875-4.167 4.167-4.167c.136 0 .263.018.393.036.069.01.139.02.211.027.417-1.396 1.02-2.688 1.792-3.875 2.604-3.98 7.083-6.604 12.187-6.604 5.104 0 9.584 2.625 12.188 6.604.77 1.187 1.375 2.479 1.791 3.875.073-.007.143-.017.212-.027.13-.018.257-.036.392-.036 2.292 0 4.167 1.875 4.167 4.167s-1.875 4.167-4.166 4.167zm-5.209 0c-1.583 3.687-5.187 6.25-9.375 6.25-4.187 0-7.791-2.563-9.375-6.25h18.75z" clip-rule="evenodd"/>
</svg>
