<svg xmlns="http://www.w3.org/2000/svg" fill="none" viewBox="0 0 592 442">
    <g clip-path="url(#prefix__clip0)">
        <g clip-path="url(#prefix__clip1)">
            <path fill="#292929" d="M306.1 136.932c-1.044 1.027-1.898 2.307-3.202 2.971-1.117.565-2.455.608-3.62 1.077-1.166.47-2.216 1.666-1.823 2.954.183.609.664 1.111.846 1.72.525 1.717-1.323 2.891-2.395 4.184-.598.772-.98 1.689-1.107 2.657s.006 1.953.386 2.853c.55 1.339 1.618 2.696 1.256 4.029-.302 1.053-1.438 1.731-1.421 2.849.017 1.64 2.332 2.311 3.059 3.824.504 1.072.093 2.267.017 3.44-.036 1.098.22 2.185.742 3.151.522.966 1.292 1.775 2.23 2.346 1.007.584 2.193.883 2.986 1.757 1.05 1.132 1.122 2.939 2.314 3.913 2.436 1.997 4.435-.852 7.013-1.624 3.242-.98 7.628 1.501 9.951-.945.542-.573.923-1.398 1.676-1.581.753-.182 1.656.289 2.457.155 1.509-.254 1.842-2.399 2.882-3.392.297-.181.603-.345.918-.492 7.698-4.443 11.929-12.155 9.755-19.45-1.807-6.014-7.576-10.334-14.718-11.832-.032-.078-.039-.149-.078-.229-.929-1.771-2.489-3.128-4.372-3.803-3.414-1.439-5.73 1.009-8.727.246-1.136-.326-1.93-1.488-3.038-1.936-1.425-.684-2.944.131-3.987 1.158z"/>
            <path fill="#292929" d="M363.15 139.86c.4-4.007-3.931-4.906-6.218-10.611-1.268-3.174-7.039-4.829-7.039-4.829-5.102-2.068-19.878-6.58-26.807 13.22l1.588 20.578c2.335 1.109 4.898 1.65 7.482 1.582 2.584-.068 5.115-.745 7.388-1.975 1.53-.79 3.129-1.436 4.778-1.928 1.801-.576 5.638-1.88 7.73-4.193 1.389-1.539 4.824-2.568 6.459-3.837 2.176-1.719 4.349-5.149 4.639-8.007z"/>
            <path fill="#FFB288" d="M391.808 358.74c.003-.018.008-.035.014-.051l-.014.051z"/>
            <path fill="#E2B393" d="M442.216 148.724c.78-.924-.004-.825.007-1.798-.017-.674-.224-1.329-.599-1.889-.792-1.383-1.816-2.62-3.025-3.657-1.106-.936-2.658-1.683-4.513-.676-1.791 1.093-3.151 2.771-3.849 4.75-1.38 3.589-1.596 4.296-1.163 7.313.55 3.785 3.79 4.392 7.806 1.098 1.951-1.525 3.739-3.248 5.336-5.141z"/>
            <path fill="#E2B393" d="M435.139 142.71l7.895-6.304c.262-.212.442-.508.51-.837.068-.33.02-.673-.135-.972-.076-.132-.179-.246-.304-.333-.124-.088-.267-.146-.417-.171-.15-.026-.304-.017-.45.025-.146.041-.282.115-.396.215l-7.895 6.304c-.259.213-.438.509-.506.838-.068.33-.022.672.132.971.074.134.177.248.302.336.124.088.267.147.418.173.15.025.304.016.451-.026.146-.043.281-.117.395-.219zM437.544 144.89l7.895-6.303c.261-.212.442-.508.51-.838.068-.33.02-.673-.136-.972-.074-.133-.177-.248-.302-.336-.124-.088-.267-.147-.417-.172-.151-.025-.305-.016-.452.026-.146.042-.281.117-.395.219l-7.895 6.303c-.261.212-.442.508-.51.838-.068.33-.02.673.136.972.074.133.177.248.302.336.124.088.267.147.417.172.151.025.305.016.452-.026.146-.042.281-.117.395-.219zM438.193 148.594l7.895-6.303c.259-.214.438-.51.506-.839.068-.329.022-.672-.132-.971-.075-.13-.179-.242-.303-.329-.123-.086-.265-.144-.413-.169-.149-.026-.301-.018-.447.021-.145.04-.28.111-.395.209l-7.895 6.303c-.259.214-.438.51-.506.839-.068.329-.022.672.132.971.074.131.177.244.301.331.124.087.265.145.414.171.149.026.302.018.448-.022.145-.041.28-.113.395-.212zM437.666 152.874l7.891-6.29c.26-.214.439-.51.507-.839.068-.329.022-.672-.132-.971-.075-.133-.178-.248-.303-.336-.126-.089-.269-.148-.42-.173-.151-.026-.305-.017-.452.025-.147.043-.283.117-.398.219l-7.893 6.297c-.26.214-.439.511-.508.841-.068.331-.022.674.132.975.076.133.18.247.306.335.126.087.27.145.422.169.151.024.306.014.453-.029.146-.044.282-.12.395-.223z"/>
            <path fill="#E2B393" d="M433.479 136.401c.342.073.641.28.831.574.191.294.256.652.182.994l-.986 7.275c-.018.37-.177.72-.443.978-.267.258-.622.405-.993.41-.342-.075-.64-.283-.828-.578-.189-.295-.252-.653-.177-.995l.98-7.276c.02-.369.179-.717.445-.974.266-.256.619-.402.989-.408zM115.627 332.855c-1.623.386-12.581 3.262-14.194 3.734-3.318.959-10.304 2.391-12.143 4.227-3.257 3.188-9.885 9.532-7 8.985 5.673-1.122 28.863-2.592 36.099-3.389l-2.762-13.557z"/>
            <path fill="#A2C7CC" d="M93.248 339.209c.094.266.1.554.018.823-7.162-1.044-14.452 4.471-14.858 12.091l-4.967 2.945c-4.426 2.64-7.092-1.91-3.579-6.11l13.367-15.995c.639-.765 1.594-.958 1.99-.398l8.03 6.644z"/>
            <path fill="#E2B393" d="M93.287 339.22c.634 2.292-1.43 4.867-2.118 5.274l-12.767 7.627c.412-7.618 7.73-13.949 14.885-12.901zM73.13 253.111c-1.664-.092-12.988-.447-14.667-.462-3.431-.015-10.533-.622-12.84.598-4.065 2.146-12.76 5.012-9.84 5.3 5.747.562 28.971 7.071 36.15 8.346l1.196-13.782z"/>
            <path fill="#A2C7CC" d="M51.046 252.687c-.006.284-.109.557-.291.775-6.268-3.611-15.079-1.157-18.25 5.759l-5.686.946c-5.09.835-5.897-4.377-1.085-6.996l18.314-9.959c.872-.478 1.833-.306 1.997.366l5.001 9.109z"/>
            <path fill="#E2B393" d="M51.08 252.71c-.259 2.365-3.118 3.998-3.93 4.122l-14.676 2.401c3.195-6.902 12.337-10.128 18.606-6.523z"/>
            <path fill="#212353" d="M248.672 255.639l-32.782-8.542c-3.895 5.795-7.387 11.073-9.535 14.586-2.007 3.286-4.805 13.786-7.058 16.898-5.575 7.703-8.985 10.01-14.632 17.652-2.738 3.701-6.593 12.063-10.694 17.908-8.073 11.502-8.908 22.296-.911 28.691 7.524 6.012 19.688 2.98 28.129-7.048 12.499-14.836 40.765-51.518 54.481-67.915 5.024-5.972-.579-7.854-6.998-12.23z"/>
            <path fill="#212353" d="M198.944 324.518c-2.396-7.695-9.634-12.381-16.965-11.014-5.737 1.103-38.313 9.02-55.904 13.463-5.326 1.345-9.289 2.373-10.707 2.79l-.292.082c-1.191.345-2.611.625-3.388 1.584-1.415 1.772-1.932 3.286-1.193 5.669l3.561 11.54c.506 1.392 1.464 2.573 2.721 3.355 1.257.782 2.741 1.118 4.212.956l.817-.117c2.093-.279 6.316-.703 11.629-1.213 16.955-1.624 45.015-4.096 50.753-5.274.731-.154 2.133-.467 3.855-.866 8.687-2.023 13.762-11.766 10.901-20.955zM153.235 269.363c-.012-8.055-5.473-14.719-12.889-15.595-5.796-.68-39.255-2.862-57.371-3.893-5.488-.317-9.571-.526-11.048-.551l-.306-.012c-1.23-.044-2.688-.208-3.703.504-1.887 1.26-2.797 2.565-2.825 5.058l-.052 12.063c.056 1.479.61 2.896 1.572 4.02.963 1.124 2.277 1.89 3.73 2.172l.812.137c2.08.363 6.24 1.219 11.46 2.325 16.653 3.525 44.172 9.575 49.987 10.164.76.08 2.176.198 3.938.332 8.909.679 16.672-7.105 16.695-16.724z"/>
            <path fill="#212353" d="M251.438 257.374l-39.281-36.095c-6.48 2.615-12.329 5.019-16.08 6.719-3.507 1.591-11.716 8.704-15.333 10.031-8.942 3.248-13.201 2.239-22.158 5.394-4.334 1.505-10.746 3.933-17.415 6.466-13.112 4.993-21.229 16.79-18.2 26.57 2.857 9.201 14.617 13.522 27.256 9.987 23.247-6.532 79.889-22.401 101.211-29.072z"/>
            <path fill="#E2B393" d="M434.948 146.18c-20.318 10.958-37.263 19.351-55.282 27.465-.237.11 4.195 4.995 5.477 8.908.153.466.405.894.739 1.255.333.36.74.644 1.193.833.454.189.942.277 1.433.26.491-.017.972-.14 1.41-.36 2.716-1.372 3.714-2.48 10.406-6.793 15.63-10.062 29.208-18.357 36.386-24.605l-1.762-6.963z"/>
            <path fill="#E2B393" d="M387.501 173.755c-1.107-.306-2.25-.462-3.398-.466-19.869 1.221-64.177 6.206-68.894 12.473-1.197 1.587-3.165 7.467 1.267 11.466 5.814 5.24 61.34-7.549 73.723-12.998.369-.206.687-.494.928-.84 2.582-3.348.561-8.544-3.626-9.635z"/>
            <path fill="#FF6F00" d="M258.786 195.215c-29.779 21.237-55.593 19.276-56.94 30.706l-.15.644c-.297 2.498 1.681 6.116 2.721 8.05 11.494 21.393 33.977 31.158 50.65 32.291-9.555-23.344-9.08-50.587 3.719-71.691z"/>
            <path fill="#FF6F00" d="M255.057 266.89l.74.054c5.799.289.386-8.292 4.795-11.136 23.04-14.891 9.369-13.507 44.909-32.144 27.868-14.619 34.578-17.414 36.026-36.264-.556-11.599-14.942-18.596-28.47-22.475-19.572-5.613-28.654 7.585-40.44 18.832-4.33 4.142-8.952 7.969-13.83 11.451-12.8 21.111-13.275 48.354-3.73 71.682z"/>
            <path fill="#E2B393" d="M189.944 206.569c22.271-6.145 38.641-10.905 58.03-14.812.255-.05-.987-5.449-1.383-9.555-.045-.489-.195-.963-.44-1.389-.245-.426-.579-.794-.979-1.079-.4-.285-.858-.48-1.34-.572-.483-.092-.98-.079-1.457.038-2.958.732-4.167 1.595-11.657 4.304-17.48 6.331-35.449 13.05-43.833 17.537l3.059 5.528z"/>
            <path fill="#E2B393" d="M241.272 191.457c.982.307 2.002.475 3.031.498 17.349-.913 40.475-1.921 53.257-6.026 1.643-.532 9.891-6.7 3.832-16.311-4.075-6.466-9.844-3.791-19.469-.774-2.927.913-33.685 7.256-44.091 12.399-.305.207-.556.484-.733.807-1.879 3.199.432 8.293 4.173 9.407zM184.98 199.876c-.987.652-1.81 1.523-2.406 2.546-.269.652-.35 1.366-.234 2.062.182 1.662.647 3.28 1.376 4.785.647 1.361 1.818 2.741 4.02 2.561 2.173-.283 4.184-1.305 5.694-2.894 2.841-2.841 3.859-3.875 4.7-6.952 1.093-3.809-.316-6.274-5.552-4.835-2.724.73-5.404 1.068-7.598 2.727z"/>
            <path fill="#E2B393" d="M187.548 209.461l-10.216 2.657c-.34.092-.638.299-.845.584-.207.286-.31.634-.292.986.015.159.065.313.147.451.082.137.194.255.328.343.134.089.285.146.444.168.159.022.32.008.473-.041l10.211-2.664c.341-.092.64-.298.847-.584.207-.286.309-.634.29-.987-.016-.158-.067-.311-.149-.447-.083-.136-.194-.252-.327-.339-.133-.088-.284-.144-.441-.166-.158-.022-.318-.009-.47.039zM186.159 206.349l-10.217 2.663c-.341.09-.641.296-.848.582-.208.286-.31.635-.289.988.016.158.067.311.149.447.083.136.194.252.327.34.133.087.284.144.441.166.158.022.318.008.47-.04l10.209-2.658c.341-.092.64-.298.847-.583.207-.286.31-.635.29-.987-.014-.158-.064-.311-.145-.448-.081-.136-.192-.253-.325-.341-.132-.088-.282-.145-.439-.167-.158-.023-.318-.009-.47.038zM187.142 202.543l-10.217 2.663c-.34.091-.637.297-.844.581-.207.285-.309.631-.292.982.015.16.065.314.148.452.082.137.194.254.327.343.134.088.286.146.444.167.159.022.32.008.473-.04l10.211-2.665c.341-.091.64-.297.847-.583.207-.286.309-.634.29-.987-.016-.158-.067-.311-.149-.447-.082-.136-.194-.252-.327-.339-.133-.088-.284-.145-.441-.167-.158-.021-.318-.008-.47.04zM189.459 198.68l-10.211 2.664c-.341.09-.64.294-.847.579-.207.285-.309.633-.289.985.014.159.064.313.146.45.081.138.193.255.326.343.133.089.284.146.442.168.159.022.32.007.472-.042l10.211-2.664c.341-.09.641-.296.848-.582.207-.286.309-.635.289-.988-.016-.158-.067-.311-.149-.447-.083-.136-.195-.252-.327-.34-.133-.087-.284-.144-.442-.166-.157-.022-.318-.008-.469.04z"/>
            <path fill="#E2B393" d="M186.451 216.189c-.153-.102-.283-.234-.382-.388-.099-.155-.164-.328-.193-.51-.028-.181-.018-.366.03-.544.047-.177.131-.342.246-.485l4.048-6.548c.176-.336.471-.595.828-.727.356-.131.748-.126 1.101.016.149.105.276.239.373.394.096.155.161.328.188.509.028.181.019.365-.026.542-.046.177-.126.343-.238.488l-4.074 6.541c-.173.332-.463.589-.814.72-.351.131-.738.129-1.087-.008z"/>
            <path fill="#212353" d="M360.83 145.365l-.312 2.741c.376-1.16.616-2.359.715-3.574.026-.329.043-.675.042-.984l-.397-.244c.038.687.022 1.376-.048 2.061z"/>
            <path fill="#E2B393" d="M360.829 145.365c.381-3.453-.626-6.914-2.798-9.624.128.409.145.846.05 1.264-.371.98-1.634.906-2.496.844-8.717-.363-14.323 4.137-16.538 6.807-1.826 2.224-2.973 4.953-4.852 7.121-1.061 1.225-2.336 2.247-3.764 3.015.462.809 1.218 1.407 2.111 1.671l-3.698 8.942-5.486 13.261c-.267.573-.296 1.23-.08 1.825.215.595.658 1.08 1.231 1.349l8.419 3.465c.596.209 1.251.176 1.823-.094.572-.269 1.015-.751 1.235-1.344l6.851-16.586c1.853.534 3.801.655 5.706.355 1.905-.299 3.722-1.013 5.322-2.089 1.6-1.077 2.945-2.491 3.94-4.143.995-1.652 1.616-3.502 1.82-5.419l.886-7.881.318-2.739zm-10.038 9.371l.045-.159c.086.226.247.416.457.536.21.121.455.164.694.124l1.466-.322c.303-.083.576-.25.788-.483.211-.233.352-.52.406-.83l.073.296c.133.457.08.948-.146 1.366-.227.419-.61.731-1.065.87l-1.466.321c-.852.168-1.535-.756-1.252-1.719zm8.16-5.217c-.089.812-.595 1.43-1.122 1.375-.527-.055-.886-.77-.798-1.603.088-.834.591-1.438 1.124-1.382l1.63.186-.888.7c.058.235.077.477.056.717l-.002.007zm-12.354-2.822l1.633.173-.888.7c.053.229.066.466.04.699-.084.821-.589 1.432-1.116 1.377-.527-.055-.894-.765-.797-1.603.096-.838.596-1.409 1.129-1.352l-.001.006z"/>
            <path fill="#212353" d="M347.366 143.73l3.207.459c.112.016.226.009.335-.019.11-.028.213-.077.303-.145.09-.068.166-.153.224-.25.057-.098.095-.205.111-.317.015-.112.009-.226-.019-.335-.028-.11-.078-.212-.146-.303-.068-.09-.153-.166-.25-.223-.097-.058-.205-.096-.317-.111l-3.201-.458c-.112-.021-.228-.018-.34.007-.112.025-.217.073-.31.14-.093.067-.171.152-.231.25-.059.098-.098.207-.114.32-.018.115-.013.231.016.343.028.112.079.217.149.309.07.091.157.168.257.225.101.058.211.094.326.108zM360.573 143.889l-2.492-.343c-.203.004-.397.086-.541.228-.144.143-.229.336-.235.539-.066.468.178.889.541.938l2.492.344c.204.002.402-.076.55-.217.148-.141.235-.334.244-.538.044-.468-.196-.901-.559-.951z"/>
            <path fill="#D1A282" d="M352.043 156.455l1.467-.321c.455-.139.838-.451 1.064-.87.227-.418.28-.909.147-1.366l-.073-.296c-.054.31-.195.597-.407.83-.211.233-.484.4-.787.483l-1.467.322c-.238.04-.483-.003-.693-.124-.21-.12-.372-.31-.457-.536l-.046.159c-.283.963.4 1.887 1.252 1.719z"/>
            <path fill="#212353" d="M345.477 148.066c-.091.819.251 1.521.798 1.603.546.081 1.031-.556 1.116-1.377.026-.234.012-.47-.04-.699l.887-.7-1.633-.173c-.539-.086-1.039.533-1.128 1.346zM358.184 147.931c-.533-.057-1.033.563-1.124 1.382-.091.819.251 1.521.798 1.602.546.082 1.033-.562 1.122-1.375.022-.234.006-.47-.046-.7l.888-.7-1.638-.209z"/>
            <path fill="#E2B393" d="M336.472 187.709c-1.862 2.538-6.784 2.095-10.966-.98-4.182-3.075-6.062-7.613-4.236-10.146 1.826-2.534 6.784-2.095 10.966.98 4.182 3.075 6.071 7.602 4.236 10.146z"/>
            <path fill="#FF6F00" d="M203.257 235.807c2.679 3.86 3.933 8.686 7.101 12.136 3.655 4.023 9.244 5.619 13.804 8.596 3.176 2.079 5.926 4.874 9.412 6.375 2.776 1.194 5.845 1.49 8.856 1.77 2.236.208 5.758 1.486 7.98 1.691.884.081.592-.937 1.281-1.495 1.187-.979.565-2.93-.386-4.143-2.416-3.098-6.178-4.809-9.761-6.379-6.223-2.712-12.503-5.372-18.289-8.914-2.272-1.279-4.316-2.926-6.049-4.874-1.743-1.972-2.663-4.538-2.569-7.168.128-1.667.732-3.534-.262-4.884-1.513-2.055-4.71-.897-6.513-2.514-1.93-1.728.813-6.692-2.99-5.027-6.946 2.996-4.357 10.856-1.615 14.83z"/>
            <path fill="#fff" d="M348.823 158.459c-.214.424-.26.914-.127 1.371.134.456.435.845.844 1.088.931.466 2.201-.056 2.835-1.166.125-.22.219-.457.278-.703l-3.83-.59z"/>
            <path fill="#FF6F00" d="M200.247 223.326c-1.502.902-3.052 2.162-3.224 3.885-.237 2.241 1.863 4.045 2.331 6.247.129 1.03.162 2.07.099 3.107.046 1.386.388 2.746 1.003 3.989.615 1.243 1.489 2.34 2.564 3.217 1.976 1.59 4.714 2.561 5.66 4.914.404.988.414 2.104.836 3.077.92 2.133 3.417 2.986 5.554 3.894 1.996.849 3.883 1.935 5.62 3.234.813.68 1.696 1.27 2.636 1.758.966.381 1.979.628 3.012.734 6.805 1.017 14.637 3.174 21.468 4.198-8.885-7.11-19.752-14.087-28.764-21.041-4.152-3.204-8.292-6.878-10.077-11.822-.963-2.653-1.451-5.912-3.939-7.251-.317-.129-.608-.315-.859-.548-.195-.285-.282-.63-.248-.973.034-.343.189-.663.436-.904.545-.586 1.447-.808 2.049-1.206-1.792-1.441-4.582.548-6.157 1.491z"/>
        </g>
        <path fill="#CAEAEA" d="M500.327 138.617l-.645 3.543c-.475 2.152-2.047 4.016-3.759 5.404-1.06.86-1.856 2-2.298 3.292-.442 1.291-.512 2.68-.201 4.009.311 1.329.989 2.544 1.958 3.505.969.962 2.189 1.632 3.52 1.933 1.332.302 2.721.223 4.01-.228 1.288-.451 2.424-1.254 3.277-2.32.853-1.065 1.388-2.349 1.546-3.705.157-1.355-.07-2.728-.656-3.96-.961-2.017-1.681-4.387-1.201-6.561l.924-3.489c.201-.746.668-1.392 1.314-1.815.646-.424 1.425-.595 2.19-.482l-11.975-2.645c.693.26 1.271.755 1.636 1.398.365.643.492 1.394.36 2.121zM460.382 64.225l-3.545-.645c-2.153-.476-4.018-2.047-5.406-3.759-.861-1.06-2.002-1.856-3.294-2.298-1.291-.442-2.681-.511-4.011-.2-1.329.31-2.544.987-3.506 1.956-.962.968-1.632 2.187-1.933 3.518-.302 1.331-.222 2.72.229 4.008.451 1.288 1.255 2.423 2.321 3.276 1.066.853 2.351 1.389 3.707 1.546 1.356.158 2.729-.07 3.962-.655 2.009-.96 4.381-1.68 6.563-1.199l3.49.925c.747.2 1.393.668 1.817 1.314.424.645.595 1.424.482 2.188l2.644-11.969c-.26.692-.755 1.27-1.398 1.635-.644.364-1.395.491-2.122.359z"/>
        <path fill="#CAEAEA" d="M581.27 28.434l-99.587-22c-5.598-1.237-11.138 2.296-12.374 7.892l-21.991 99.544c-1.236 5.595 2.3 11.134 7.898 12.371l99.587 22c5.598 1.237 11.138-2.297 12.374-7.892l21.991-99.544c1.236-5.596-2.3-11.134-7.898-12.371z"/>
        <path fill="#fff" d="M536.854 131.4l.679-3.074c2.85-12.899-5.752-25.84-19.103-28.79l-12.618-2.787c-12.45-2.75-24.802 4.832-27.459 16.86l-1.031 4.663c-.154.759-.158 1.542-.01 2.302.148.761.444 1.485.872 2.132.428.646.979 1.202 1.621 1.635.643.434 1.365.737 2.125.891l47.794 10.559c.757.181 1.542.211 2.31.089.768-.123 1.505-.396 2.168-.804.662-.408 1.237-.943 1.693-1.573.455-.631.781-1.346.959-2.103z"/>
        <path fill="#199FB2" d="M511.978 108.507c-.817-.18-1.589-.52-2.274-.999-.685-.48-1.269-1.09-1.717-1.795-.449-.706-.754-1.493-.897-2.316-.144-.823-.124-1.667.059-2.483l.432-1.954c-2.422.916-4.336 2.558-3.577 4.96 1.561 4.898.743 2.583 3.75 10.357.21.464.525.873.921 1.194.396.321.861.546 1.359.655.497.11 1.014.103 1.508-.022.494-.124.952-.362 1.338-.695 6.002-5.784 4.285-4.028 7.764-7.813 1.579-1.724.797-3.816-.768-5.598l-.377 1.706c-.368 1.629-1.364 3.048-2.773 3.947-1.408.899-3.114 1.207-4.748.856z"/>
        <path fill="#A33600" d="M541.466 56.84c.604-1.027.956-2.377.346-3.372-.61-.994-2.211-1.256-3.043-2.253-.653-.767-.756-1.864-1.132-2.807-.346-.864-.942-1.605-1.711-2.129-.769-.524-1.677-.807-2.608-.814-.988.02-2.059.351-2.907-.158-1.21-.713-1.495-2.864-2.891-2.942-.948-.056-1.673.966-2.606 1.19-1.185.29-2.208-.749-3.284-1.301-.766-.376-1.621-.531-2.47-.447-.849.083-1.658.402-2.335.92-1.236.933-2.468 2.58-3.868 2.033-.494-.194-.862-.651-1.349-.843-1.047-.408-2.203.511-2.749 1.558-.546 1.046-.748 2.276-1.369 3.275-.728 1.175-1.95 1.873-2.928 2.824-.978.95-1.886 2.278-1.567 3.615.242 1.029 1.142 1.788 1.275 2.854.31 2.77-2.067 4.802-1.273 7.988.252 1.11.756 2.15 1.472 3.035.347-.7.908-1.27 1.602-1.628.694-.357 1.485-.484 2.256-.36l.315.069.551-2.496c.156-.69.494-1.327.98-1.842.485-.515 1.1-.891 1.78-1.088l12.311-3.576c5.286-1.535 10.62 2.83 9.797 8.26l-.231 1.047-1.165 5.27c.535.424.943.987 1.177 1.628.859-.41 1.657-.825 1.908-1.683.213-.72-.116-1.56.17-2.265.286-.705.993-1.017 1.588-1.485 2.384-2.03.805-6.148 2.008-9.092.583-1.037 1.235-2.035 1.95-2.986z"/>
        <path fill="#D9ACA7" d="M518.956 73.728H524.419V76.76299999999999H518.956z" transform="rotate(12.457 518.956 73.728)"/>
        <path fill="#EAB5AD" d="M532.661 72.707l1.164-5.271.231-1.047c.824-5.43-4.511-9.795-9.796-8.26l-12.312 3.576c-.68.197-1.295.572-1.78 1.088-.485.515-.824 1.151-.979 1.841l-.552 2.497-.315-.07c-.771-.123-1.561.003-2.255.361s-1.256.928-1.602 1.628c-.251.442-.436.918-.551 1.414-.509 2.306.608 4.518 2.523 4.956.187.04.378.062.57.065-.092 1.828.183 3.655.808 5.376.625 1.72 1.588 3.298 2.832 4.641l-3.051 13.53-.432 1.955c-.308 1.617.025 3.291.929 4.669.903 1.377 2.306 2.35 3.913 2.713 1.607.363 3.292.087 4.7-.768 1.407-.855 2.427-2.224 2.844-3.817l.377-1.705 3.109-13.794c1.724-.696 3.29-1.734 4.603-3.051 1.312-1.317 2.345-2.886 3.035-4.613.841-.167 1.612-.584 2.211-1.197.599-.614.998-1.394 1.144-2.238.221-.92.168-1.886-.155-2.776-.231-.673-.653-1.264-1.213-1.703zm-14.506 9.302c-2.724-1.093-3.06-2.84-2.917-4.184l7.253 2.462c-.304 3.181-4.336 1.722-4.336 1.722zm3.256-5.215l-1.568.145c-.895.086-1.489-.944-1.117-1.898l.074-.16c.057.246.2.465.402.616.203.152.453.227.705.212l1.569-.145c.323-.052.624-.196.869-.414.244-.219.42-.502.509-.817l.038.315c.088.483-.019.981-.297 1.386-.278.405-.704.683-1.187.774l.003-.014zm-7.164-13.292l2.732.604c.193.082.352.229.449.416.096.186.124.401.079.606-.045.206-.161.389-.327.517-.167.13-.373.196-.583.188l-2.732-.603c-.193-.082-.352-.23-.449-.416-.096-.187-.124-.401-.079-.607.046-.205.161-.388.328-.517.166-.128.372-.195.582-.188zm1.277 2.877c.535.119.827.882.651 1.68-.177.798-.763 1.367-1.298 1.249-.534-.118-.827-.882-.65-1.68.176-.797.762-1.367 1.297-1.249zm12.658-1.042c.022-.207.124-.398.284-.532.16-.134.366-.2.574-.185l2.526.559c.18.092.324.241.411.424.086.183.109.39.065.587-.044.197-.151.374-.306.504-.156.13-.349.204-.551.212l-2.527-.558c-.195-.074-.354-.22-.443-.41-.089-.188-.1-.404-.033-.601zm-.582 5.246c.182-.828.762-1.367 1.297-1.25.535.119.827.882.651 1.68-.177.798-.763 1.367-1.298 1.249-.534-.118-.84-.823-.657-1.65l.007-.03z"/>
        <path fill="#842902" d="M528.233 65.52c-.064.214-.045.444.054.64.099.197.27.344.475.41l2.708.598c.209.005.414-.065.58-.198.166-.134.283-.323.33-.534.046-.211.02-.432-.074-.623s-.251-.341-.443-.424l-2.708-.598c-.214-.027-.43.034-.603.17-.173.137-.287.338-.319.559z"/>
        <path fill="#fff" d="M517.839 81.995s4.033 1.459 4.358-1.717l-7.253-2.462c-.165 1.337.171 3.085 2.895 4.178z"/>
        <path fill="#842902" d="M513.001 64.114c-.071.235-.047.49.068.707.115.217.311.38.546.455l3.095.684c.238.008.471-.067.66-.213.188-.146.319-.353.371-.586.051-.233.019-.476-.09-.688-.109-.211-.289-.378-.509-.47l-3.095-.684c-.244-.032-.49.033-.686.182-.196.15-.325.37-.36.613z"/>
        <path fill="#010616" d="M529.488 71.082c.222-1.005-.142-1.897-.793-2.04-.65-.144-1.364.546-1.578 1.516-.214.969.142 1.896.793 2.04.65.144 1.356-.512 1.578-1.516zM516.448 68.2c.222-1.004-.142-1.896-.793-2.04-.65-.143-1.364.548-1.578 1.517-.214.969.142 1.896.793 2.04.65.144 1.356-.512 1.578-1.516z"/>
    </g>
    <defs>
        <clipPath id="prefix__clip0">
            <path fill="#fff" d="M0 0H591.405V441.199H0z"/>
        </clipPath>
        <clipPath id="prefix__clip1">
            <path fill="#fff" d="M0 0H383V315.762H0z" transform="rotate(16.001 -70.651 325.693)"/>
        </clipPath>
    </defs>
</svg>
