<svg xmlns="http://www.w3.org/2000/svg" width="144" height="108" fill="none" viewBox="0 0 144 108">
    <path fill="#CBCBCB" d="M113.602 96.304h-7.819v-3.189h7.819c6.575 0 12.925-2.382 17.861-6.697 4.935-4.314 8.118-10.268 8.953-16.745.835-6.477-.736-13.034-4.418-18.445-3.683-5.41-9.224-9.302-15.587-10.947-.398-.103-.742-.353-.96-.699-.219-.346-.295-.762-.214-1.163.378-1.91.568-3.85.568-5.796-.069-7.426-2.96-14.552-8.093-19.952-5.134-5.4-12.132-8.674-19.594-9.168-7.46-.493-14.835 1.83-20.644 6.505-5.81 4.675-9.628 11.358-10.688 18.709-.035.263-.135.513-.291.728-.157.215-.364.388-.605.503-.24.116-.506.17-.772.159-.267-.012-.527-.09-.756-.225-3.765-2.244-8.075-3.425-12.466-3.415-6.48.008-12.692 2.568-17.274 7.118-4.582 4.55-7.16 10.72-7.167 17.154-.01 2.491.377 4.968 1.148 7.338.084.256.101.529.05.793-.051.265-.17.512-.343.718-.17.21-.393.371-.645.47-.252.099-.526.131-.795.094-.338-.04-.678-.06-1.018-.06-4.41 0-8.64 1.74-11.757 4.836-3.118 3.097-4.87 7.297-4.87 11.676 0 4.379 1.752 8.579 4.87 11.675 3.118 3.097 7.347 4.836 11.757 4.836h31.254v3.189H19.839c-5.18-.005-10.152-2.022-13.854-5.62-3.702-3.597-5.84-8.49-5.959-13.632-.117-5.142 1.795-10.127 5.328-13.888 3.533-3.76 8.408-6 13.582-6.24-.473-2.028-.71-4.103-.705-6.185-.002-4.656 1.188-9.237 3.46-13.31 2.27-4.074 5.548-7.507 9.523-9.977 3.974-2.47 8.516-3.896 13.199-4.143 4.682-.247 9.35.693 13.566 2.731 1.646-7.911 6.188-14.935 12.747-19.713C77.286 1.55 85.396-.64 93.49.177c8.093.82 15.592 4.59 21.046 10.584 5.455 5.994 8.476 13.783 8.481 21.862 0 1.661-.125 3.32-.374 4.964 6.9 2.144 12.799 6.672 16.628 12.763 3.828 6.09 5.333 13.342 4.242 20.44-1.091 7.098-4.707 13.574-10.191 18.252-5.485 4.68-12.476 7.252-19.706 7.254l-.013.008z"/>
    <path fill="#CBCBCB" fill-rule="evenodd" d="M79.123 68.133c.195.08.404.12.614.12.318.002.63-.09.894-.266.264-.174.471-.423.593-.714.122-.292.154-.612.092-.922-.062-.31-.215-.594-.44-.817L67.852 52.6c-.149-.148-.326-.266-.52-.346-.195-.08-.404-.122-.615-.122-.21 0-.42.042-.614.122-.195.08-.372.198-.52.346L52.557 65.534c-.16.146-.287.322-.375.519-.089.196-.136.408-.14.623-.005.215.035.428.116.628.081.199.202.38.355.532.153.152.336.271.537.351.2.08.416.12.632.115.217-.004.43-.052.627-.14.198-.089.375-.216.522-.374l10.277-10.21v37.535c.002.422.172.827.473 1.126.301.298.71.466 1.135.466.425 0 .833-.168 1.134-.467.3-.298.47-.703.47-1.125v-37.54l10.282 10.215c.148.148.325.265.52.345z" clip-rule="evenodd"/>
    <path fill="#CBCBCB" d="M91.472 96.705c-.21 0-.42-.04-.614-.12-.195-.08-.371-.198-.52-.345L77.312 83.305c-.159-.146-.287-.322-.375-.519-.089-.196-.136-.407-.14-.623-.005-.214.035-.428.116-.627.081-.2.202-.38.355-.533.153-.151.336-.271.537-.351.2-.08.416-.12.632-.115.217.005.43.052.627.14.198.09.375.216.522.374L91.472 92.86l11.886-11.808c.301-.299.709-.467 1.134-.467.426 0 .834.168 1.135.467.301.3.47.704.47 1.127 0 .423-.169.828-.47 1.127L92.607 96.24c-.15.148-.326.265-.52.345-.196.08-.404.121-.615.12z"/>
    <path fill="#CBCBCB" d="M91.472 96.705c-.425 0-.833-.168-1.133-.466-.301-.3-.47-.704-.47-1.126V53.727c.021-.409.2-.794.498-1.075.3-.282.695-.44 1.107-.44.412 0 .809.158 1.107.44.3.281.478.666.499 1.075v41.386c0 .21-.042.416-.123.61-.08.193-.199.37-.348.517-.15.148-.327.265-.522.345-.195.08-.404.12-.615.12z"/>
</svg>
