<svg xmlns="http://www.w3.org/2000/svg" width="116" height="116" fill="none" viewBox="0 0 116 116">
    <path fill="#CBCBCB" d="M45.693 41.794h.02c3.626 0 6.4-1.16 8.252-3.448 1.5-1.851 3.722-6.324 1.772-15.486-.115-.517-.344-1.002-.67-1.42-.326-.417-.741-.756-1.215-.993-.474-.236-.995-.364-1.524-.374-.53-.01-1.055.099-1.537.318-.042.015-.083.034-.123.054-.379.187-.799.275-1.22.255-.423-.02-.833-.147-1.192-.37-.36-.221-.657-.53-.864-.9-.207-.368-.317-.783-.32-1.205V8.433c.001-.235-.06-.465-.175-.67-.115-.203-.28-.374-.481-.495-.2-.121-.43-.188-.663-.195-.235-.007-.467.047-.674.157-.353.185-8.677 4.694-10.707 16.992-1.063 6.418-.324 11.176 2.19 14.14 2.91 3.42 7.244 3.432 9.131 3.432zm-8.639-17.14c1.226-7.42 4.95-11.622 7.3-13.593v7.155c.002.875.225 1.735.648 2.502.422.766 1.031 1.414 1.77 1.883.739.47 1.584.745 2.458.801.873.056 1.747-.108 2.54-.478.038-.012.076-.026.113-.041.113-.057.238-.087.365-.088.127-.002.253.025.368.08.115.053.216.133.296.232.08.098.136.214.165.338 1.715 8.05-.034 11.727-1.226 13.202-1.33 1.642-3.337 2.44-6.158 2.44h-.018c-1.613 0-4.946 0-7.042-2.481-1.973-2.338-2.505-6.355-1.579-11.952z"/>
    <path fill="#CBCBCB" d="M99.574 82.575h-23.92L74.67 52.79h2.492c.616 0 1.226-.12 1.796-.357.57-.235 1.087-.58 1.523-1.017.436-.435.782-.953 1.018-1.522.236-.57.357-1.18.357-1.796v-.603c0-.616-.121-1.226-.357-1.796-.236-.57-.582-1.087-1.018-1.522-.436-.436-.954-.782-1.523-1.017-.57-.236-1.18-.357-1.796-.357H75.11l6.235-18.707c.209-.626.262-1.294.156-1.945-.106-.652-.369-1.268-.766-1.796L72.87 9.89c-.38-.503-.873-.912-1.438-1.195-.565-.282-1.188-.43-1.82-.431-.632.003-1.256.152-1.821.436-.566.283-1.058.694-1.439 1.2l-7.823 10.46c-.393.526-.654 1.14-.76 1.788-.105.649-.052 1.313.155 1.937l6.21 18.716h-2.102c-.617 0-1.227.12-1.797.356-.57.235-1.087.581-1.523 1.017-.435.436-.781.953-1.017 1.523-.235.57-.356 1.18-.356 1.796v.603c0 .616.12 1.227.356 1.797.235.57.58 1.087 1.017 1.523.435.436.953.782 1.523 1.018s1.18.357 1.797.356h2.578l-1.024 29.788H51.078l2.266-38.436c.014-.23-.032-.459-.13-.666-.1-.207-.25-.386-.437-.52-.188-.133-.406-.217-.634-.244-.229-.026-.46.006-.672.093l-1.097.453c-3.6 1.481-7.64 1.481-11.24 0l-1.133-.453c-.212-.086-.443-.117-.671-.09-.228.027-.446.11-.632.245-.187.133-.337.312-.436.52-.099.206-.143.435-.13.664l2.266 38.437H16.199c-1.802 0-3.531.716-4.806 1.99-1.275 1.275-1.99 3.004-1.99 4.807v14.5c0 .892.175 1.776.517 2.601.341.824.842 1.574 1.473 2.205.631.631 1.38 1.132 2.205 1.473.825.342 1.709.517 2.601.517h83.375c.893 0 1.777-.175 2.601-.517.825-.341 1.574-.842 2.205-1.473.631-.631 1.132-1.381 1.474-2.205.341-.825.517-1.709.517-2.601v-14.5c.001-.893-.175-1.778-.516-2.603-.341-.825-.842-1.575-1.473-2.206-.631-.632-1.381-1.133-2.206-1.475-.825-.342-1.709-.518-2.602-.518zM69.627 27.344c.269 0 .532.08.755.229.224.15.398.362.501.61.103.248.13.522.077.785-.052.264-.181.506-.372.696-.19.19-.432.32-.696.372-.263.053-.537.026-.785-.077s-.46-.277-.61-.5c-.15-.224-.23-.487-.23-.756 0-.36.144-.706.399-.961s.6-.398.961-.398zm-8.922-5.367l7.538-10.087v12.973c-.905.327-1.665.963-2.146 1.796-.482.833-.653 1.809-.484 2.756.17.947.668 1.804 1.407 2.42.74.614 1.673.948 2.635.942.962-.007 1.89-.353 2.622-.978.731-.625 1.218-1.488 1.375-2.438.156-.949-.028-1.923-.52-2.75-.493-.826-1.261-1.452-2.17-1.766V11.876l7.61 10.1c.132.177.22.382.256.6.035.217.017.44-.052.649l-6.493 19.484-5.29.073-6.49-19.56c-.07-.208-.087-.43-.052-.647.035-.217.122-.423.254-.598zm-.07 27.504c-.184-.182-.33-.4-.43-.64-.099-.24-.149-.496-.148-.755v-.603c0-.523.208-1.025.578-1.395.37-.37.872-.578 1.396-.578h15.14c.26 0 .517.05.757.15.24.098.457.244.64.427.184.183.33.4.429.64.1.24.15.497.15.756v.603c0 .259-.05.516-.15.755-.1.24-.245.457-.428.64-.184.184-.402.33-.641.428-.24.1-.497.15-.756.15H62.03c-.26.002-.516-.047-.755-.145-.24-.097-.458-.241-.641-.424v-.009zm11.317 3.308l1.565 47.494c.018.525-.07 1.048-.258 1.538-.189.49-.474.937-.839 1.315-.365.377-.802.677-1.285.882-.484.206-1.003.311-1.528.311-.525 0-1.045-.105-1.528-.311-.484-.205-.92-.505-1.286-.882-.365-.378-.65-.825-.838-1.315-.189-.49-.276-1.013-.259-1.538l1.634-47.494h4.622zM50.5 46.108l-3.288 55.877c-.059.617-.346 1.19-.804 1.607-.459.417-1.057.648-1.676.648-.62 0-1.218-.231-1.677-.648-.458-.417-.745-.99-.804-1.607l-3.283-55.88c3.732 1.308 7.799 1.31 11.532.003zm53.151 57.773c0 1.082-.429 2.119-1.194 2.884-.765.765-1.802 1.194-2.884 1.194H16.2c-1.081 0-2.119-.429-2.884-1.194-.764-.765-1.194-1.802-1.194-2.884v-14.5c0-1.082.43-2.119 1.194-2.883.765-.765 1.803-1.195 2.884-1.195h4.078v5.89c0 .361.144.707.398.962.255.255.601.398.962.398.36 0 .706-.143.96-.398.256-.255.4-.6.4-.961v-5.891h4.832v13.14c0 .361.143.707.398.962s.6.398.961.398c.36 0 .706-.143.961-.398s.398-.6.398-.961V85.303h4.23v5.89c0 .361.144.707.398.962.255.255.601.398.962.398.36 0 .706-.143.96-.398.256-.255.4-.6.4-.961v-5.891h1.048l.992 16.852c.103 1.307.694 2.528 1.657 3.419.963.891 2.227 1.385 3.538 1.385 1.312 0 2.576-.494 3.539-1.385.963-.891 1.554-2.112 1.657-3.419l.99-16.852h12.574l-.508 14.885c-.028.888.122 1.773.443 2.602.32.829.804 1.586 1.422 2.224.618.638 1.358 1.146 2.177 1.493.818.346 1.698.525 2.587.525.888 0 1.768-.179 2.586-.525.819-.347 1.559-.855 2.177-1.493.618-.638 1.102-1.395 1.422-2.224.32-.829.471-1.714.442-2.602l-.491-14.896h2.916v13.14c0 .36.143.707.398.962.255.254.6.398.961.398.36 0 .706-.144.961-.398.255-.255.398-.601.398-.962v-13.14h4.23v5.89c0 .36.144.707.399.962.254.254.6.398.96.398.361 0 .707-.144.962-.398.255-.255.398-.601.398-.962v-5.89h4.833v13.14c0 .36.143.707.398.962.255.254.6.398.961.398.36 0 .706-.144.961-.398.255-.255.398-.601.398-.962v-13.14h3.691c1.082 0 2.119.43 2.884 1.194.765.765 1.194 1.802 1.194 2.884v14.511z"/>
</svg>
