<svg xmlns="http://www.w3.org/2000/svg" width="115" height="98" fill="none" viewBox="0 0 115 98">
    <g fill="#CBCBCB" clip-path="url(#prefix__clip0)">
        <path d="M109.505 81.418H5.495c-1.457-.002-2.853-.58-3.883-1.606C.582 78.786.002 77.394 0 75.943V5.457C.007 4.01.588 2.622 1.618 1.6 2.648.577 4.04.002 5.495 0h104.01c1.457 0 2.854.578 3.884 1.605 1.031 1.026 1.61 2.418 1.611 3.87v70.486c-.006 1.448-.587 2.836-1.617 3.859-1.03 1.022-2.424 1.597-3.878 1.598zM5.495 2.66c-.749.001-1.467.298-1.997.826s-.828 1.244-.829 1.99v70.486c.001.746.299 1.462.829 1.99s1.248.825 1.997.826h104.01c.749 0 1.468-.297 1.998-.825s.828-1.244.828-1.991V5.475c0-.37-.073-.736-.215-1.077-.142-.342-.35-.653-.613-.914-.262-.261-.574-.469-.917-.61-.343-.142-.71-.215-1.081-.215H5.495z"/>
        <path d="M113.667 71.055H1.337c-.182.01-.363-.018-.533-.08-.17-.063-.325-.16-.457-.284-.131-.124-.236-.274-.308-.44-.071-.166-.108-.345-.108-.525 0-.181.037-.36.108-.526.072-.166.177-.315.308-.44.132-.124.287-.22.457-.283.17-.063.351-.09.532-.08h112.331c.342.017.664.164.9.412.236.247.367.576.367.917 0 .34-.131.67-.367.916-.236.248-.558.396-.9.413zM24.218 10.363h-12.48v2.659h12.48v-2.66zM24.221 18.654H17.98v2.659h6.242v-2.66zM24.221 26.945H17.98v2.66h6.242v-2.66zM24.218 37.308h-12.48v2.659h12.48v-2.66zM24.221 45.598H17.98v2.66h6.242v-2.66zM24.221 53.886H17.98v2.66h6.242v-2.66zM82.464 98H32.54c-.18.01-.362-.018-.532-.08-.17-.063-.326-.16-.457-.284-.131-.124-.236-.274-.308-.44-.071-.166-.108-.345-.108-.525 0-.181.037-.36.108-.526.072-.166.177-.316.308-.44s.287-.22.457-.283c.17-.063.351-.09.532-.081h49.925c.342.018.665.165.9.413.236.247.368.575.368.916 0 .342-.132.67-.368.917-.235.248-.558.395-.9.413z"/>
        <path d="M72.064 98c-.298 0-.587-.1-.821-.282-.235-.182-.401-.438-.473-.725L66.608 80.41c-.072-.338-.01-.69.173-.982.183-.292.473-.502.808-.586.336-.084.69-.035.99.136.3.172.522.453.619.784l4.159 16.585c.043.17.052.345.026.517-.025.173-.085.339-.175.488-.09.15-.209.28-.35.384-.14.103-.3.178-.47.22-.106.028-.215.043-.325.043zM42.94 98c-.11 0-.219-.015-.325-.043-.17-.041-.33-.116-.471-.22-.14-.103-.26-.233-.35-.383-.09-.15-.15-.316-.175-.488-.025-.173-.016-.349.028-.518l4.159-16.585c.096-.331.318-.612.618-.784.3-.171.655-.22.99-.136.336.084.625.294.808.586.184.293.246.644.174.982l-4.163 16.582c-.072.287-.238.542-.473.725-.234.182-.523.281-.82.282zM31.792 7.547h-2.669v53.886h2.67V7.547zM44.076 22.997l-6.238-6.22c-.124-.122-.223-.269-.29-.43-.068-.161-.103-.334-.103-.51 0-.174.035-.347.102-.508.068-.161.167-.308.29-.43l6.24-6.22 1.886 1.883-5.295 5.276 5.295 5.276-1.887 1.883zM44.076 47.866l-6.238-6.215c-.124-.124-.223-.27-.29-.432-.067-.16-.101-.334-.101-.508 0-.175.034-.348.101-.509.067-.161.166-.308.29-.431l6.238-6.216 1.887 1.88-5.295 5.276 5.295 5.28-1.887 1.875zM66.765 22.997l-1.887-1.883 5.299-5.276-5.299-5.276 1.887-1.883 6.242 6.22c.25.249.39.587.39.939s-.14.69-.39.94l-6.242 6.219zM61.663 14.51h-12.48v2.66h12.48v-2.66zM47.103 26.945H38.78v2.66h8.322v-2.66zM94.945 26.945h-14.56v2.66h14.56v-2.66zM72.064 26.945H55.42v2.66h16.643v-2.66zM58.472 33.75L50.15 46.189l2.22 1.475 8.322-12.437-2.22-1.475zM57.5 51.814h-4.159v2.66H57.5v-2.66zM94.945 51.814h-12.48v2.66h12.48v-2.66zM78.305 51.814H61.662v2.66h16.643v-2.66zM74.143 60.105H53.341v2.66h20.802v-2.66z"/>
    </g>
    <defs>
        <clipPath id="prefix__clip0">
            <path fill="#fff" d="M0 0H115V98H0z"/>
        </clipPath>
    </defs>
</svg>
