<svg xmlns="http://www.w3.org/2000/svg"  fill="none" viewBox="0 0 40 40">
    <path fill="#CBCBCB" fill-rule="evenodd" d="M26.667 5c-5.05 0-9.167 4.117-9.167 9.167s4.117 9.166 9.167 9.166 9.166-4.116 9.166-9.166c0-5.05-4.116-9.167-9.166-9.167zm-22.5 18.333c0-3.683 2.983-6.666 6.666-6.666 3.684 0 6.667 2.983 6.667 6.666 0 3.684-2.983 6.667-6.667 6.667-3.683 0-6.666-2.983-6.666-6.667zm3.333 0c0 1.834 1.5 3.334 3.333 3.334 1.834 0 3.334-1.5 3.334-3.334 0-1.833-1.5-3.333-3.334-3.333C9 20 7.5 21.5 7.5 23.333zM24.183 25c-2.75 0-5 2.25-5 5s2.25 5 5 5 5-2.25 5-5-2.25-5-5-5zm-1.666 5c0 .917.75 1.667 1.666 1.667.917 0 1.667-.75 1.667-1.667s-.75-1.667-1.667-1.667c-.916 0-1.666.75-1.666 1.667zm-1.684-15.833c0 3.216 2.617 5.833 5.834 5.833 3.216 0 5.833-2.617 5.833-5.833 0-3.217-2.617-5.834-5.833-5.834-3.217 0-5.834 2.617-5.834 5.834z" clip-rule="evenodd"/>
</svg>
