<svg xmlns="http://www.w3.org/2000/svg" fill="none" viewBox="0 0 40 40">
    <path fill="#CBCBCB" fill-rule="evenodd" d="M20 3.333C10.8 3.333 3.333 10.8 3.333 20c0 9.2 7.467 16.667 16.667 16.667 9.2 0 16.667-7.467 16.667-16.667C36.667 10.8 29.2 3.333 20 3.333zm0 30C12.65 33.333 6.667 27.35 6.667 20 6.667 12.65 12.65 6.667 20 6.667c7.35 0 13.333 5.983 13.333 13.333 0 7.35-5.983 13.333-13.333 13.333zm-3.383-17.55c0 1.217.95 2.034 3.9 2.784 2.933.766 6.083 2.033 6.1 5.7-.017 2.683-2.017 4.133-4.55 4.616v2.784h-3.9v-2.834c-2.5-.516-4.6-2.116-4.767-4.95h2.867c.15 1.534 1.2 2.734 3.866 2.734 2.85 0 3.5-1.434 3.5-2.317 0-1.2-.65-2.35-3.9-3.117-3.616-.866-6.1-2.366-6.1-5.35 0-2.516 2.017-4.15 4.534-4.683V8.333h3.883v2.85c2.7.667 4.067 2.717 4.15 4.95h-2.85c-.067-1.633-.933-2.733-3.233-2.733-2.184 0-3.5.983-3.5 2.383z" clip-rule="evenodd"/>
</svg>
