<svg xmlns="http://www.w3.org/2000/svg" width="30" height="30" fill="none" viewBox="0 0 30 30">
    <path fill="#212353" fill-rule="evenodd" d="M15 2.5C8.1 2.5 2.5 8.1 2.5 15S8.1 27.5 15 27.5 27.5 21.9 27.5 15 21.9 2.5 15 2.5zm.637 9.988c0-2.063-1.687-3.75-3.75-3.75-2.062 0-3.75 1.687-3.75 3.75 0 2.062 1.688 3.75 3.75 3.75 2.063 0 3.75-1.688 3.75-3.75zm-3.75 1.25c-.687 0-1.25-.563-1.25-1.25 0-.688.563-1.25 1.25-1.25.688 0 1.25.562 1.25 1.25 0 .687-.562 1.25-1.25 1.25zm10.625 0c0 1.387-1.112 2.5-2.5 2.5-1.387 0-2.5-1.113-2.5-2.5-.012-1.388 1.113-2.5 2.5-2.5 1.388 0 2.5 1.112 2.5 2.5zM11.887 20c-1.737 0-3.725.712-4.575 1.387 1.713 2.063 4.238 3.413 7.075 3.575v-3.474c0-2.363 3.726-3.375 5.625-3.375 1.1 0 2.8.35 4.05 1.087.6-1.287.938-2.712.938-4.212 0-5.513-4.488-10-10-10s-10 4.487-10 10c0 1.537.35 2.987.975 4.287 1.675-1.225 4.287-1.787 5.912-1.787.55 0 1.213.075 1.913.2-.788.712-1.325 1.524-1.625 2.325-.052 0-.103-.004-.153-.007-.047-.003-.092-.006-.135-.006z" clip-rule="evenodd"/>
</svg>
