<svg xmlns="http://www.w3.org/2000/svg" width="31" height="30" fill="none" viewBox="0 0 31 30">
    <path fill="#212353" fill-rule="evenodd" d="M18.46 2.5h-10C7.087 2.5 5.974 3.625 5.974 5l-.012 20c0 1.375 1.112 2.5 2.487 2.5h15.013c1.375 0 2.5-1.125 2.5-2.5V10l-7.5-7.5zM8.46 5h8.75l6.25 6.25v10.725l-2.3-2.3c1.6-2.425 1.338-5.713-.8-7.85-1.212-1.212-2.8-1.825-4.4-1.825-1.6 0-3.187.613-4.412 1.825-2.437 2.438-2.437 6.387 0 8.813 1.213 1.212 2.813 1.824 4.413 1.824 1.2 0 2.4-.35 3.437-1.037L22.961 25H8.46V5zm7.5 14.975c1 0 1.938-.4 2.638-1.1.713-.7 1.1-1.637 1.1-2.637s-.4-1.938-1.1-2.638c-.7-.713-1.637-1.1-2.637-1.1s-1.938.387-2.638 1.1c-.712.7-1.1 1.638-1.1 2.638s.4 1.937 1.1 2.637c.7.712 1.638 1.1 2.638 1.1z" clip-rule="evenodd"/>
</svg>
