<svg xmlns="http://www.w3.org/2000/svg" width="30" height="30" fill="none" viewBox="0 0 30 30">
    <path fill="#212353" fill-rule="evenodd" d="M23.75 3.75h-5.225C18 2.3 16.625 1.25 15 1.25s-3 1.05-3.525 2.5H6.25c-1.375 0-2.5 1.125-2.5 2.5v20c0 1.375 1.125 2.5 2.5 2.5h17.5c1.375 0 2.5-1.125 2.5-2.5v-20c0-1.375-1.125-2.5-2.5-2.5zm-8.75 0c.688 0 1.25.563 1.25 1.25 0 .688-.563 1.25-1.25 1.25-.688 0-1.25-.563-1.25-1.25 0-.688.563-1.25 1.25-1.25zm-8.75 2.5v20h17.5v-20h-2.5V10H8.75V6.25h-2.5z" clip-rule="evenodd"/>
</svg>
