<svg xmlns="http://www.w3.org/2000/svg" width="242" height="312" fill="none" viewBox="0 0 242 312">
    <g clip-path="url(#prefix__clip0)">
        <path fill="#797A92" d="M97.464 275.155l.223 5.928c0 3.631-1.866 7.188-4.127 10.028-.975 1.233-1.695 2.648-2.12 4.161-.424 1.514-.543 3.097-.35 4.657.365 3.024 1.87 5.795 4.208 7.748 2.339 1.953 5.334 2.941 8.376 2.763 3.042-.178 5.902-1.509 7.997-3.721 2.094-2.212 3.266-5.14 3.276-8.186.019-2.652-.851-5.235-2.471-7.336-2.249-2.889-4.25-6.446-4.25-10.114l.234-5.953c.061-1.269.584-2.473 1.472-3.384.888-.91 2.078-1.463 3.347-1.556h-20.2c1.194.189 2.285.788 3.086 1.694.8.906 1.26 2.063 1.3 3.271zM206.225 174.343l5.931-.222c3.632 0 7.191 1.864 10.032 4.124 1.76 1.395 3.876 2.266 6.108 2.515 2.231.25 4.488-.133 6.512-1.105 2.024-.971 3.733-2.492 4.934-4.388 1.201-1.897 1.844-4.093 1.855-6.337.012-2.244-.608-4.446-1.788-6.355-1.181-1.909-2.875-3.448-4.888-4.441-2.014-.992-4.267-1.399-6.501-1.173-2.233.226-4.359 1.075-6.133 2.451-2.891 2.26-6.449 4.261-10.131 4.261l-5.943-.247c-1.271-.058-2.477-.58-3.388-1.468s-1.464-2.08-1.554-3.349v20.192c.173-1.205.763-2.312 1.669-3.127.905-.814 2.068-1.286 3.285-1.331z"/>
        <path fill="#2C2655" d="M102.713 1.1v43.915h1.236V.915c-.371.073-.803.123-1.236.184z"/>
        <path fill="#2C2655" d="M105.58 44.15c0 .467-.138.923-.398 1.311-.259.388-.627.69-1.059.87-.431.178-.905.224-1.363.133-.458-.09-.878-.315-1.208-.645-.33-.33-.555-.75-.646-1.208-.091-.457-.045-.932.134-1.363.179-.43.481-.8.869-1.058.388-.26.844-.398 1.311-.398.311-.002.618.058.905.176.287.118.548.292.768.511.219.22.393.48.511.767.118.287.178.595.176.905z"/>
        <path fill="#2C2655" d="M20.922 69.876l-.185-.593 80.815-25.639.185.593-80.815 25.639zM105.726 43.872l-.181.59 83.251 25.442.18-.59-83.25-25.442z"/>
        <path fill="#797A92" fill-rule="evenodd" d="M19.563 69.678h168.006c9.444 0 17.099 7.653 17.099 17.092v167.934c0 9.439-7.655 17.092-17.099 17.092H19.563c-9.444 0-17.1-7.653-17.1-17.092v-79.657c.846-.629 1.867-.989 2.929-1.025l5.93-.222c3.633 0 7.19 1.865 10.033 4.125 1.233.974 2.648 1.694 4.163 2.118 1.514.424 3.097.544 4.658.352 1.834-.216 3.593-.852 5.14-1.859 1.546-1.008 2.839-2.359 3.777-3.949.937-1.589 1.494-3.374 1.628-5.215.133-1.84-.162-3.686-.86-5.394-.7-1.708-1.785-3.231-3.17-4.451-1.386-1.219-3.035-2.102-4.818-2.579-1.784-.476-3.654-.534-5.463-.169-1.81.365-3.51 1.144-4.969 2.275-2.891 2.26-6.45 4.261-10.119 4.261l-5.955-.247c-1.057-.046-2.069-.413-2.904-1.046V86.77c0-9.44 7.656-17.092 17.1-17.092z" clip-rule="evenodd"/>
        <path fill="#fff" d="M78.873 259.204h-25.13c-5.87 0-10.552-6.175-9.626-12.708.643-4.545 1.335-9.225 2.089-14.091 3.274-18.216 24.821-22.724 36.546-24.7 9.217-1.605 3.93 17.043 1.347 34.382-.704 2.198-2.755 8.645-5.226 17.117z"/>
        <path fill="#fff" d="M68.717 259.217c.615-16.853 2.481-33.638 5.584-50.215 2.2-.876 4.584-1.84 6.017-2.469h.112c12.775-5.212 24.018-7.176 47.851-2.779-2.631 18.66-5.016 37.049-6.857 55.438l-52.707.025z"/>
        <path fill="#AF3E1B" d="M133.557 155.182c-.939-1.816-2.125-3.705-1.804-5.755.345-1.228.758-2.436 1.236-3.619.803-3.013-.841-5.977-2.644-8.386 0 0-2.731-18.524-21.968-20.834-.482 0-.951-.098-1.421-.136-.317-.242-.678-.422-1.062-.531-1.009-.078-2.022.087-2.953.482l-1.013.074c-.16-.011-.317-.04-.47-.086-1.137-.371-2.026-1.569-3.138-2.1-2.681-1.235-4.485 1.865-7.178 1.742-1.817-.075-3.707-1.643-5.511-1.532-1.804.111-2.706 2.026-3.101 3.829-.395 1.803-.68 3.828-2.113 4.791-.97.443-1.969.818-2.99 1.124-2.323 1.124-2.89 4.162-3.052 7.003-.165 3.651.013 7.311.532 10.929-.008 1.215.468 2.384 1.322 3.248-.33.014-.643.147-.881.374-.239.227-.387.533-.416.861-.009.168.017.335.075.492.058.157.148.3.264.422.115.121.254.217.409.283.153.066.32.1.487.1h4.942c.348-.006.682-.142.934-.383.251-.24.403-.566.425-.914 0-.327-.13-.641-.362-.873-.231-.232-.546-.362-.873-.362h-4.56c.33-3.392 1.405-6.669 3.151-9.596 2.471-1.148 7.34-2.544 15.197-1.074 11.997 2.248 7.314 16.24 20.534 18.525l4.337-.927c2.953.223 5.165 3.15 5.016 6.768-.021 1.241-.353 2.456-.966 3.535-.613 1.079-1.487 1.987-2.543 2.64l-.444 10.72c.233-.794.687-1.505 1.309-2.05 1.001-.741 2.397-.593 3.497-1.235 2.656-1.408 1.754-5.558 3.632-7.917 1.236-1.58 3.608-2.074 4.707-3.779 1.1-1.704.371-4.05-.543-5.853z"/>
        <path fill="#fff" d="M90.264 171.483c3.422-.506 4.337-2.223 4.547-3.63l-8.982.889c.273.921.877 1.71 1.694 2.216.818.505 1.794.693 2.741.525z"/>
        <path fill="#AF3E1B" d="M101.693 146.673c0-.328-.13-.642-.362-.874-.232-.231-.546-.361-.874-.361h-4.942c-.338.004-.663.131-.914.359-.25.228-.409.539-.445.876 0 .327.13.641.362.873.232.231.546.362.874.362h4.942c.338-.007.661-.136.911-.363.25-.227.409-.537.448-.872z"/>
        <path fill="#212353" d="M80.949 149.093c-.828 0-1.557 1.025-1.606 2.297-.05 1.272.556 2.297 1.383 2.297.828 0 1.557-1.025 1.606-2.297.05-1.272-.556-2.297-1.383-2.297zM99.049 154.008c.827 0 1.556-1.037 1.606-2.297.049-1.26-.556-2.297-1.384-2.297-.828 0-1.557 1.025-1.606 2.297-.05 1.272.556 2.297 1.384 2.297z"/>
        <path fill="#E5A7A1" d="M89.115 162.962c.34.088.696.09 1.037.006.34-.084.655-.25.916-.485.26-.235.459-.531.577-.861.119-.33.154-.684.102-1.031v-.247c-.237.34-.573.599-.961.743-.39.143-.813.164-1.214.06l-2.47-.692c-.475-.144-.894-.427-1.204-.813-.31-.385-.499-.855-.539-1.348l-.21.432c-.172.328-.268.69-.281 1.06-.013.37.057.738.205 1.077.148.339.37.64.651.882.28.241.612.417.97.513l2.421.704z"/>
        <path fill="#fff" d="M121.424 259.118c1.841-18.327 4.225-36.778 6.857-55.438 1.606.296 3.225.605 4.843.938 7.698 1.581 27.478 9.436 30.555 18.525 2.693 7.99 2.409 16.166.79 24.799-1.235 6.533-6.177 11.114-12.157 11.114l-30.888.062zM56.374 259.266c2.6-16.511 6.923-32.703 12.899-48.313l5.053-2.025c-3.13 16.616-5.022 33.441-5.658 50.338H56.374z"/>
        <path fill="#FFC3BD" d="M121.338 165.259c1.055-.654 1.929-1.561 2.542-2.64.613-1.079.945-2.295.966-3.535.149-3.619-2.063-6.546-5.016-6.768l-4.336.926c-13.221-2.247-8.538-16.24-20.535-18.525-7.858-1.469-12.738-.074-15.197 1.075-1.746 2.927-2.822 6.204-3.15 9.596h4.559c.327 0 .642.13.873.361.232.232.362.546.362.874-.022.347-.174.674-.425.914-.252.24-.586.377-.934.382h-4.584l-.68 16.389c-.506 12.189 6.87 21.241 18.731 21.167h1.236l-.68 16.154c-.841.411-1.518 1.096-1.92 1.942-.401.845-.504 1.802-.291 2.714l4.46 17.512c.193.679.567 1.294 1.082 1.777.516.483 1.153.817 1.844.965.691.149 1.409.106 2.078-.122.668-.229 1.262-.635 1.717-1.175l13.999-15.215c.305-.256.575-.551.803-.877l1.112-1.235c.363-.373.649-.816.839-1.301.191-.485.282-1.004.27-1.525-.013-.521-.13-1.034-.343-1.51-.214-.475-.521-.903-.902-1.258l1.087-26.392.433-10.67zm-40.612-11.572c-.828 0-1.446-1.025-1.384-2.297.062-1.272.779-2.297 1.606-2.297.828 0 1.446 1.025 1.384 2.297-.062 1.272-.778 2.297-1.606 2.297zm16.939-1.976c0-1.235.766-2.297 1.606-2.297.84 0 1.446 1.025 1.384 2.297-.062 1.272-.779 2.297-1.606 2.297-.828 0-1.446-1.025-1.384-2.297zm-12.615 7.015l.21-.433c.04.494.228.963.539 1.349.31.385.73.668 1.203.813l2.471.691c.401.105.825.084 1.214-.06.389-.143.724-.403.96-.743v.247c.053.347.018.702-.1 1.032-.119.33-.317.625-.578.86-.26.235-.575.402-.916.485-.34.084-.697.082-1.037-.005l-2.47-.704c-.354-.102-.68-.282-.955-.526-.274-.244-.491-.546-.635-.885-.143-.338-.209-.704-.193-1.071.017-.367.115-.726.287-1.05zm5.202 12.757c-.947.167-1.923-.02-2.74-.526-.819-.505-1.422-1.294-1.696-2.216l8.983-.889c-.198 1.408-1.1 3.125-4.535 3.631h-.012zm3.929-24.799c.036-.336.194-.647.445-.875.25-.227.575-.355.914-.36h4.942c.328 0 .642.131.874.362.231.232.361.546.361.873-.024.347-.177.672-.428.912-.252.239-.583.377-.931.385h-4.942c-.166-.001-.33-.036-.483-.103-.153-.067-.29-.163-.405-.284-.114-.122-.203-.265-.26-.421-.058-.156-.083-.322-.075-.489h-.012z"/>
    </g>
    <defs>
        <clipPath id="prefix__clip0">
            <path fill="#fff" d="M0 0H241.173V310.547H0z" transform="translate(.425 .914)"/>
        </clipPath>
    </defs>
</svg>
