<svg xmlns="http://www.w3.org/2000/svg" width="188" height="411" fill="none" viewBox="0 0 188 411">
    <g clip-path="url(#prefix__clip0)">
        <g clip-path="url(#prefix__clip1)">
            <path fill="#A6462B" d="M77.962 162.363c-1.066.422-2.077 1.089-3.223 1.173-.979.066-1.957-.311-2.943-.329-.987-.018-2.118.531-2.217 1.568-.053.5.14 1.007.087 1.503-.142 1.399-1.838 1.682-3.005 2.288-.668.376-1.223.923-1.61 1.585-.387.661-.59 1.414-.59 2.18-.013 1.138.348 2.444-.32 3.299-.535.67-1.567.813-1.898 1.621-.475 1.191.987 2.382 1.045 3.699.04.927-.622 1.644-1.02 2.462-.36.782-.507 1.646-.423 2.503.083.857.393 1.676.897 2.374.547.729 1.318 1.318 1.625 2.17.394 1.127-.084 2.469.464 3.52 1.151 2.185 3.463.738 5.566.964 2.64.285 5.055 3.417 7.478 2.352.569-.249 1.094-.73 1.706-.655.611.075 1.108.714 1.728.865 1.163.281 2.06-1.157 3.117-1.571.269-.044.54-.07.812-.079 6.916-.863 12.33-5.149 12.978-11.098.539-4.912-2.322-9.777-7.029-13.035l.01-.192c-.082-1.628-.894-2.951-1.999-4.083-2.03-2.076-4.45-1.016-6.367-2.501-.734-.57-.942-1.664-1.605-2.323-.853-.807-2.197-.687-3.264-.26z"/>
            <path fill="#FFE0BD" d="M70.465 144.142c1.668 14.528 2.747 25.267 5.052 37.567.034.16-3.431.711-5.928 1.458-.297.09-.61.115-.919.073-.308-.042-.604-.151-.866-.318s-.485-.389-.654-.65c-.168-.262-.278-.557-.322-.864-.27-1.905-.054-2.823-.237-7.862-.428-11.737-.74-23.887-.095-29.882l3.97.478z"/>
            <path fill="#FFE0BD" d="M73.763 177.867c.413.504.753 1.064 1.008 1.663 3.577 10.398 8.472 24.206 9.08 32.704.077 1.092-1.587 7.394-8.661 6.116-4.774-.889-4.558-4.892-5.075-11.252-.16-1.937-3.73-21.494-3.164-28.806.048-.227.15-.439.297-.618 1.43-1.907 4.967-1.759 6.515.193zM64.908 142.571c.079-.697.32-1.366.704-1.954.271-.318.628-.552 1.028-.675.922-.353 1.898-.547 2.885-.574.897-.02 1.94.231 2.442 1.443.434 1.227.433 2.566-.005 3.791-.744 2.266-1.025 3.073-2.42 4.354-1.75 1.59-3.42 1.511-4.049-1.641-.336-1.627-.871-3.138-.585-4.744z"/>
            <path fill="#FFE0BD" d="M70.669 141.36l-1.328-6.122c-.042-.204-.013-.417.082-.602.096-.185.253-.332.444-.415.088-.036.183-.051.278-.045.095.007.187.035.27.082.082.046.153.112.207.19.054.078.09.168.104.262l1.332 6.122c.042.205.012.417-.085.602-.096.185-.253.332-.444.415-.089.035-.184.049-.278.042-.095-.006-.187-.034-.27-.081-.081-.047-.152-.112-.207-.189-.054-.078-.09-.167-.105-.261zM68.66 141.47l-1.328-6.123c-.043-.205-.014-.418.082-.604.095-.186.252-.333.444-.417.088-.035.183-.049.277-.043.095.007.187.035.27.082.082.047.153.111.207.189.054.078.09.167.105.261l1.332 6.122c.04.205.01.418-.086.604-.096.185-.253.333-.444.417-.088.035-.183.05-.278.043-.094-.007-.186-.035-.269-.082-.082-.046-.153-.111-.207-.189-.054-.078-.09-.167-.106-.26zM66.9 143.001l-1.332-6.114c-.043-.205-.013-.418.083-.603.097-.185.254-.332.446-.414.088-.035.183-.049.277-.043.095.007.186.035.268.082.082.047.153.111.207.189.053.078.089.167.104.26l1.333 6.098c.041.205.011.417-.085.602s-.253.332-.445.415c-.087.035-.18.05-.273.044-.094-.006-.185-.032-.267-.077-.082-.045-.153-.108-.207-.184-.055-.076-.092-.163-.11-.255zM65.487 145.252l-1.34-6.107c-.044-.205-.015-.419.082-.605.096-.186.254-.333.447-.415.088-.035.183-.05.277-.043.094.007.186.035.268.081.082.047.153.112.206.19.054.078.09.167.105.26l1.332 6.123c.04.205.01.418-.086.603-.097.186-.253.333-.444.418-.089.032-.184.044-.278.035-.094-.009-.184-.038-.266-.087-.08-.048-.15-.114-.202-.192-.053-.079-.087-.168-.1-.261z"/>
            <path fill="#FFE0BD" d="M73.943 138.96c-.096-.052-.201-.083-.31-.092-.108-.01-.217.003-.32.037-.103.035-.198.09-.279.162-.081.072-.147.16-.193.259l-2.382 3.899c-.131.184-.19.41-.163.634.026.224.136.43.306.578.096.051.2.082.309.091.108.009.217-.004.32-.039.103-.034.198-.088.279-.16.081-.072.147-.16.193-.258l2.395-3.882c.133-.187.192-.417.163-.645-.028-.228-.142-.437-.318-.584zM143.654 153.621c-8.974 11.461-15.495 20.017-23.827 29.249-.111.12 2.517 2.417 4.222 4.386.202.233.453.419.734.545.281.127.587.19.895.187.309-.004.613-.075.891-.208s.524-.325.721-.563c1.217-1.477 1.515-2.371 4.292-6.553 6.483-9.776 13.092-19.922 15.649-25.358l-3.577-1.685z"/>
            <path fill="#FFE0BD" d="M123.311 180.525c-.611.209-1.188.504-1.716.877-8.424 6.946-19.727 16.099-24.671 22.998-.636.882-2.52 7.111 4.096 9.761 4.451 1.782 6.36-1.743 10.119-6.87 1.142-1.561 14.339-16.298 17.674-22.805.078-.218.102-.453.07-.683-.209-2.374-3.26-4.114-5.572-3.278zM149.814 155.086c.307-.646.458-1.356.442-2.071-.066-.42-.248-.813-.527-1.134-.608-.8-1.348-1.491-2.188-2.042-.763-.496-1.797-.843-2.876-.057-1.033.827-1.75 1.983-2.031 3.276-.573 2.358-.759 3.203-.241 5.06.647 2.324 2.131 3.135 4.379.753 1.155-1.226 2.429-2.245 3.042-3.785z"/>
            <path fill="#FFE0BD" d="M145.484 150.951l4.432-4.576c.145-.155.234-.355.25-.566.016-.212-.041-.423-.161-.598-.057-.077-.131-.142-.215-.187-.085-.046-.179-.072-.275-.077-.096-.004-.192.013-.281.05-.088.038-.168.095-.231.167l-4.433 4.588c-.146.155-.234.354-.25.566-.016.212.041.423.161.597.058.077.132.141.217.185.086.045.18.07.276.073.096.003.192-.015.28-.053.088-.039.167-.097.23-.169zM147.177 152.124l4.403-4.578c.145-.154.234-.354.25-.566.016-.211-.041-.422-.161-.597-.057-.078-.131-.142-.215-.188-.085-.045-.179-.071-.275-.076-.096-.005-.192.013-.281.05-.088.037-.168.094-.231.166l-4.416 4.585c-.146.155-.235.356-.251.568-.016.213.041.424.162.6.057.079.132.144.219.19.086.046.182.072.28.076.098.003.195-.016.284-.056.09-.04.169-.099.232-.174zM147.864 154.391l4.445-4.584c.145-.155.234-.354.25-.566.016-.212-.041-.423-.161-.597-.057-.078-.13-.142-.215-.188-.085-.046-.179-.072-.275-.076-.096-.005-.192.012-.281.05-.088.037-.167.094-.231.166l-4.446 4.596c-.145.155-.234.354-.25.566-.016.212.041.423.161.597.058.077.132.141.218.185.085.045.179.07.275.073.097.003.192-.015.28-.053.089-.039.167-.097.23-.169zM147.88 157.128l4.432-4.576c.145-.155.233-.356.25-.568.016-.212-.041-.424-.161-.599-.057-.078-.13-.142-.215-.188-.084-.046-.178-.072-.274-.076-.097-.005-.193.012-.281.05-.089.037-.168.094-.232.166l-4.432 4.572c-.145.154-.234.354-.25.566-.016.211.041.422.161.597.057.078.129.143.214.189.084.047.178.074.274.079.096.005.192-.011.281-.048.089-.036.169-.092.233-.164z"/>
            <path fill="#FFE0BD" d="M143.937 147.136c.221.019.424.125.567.294.143.169.212.388.194.608l-.033 4.648c.015.228-.056.453-.198.632-.143.179-.347.299-.572.335-.11-.006-.218-.034-.316-.084-.099-.049-.187-.117-.258-.201-.071-.084-.124-.182-.156-.287-.033-.106-.043-.217-.031-.326l.049-4.638c-.017-.228.051-.454.19-.635s.34-.304.564-.346zM24.001 381.874c6.269-10.284 18.144-34.24 23.669-44.982.308-.596-9.099-11.045-9.099-11.045-3.912 8.333-21.724 57.394-29.366 71.563-.873 1.632 4.306-2.54 6.843-3.888 1.434-.769 3.59-4.65 4.781-6.468 1.13-1.674 2.115-3.448 3.172-5.18z"/>
            <path fill="#FF6F00" d="M17.827 391.23c-.15-.091-.323-.133-.497-.12-.348 4.502-4.713 8.186-9.407 7.385l-2.48 2.602c-2.203 2.33.2 4.583 3.229 3.02l11.581-5.938c.553-.284.802-.841.516-1.16l-2.942-5.789z"/>
            <path fill="#FFE0BD" d="M17.828 391.209c-1.31-.703-3.16.201-3.505.561l-6.4 6.725c4.694.801 9.556-2.784 9.905-7.286zM14.5 359.771c2.022-12.207 3.255-24.388 4.41-36.681.062-.684.467-7.531.532-8.177L6.98 317.274c-.568 9.363.51 43.05-1.355 59.423-.214 1.864 3.987-.325 5.812-2.702 1.04-1.353 1.606-5.862 2.057-8.037.404-2.073.665-4.132 1.006-6.187z"/>
            <path fill="#199FB3" d="M67.228 269.963c-4.545-2.79-17.926-4.047-17.332-5.094-7.5 7.568-31.054 31.44-42.731 47.827-1.7 2.38-1.614 6.2.25 8.457 13.15 15.929 35.043 18.675 37.687 19.559.312.102.65.094.956-.024.306-.119.562-.339.724-.624 10.36-18.178 37.648-50.597 41.996-74.648.039-.211-10.483 11.343-21.55 4.547z"/>
            <path fill="#FF6F00" d="M12.23 370.291c-.165-.063-.345-.072-.514-.024.375 4.503-3.35 8.833-8.11 8.79l-2.028 2.962c-1.801 2.66.911 4.496 3.648 2.471l10.49-7.71c.503-.369.656-.956.322-1.24l-3.809-5.249z"/>
            <path fill="#FFE0BD" d="M12.226 370.266c-1.403-.485-3.087.69-3.371 1.116l-5.248 7.659c4.764.042 8.995-4.271 8.62-8.775z"/>
            <path fill="#A6462B" d="M84.78 170.692c.99-2.363 3.667-1.541 6.665-4.021 1.664-1.382 5.374-.556 5.374-.556 3.184.361 11.532 2.039 11.206 12.485-.055 1.728-.581 3.409-1.521 4.861l-2.778 4.286c-2.606 4.027-8.533 4.151-11.184.154l-.055-.082c-.61-.901-1.304-1.742-2.072-2.514-.83-.876-2.569-2.75-3.03-4.672-.311-1.27-1.908-2.886-2.433-4.087-.714-1.611-.884-4.18-.172-5.854z"/>
            <path fill="#797A92" d="M85.662 277.491c7.09-2.027 3.15-8.851 3.757-11.739 3.58-16.986-3.206-8.856 8.582-31.352 9.247-17.641 11.729-21.514 5.702-31.844-4.467-5.841-14.471-4.289-22.909-1.443-12.21 4.113-12.19 14.249-14.27 24.36-.761 3.715-1.789 7.371-3.074 10.938-7.863 21.771-22.007 30.039-18.594 36.487l.149.384c.745 1.403 3.079 2.573 4.316 3.205 13.685 7 26.173 3.905 36.341 1.004z"/>
            <path fill="#A6462B" d="M84.395 174.453l-.656 1.642c.14-.759.37-1.5.683-2.206.085-.192.177-.376.274-.56l.293-.015c-.228.363-.427.744-.594 1.139z"/>
            <path fill="#FFE0BD" d="M83.74 176.075l-1.895 4.646c-.462 1.129-.673 2.344-.617 3.563.056 1.218.377 2.409.94 3.491.564 1.081 1.357 2.026 2.323 2.77.967.744 2.084 1.267 3.274 1.535l-1.194 11.275c-.063.397.035.802.271 1.127.237.325.592.544.99.607l5.728.62c.4.02.791-.118 1.09-.384.3-.266.482-.639.509-1.038l.97-9.034.646-6.091c.58.126 1.185.021 1.688-.292-.56-.852-.96-1.798-1.181-2.793-.392-1.777-.203-3.642-.549-5.429-.42-2.162-2.179-6.351-7.139-8.784-.482-.237-1.228-.565-1.134-1.222.073-.263.216-.502.414-.692-1.004.422-1.916 1.036-2.682 1.81-.766.773-1.373 1.69-1.785 2.698l-.667 1.617zm2.167 7.217l-.732-.621c-.21-.215-.329-.505-.329-.806 0-.301.12-.59.33-.805l.133-.14c-.064.188-.073.391-.026.585.047.193.148.369.292.507l.732.621c.12.094.269.144.421.141.153-.002.3-.057.416-.156l-.004.101c-.13.6-.793.916-1.215.553l-.018.02zm-1.502-6.324l-.274-.657.96.397c.312.128.389.621.207 1.102-.182.481-.61.77-.922.638-.312-.132-.389-.621-.207-1.102.06-.146.146-.281.254-.398l-.018.02zm7.693 3.648c-.199.484-.61.77-.926.638-.316-.133-.389-.622-.207-1.102.057-.139.137-.266.236-.378l-.274-.658.964.398c.33.107.423.601.225 1.082l-.018.02z"/>
            <path fill="#A6462B" d="M92.402 177.571l-1.954-.616c-.137-.048-.25-.148-.314-.279-.064-.131-.073-.282-.025-.419.047-.138.148-.251.279-.315.13-.063.282-.072.42-.024l1.953.616c.138.044.252.142.318.27.066.129.078.278.035.416-.021.072-.057.138-.105.195-.048.057-.107.104-.174.137-.067.033-.14.051-.214.055-.075.003-.15-.009-.219-.036zM84.87 173.793l1.554.325c.12.045.22.134.277.25.057.116.067.249.028.372-.064.289-.3.492-.527.443l-1.554-.325c-.121-.044-.22-.134-.277-.25-.057-.115-.067-.248-.028-.371.063-.278.29-.48.527-.444z"/>
            <path fill="#E2B393" d="M85.925 183.271l-.732-.62c-.211-.215-.33-.505-.329-.806 0-.301.119-.591.33-.805l.133-.14c-.064.188-.073.391-.026.584.047.194.148.37.292.508l.732.621c.12.094.268.144.42.141.153-.003.3-.058.417-.156l-.005.1c-.146.621-.81.937-1.232.573z"/>
            <path fill="#292929" d="M92.116 180.595c-.199.485-.61.771-.926.638-.316-.132-.389-.621-.207-1.102.057-.138.137-.266.236-.378l-.274-.657.964.397c.312.128.406.622.207 1.102zM85.109 176.688c.312.128.389.621.207 1.102-.182.481-.61.77-.922.638-.312-.132-.389-.621-.207-1.102.057-.138.137-.266.236-.378l-.274-.657.96.397z"/>
            <path fill="#FFE0BD" d="M89.907 207.899c3.294.091 6.007-1.449 6.062-3.438.054-1.989-2.571-3.675-5.864-3.765-3.293-.09-6.007 1.449-6.061 3.439-.055 1.989 2.57 3.674 5.864 3.764z"/>
            <path fill="#fff" d="M84.857 184.693c-.014.09-.019.181-.013.272.03.325.17.631.399.865.228.234.53.382.854.421.135.013.271-.003.4-.046s.247-.113.346-.205c.1-.092.179-.204.232-.329.053-.125.08-.26.077-.395l-2.295-.583z"/>
            <path fill="#797A92" d="M66.206 220.884c-.073 1.532.07 3.121-.493 4.55-.652 1.668-2.171 2.893-2.8 4.57-.699 1.859-.19 4.013-.923 5.865-.755 1.956-2.71 3.219-3.592 5.122-.675 1.445-.672 3.119-1.253 4.602-1.061 2.699-3.85 4.328-5.289 6.841-1.05 1.842-1.332 4.088-2.626 5.763-.865 1.13-2.142 1.927-2.862 3.157-.633 1.082-.78 2.41-1.495 3.443-.485.697-1.199 1.199-1.697 1.895-1.739 2.427-.076 5.909 2.236 7.797.403.312 3.842 2.012 4.295 1.812.286-.125-2.5-1.818-2.357-2.096 2.307-4.493 3.418-9.545 5.973-13.901 3.092-5.272 8.171-9.294 10.577-14.912.766-1.937 1.361-3.938 1.78-5.979 2.208-9.413 4.42-18.829 6.634-28.247.1-.321.127-.66.081-.992-.664-3.108-3.313 1.637-3.653 2.29-1.4 2.675-2.414 5.342-2.536 8.42z"/>
        </g>
        <path fill="#FFB881" d="M178.008 16.155l-38.44-5.755c.091.17.174.34.272.504.833 1.48 1.233 3.163 1.154 4.858-.079 1.696-.633 3.335-1.6 4.73-.966 1.395-2.306 2.49-3.866 3.16-1.56.67-3.277.888-4.955.629-1.678-.26-3.249-.986-4.534-2.095-1.285-1.11-2.232-2.558-2.732-4.18-.501-1.622-.535-3.352-.098-4.992.436-1.64 1.326-3.125 2.566-4.283.119-.112.233-.231.345-.344L87.387 2.59c-2.446-.366-4.937.254-6.926 1.724-1.989 1.47-3.311 3.67-3.677 6.115l-13.562 90.594c-.362 2.444.26 4.931 1.732 6.916 1.47 1.985 3.67 3.305 6.113 3.671l90.634 13.568c2.447.366 4.938-.254 6.926-1.724 1.989-1.47 3.312-3.67 3.678-6.115l13.561-90.595c.181-1.21.121-2.445-.177-3.633-.297-1.188-.826-2.306-1.556-3.29-.73-.983-1.646-1.813-2.698-2.442-1.051-.629-2.215-1.045-3.427-1.223z"/>
        <path fill="#fff" d="M71.271 58.769l3.224.36c1.953.292 3.728 1.586 5.078 3.035.837.894 1.908 1.535 3.092 1.85 1.184.315 2.433.29 3.603-.07 1.17-.361 2.216-1.044 3.017-1.971.8-.927 1.324-2.06 1.51-3.27.188-1.21.03-2.449-.454-3.574-.483-1.124-1.274-2.09-2.281-2.788-1.008-.697-2.19-1.097-3.414-1.154-1.224-.057-2.439.231-3.506.832-1.741.979-3.822 1.77-5.802 1.474l-3.193-.607c-.68-.134-1.29-.513-1.709-1.066-.42-.552-.622-1.24-.568-1.931l-1.63 10.891c.19-.638.597-1.188 1.151-1.556.555-.368 1.221-.529 1.882-.455z"/>
        <path fill="#212353" d="M103.262 108.029c2.29-8.88 5.208-17.494 7.067-26.498-5.56.455-9.929 2.286-12.753 5.814-3.985 4.995-5.899 9.68-6.707 14.395-.091.568-.069 1.148.067 1.708.135.559.38 1.086.721 1.549.34.464.77.855 1.264 1.151.494.296 1.041.491 1.61.574l8.731 1.307z"/>
        <path fill="#fff" d="M131.645 112.278c1.064-8.926 2.399-17.798 3.588-26.747l-.991-.434c-9.237-2.745-17.394-4.102-23.911-3.58-1.859 9.005-4.777 17.62-7.067 26.499l28.381 4.262z"/>
        <path fill="#2C2655" d="M145.393 114.336c.712.107 1.438.056 2.127-.152.689-.207 1.324-.565 1.857-1.048.533-.483.953-1.078 1.227-1.743.275-.665.399-1.382.362-2.101.023-.16-.025-.337-.033-.509-.108-1.994-.421-3.972-.936-5.902-3.362-13.137-3.1-13.88-14.764-17.35-1.189 8.948-2.524 17.82-3.588 26.747l13.748 2.058z"/>
        <path fill="#212353" d="M148.365 114.78c.732.109 1.479.038 2.177-.205.699-.244 1.327-.653 1.833-1.193.505-.539.872-1.193 1.07-1.906.197-.713.218-1.462.062-2.185-.646-2.998-1.349-6.118-2.108-9.36-1.947-7.477-6.2-11.471-10.461-12.409-.892-.182-1.82-.045-2.622.386-.801.431-1.426 1.13-1.765 1.975-2.964 7.16-4.128 14.935-3.391 22.649l15.205 2.248z"/>
        <path fill="#D3A079" d="M131.209 87.15c-.36 2.404-9.359 4.946-12.927 5.154-.494.025-.988-.055-1.45-.233-.461-.178-.88-.451-1.229-.802-1.188-1.172-2.787-3.141-2.502-5.046.45-3.004 4.853-4.838 9.838-4.092 4.985.746 8.721 2.007 8.27 5.018z"/>
        <path fill="#7A7268" d="M139.045 59.248c1.087-1.983 2.982-3.947 2.602-6.136-.127-.747-.527-1.44-.621-2.183-.023-.628.005-1.257.084-1.881.157-3.866-3.141-5.64-5.311-7.987-1.978-2.128-2.585-5.488-5.242-6.86-.162-.194-.378-.335-.62-.406-.201-.05-.409-.062-.615-.038-.768-.155-1.557-.179-2.333-.07-.314-.338-.654-.651-1.018-.935-1.299-.746-2.8.861-4.285.72-1.002-.088-1.833-.955-2.835-.948-1.003.006-1.833.999-2.334 1.932-.501.933-.98 1.998-1.931 2.435-.606.206-1.224.377-1.849.513-1.442.534-2.279 2.118-2.815 3.604-.659 1.867-1.142 3.793-1.44 5.75-.107.713-.225 1.234.28 1.82.182.204.411.36.667.454.622-2.27 1.874-4.32 3.61-5.91 4.401 4.902 9.909 8.682 16.065 11.028l-1.78 3.697c-1.81 3.761-2.321 4.536-6.428 4.847-4.826.375-12.026-1.595-12.601-1.757l-.047-.006-.888 7.842c.018 2.339 1.955 5.148 4.208 5.615 1.322.273 3.673.863 5.96 1.151 1.819.232 3.578.27 4.726-.205 1.808-.807 3.526-1.803 5.125-2.972 2.323-1.859 3.521-4.996 3.858-7.97l1.021-6.508c1.665.352 2.707 2.265 2.325 4.319-.089.563-.293 1.101-.599 1.581-.307.48-.709.893-1.182 1.21l-.717 5.158c.582-.247 1.282-.054 1.891-.255 1.547-.504 1.389-2.905 2.591-4.019.794-.753 2.12-.78 2.852-1.616.732-.837.57-2.217.204-3.32-.235-.526-.454-1.11-.578-1.694zm-26.41 5.24l4.927.445c-.228.756-.848 1.617-2.745 1.544 0 0-2.763-.203-2.182-1.989z"/>
        <path fill="#D3A079" d="M132.749 65.027c.473-.318.876-.73 1.182-1.21.306-.48.51-1.019.599-1.581.382-2.054-.66-3.967-2.324-4.319l-1.022 6.508c-.336 2.974-1.542 6.11-3.857 7.97-1.599 1.169-3.317 2.165-5.126 2.972-1.153.508-2.907.436-4.725.205l-1.182 8.486 13.502 2.021 2.216-15.898.737-5.154z"/>
        <path fill="#564A3A" d="M119.514 53.034l2.65.506c.181.017.362-.033.507-.142.145-.11.245-.27.278-.448.034-.178-.001-.363-.097-.518-.095-.154-.246-.267-.421-.316l-2.649-.506c-.185-.035-.376.003-.533.107-.157.104-.267.265-.307.448-.02.095-.02.193-.002.287.018.095.054.186.108.266.053.081.121.15.201.205.08.054.17.092.265.111zM112.571 50.94c.037-.186 0-.379-.104-.537-.104-.158-.266-.27-.451-.31l-2.65-.505-.06-.01c-.174-.014-.349.035-.49.14-.141.104-.239.256-.276.427-.033.185.006.376.109.534.103.157.263.269.446.312l2.65.506c.183.03.37-.012.523-.115.154-.104.262-.262.303-.443z"/>
        <path fill="#0E0911" d="M111.584 52.113c-.446-.067-.92.414-1.052 1.116-.133.702.127 1.333.566 1.447.44.113.921-.414 1.053-1.116.133-.702-.116-1.36-.567-1.447z"/>
        <path fill="#150D19" d="M121.478 54.207c-.453-.068-.92.407-1.052 1.11-.132.701.121 1.332.567 1.446.446.115.921-.414 1.052-1.11.131-.695-.123-1.366-.567-1.446z"/>
        <path fill="#B78B6C" d="M116.516 59.635l.021-.14c-.158.162-.364.271-.587.311-.224.04-.454.009-.659-.09l-1.298-.657c-.251-.127-.459-.325-.597-.57-.138-.245-.2-.525-.179-.806l-.148.216c-.114.173-.191.368-.225.573-.034.204-.025.413.027.614.052.2.146.388.276.55.129.162.292.294.476.39l1.266.645c.174.09.368.13.562.122.195-.01.384-.07.549-.174.164-.105.298-.251.389-.424.09-.172.134-.366.127-.56z"/>
        <path fill="#fff" d="M114.817 66.477c1.897.073 2.516-.788 2.745-1.544l-4.928-.445c-.58 1.787 2.183 1.989 2.183 1.989z"/>
        <path fill="#D3A079" d="M120.89 62.775c4.134-.307 4.619-1.086 6.429-4.847l1.78-3.697c-6.157-2.346-11.664-6.126-16.065-11.027-1.737 1.59-2.988 3.638-3.61 5.909-.026.173-.092.34-.131.511l.06.01 2.65.505c.189.036.357.145.466.305.109.16.151.355.115.545-.036.19-.145.358-.305.467-.159.108-.355.15-.545.114l-2.65-.506-.722 9.373-.088.593c.582.114 7.782 2.084 12.616 1.745zm-9.792-8.092c-.447-.067-.703-.725-.567-1.447.135-.722.608-1.197 1.052-1.116.445.08.709.726.567 1.447-.142.72-.616 1.16-1.047 1.082l-.005.034zm9.907 2.089c-.453-.068-.702-.725-.567-1.447.136-.722.602-1.197 1.052-1.11.45.088.703.719.567 1.447-.136.73-.617 1.161-1.06 1.075l.008.035zM119.8 51.62l2.65.505c.175.05.325.163.421.317.096.155.131.34.097.518-.033.179-.133.338-.278.447-.145.11-.327.16-.507.143l-2.65-.506c-.184-.043-.343-.155-.447-.312-.103-.158-.142-.349-.108-.534.013-.094.045-.184.093-.265.048-.082.111-.153.187-.21.076-.057.162-.099.253-.123.092-.023.187-.029.281-.016l.008.036zm-4.89 9.089l-1.266-.646c-.184-.095-.346-.228-.476-.39-.129-.162-.223-.349-.275-.55-.053-.2-.062-.41-.028-.614.034-.205.111-.4.226-.572l.148-.216c-.022.28.041.56.179.805.138.245.345.443.596.57l1.298.658c.205.098.436.13.659.09.224-.04.429-.15.587-.312l-.021.14c.002.193-.046.383-.14.552-.093.169-.229.31-.394.411-.164.101-.352.157-.545.164-.193.007-.385-.036-.556-.126l.008.036z"/>
        <path fill="#FFB881" d="M123.107 7.955H147.105V23.772H123.107z" transform="rotate(8.514 123.107 7.955)"/>
        <path fill="#fff" d="M129.103 10.482l-.36 3.223c-.292 1.953-1.586 3.728-3.035 5.078-.894.837-1.536 1.909-1.85 3.092-.315 1.184-.291 2.433.07 3.604.361 1.17 1.044 2.215 1.971 3.016.926.8 2.06 1.324 3.27 1.511 1.21.187 2.448.03 3.573-.454s2.092-1.275 2.789-2.282c.697-1.007 1.097-2.19 1.154-3.414.057-1.224-.231-2.439-.832-3.506-.979-1.741-1.771-3.822-1.474-5.801l.607-3.194c.134-.68.513-1.289 1.065-1.709.553-.42 1.24-.621 1.932-.567l-10.891-1.63c.637.189 1.188.596 1.556 1.15.368.555.529 1.221.455 1.883z"/>
    </g>
    <defs>
        <clipPath id="prefix__clip0">
            <path fill="#fff" d="M0 0H187.403V411H0z"/>
        </clipPath>
        <clipPath id="prefix__clip1">
            <path fill="#fff" d="M0 0H140.379V273.176H0z" transform="rotate(2.728 -2754.099 338.75)"/>
        </clipPath>
    </defs>
</svg>
