<svg xmlns="http://www.w3.org/2000/svg" width="483" height="191" fill="none" viewBox="0 0 483 191">
    <g clip-path="url(#prefix__clip0)">
        <g clip-path="url(#prefix__clip1)">
            <path fill="#E8C6A6" d="M103.716 66.895l9.108 10.889c.343.422.837.695 1.378.759.541.064 1.085-.086 1.517-.416 1.811-1.608 3.483-2.347 2.143-4.417l-7.934-12.1-6.212 5.285z"/>
            <path fill="#FF882C" d="M107.378 72.962l7.806-4.958c.182-.118.339-.271.462-.45.122-.18.209-.382.253-.594.045-.213.047-.432.006-.645-.04-.214-.123-.417-.242-.599-3.407-5.625-6.991-10.64-9.314-14.486-3.75-6.201-15.354-1.096-11.89 5.384 4.285 8.036 5.499 9.584 10.398 15.845.287.376.701.635 1.165.727.464.093.946.013 1.356-.224z"/>
            <path fill="#E8C6A6" d="M139.23 62.654c-.592.292-1.095.665-1.339.772-3.292 1.468-6.496 2.764-10.016 4.15l2.258 4.78c4.123-2.41 8.186-5.14 10.755-6.977l-1.658-2.725z"/>
            <path fill="#E8C6A6" d="M121.433 70.093c-2.438.504-7.332 2.248-9.067 2.87-1.46.535-.204-.105-.11 1.46.185 3.122 1.425 4.266 2.724 4.167 3.943-.294 9.876-3.163 15.357-6.367l-2.411-4.674c-2.028.795-4.205 1.66-6.493 2.544zM141.547 67.235c.483-.11.933-.334 1.313-.651.203-.226.34-.504.394-.804.173-.694.232-1.411.174-2.124-.057-.645-.311-1.38-1.2-1.65-.888-.226-1.827-.131-2.652.268-1.527.702-2.068.964-2.858 2.065-.989 1.377-.804 2.569 1.465 2.8 1.162.141 2.263.42 3.364.096z"/>
            <path fill="#E8C6A6" d="M141.944 62.99l4.387.51c.148.015.296-.023.419-.107.123-.084.213-.208.254-.35.018-.066.021-.135.009-.201-.011-.067-.038-.131-.077-.187-.039-.055-.09-.101-.149-.135-.059-.033-.125-.053-.193-.059l-4.388-.511c-.148-.014-.296.024-.418.108-.123.083-.213.207-.254.35-.018.065-.02.134-.008.2.011.068.038.13.077.186.039.056.09.102.149.136.059.033.124.054.192.06zM142.027 64.446l4.385.512c.148.014.296-.024.419-.108.122-.083.212-.207.253-.35.018-.066.021-.134.01-.201-.012-.067-.038-.13-.078-.186-.039-.056-.09-.102-.149-.136-.059-.033-.125-.053-.193-.058l-4.385-.512c-.148-.014-.296.024-.419.107-.123.084-.212.208-.253.351-.018.066-.021.134-.01.201.012.067.039.13.078.186.039.056.09.102.149.136.059.033.125.053.193.058zM141.092 65.829l4.385.511c.146.016.293-.02.416-.102.122-.08.213-.202.256-.342.018-.066.021-.135.01-.202-.012-.067-.038-.13-.078-.186-.039-.055-.09-.102-.149-.135-.059-.034-.125-.054-.193-.059l-4.385-.509c-.147-.014-.295.024-.418.107-.122.083-.212.206-.254.349-.016.064-.017.132-.004.197.012.065.039.127.078.181.039.054.089.099.147.132.058.032.122.052.189.058zM139.619 67.02l4.385.512c.148.015.296-.023.419-.107.123-.084.212-.208.253-.35.018-.066.021-.135.009-.202-.011-.067-.038-.13-.077-.186-.039-.056-.09-.102-.149-.135-.059-.034-.125-.054-.193-.059l-4.385-.509c-.147-.015-.296.023-.418.106-.123.083-.213.207-.254.35-.018.065-.021.134-.01.2.012.068.038.131.078.187.039.055.09.102.149.135.059.034.125.054.193.059zM142.938 60.428c.081.132.107.29.071.442-.036.15-.13.28-.262.362l-2.603 1.918c-.121.104-.278.158-.437.15-.159-.007-.31-.075-.421-.19-.079-.133-.104-.29-.069-.441.036-.15.129-.28.26-.363l2.603-1.918c.121-.104.277-.158.437-.15.159.007.31.075.421.19z"/>
            <path fill="#00034F" d="M91.582 95.511l-3.32-4.047c-1.321-1.613-2.964-2.934-4.824-3.879-1.86-.944-3.895-1.492-5.978-1.609-2.082-.116-4.166.2-6.12.932-1.953.731-3.733 1.86-5.227 3.316l-1.656 1.607c-1.197 1.184-3.482 5.338-4.77 6.429-3.172 2.678-5.071 2.911-8.267 5.558-1.55 1.283-6.126 6.788-8.48 8.84-4.63 4.018-3.842 6.535-1.123 10.085 2.558 3.34 8.036 3.332 12.678-.03 8.545-6.19 29.348-21.244 37.087-27.202z"/>
            <path fill="#E8C6A6" d="M16.126 102.781l-10.021-2.708-.788 4.535 10.204 4.773.605-6.6z"/>
            <path fill="#00034F" d="M13.019 100.25c-1.16.268-1.835.696-2.192 1.738l-1.72 5.052c-.439 1.283.577 2.783 1.921 3.3.113.041.25.097.41.164l3.592-9.973c-.637-.182-1.369-.437-2.011-.281zM41.873 123.887c.386.133 1.115.369 2.017.658 4.554 1.463 9.708-.768 11.06-4.794 1.134-3.376-.803-6.895-4.57-8.243-2.946-1.052-20.146-6.404-29.486-9.238l-3.774 10.714c8.226 3.697 21.788 9.879 24.753 10.903z"/>
            <path fill="#00034F" d="M20.894 102.269c-2.829-.859-4.937-1.486-5.706-1.695l-.158-.043-3.584 9.973c1.04.426 3.094 1.339 5.673 2.491l3.775-10.726z"/>
            <path fill="#FFD29C" d="M7.166 105.91l-4.661 3.616c-1.141.887-2.095.573-2.411-.268l7.32-10.655 2.144 2.014c.186.171.305.403.336.654.032.251-.027.505-.165.717l-2.563 3.922z"/>
            <path fill="#00034F" d="M7.426 98.594l-.333-.385c-.206-.241-.64-.094-.908.305l-5.582 8.35c-.603.91-.718 1.784-.498 2.386l7.32-10.656zM8.162 102.326c-.206.137-.458.188-.702.142-.243-.047-.459-.187-.6-.391-.07-.1-.12-.213-.147-.332-.026-.119-.029-.243-.007-.363.021-.12.067-.235.133-.337.067-.103.153-.191.254-.259.207-.138.459-.189.702-.142.244.046.46.187.6.391.07.099.12.212.147.331.026.12.028.243.007.363-.022.12-.067.235-.134.337-.066.103-.152.191-.253.26z"/>
            <path fill="#E8C6A6" d="M56.054 135.649l-10.45-.217L44 140.513l2.861.415 7.875.847 1.318-6.126z"/>
            <path fill="#00034F" d="M96.936 101.399l-20.033-1.396c.318 3.035.393 9.164.658 10.943.25 1.663 2.248 5.965 2.366 7.642.29 4.141-.21 5.869.037 10.013.12 2.006 1.17 5.893 1.433 8.998.515 6.115 3.258 9.967 7.728 9.871 4.206-.094 7.436-4.517 7.466-10.249.059-10.546.59-26.055.346-35.822z"/>
            <path fill="#00034F" d="M96.46 140.036c-.027-3.538-2.974-6.26-6.938-6.37-3.091-.085-20.94.191-30.607.405-2.925.067-5.103.126-5.893.169h-.16c-.657.026-1.423 0-1.975.356-.999.627-1.494 1.227-1.492 2.325l.022 5.301c0 1.339 1.44 2.454 2.866 2.523l.436.027c1.11.083 3.33.306 6.119.6 8.893.932 23.593 2.572 26.703 2.62h2.1c4.747-.029 8.85-3.729 8.819-7.956z"/>
            <path fill="#FFD29C" d="M47.327 140.875l-3.027 5.054c-.742 1.238-1.727 1.289-2.309.608l3.011-12.573 2.679 1.106c.231.096.422.27.538.491.116.222.151.477.1.722l-.992 4.592z"/>
            <path fill="#00034F" d="M45.002 133.964l-.442-.239c-.268-.15-.624.145-.731.614l-2.215 9.796c-.242 1.071-.035 1.92.377 2.411l3.011-12.582zM45.942 137.417c-.179-.038-.343-.128-.471-.26-.128-.131-.215-.297-.248-.477-.034-.18-.013-.366.059-.535.072-.168.193-.312.346-.412.154-.1.334-.152.517-.15.183.002.362.059.513.162.151.104.268.25.336.42.068.171.085.357.047.536-.052.241-.196.451-.402.585-.206.134-.456.181-.697.131z"/>
            <path fill="#FF882C" d="M98.924 103.933c.688-8.403 1.998-19.469 4.048-23.157 1.505-3.75 5.657-18.322 5.421-22-.233-3.606.356-4.517-1.875-7.787-1.02-1.49-2.504-2.97-3.935-4.385-2.641-2.612-11.143-5.974-12.49-6.365-7.466-2.164-9.96 4.53-10.731 6.697-1.171 3.303-1.814 8.036-2.534 13.586-2.521 19.4-4.913 26.208-4.913 26.208-.536.922-.335 2.912.115 3.75 1.141 2.144 4.382 2.77 6.182 5.09.571.74.973 1.607 1.56 2.339 2.164 2.678 5.852 2.311 8.45 4.419 1.632 1.321 1.937 2.572 4.9 3.576 2.41.82 4.106.416 5.036-.359.457-.416.732-.995.766-1.612z"/>
            <path fill="#E8C6A6" d="M100.665 51.163c-1.109.975-3.464.11-5.256-1.931-1.792-2.042-2.349-4.487-1.24-5.462 1.11-.975 3.464-.11 5.256 1.931 1.792 2.041 2.349 4.498 1.24 5.462z"/>
            <path fill="#FF882C" d="M77.436 54.273l-.523 1.85-2.678 9.516c-.389 1.38-.804 2.796-1.71 3.892-.56.675-1.304 1.218-1.681 2.011-1.09 2.283 1.339 5.168.602 7.594-.659 2.143-3.64 3.317-3.364 5.594.08.658.45 1.307.353 1.952-.13.908-1.127 1.49-1.2 2.411-.064.825.638 1.543 1.28 2.13l8.305 7.543c.616.557 1.253 1.13 2.03 1.417 1.795.659 3.71-.391 5.58-.059 1.607.284 2.909 1.54 4.454 2.113 1.546.574 3.796-.155 3.518-1.733-.102-.586-.536-1.071-.933-1.545-2.9-3.483-4.312-8.071-3.803-12.368.45-3.811 2.327-7.564 1.23-11.344-.73-2.515-2.693-4.613-3.456-7.12-1.506-4.942 1.969-9.694 2.196-14.733.089-1.944-.31-3.905-.707-5.842-.407-2.014-.943-4.192-2.598-5.496-5.368-4.18-6.161 9.616-6.895 12.217z"/>
            <path fill="#E8C6A6" d="M76.878 41.059l-7.936-11.058c-.31-.428-.444-.958-.376-1.481.067-.524.33-1.003.737-1.34 1.915-1.365 2.99-2.799 4.586-1.07l9.338 10.178-6.349 4.771z"/>
            <path fill="#FF882C" d="M72.121 36.25l6.429-6.33c.147-.146.323-.262.516-.339.193-.078.4-.115.608-.111.208.004.413.05.603.136.19.085.36.208.502.36 4.406 4.468 8.196 8.974 11.21 12.02 4.856 4.91-2.59 14.829-7.768 10.117-6.416-5.834-7.573-7.324-12.213-13.348-.281-.363-.425-.814-.404-1.273.02-.459.204-.895.517-1.231z"/>
            <path fill="#E8C6A6" d="M57.04 5.663l2.84-1.109c.297.576.479 1.154.605 1.377 1.733 3.054 3.482 5.922 5.448 9.04 1.139 1.795 2.35 3.75 3.635 5.762 1.62 1.824 4.452 6.04 5.457 7.54.843 1.262.22.04-.737 1.18-1.912 2.276-3.528 2.41-4.484 1.58-2.877-2.52-5.848-8.103-8.304-13.712h-.016c-1.851-4.257-3.477-8.749-4.444-11.658z"/>
            <path fill="#E8C6A6" d="M55.478 6.697c-.313-.369-.538-.804-.656-1.273-.032-.286.017-.576.142-.836.256-.631.619-1.215 1.072-1.725.41-.46 1.026-.873 1.875-.554.823.357 1.498.986 1.912 1.781.804 1.436 1.072 1.956 1.072 3.26 0 1.634-.833 2.432-2.727 1.275-.997-.589-2.012-1.036-2.69-1.928z"/>
            <path fill="#E8C6A6" d="M57.57 3.214l-3.715-2.196c-.123-.074-.217-.19-.266-.325-.049-.135-.05-.284-.002-.42.024-.06.06-.116.108-.16.048-.045.105-.078.167-.098.063-.02.128-.025.193-.015.065.01.126.033.18.07l3.713 2.196c.123.075.217.19.266.325.048.136.05.284.002.42-.024.06-.06.115-.108.16-.047.044-.104.077-.166.097-.062.02-.127.024-.192.015-.064-.009-.126-.032-.18-.069zM56.681 4.286L52.97 2.084c-.124-.075-.217-.19-.266-.325-.049-.135-.05-.283-.002-.42.023-.06.06-.115.108-.16.048-.043.105-.077.167-.096.062-.02.128-.025.193-.016.064.01.126.033.18.069l3.707 2.2c.124.073.218.188.267.324.05.135.05.284.001.42-.024.06-.06.114-.108.158-.047.044-.103.077-.165.097-.061.02-.126.026-.19.017-.064-.008-.126-.03-.18-.066zM56.63 5.893l-3.715-2.2c-.124-.074-.218-.188-.266-.324-.05-.136-.05-.284-.002-.42.024-.06.06-.115.109-.16.047-.044.105-.077.167-.096.062-.02.128-.025.192-.015.065.01.126.034.18.07l3.716 2.197c.123.074.217.189.266.324.049.136.05.284.002.42-.024.061-.062.116-.11.16-.047.044-.104.078-.166.097-.062.02-.128.025-.192.016-.065-.01-.127-.033-.18-.069zM57.107 7.67l-3.715-2.197c-.123-.075-.217-.19-.266-.325-.049-.136-.05-.284-.002-.42.023-.061.06-.116.108-.16.047-.045.104-.079.167-.098.062-.02.128-.025.193-.016.064.01.126.034.18.07l3.715 2.197c.123.075.216.19.265.325.049.135.05.283.003.42-.023.06-.06.115-.108.16-.047.045-.105.078-.167.098-.062.02-.128.025-.193.015-.064-.01-.126-.033-.18-.07zM58.243.675c-.07.026-.135.066-.189.117-.054.052-.097.114-.126.183-.03.068-.044.142-.044.217 0 .075.016.148.045.217l.948 3c.036.151.127.284.256.371.128.088.284.125.438.103.07-.026.134-.066.188-.118.054-.051.096-.113.126-.182.029-.069.043-.142.043-.217 0-.075-.016-.148-.046-.217l-.95-3c-.036-.15-.126-.282-.254-.37-.127-.088-.282-.125-.435-.104z"/>
            <path fill="#DAAD0F" d="M108.953 33.615l.228.112c.075-.085.166-.156.267-.208.67-.357 1.46-1.908 1.008-2.818-.113-.223-.287-.4-.378-.63-.209-.52.045-1.088.112-1.642.067-.554-.35-1.32-.75-1.047.33-.75.657-1.672.287-2.44-.704-1.447-2.847-.566-3.683-1.927-.244-.404-.311-.94-.606-1.299-.404-.493-1.09-.434-1.561-.096-.315.251-.59.548-.817.881-.045.016-.09.03-.137.04-.399.064-.581-.064-.983-.268-.766-.396-1.645.132-2.271.96-.268.348-.761-.354-1.048-.035-.653.728-1.754.88-2.143 1.845-.217.536-.168 1.187-.442 1.669-.273.482-.886.723-1.071 1.305-.292.92.305 1.976.163 2.914-.064.442.215.937.193 1.104-.04.361.002.728.123 1.071-.078 1.216-.07 2.436.022 3.651.04.854.236 1.694.578 2.478 0 0 .207.39.354.661l.142.268c.062-.566.175-1.125.337-1.671-.117-.64.426-1.607.536-2.277-.803-.236-1.787-.954-1.532-1.985.254-1.031 1.02-1.626 1.77-1.473l1.002.565c3.456.343 3.378-3.782 6.531-3.528 2.063.166 3.166.897 3.686 1.385.172.8.201 1.625.083 2.435z"/>
            <path fill="#E8C6A6" d="M109.416 32.771c.134-.858.062-1.736-.211-2.56-.502-.328-1.058-.563-1.642-.695-.483-.116-.975-.188-1.471-.214-.268-.016-.536-.024-.819-.019-3.306.049-2.974 3.785-6.603 3.78l-.984-.383v.024c-.061-.012-.124-.02-.187-.024-.838-.035-1.575.726-1.647 1.704-.031.298.014.6.13.876.118.276.303.519.54.704l-.676 2.947-1.682 7.337c-.031.139-.034.283-.01.424.026.14.08.275.157.394.078.12.179.223.297.303.118.08.252.136.392.164l4.323.863c.29.06.593.004.844-.155.25-.16.428-.41.496-.7l1.248-5.443.217.043c.512.088 1.034.106 1.551.054.556-.056 1.099-.203 1.607-.434 1.57-.713 2.719-2.208 3.129-4.152l.876-4.176.125-.662zm-6.463 1.2c-.22-.037-.343-.33-.268-.65.075-.322.297-.558.514-.52.217.037.343.326.268.65-.075.325-.297.568-.514.52zm2.748 2.623l-.383.037-.324.03c-.09.011-.181-.001-.264-.036-.083-.035-.156-.092-.21-.164-.055-.072-.089-.157-.1-.247-.011-.09.002-.18.038-.263l.027-.062c.045.098.119.18.213.233.094.053.202.076.309.064l.432-.042.267-.027c.134-.013.261-.064.367-.146.106-.083.186-.194.231-.32l.027.117c.018.097.016.196-.007.291-.022.095-.064.185-.124.263-.059.078-.134.142-.22.189-.086.047-.181.075-.279.082zm2.098-1.91c-.217-.038-.341-.33-.268-.651.072-.322.297-.558.514-.52.217.038.34.327.268.651-.072.324-.295.554-.514.52z"/>
            <path fill="#292929" d="M108.04 33.513c.217.035.34.327.268.651-.073.324-.298.554-.517.52-.22-.035-.341-.33-.268-.651.072-.322.3-.55.517-.52zM102.953 33.971c-.22-.037-.343-.33-.268-.65.075-.322.297-.558.514-.52.217.037.343.326.268.65-.075.325-.297.568-.514.52z"/>
            <path fill="#D3A56C" d="M104.453 35.95l.027-.061c.044.098.119.18.213.233.093.053.202.076.309.064l.707-.07c.134-.012.261-.063.367-.145.106-.083.186-.194.23-.32l.027.117c.019.097.016.196-.006.292-.023.095-.065.185-.125.263-.06.078-.135.142-.222.189-.086.046-.181.074-.279.081l-.707.067c-.09.013-.182.002-.266-.033-.084-.034-.158-.09-.213-.163-.055-.072-.09-.158-.101-.248-.011-.09.003-.182.039-.265z"/>
            <path fill="#C68642" d="M109.826 31.876l-.102-.021-1.2-.198c-.089-.015-.181.004-.257.054-.076.05-.13.126-.152.214-.009.043-.009.087-.001.13.009.043.027.084.052.12.025.036.057.067.094.09.037.023.079.039.122.045l1.206.201h.083c.089.016.182-.003.258-.053.076-.05.13-.126.152-.215.012-.082-.007-.166-.054-.234-.048-.068-.119-.116-.201-.133zM103.047 31.073c.021-.088.076-.165.152-.215.076-.05.168-.068.257-.053l1.289.214c.043.008.084.024.121.047.037.024.069.054.094.09.024.036.042.077.051.12.009.042.01.086.002.13-.023.087-.077.163-.153.213-.076.05-.168.069-.257.054l-1.289-.214c-.086-.016-.163-.065-.213-.138-.051-.072-.07-.161-.054-.248z"/>
            <path fill="#fff" d="M103.13 37.88c-.022.128-.016.26.018.385.145.536.753.804 1.353.587.208-.069.395-.19.542-.353.147-.162.249-.36.296-.574l-2.209-.046z"/>
        </g>
        <path fill="#FFD7B3" d="M314.742 86.57c6.258 7.633 10.798 13.338 16.599 19.469.074.081-1.668 1.676-2.794 3.023-.134.161-.3.291-.489.382-.189.09-.395.138-.604.14-.209.003-.416-.041-.607-.127-.19-.086-.36-.212-.497-.371-.85-.981-1.065-1.587-3.011-4.378-4.547-6.524-9.171-13.3-10.997-16.94l2.4-1.197z"/>
        <path fill="#EFE4D4" d="M227.211 11.112l-74.584-2.825c-4.192-.158-7.719 3.11-7.878 7.3l-2.823 74.552c-.159 4.191 3.111 7.717 7.304 7.876l74.584 2.824c4.192.159 7.719-3.11 7.878-7.3l2.823-74.552c.159-4.19-3.111-7.716-7.304-7.875z"/>
        <path fill="#F6C19A" d="M183.113 101.685l.362-.425.058.057-.42.368z"/>
        <path fill="#EFE4D4" d="M184.684 100.521l.004 2.636c-.061 1.612-.949 3.159-2 4.382-.65.757-1.073 1.682-1.222 2.668-.149.986-.017 1.994.38 2.909.397.915 1.044 1.7 1.866 2.265.822.565 1.787.888 2.784.931.997.043 1.986-.195 2.854-.687.868-.493 1.579-1.219 2.054-2.096.474-.878.692-1.871.629-2.866-.063-.996-.406-1.953-.988-2.763-.949-1.321-1.778-2.934-1.716-4.568l.204-2.633c.049-.562.302-1.087.711-1.476s.947-.615 1.511-.636l-8.968-.34c.533.097 1.015.377 1.362.793.347.415.536.94.535 1.481z"/>
        <path fill="#110B03" d="M159.537 36.725c-.76 1.778-1.176 3.766-2.396 5.246-1.053 1.262-2.592 2.01-3.739 3.153-1.148 1.142-1.839 3.164-.802 4.505.486.638 1.269.986 1.756 1.62 1.377 1.787-.256 4.168-.924 6.273-.359 1.208-.398 2.488-.113 3.715.285 1.228.883 2.36 1.738 3.287 1.24 1.32 3.095 2.39 3.263 4.18.133 1.417-.898 2.833-.383 4.164.756 1.956 3.759 1.554 5.275 3 1.06 1.018 1.124 2.667 1.559 4.078.409 1.317 1.18 2.492 2.225 3.392 1.045.9 2.322 1.488 3.685 1.697 1.433.18 2.953-.08 4.269.551 1.699.822 2.635 2.95 4.416 3.494 3.736 1.13 4.795-3.337 7.452-5.614 3.349-2.865 9.574-2.18 11.182-6.335.377-.974.45-2.18 1.249-2.819.798-.64 2.057-.515 2.93-1.091 1.645-1.086 1.074-3.847 1.859-5.58.262-.37.546-.727.848-1.066 6.99-9.36 8.479-20.838 2.681-28.448-4.797-6.315-13.45-8.46-22.449-6.522-.079-.074-.12-.158-.2-.232-1.888-1.78-4.306-2.327-6.795-2.29-4.628.062-6.202 4.208-10.07 4.819-1.47.23-2.92-.78-4.411-.716-1.939-.008-3.346 1.756-4.105 3.54z"/>
        <path fill="#C48357" d="M213.536 54.737l-1.699-4.457-.002.06.047-1.25c.037-1.314-.168-2.625-.606-3.866-.528-1.568-1.193-3.306-2.279-4.506-.397-.576-.85-1.111-1.351-1.6-.087.426-.219.84-.393 1.238-1.058 2.467-3.006 4.447-5.456 5.547-2.287 1.061-4.699 2.408-5.101 4.16-.112-.04-.226-.071-.342-.095-.62.016-1.218.236-1.699.627-.481.391-.818.931-.959 1.535-.004.099-.057.2-.078.304-.046.214-.073.432-.079.65-.048.6.069 1.202.339 1.74.271.538.683.991 1.193 1.311.263 1.17.164 2.393-.284 3.506-.449 1.112-1.225 2.063-2.226 2.724l.001-.027c-1.02 3.3-4.456 14.55-4.456 14.55-.091.22-.127.459-.103.695.024.237.106.464.238.66.133.198.313.359.524.47.21.11.445.167.683.165l4.628.208c.54-.005 1.066-.177 1.505-.491.44-.315.771-.757.95-1.267l3.179-9.828c.228-.632.644-1.18 1.191-1.569.23-.23.51-.401.818-.502.308-.101.636-.128.957-.079 6.006.942 8.656-2.9 8.869-7.806l.038-.992 1.175-.285c.157-.041.304-.115.43-.217.126-.101.23-.229.303-.373.074-.145.116-.303.123-.465.008-.162-.019-.324-.078-.475zm-3.479-6.034l-2.337-.088c-.154-.02-.296-.098-.396-.217-.101-.12-.153-.272-.147-.427.006-.156.069-.304.179-.415.109-.11.256-.177.411-.186l2.337.089c.154.02.296.097.396.216.1.12.153.272.147.427-.006.156-.07.304-.179.415-.109.111-.256.177-.411.186zm-.724 1.713c-.023.609-.366 1.084-.76 1.07-.395-.015-.7-.521-.677-1.124.022-.603.365-1.084.76-1.07l1.217.047-.609.564c.049.166.072.34.069.513zm-.914 9.618c-.397-.094-.748-.326-.991-.653-.243-.328-.362-.731-.336-1.138l2.836.53c.093 1.596-1.487 1.261-1.487 1.261h-.022z"/>
        <path fill="#fff" d="M207.12 58.244c-.026.407.094.81.337 1.138.242.328.593.559.991.653 0 0 1.58.334 1.508-1.26l-2.836-.53z"/>
        <path fill="#110B03" d="M210.105 47.458l-2.337-.088c-.155.009-.302.075-.411.186-.109.111-.173.259-.179.415-.006.155.046.308.147.427.1.119.242.196.396.216l2.337.089c.155-.009.302-.075.411-.186.109-.111.173-.26.179-.415.006-.156-.047-.308-.147-.427-.1-.119-.242-.196-.396-.217zM195.065 56.14c-.51-.32-.922-.774-1.192-1.312-.271-.538-.388-1.14-.34-1.739.007-.219.033-.436.079-.65.004-.105.052-.207.078-.305.141-.603.478-1.143.959-1.535.481-.39 1.079-.611 1.699-.626.116.023.231.055.342.095.385-1.753 2.798-3.1 5.101-4.16 2.45-1.1 4.398-3.08 5.456-5.548.175-.397.306-.812.393-1.237.034-.149.052-.3.055-.453.02-1.389-5.815-3.372-7.2-3.507-6.807-.686-20.447 3.289-11.742 22.302.67 1.502 1.671 2.833 2.929 3.894 0 0 .72.84.852.982l-.001.027c1.005-.658 1.786-1.607 2.238-2.72.452-1.112.555-2.336.294-3.509zM208.655 49.286c-.395-.015-.737.466-.76 1.069-.023.603.282 1.108.677 1.123.394.015.736-.466.759-1.069.005-.175-.018-.35-.068-.518l.609-.564-1.217-.041z"/>
        <path fill="#fff" d="M171.049 95.217c-1.674-2.808-3.938-10.031 7.965-19.463 5.151-3.583 12.538-6.46 20.067-1.777.661.424 1.271.925 1.816 1.49 5.377 5.398 7.268 7.243 7.402 16.17.011.645-.109 1.285-.353 1.882-.244.596-.607 1.137-1.068 1.588-.46.452-1.007.805-1.608 1.038-.602.234-1.244.342-1.889.319l-32.332-1.247z"/>
        <path fill="#fff" d="M171.366 95.23c-.573-.021-1.133-.183-1.629-.472-.496-.288-.913-.695-1.214-1.183-.301-.488-.477-1.043-.511-1.616-.035-.572.072-1.144.311-1.666 1.99-4.25 4.517-8.47 7.642-11.79 1.995-2.482 6.319-.918 9.114 1.115 4.843 3.527 4.162 7.157.02 16.153l-13.733-.542z"/>
        <path fill="#CAEAEA" d="M271.182 102.974l-.001 2.568c-.059 1.571-.925 3.079-1.949 4.27-.635.739-1.048 1.641-1.194 2.603-.145.962-.017 1.946.37 2.838.387.893 1.018 1.659 1.821 2.211.802.551 1.743.866 2.716.908.972.042 1.937-.191 2.784-.671.847-.48 1.541-1.189 2.004-2.045.463-.857.675-1.826.613-2.797-.063-.971-.397-1.905-.965-2.695-.931-1.293-1.738-2.864-1.678-4.451l.204-2.566c.046-.548.291-1.061.691-1.441.399-.379.924-.599 1.474-.617l-8.738-.331c.518.095.988.368 1.325.773.338.405.523.916.523 1.443zM233.679 55.863h-2.57c-1.571-.06-3.08-.925-4.272-1.95-.739-.634-1.641-1.047-2.604-1.192-.962-.146-1.946-.018-2.84.37-.893.386-1.659 1.017-2.211 1.819-.551.802-.866 1.742-.908 2.715-.042.972.191 1.936.671 2.783.481.846 1.19 1.54 2.047 2.003.856.462 1.826.675 2.797.612.972-.062 1.906-.396 2.697-.964 1.287-.93 2.86-1.737 4.452-1.677l2.567.204c.549.046 1.062.291 1.442.69.379.4.599.924.617 1.475l.331-8.735c-.095.518-.368.987-.773 1.325-.405.337-.916.522-1.443.522z"/>
        <path fill="#CAEAEA" d="M313.942 15.352L241.263 12.6c-4.085-.155-7.522 3.03-7.677 7.114l-2.751 72.647c-.155 4.084 3.032 7.52 7.117 7.674l72.679 2.753c4.086.154 7.523-3.03 7.678-7.114l2.751-72.648c.154-4.083-3.032-7.52-7.118-7.674z"/>
        <path fill="#fff" d="M295.893 93.257l.084-2.243c.357-9.414-7.327-17.398-17.07-17.767l-9.209-.35c-9.087-.343-16.788 6.55-17.12 15.328l-.129 3.403c-.012.553.085 1.102.286 1.617.201.515.501.986.883 1.385.383.399.84.719 1.346.94.507.223 1.052.344 1.604.355l34.881 1.321c.554.031 1.109-.048 1.632-.231.524-.184 1.006-.47 1.418-.84.413-.371.749-.82.988-1.32.239-.5.377-1.044.406-1.598z"/>
        <path fill="#199FB2" d="M275.522 80.362c-.595-.022-1.181-.162-1.723-.411-.541-.25-1.028-.603-1.433-1.041-.405-.438-.719-.951-.924-1.51-.206-.56-.299-1.155-.275-1.75l.054-1.427c-1.583.952-2.717 2.348-1.878 3.937 1.719 3.237.851 1.717 3.95 6.789.207.299.48.546.799.72.318.175.673.274 1.037.287.363.014.724-.057 1.055-.207.331-.15.622-.376.851-.659 3.474-4.822 2.493-3.372 4.452-6.47.888-1.411.073-2.78-1.252-3.83l-.047 1.244c-.051 1.19-.569 2.313-1.443 3.123-.873.81-2.031 1.244-3.223 1.206z"/>
        <path fill="#A33600" d="M289.632 40.353c.292-.797.367-1.789-.187-2.41-.555-.62-1.712-.599-2.422-1.193-.556-.455-.768-1.212-1.152-1.825-.353-.562-.865-1.006-1.472-1.276-.606-.27-1.279-.353-1.933-.239-.691.14-1.401.509-2.06.26-.94-.347-1.414-1.82-2.404-1.697-.672.082-1.05.891-1.676 1.167-.795.355-1.645-.244-2.47-.495-.586-.166-1.206-.166-1.791.001s-1.112.494-1.521.944c-.748.812-1.402 2.124-2.454 1.919-.372-.073-.688-.347-1.055-.42-.786-.153-1.48.64-1.73 1.443-.25.804-.235 1.693-.543 2.473-.361.917-1.13 1.562-1.695 2.354-.565.792-1.033 1.839-.639 2.736.3.691 1.028 1.11 1.258 1.84.57 1.905-.839 3.633.124 5.767.318.748.804 1.412 1.42 1.942.154-.535.475-1.006.916-1.346.442-.34.98-.529 1.537-.54l.23.008.069-1.821c.021-.505.178-.994.452-1.417.275-.424.659-.766 1.111-.99l8.183-4.078c3.513-1.75 7.812.633 7.926 4.548l-.029.764-.145 3.847c.429.229.786.572 1.032.991.551-.396 1.058-.789 1.125-1.423.058-.533-.28-1.08-.169-1.611.111-.531.567-.84.925-1.244 1.414-1.728-.218-4.417.251-6.636.277-.802.607-1.584.988-2.343z"/>
        <path fill="#D9ACA7" d="M275.989 55.071H279.885V57.236H275.989z" transform="rotate(2.169 275.989 55.07)"/>
        <path fill="#EAB5AD" d="M285.474 52.608l.146-3.846.029-.764c-.114-3.916-4.413-6.299-7.926-4.549l-8.183 4.078c-.452.224-.836.566-1.111.99-.275.423-.431.912-.452 1.417l-.069 1.822-.23-.01c-.557.013-1.095.202-1.537.541-.441.34-.762.812-.917 1.346-.119.343-.188.7-.206 1.063-.063 1.683 1.002 3.093 2.402 3.156.136.005.273-.004.408-.027.168 1.294.594 2.542 1.252 3.669.657 1.127 1.534 2.112 2.578 2.896l-.417 9.882-.054 1.427c-.01 1.174.436 2.306 1.246 3.157.809.852 1.917 1.356 3.091 1.406 1.174.05 2.321-.358 3.2-1.137.878-.78 1.42-1.87 1.51-3.04l.047-1.246.424-10.074c1.121-.708 2.088-1.636 2.841-2.727.753-1.092 1.278-2.324 1.543-3.624.568-.224 1.056-.615 1.398-1.122.342-.506.523-1.104.518-1.715.038-.674-.123-1.344-.462-1.928-.248-.443-.619-.804-1.069-1.04zm-8.993 8.375c-2.05-.42-2.509-1.604-2.579-2.564l5.402.804c.192 2.27-2.823 1.76-2.823 1.76zm1.621-4.074l-1.082.301c-.617.175-1.165-.472-1.026-1.19l.032-.12c.071.165.199.3.361.38.161.08.346.102.521.06l1.082-.302c.22-.078.413-.218.557-.402.144-.184.231-.405.253-.638l.067.217c.123.327.112.69-.031 1.01-.144.32-.408.569-.735.694l.001-.01zm-6.72-8.414l1.993.076c.147.032.277.116.368.234.092.12.139.266.133.416-.005.15-.063.293-.164.404-.1.112-.236.185-.384.206l-1.994-.075c-.146-.033-.277-.116-.368-.235-.092-.118-.139-.266-.133-.415.006-.15.064-.293.164-.405.1-.111.236-.184.385-.206zm1.262 1.856c.39.015.693.513.671 1.096-.022.582-.362 1.056-.752 1.041-.39-.014-.692-.513-.67-1.095.022-.583.361-1.056.751-1.042zm8.749-2.343c-.011-.149.036-.296.131-.41.096-.114.232-.187.38-.203l1.844.07c.138.042.258.129.341.246.084.117.127.26.121.403-.005.144-.058.282-.151.393-.092.11-.218.188-.359.22l-1.844-.07c-.147-.027-.277-.11-.363-.231-.086-.122-.122-.271-.1-.419zm.26 3.755c.022-.604.361-1.057.751-1.042.39.015.692.513.67 1.095-.022.583-.361 1.057-.751 1.042-.39-.015-.694-.47-.671-1.074l.001-.021z"/>
        <path fill="#842902" d="M281.452 48.13c-.018.158.025.317.12.442.094.125.233.207.385.226l1.976.075c.148-.022.283-.097.382-.212.1-.115.157-.263.163-.417.006-.154-.04-.306-.131-.428-.09-.122-.219-.207-.364-.24l-1.977-.075c-.153.008-.297.078-.401.196-.104.118-.159.273-.153.432z"/>
        <path fill="#fff" d="M276.258 61.013s3.015.51 2.839-1.76l-5.402-.803c.054.96.513 2.143 2.563 2.563z"/>
        <path fill="#842902" d="M270.586 49.083c-.021.174.029.35.137.487.109.138.267.228.441.25l2.259.086c.168-.025.322-.108.436-.234.113-.126.179-.288.185-.458.007-.17-.046-.336-.15-.471-.104-.135-.251-.229-.417-.266l-2.259-.085c-.175.008-.34.086-.458.215-.119.13-.181.3-.174.476z"/>
        <path fill="#010616" d="M283.041 51.872c.028-.733-.341-1.313-.816-1.33-.475-.018-.887.557-.914 1.265-.027.707.341 1.312.816 1.33.475.018.887-.532.914-1.265zM273.524 51.512c.028-.733-.341-1.313-.816-1.33-.475-.019-.888.557-.914 1.264-.027.708.341 1.313.816 1.33.475.019.886-.531.914-1.264z"/>
        <g clip-path="url(#prefix__clip2)">
            <path fill="#FFD7B3" d="M446.257 129.362c.653-.289 5.146-2.15 5.818-2.41 1.383-.533 4.13-1.851 5.239-1.712 1.957.256 5.867.708 4.74 1.261-2.223 1.097-10.54 6.61-13.229 8.213l-2.568-5.352z"/>
            <path fill="#FF6F00" d="M456.137 125.263c-.027.063.004.189.067.346 2.915-1.065 6.469.619 7.294 3.785l2.333.794c2.092.724 2.816-1.418.97-2.881l-7.017-5.55c-.335-.266-.755-.263-.862.019l-2.785 3.487z"/>
            <path fill="#FFD7B3" d="M456.123 125.268c-.067 1.021 1.028 1.921 1.35 2.034l6.031 2.086c-.839-3.164-4.465-5.185-7.381-4.12zM462.279 111.41c.71-.064 5.563-.403 6.283-.434 1.477-.063 4.508-.439 5.517.048 1.767.855 1.993 3.171.753 3.347-2.461.328-8.753 2.265-11.813 2.928l-.74-5.889z"/>
            <path fill="#FF6F00" d="M470.761 110.942c-.039.054-.036.183-.006.351 3.073-.452 6.206 1.911 6.384 5.18l2.122 1.264c1.904 1.141 3.043-.82 1.535-2.622l-5.747-6.859c-.276-.328-.688-.409-.855-.168l-3.433 2.854z"/>
            <path fill="#FFD7B3" d="M470.744 110.945c-.261.975.617 2.089.913 2.261l5.481 3.267c-.178-3.269-3.323-5.982-6.394-5.528z"/>
            <path fill="#000543" d="M387.51 121.655l12.697-7.113c2.246 1.984 4.261 3.787 5.541 5.021 1.191 1.15 3.493 5.202 4.768 6.253 3.142 2.601 4.819 3.177 7.997 5.749 1.539 1.24 4.048 4.296 6.388 6.278 4.598 3.902 6.116 8.293 3.492 11.813-2.473 3.313-7.853 3.373-12.459.128-6.81-4.799-22.525-16.979-29.992-22.291-2.742-1.927-.624-3.323 1.568-5.838z"/>
            <path fill="#000543" d="M415.61 148.142c-1.186-3.263.07-6.739 2.934-8.176 2.246-1.11 15.441-6.854 22.615-9.899 2.169-.924 3.788-1.601 4.381-1.827.04-.014.081-.032.12-.049.493-.196 1.051-.467 1.573-.337.944.239 1.512.622 1.876 1.634l1.779 4.859c.189.607.168 1.26-.059 1.853-.228.594-.648 1.094-1.193 1.42-.083.045-.19.104-.311.173-.787.45-2.339 1.398-4.288 2.602-6.223 3.85-16.461 10.295-18.719 11.374-.295.143-.853.395-1.541.704-3.503 1.571-7.761-.449-9.167-4.331zM428.187 119.685c-.139-3.458 2.108-6.403 5.274-6.899 2.474-.385 16.79-1.867 24.54-2.602 2.348-.224 4.099-.379 4.732-.413l.129-.01c.528-.04 1.142-.128 1.599.153.829.514 1.254 1.051 1.3 2.122l.218 5.175c-.002.636-.218 1.252-.614 1.75-.396.497-.948.846-1.568.99-.095.018-.212.04-.35.07-.886.191-2.653.626-4.874 1.183-7.088 1.784-18.794 4.825-21.284 5.176-.323.045-.93.12-1.682.204-3.801.437-7.254-2.774-7.42-6.899z"/>
            <path fill="#000543" d="M387.615 127.854l11.607-19.736c2.986.26 5.691.516 7.442.744 1.64.215 5.902 2.104 7.551 2.191 4.082.208 5.694-.738 9.774-.562 1.985.072 4.905.269 7.964.475 6.015.4 10.817 4.234 10.798 8.627-.018 4.135-4.305 7.385-9.939 7.512-10.363.241-35.607.818-45.197.749z"/>
            <path fill="#915B3C" d="M358.338 103.858c.615-.945 1.057-2.037 1.932-2.739.752-.602 1.746-.846 2.547-1.381.801-.536 1.397-1.606.899-2.51-.235-.43-.669-.732-.911-1.157-.665-1.204.542-2.379 1.139-3.515.326-.676.466-1.425.407-2.172-.059-.748-.315-1.466-.743-2.082-.624-.919-1.643-1.766-1.579-2.826.05-.837.802-1.527.615-2.362-.275-1.227-2.119-1.363-2.901-2.388-.549-.723-.431-1.683-.564-2.555-.146-.83-.51-1.605-1.055-2.247-.546-.642-1.252-1.126-2.047-1.404-.846-.283-1.788-.318-2.52-.847-.94-.677-1.31-2.032-2.343-2.567-2.143-1.114-3.193 1.338-5.006 2.329-2.28 1.249-5.971.078-7.32 2.287-.314.518-.47 1.197-1.01 1.48-.541.282-1.288.043-1.868.27-1.089.422-1.001 2.095-1.618 3.012-.194.183-.399.355-.612.516-5.073 4.555-7.024 11.02-4.234 16.149 2.311 4.246 7.325 6.559 12.923 6.549.044.048.058.105.099.159.97 1.264 2.361 1.875 3.889 2.157 2.785.528 4.143-1.667 6.511-1.545.907.047 1.685.811 2.587.97 1.148.203 2.16-.644 2.783-1.581z"/>
            <path fill="#FFD7B3" d="M328.135 105.181c.415-.144.848-.228 1.286-.249 7.402.186 17.27.354 22.791 1.962.707.207 4.318 2.745 1.894 6.926-1.633 2.812-4.132 1.735-8.276.563-1.264-.355-14.471-2.707-18.964-4.796-.131-.087-.239-.205-.314-.343-.9-1.335.003-3.541 1.583-4.063z"/>
            <path fill="#39BACD" d="M390.35 130.707c-.1.038-3.225-2.49-5.39-3.108-11.325-3.226-5.532-4.377-22.462-7.572-13.273-2.51-14.922-3.895-17.877-11.449-1.225-4.832 2.356-8.427 7.419-11.718 7.322-4.766 12.716-.477 18.961 2.668 2.297 1.158 4.673 2.15 7.111 2.971 14.886 4.987 25.235.943 27.224 5.468l.147.249c.433.987.075 2.719-.12 3.653-2.031 10.211-8.311 16.282-15.013 18.838z"/>
            <path fill="#FFD7B3" d="M346.28 107.27c1.08.81 3.041.014 4.378-1.775 1.338-1.789 1.548-3.892.465-4.7-1.083-.808-3.041-.014-4.377 1.773-1.335 1.788-1.543 3.889-.466 4.702z"/>
            <path fill="#39BACD" d="M405.988 112.2c-.617 1.918-.531 4.043-1.391 5.876-.999 2.114-3.089 3.465-4.587 5.259-1.046 1.251-1.822 2.743-3.064 3.792-.991.839-2.221 1.351-3.414 1.835-.892.365-2.176 1.329-3.063 1.69-.352.145-.359-.309-.71-.453-.612-.251-.6-1.133-.362-1.75.606-1.574 1.929-2.744 3.211-3.841 2.215-1.892 4.458-3.77 6.391-5.95.773-.809 1.406-1.741 1.873-2.758.468-1.028.525-2.197.158-3.265-.26-.668-.744-1.358-.507-2.036.364-1.035 1.815-.955 2.362-1.849.575-.951-1.172-2.646.598-2.439 3.224.378 3.132 3.927 2.505 5.889z"/>
            <path fill="#915B3C" d="M327.526 96.037c-1.026-1.4.394-2.663-.009-5.277-.219-1.45 1.554-3.319 1.556-3.32 1.32-1.724 5.214-5.99 11.177-2.145.986.636 1.778 1.53 2.293 2.583l1.522 3.113c1.428 2.918-.569 6.411-3.816 6.554l-.066.003c-.738.04-1.469.15-2.186.326-.793.179-2.497.533-3.777.131-.848-.27-2.342.1-3.223-.016-1.191-.16-2.74-.957-3.471-1.952z"/>
            <path fill="#FFD7B3" d="M329.583 97.567c-.891-1.193-1.273-2.692-1.06-4.167.042.179.131.344.257.479.352.28.802-.034 1.102-.239 3.14-2.026 6.195-1.59 7.6-1.077 1.154.424 2.179 1.181 3.352 1.57.656.219 1.346.317 2.037.289.008.399-.142.785-.416 1.074l3.315 2.505 4.922 3.709c.224.154.377.391.427.658.049.267-.009.543-.163.767l-2.359 3.113c-.175.207-.424.337-.695.362-.27.025-.539-.057-.749-.229l-6.146-4.63c-.205.222-.429.426-.668.61-1.214.906-2.737 1.295-4.237 1.082-1.499-.213-2.854-1.011-3.768-2.219l-2.048-2.698-.703-.959zm5.747 1.28l-.048-.053c.018.102 0 .208-.051.298s-.133.16-.23.197l-.62.208c-.129.035-.265.033-.392-.006-.128-.039-.242-.113-.33-.213l.036.124c.051.198.178.368.353.473.175.105.384.137.583.09l.619-.21c.353-.114.403-.61.09-.898l-.01-.01zm-4.156-.16c.212.283.531.401.714.265.183-.136.164-.476-.048-.758-.212-.283-.529-.404-.714-.266l-.569.42.478.07c.033.1.081.192.144.275l-.005-.006zm3.956-3.73l-.565.42.476.071c.03.094.075.183.133.263.212.282.531.401.716.263.185-.138.16-.476-.05-.76-.209-.285-.52-.39-.705-.251l-.005-.007z"/>
            <path fill="#915B3C" d="M334.206 93.992l-1.043.917c-.035.037-.078.067-.126.086-.047.02-.098.03-.15.028-.051 0-.102-.013-.148-.034-.047-.022-.089-.053-.123-.092-.034-.038-.059-.084-.075-.133-.015-.049-.02-.1-.015-.151.006-.052.022-.101.047-.146.026-.044.061-.083.102-.114l1.029-.912c.072-.066.167-.1.265-.096.098.005.189.047.255.12.066.072.101.167.096.265-.004.098-.047.19-.119.255l.005.007zM329.359 97.024l.784-.743c.075-.04.161-.055.244-.04.084.014.16.055.217.118.058.063.092.142.099.227.006.084-.016.169-.063.24l-.78.742c-.074.041-.159.056-.243.044-.083-.013-.16-.053-.219-.114-.058-.061-.095-.14-.104-.224-.009-.084.011-.169.055-.24l.01-.01z"/>
            <path fill="#FA694F" d="M335.249 99.757l-.62.21c-.198.047-.408.015-.583-.09s-.302-.275-.352-.473l-.037-.124c.088.103.202.178.331.218.129.04.267.043.397.007l.62-.208c.097-.037.178-.106.23-.197.051-.09.069-.196.051-.298l.048.052c.32.292.269.787-.085.903z"/>
            <path fill="#000543" d="M335.852 95.226c.21.285.232.625.05.761-.183.136-.505.02-.717-.263-.058-.08-.103-.169-.132-.263l-.477-.072.565-.42c.179-.144.499-.025.711.257zM331.132 97.935c.185-.138.504-.02.714.265.21.285.235.623.048.759s-.503.017-.714-.265c-.058-.08-.103-.17-.133-.263l-.478-.07.563-.426z"/>
            <path fill="#fff" d="M337.25 99.684c.078.064.141.143.188.233.046.089.074.187.082.287.007.1-.005.201-.037.297-.032.095-.083.183-.149.258-.137.194-.338.334-.567.395-.229.061-.473.041-.688-.058-.053-.031-.101-.068-.144-.111l1.315-1.3z"/>
            <path fill="#FFD7B3" d="M320.415 73.688c-.309-.362-.53-.79-.648-1.251-.031-.282.018-.567.14-.823.251-.622.606-1.197 1.05-1.7.404-.453 1.009-.855 1.847-.534.806.35 1.468.965 1.875 1.743.782 1.416 1.052 1.926 1.044 3.212-.009 1.609-.822 2.393-2.69 1.258-.953-.59-1.952-1.024-2.618-1.905z"/>
            <path fill="#FFD7B3" d="M322.474 70.268l-3.655-2.166c-.122-.074-.214-.187-.261-.32-.048-.133-.048-.28-.001-.413.023-.06.059-.115.106-.159s.103-.077.165-.096c.062-.02.127-.025.191-.015.063.01.124.034.177.07l3.654 2.165c.121.074.214.187.261.32.048.135.049.28.002.415-.023.06-.06.113-.107.156-.047.044-.103.077-.164.096-.062.019-.126.024-.19.015-.064-.009-.124-.032-.178-.068zM321.6 71.316l-3.656-2.167c-.121-.073-.213-.186-.261-.32-.048-.133-.048-.278 0-.412.022-.06.059-.115.106-.159.046-.044.103-.077.164-.096.062-.02.127-.025.191-.015.064.01.125.034.178.07l3.648 2.159c.121.074.213.187.261.32.048.134.049.28.002.414-.023.06-.059.113-.105.157-.047.043-.102.076-.163.096-.06.02-.125.026-.188.017-.063-.007-.124-.03-.177-.064zM321.548 72.899l-3.656-2.167c-.121-.073-.213-.186-.261-.32-.048-.133-.048-.279 0-.412.023-.06.059-.114.106-.158s.104-.077.165-.096c.061-.02.126-.024.19-.015.064.01.124.033.178.07l3.648 2.158c.121.073.213.187.261.32.048.134.049.28.002.414-.023.06-.059.113-.105.156-.047.044-.102.077-.163.097-.06.02-.125.025-.188.017s-.124-.03-.177-.064zM322.016 74.652l-3.656-2.167c-.121-.073-.213-.186-.261-.32-.048-.133-.048-.279 0-.412.023-.06.059-.114.106-.158s.104-.077.165-.096c.062-.02.127-.024.19-.015.064.01.125.033.178.069l3.655 2.167c.122.073.214.186.262.32.047.133.047.278 0 .412-.023.06-.06.114-.107.158s-.103.077-.164.096c-.062.019-.127.024-.19.015-.064-.01-.125-.033-.178-.07z"/>
            <path fill="#FFD7B3" d="M322.801 67.54c-.069.024-.134.062-.188.11-.055.05-.099.11-.13.176-.031.067-.048.14-.05.213-.003.073.01.146.037.215l.835 2.983c.031.15.116.283.24.373.123.09.276.131.428.115.07-.023.134-.06.189-.11.054-.048.098-.108.129-.174.031-.067.048-.14.05-.213.002-.073-.011-.146-.039-.214l-.835-2.984c-.03-.15-.115-.283-.238-.374-.123-.09-.276-.132-.428-.116z"/>
            <path fill="#39BACD" d="M363.151 95.08c.955-.165 5.365.376 5.747 1.279.187.444.125.956.287 1.411.441 1.236 2.13 1.35 3.429 1.157 1.299-.191 2.908-.333 3.637.756.222.331.318.731.548 1.054 1.365 1.94 5.092-.729 6.642 1.065.24.264.371.613.595.892.758.947 2.18.904 3.383.796 2.325-.204 4.857-.281 6.745 1.081.505.36.964.82 1.558 1 1.55.466 2.946-1.154 4.549-1.382 1.01-.155 2.008.282 2.942.7l2.981 1.331c.466.168.887.44 1.232.795.706.84.396 2.114-.017 3.121-1.035 2.497-2.547 4.769-4.45 6.688-.225.228-.513.468-.827.402-.314-.067-.51-.483-.626-.829-.5-1.396-1.368-2.631-2.512-3.574-1.144-.943-2.521-1.559-3.987-1.783-2.567-.343-5.194.551-7.777.265-2.232-.246-4.26-1.358-6.225-2.447-2.889-1.604-5.797-3.221-8.331-5.341-1.829-1.516-3.441-3.273-5.262-4.792-1.697-1.422-7.986-3.004-4.261-3.645z"/>
            <path fill="#FFD7B3" d="M323.762 71.653c7.985 5.88 13.817 10.304 20.993 14.834.094.06-1.232 2.035-2.01 3.621-.093.19-.226.356-.39.49-.163.133-.353.23-.558.282-.204.053-.417.062-.625.025-.207-.037-.404-.118-.578-.239-1.067-.748-1.428-1.279-4.013-3.513-6.038-5.217-12.214-10.667-14.887-13.75l2.068-1.75z"/>
            <path fill="#FFD7B3" d="M342.031 85.58c.442.028.877.118 1.292.268 6.815 3.025 15.932 6.974 20.437 10.592.578.465 2.939 4.199-.961 7.125-2.628 1.97-4.529.013-7.927-2.666-1.034-.817-12.398-8.076-15.771-11.733-.092-.128-.15-.277-.169-.433-.288-1.59 1.42-3.28 3.099-3.152z"/>
        </g>
    </g>
    <defs>
        <clipPath id="prefix__clip0">
            <path fill="#fff" d="M0 0H482.544V190.889H0z"/>
        </clipPath>
        <clipPath id="prefix__clip1">
            <path fill="#fff" d="M0 0H147.1V148H0z"/>
        </clipPath>
        <clipPath id="prefix__clip2">
            <path fill="#fff" d="M0 0H146.87V110.382H0z" transform="scale(-1 1) rotate(-47.605 -109.256 605.204)"/>
        </clipPath>
    </defs>
</svg>
