<svg xmlns="http://www.w3.org/2000/svg" width="320" height="437" fill="none" viewBox="0 0 320 437">
    <g clip-path="url(#prefix__clip0)">
        <g clip-path="url(#prefix__clip1)">
            <path fill="#D3A56C" d="M294.555 66.405l3.753-15.158-5.26-4.98-6.934 15.292 8.441 4.846z"/>
            <path fill="#F9DDCF" d="M292.955 46.675l-1.443-9.038c-.355-2.212.77-3.261 2.14-3.031l8.966 17.974-4.287 1.352c-.371.117-.771.1-1.131-.047-.36-.147-.657-.416-.839-.76l-3.406-6.45z"/>
            <path fill="#000543" d="M302.618 52.58l.765-.153c.478-.1.6-.798.259-1.46l-7.141-13.88c-.777-1.51-1.873-2.317-2.849-2.482l8.966 17.974zM298.069 49.427c.252-.131.536-.185.818-.155.282.03.549.143.767.325.218.181.377.423.457.695.081.272.079.562-.005.833-.084.27-.247.51-.467.689-.22.179-.488.288-.771.314-.282.027-.566-.031-.816-.166-.249-.135-.453-.34-.586-.591-.088-.167-.143-.35-.16-.539-.018-.188.002-.378.058-.558.056-.18.147-.349.268-.494.121-.145.27-.265.437-.353zM246.365 165.192l31.633-.522c-.113-4.739-.243-9.027-.427-11.819-.171-2.607-2.729-9.522-2.699-12.129.076-6.454 1.062-9.063 1.204-15.511.07-3.122-1.065-9.272-1.076-14.127-.031-9.522-3.789-15.849-10.725-16.26-6.536-.393-12.08 6.053-12.852 14.931-1.426 16.332-4.207 40.31-5.058 55.437z"/>
            <path fill="#000543" d="M257.707 119.528c4.85 2.594 10.756.589 13.837-4.742 2.417-4.153 15.316-28.706 22.206-42.049 2.091-4.04 3.619-7.062 4.156-8.165l.113-.227c.454-.91 1.042-1.945.981-2.958-.11-1.822-.559-2.95-2.059-3.759l-7.25-3.915c-1.846-.996-4.414.138-5.573 2.033-.091.157-.218.35-.359.573-.928 1.458-2.899 4.332-5.368 7.904-7.888 11.44-21.062 30.27-23.437 34.475-.307.547-.866 1.581-1.554 2.847-3.477 6.531-1.48 14.884 4.307 17.983z"/>
            <path fill="#A2C7CC" d="M183.852 141.662c1.989.027 3.743-1.763 5.73-1.499 1.471.195 2.691 1.492 4.153 1.807 2.632.561 4.96-2.189 7.645-1.998 1.995.144 3.643 1.868 5.561 2.54 1.046.35 2.173.383 3.238.092 1.064-.29 2.019-.889 2.742-1.723 1.241-1.422 1.98-3.542 3.643-4.243 3.371-1.423 6.796 4.154 10.264 3.019 1.748-.576 2.781-2.724 4.538-3.253 2.625-.793 5.312 2.348 7.949 1.635 1.388-.378 2.408-1.764 3.805-2.115 1.398-.351 2.877.417 4.189 1.186 2.075 1.205 4.193 2.442 5.82 4.326 2.429 2.809 3.503 6.795 3.572 10.664-3.902-1.496-6.992-5.194-10.974-6.369-4.188-1.233-8.477.527-12.363 2.413-3.886 1.885-7.945 4.05-12.225 3.573-2.823-.31-5.506-1.752-8.332-1.992-4.511-.377-8.632 2.296-12.653 4.478-4.02 2.181-8.826 3.919-12.938 1.72-4.111-2.199-6.112-7.461-9.904-10.184-.438-.267-.836-.595-1.181-.975-.795-.98-.735-2.535-.175-3.665 2.561-5.174 4.52.514 7.896.563z"/>
            <path fill="#000543" d="M258.674 177.697l10.884 6.674c6.042 1.908 18.695-1.389 20.359-7.731.661-2.53 2.702-10.638 3.557-13.103 2.116-6.097 3.88-8.256 6.064-14.327 1.055-2.94 1.925-9.129 3.452-13.729 3.001-9.057 1.432-16.231-5.012-18.821-6.064-2.438-13.381 1.907-16.922 10.082-6.529 15.029-16.771 36.873-22.382 50.955z"/>
            <path fill="#000543" d="M284.233 130.696c1.93 5.151 7.694 7.543 13.528 5.587 4.555-1.526 30.453-11.475 44.437-16.933 4.234-1.659 7.38-2.908 8.509-3.39.073-.034.154-.066.23-.095.947-.386 2.074-.783 2.691-1.576 1.124-1.444 1.526-2.589.937-4.185l-2.867-7.724c-.727-1.966-3.408-2.813-5.516-2.15-.174.056-.394.12-.65.193-1.664.473-5.022 1.333-9.247 2.395-13.475 3.39-35.806 8.863-40.361 10.437-.596.205-1.698.614-3.064 1.122-6.917 2.581-10.927 10.169-8.627 16.319z"/>
            <path fill="#A2C7CC" d="M178.284 145.474c-4.542 1.977-5.325-4.468-7.598-.208-1.019 1.905-6.997 9.719-6.685 25.035.196 9.145 3.213 21.002 5.582 23.682 3.752 4.214 8.548 2.877 12.888 2.026 7.654-1.491 21.898-3.833 26.254-3.742 13.989.257 26.117-2.928 52.426-4.656 7.286-.487 13.748.068 13.077-4.145-.331-2.072-1.238-2.325-1.459-4.386-.161-1.549.397-2.917.176-4.474-.362-2.604-2.758-5.198-4.746-7.694-1.989-2.496-3.638-5.015-4.45-7.607-.416-1.327-.607-2.642-1.146-3.97-.681-1.638-1.865-3.261-3.045-4.84l-5.38-7.183c-.193-.295-.455-.54-.764-.712-1.411-1.19-3.179-1.874-5.023-1.944-1.152.265-2.269.508-3.375.745-1.249.269-2.456.513-3.641.744-21.948 4.318-33.018 2.808-33.018 2.808-12.852-.64-25.953-1.277-30.073.521z"/>
            <path fill="#D3A56C" d="M197.057 135.449l9.366-21.074c.364-.818.405-1.744.113-2.591-.291-.847-.893-1.551-1.684-1.972-3.652-1.609-5.93-3.619-7.982-.18l-11.998 20.133 12.185 5.684z"/>
            <path fill="#A2C7CC" d="M203.287 125.844l-12.834-8.302c-.295-.193-.627-.325-.974-.387-.348-.062-.704-.053-1.048.025-.344.079-.669.227-.955.434-.286.207-.527.47-.709.772-5.775 8.938-10.527 17.736-14.478 23.815-6.378 9.825 9.411 23.729 16.387 14.123 8.643-11.895 10.053-14.768 15.679-26.368.342-.7.422-1.499.226-2.254-.196-.754-.655-1.413-1.294-1.858z"/>
            <path fill="#D3A56C" d="M203.29 69.808c-.536 5.926-1.828 11.528-2.648 17.727-.494 3.566-4.204 23.874-4.698 26.889-.421 2.537-.314.216 1.973 1.306 4.556 2.175 7.132 1.263 8.019-.707 2.675-5.905 3.343-16.593 3.193-26.96l.026.007c-.129-7.888.66-11.519.108-16.698-.018-.034-5.936-1.99-5.973-1.564z"/>
            <path fill="#D3A56C" d="M209.437 65.447c-.183-.753-.539-1.453-1.04-2.044-.346-.316-.777-.526-1.239-.604-1.064-.264-2.166-.344-3.257-.235-.982.1-2.091.516-2.467 1.912-.306 1.404-.119 2.87.528 4.154 1.125 2.38 1.545 3.22 3.247 4.432 2.131 1.518 3.94 1.19 4.208-2.356.172-1.81.553-3.543.02-5.259z"/>
            <path fill="#D3A56C" d="M202.981 64.918l.588-6.876c.018-.23-.044-.458-.175-.648s-.323-.328-.544-.393c-.101-.026-.206-.03-.309-.009-.102.02-.199.064-.282.127-.084.062-.152.143-.2.236-.048.093-.074.195-.077.3l-.615 6.885c-.019.23.042.46.172.65.131.191.323.33.545.396.104.03.214.036.32.017.107-.019.208-.063.295-.127.087-.065.158-.15.207-.246.049-.097.074-.204.075-.312zM205.177 64.753l.614-6.882c.017-.23-.045-.46-.176-.65-.131-.191-.324-.33-.546-.397-.103-.027-.212-.03-.317-.008-.105.021-.203.066-.288.132-.085.066-.153.15-.2.246-.047.096-.072.202-.071.31l-.614 6.881c-.012.227.054.45.185.636.132.185.322.32.54.383.101.026.207.028.309.007.102-.02.198-.063.282-.126.083-.062.152-.142.201-.234.049-.092.076-.194.081-.298zM207.313 66.191l.615-6.886c.019-.23-.042-.459-.173-.648-.131-.19-.324-.329-.545-.393-.101-.026-.207-.029-.309-.009-.103.02-.199.064-.283.127-.083.062-.151.143-.199.236-.048.093-.075.195-.078.3l-.615 6.885c-.019.23.043.46.174.65.131.189.323.327.545.391.101.027.206.03.309.01.102-.021.199-.064.282-.127.084-.063.152-.144.2-.236.048-.093.074-.195.077-.3zM209.183 68.474l.615-6.886c.018-.228-.042-.455-.17-.643-.128-.189-.317-.328-.536-.394-.101-.026-.206-.03-.309-.009-.102.02-.199.063-.282.126-.084.063-.152.144-.2.236-.048.093-.074.195-.077.3l-.62 6.885c-.017.23.046.46.177.649.132.19.324.328.546.393.1.024.205.025.306.004.101-.022.196-.066.278-.129.082-.063.149-.143.196-.235.047-.092.073-.194.076-.297zM199.026 63.41c.099-.067.211-.113.328-.135.118-.022.238-.02.355.007.116.026.226.076.323.146.096.07.177.16.238.263l3.027 4.04c.163.188.25.43.244.68-.006.248-.105.486-.277.666-.099.066-.21.112-.328.134-.117.022-.238.02-.354-.007-.117-.026-.227-.076-.323-.146-.097-.07-.178-.16-.239-.263l-3.026-4.04c-.164-.188-.251-.43-.245-.68.006-.248.105-.486.277-.666zM174.684 163.125c1.456.399 1.754 3.974.66 7.991-1.095 4.016-3.163 6.942-4.62 6.547-1.456-.395-1.758-3.975-.665-7.988 1.094-4.012 3.165-6.946 4.625-6.55zM176.641 208.112l-10.524 20.514c-.407.798-1.103 1.411-1.945 1.716-.842.304-1.769.277-2.592-.075-3.545-1.833-6.536-2.342-5.151-6.098l8.137-21.974 12.075 5.917z"/>
            <path fill="#A2C7CC" d="M173.065 219.006l-14.52-4.782c-.336-.108-.647-.283-.914-.514-.266-.232-.483-.514-.638-.831-.155-.318-.244-.663-.262-1.015-.018-.353.035-.705.157-1.036 3.327-10.107 7.184-19.316 9.446-26.224 3.649-11.128 24.376-7.573 21.28 3.889-3.83 14.197-5.182 17.098-10.676 28.762-.332.705-.904 1.268-1.614 1.589-.71.321-1.511.379-2.259.162z"/>
            <path fill="#D3A56C" d="M133.172 257.559c3.701-4.663 7.095-9.256 10.756-14.307 2.103-2.929 4.392-6.061 6.76-9.369 1.841-3.709 6.691-10.832 8.396-13.366 1.449-2.127-.076-.37 2.326.413 4.789 1.563 6.037 4.009 5.322 6.051-2.137 6.12-9.025 14.322-16.294 21.744-5.551 5.626-11.556 11.029-15.533 14.404l-3.535-3.766c.733-.814 1.53-1.465 1.802-1.804z"/>
            <path fill="#D3A56C" d="M136.547 265.455c-.353.67-.858 1.247-1.475 1.687-.414.216-.879.317-1.346.291-1.111.009-2.216-.159-3.274-.498-.963-.299-1.972-.94-2.045-2.332.003-1.387.512-2.726 1.431-3.765 1.637-1.98 2.254-2.668 4.201-3.453 2.455-.955 4.185-.246 3.681 3.126-.268 1.753-.269 3.455-1.173 4.944z"/>
            <path fill="#D3A56C" d="M129.979 264.534l-.885 6.575c-.039.223-.154.427-.326.575-.171.149-.389.234-.616.24-.101.003-.202-.017-.294-.057-.093-.041-.176-.101-.243-.176-.067-.076-.117-.165-.146-.262-.029-.097-.036-.199-.022-.299l.885-6.574c.04-.218.152-.417.318-.564.167-.146.377-.233.599-.246.102-.006.205.011.3.049.096.038.181.097.251.173.07.075.122.165.153.263s.04.201.026.303zM132.152 265.166l-.886 6.578c-.04.224-.155.427-.327.575-.172.149-.389.234-.616.241-.101.002-.201-.017-.294-.057-.093-.041-.175-.101-.243-.176-.067-.076-.116-.165-.145-.262-.029-.097-.037-.199-.023-.299l.886-6.579c.04-.223.156-.426.327-.575.172-.148.389-.233.616-.24.101-.003.202.017.294.057.093.04.176.101.243.176.067.076.117.165.146.262.029.097.036.199.022.299zM134.596 264.293l-.884 6.575c-.039.224-.155.428-.327.577-.172.15-.39.235-.618.242-.101.003-.202-.017-.294-.058-.093-.04-.176-.101-.243-.177-.067-.076-.117-.166-.145-.263-.029-.097-.036-.2-.021-.3l.885-6.574c.04-.224.155-.427.327-.575.171-.149.389-.234.616-.241.101-.002.201.017.294.058.092.04.175.1.242.176.067.075.117.164.146.261.029.097.037.199.022.299zM136.954 262.566l-.886 6.579c-.038.224-.153.428-.325.576-.172.149-.391.233-.618.239-.101.002-.201-.018-.293-.059-.092-.041-.175-.101-.242-.176-.067-.075-.117-.165-.146-.261-.029-.097-.037-.198-.024-.298l.886-6.579c.04-.223.156-.426.327-.574.172-.149.389-.234.616-.241.101-.003.202.017.294.057.093.041.176.101.243.176.067.076.117.165.146.262.029.097.036.199.022.299zM125.731 265.075c.174.17.407.267.65.268.243.002.478-.09.654-.258l3.884-3.118c.1-.065.187-.15.255-.249s.116-.21.14-.328c.025-.117.026-.239.003-.356-.022-.118-.068-.231-.134-.331-.175-.169-.408-.264-.651-.266-.243-.002-.477.09-.654.256l-3.883 3.118c-.101.065-.188.15-.256.249s-.116.211-.14.328c-.025.118-.026.239-.003.357s.068.23.135.33z"/>
            <path fill="#292929" d="M154.347 152.842c-.907.194-1.894.511-2.731.156-.476-.273-.935-.575-1.375-.903-1.173-.663-2.686-.277-3.983.239 0 0-8.339-.81-12.168 7.162-.097.203-.187.418-.267.598-.152.107-.282.243-.385.398-.265.427-.182.895-.226 1.31l-.134.434c-.028.067-.064.131-.107.19-.325.451-.969.703-1.36 1.119-.933 1.013.149 2.125-.294 3.262-.3.767-1.258 1.431-1.467 2.198-.21.767.449 1.372 1.182 1.737.733.365 1.542.702 1.745 1.412.048.465.062.934.041 1.401.131 1.111 1.377 1.693 2.554 2.053 1.552.467 3.145.785 4.757.949.541.129 1.111.05 1.596-.223-.023.069-.032.142-.026.215.006.073.026.144.059.208.034.065.08.123.136.17.056.047.12.082.19.103.149.042.308.024.445-.048.137-.073.24-.195.29-.342l.041-.134.671-1.961c.025-.071.037-.146.033-.221-.004-.076-.024-.149-.057-.217s-.08-.128-.137-.177c-.057-.049-.123-.086-.195-.109-.151-.044-.314-.029-.453.044-.14.073-.246.197-.296.347l-.668 1.952c-.857-.305-1.664-.735-2.395-1.277-.406-.093-.791-.261-1.136-.495-.046-.196-.08-.396-.1-.597-.113-1.167-.01-3.413 1.778-6.616 2.732-4.897 8.042-1.394 10.952-6.816l.258-1.766c.026-.104.058-.207.096-.308.62-1.277 2.351-1.767 3.866-1.087.468.2.877.516 1.189.919.312.402.517.877.595 1.38l4.97 1.333c-.406-.364-.96-.617-1.131-1.136-.172-.519.099-1.087.025-1.614-.214-1.289-2.127-1.345-2.86-2.4-.492-.714-.359-1.771-.927-2.423-.568-.652-1.68-.626-2.591-.419z"/>
            <path fill="#000543" d="M138.223 174.391c.344.234.729.402 1.135.495-.444-.326-.857-.691-1.235-1.092.02.201.053.401.1.597z"/>
            <path fill="#D3A56C" d="M145.27 163.974c-2.028.408-4.011.772-5.369 3.204-1.789 3.202-1.909 5.443-1.778 6.616.379.401.794.767 1.24 1.093.169.129.347.246.525.363.594.376 1.229.685 1.892.92l.668-1.952c.049-.147.153-.27.29-.343.136-.074.296-.092.446-.051.072.022.138.06.195.109.057.049.104.109.137.177.033.067.052.141.057.216.004.075-.008.151-.034.221l-.67 1.961 3.487 1.025 3.455 1.02c4.963 1.464 9.75-.522 11.609-5.224.057-.182.147-.349.209-.535l.11-.355 9.131 2.515c.483.129.996.066 1.434-.175.437-.241.764-.641.913-1.118l2.19-7.149c.072-.232.097-.477.073-.719-.024-.242-.096-.477-.213-.69-.116-.214-.274-.402-.465-.553-.19-.151-.409-.263-.644-.328l-12.303-3.39-4.933-1.36c-.087-.502-.299-.973-.618-1.371-.318-.397-.732-.707-1.202-.902-1.516-.679-3.247-.189-3.867 1.088-.038.101-.07.204-.095.308l-.202 1.307-.056.459c-1.458 2.719-3.52 3.188-5.563 3.609l-.049.004zm2.303 3.859c-.533-.166-.871-.58-.747-.931.123-.352.635-.516 1.188-.35.552.167.895.563.752.933-.143.369-.658.509-1.193.348zm1.157 6.142l-.158-.134c.225.035.456.005.665-.085.21-.091.389-.24.517-.428l.672-1c.103-.151.156-.331.152-.515-.005-.183-.067-.36-.178-.506l.111.011c.154.012.302.066.428.155.126.088.227.209.291.35.064.14.089.296.073.449-.016.154-.073.3-.164.425l-.672.999c-.089.141-.207.26-.346.352-.139.091-.296.152-.46.178-.164.026-.332.018-.492-.026-.161-.043-.31-.119-.439-.225zm-3.99 1.668c-.538-.167-.871-.579-.752-.932.119-.354.636-.517 1.19-.354.553.162.871.579.751.937-.121.357-.667.506-1.189.349z"/>
            <path fill="#000543" d="M144.926 165.68c-.149-.04-.308-.023-.444.05-.137.072-.24.194-.29.34l-.718 2.098c-.022.07-.031.144-.025.217.006.073.027.144.061.21.033.065.079.123.135.17.056.047.121.083.191.106.15.04.31.022.447-.052.136-.073.24-.196.289-.343l.717-2.094c.023-.07.031-.144.026-.217-.006-.073-.027-.145-.06-.21-.034-.065-.081-.123-.137-.171-.056-.047-.121-.082-.192-.104zM143.988 174.711c-.11.356.235.777.752.932.518.156 1.069.004 1.188-.349s-.233-.781-.751-.937c-.517-.156-1.069-.004-1.189.354zM148.766 167.485c.112-.36-.233-.781-.752-.933-.519-.151-1.068-.008-1.188.35-.121.357.234.776.747.931.514.154 1.069.003 1.193-.348z"/>
            <path fill="#C68642" d="M150.511 171.318l-.111-.011c.111.146.173.323.178.506.004.184-.049.364-.153.515l-.671 1c-.128.188-.308.337-.517.428-.209.09-.44.12-.665.085l.158.134c.129.106.278.182.439.225.16.044.328.052.492.026.164-.026.321-.087.46-.178.139-.092.257-.211.346-.352l.672-.999c.091-.125.148-.271.164-.425.016-.153-.009-.309-.073-.449-.064-.141-.165-.262-.291-.35-.127-.089-.274-.143-.428-.155z"/>
            <path fill="#fff" d="M153.87 171.909c.179.053.346.141.49.259.145.118.264.264.352.429.087.165.141.345.158.531.016.186-.004.373-.06.551-.108.373-.354.691-.689.888-.334.197-.731.258-1.11.171l.859-2.829z"/>
            <path fill="#A2C7CC" d="M163.739 191.694s2.701-7.171.943-13.581l5.351 4.933-6.294 8.648z"/>
        </g>
        <path fill="#F3E7DE" d="M114.911 295.494l-81.041 30.58c-4.556 1.719-6.856 6.803-5.138 11.357L59.3 418.437c1.718 4.554 6.804 6.852 11.36 5.133l81.041-30.58c4.555-1.719 6.855-6.804 5.137-11.357l-30.567-81.007c-1.718-4.553-6.803-6.851-11.359-5.132z"/>
        <path fill="#FFD176" d="M81.377 413.291l18.142-6.845c-.247-1.268-.285-2.418.26-3.263.603-.746 1.447-1.259 2.387-1.452 2.854-.88 6.093-1.21 8.706-2.441 8.911-4.206.824-12.772-.346-18.183-1.65-7.639 6.849-9.329 9.694-14.744 3.879-7.384-3.241-21.527-11.42-30.609-4.305-4.787-7.31-7.573-11.242-6.211-3.014 1.035-2.98 1.396-6.928.477-2.677-.617-4.761-1.341-7.203-1.046-6.892.845-11.753 5.32-12.93 11.909-.715 4.04-.093 8.773-1.265 12.578-1.816 6.013-7.693 8.789-11.413 13.364-9.769 12.002-2.712 35.432 10.48 44.881l.057.04c1.88 1.3 4.049 2.12 6.318 2.389 2.27.27 4.571-.02 6.703-.844z"/>
        <path fill="#fff" d="M133.443 388.521l-.938-2.485c-3.92-10.389-16.137-15.484-27.145-11.33l-10.405 3.926c-10.263 3.873-15.67 14.965-12.018 24.645l1.42 3.765c.51 1.231 1.486 2.209 2.715 2.721 1.23.512 2.612.516 3.844.01l39.407-14.869c1.259-.435 2.294-1.351 2.879-2.548.585-1.196.671-2.575.241-3.835zM95.94 360.478s2.736-.652 1.777-2.508l-4.868 1.245c.366.807 1.197 1.637 3.091 1.263z"/>
        <path fill="#FBE9DC" d="M87.34 347.697c-.056-.191-.183-.352-.356-.448-.173-.097-.377-.121-.568-.068l-2.384.899c-.166.099-.291.253-.355.435s-.061.38.007.561c.068.18.197.331.365.426.168.094.364.127.554.091l2.384-.899c.178-.087.315-.24.381-.426.066-.187.056-.392-.029-.571zM99.425 344.001c.152-.107.265-.26.32-.438.055-.177.05-.368-.016-.541-.066-.174-.187-.321-.346-.418-.158-.096-.344-.138-.529-.117l-2.217.837c-.153.106-.265.26-.32.437-.055.178-.05.368.016.542.066.174.187.321.346.417.158.097.344.138.529.117l2.217-.836z"/>
        <path fill="#EFACA0" d="M96.049 352.087c.085.283.089.585.01.87-.08.285-.238.542-.457.741l-1.118.898c-.185.136-.41.204-.64.193-.229-.012-.447-.102-.617-.256l.054.143c.168.93 1.144 1.426 1.788.911l1.118-.898c.325-.308.516-.732.53-1.18.015-.448-.147-.883-.452-1.211l-.216-.211z"/>
        <path fill="#381B13" d="M87.421 352.28c.47-.178.633-.92.364-1.635-.27-.715-.885-1.17-1.355-.993l-1.449.547.963.44c.008.216.05.43.123.634.28.738.89 1.182 1.354 1.007zM99.525 346.215c-.08-.201-.19-.389-.326-.557l.432-.966-1.448.546c-.47.178-.627.918-.355 1.638.272.721.876 1.167 1.346.989.471-.177.623-.929.351-1.65z"/>
        <path fill="#F7C3BA" d="M106.012 348.627c-.232-.712-.66-1.342-1.236-1.82-.575-.478-1.275-.783-2.016-.88l-1.747-4.629c-.811-2.204-2.2-4.15-4.02-5.636-1.382.665-2.86 1.243-3.22 1.406-7.5 3.402-10.306 9.551-11.032 12.751-.59 2.639-.397 5.424-1.05 8.045-.218.876-.532 1.725-.937 2.532.416.399.932.677 1.494.805.562.129 1.148.102 1.695-.076.165-.062.322-.141.469-.238.847 1.443 1.973 2.703 3.312 3.706 1.34 1.003 2.865 1.73 4.489 2.136l5.114 13.771c-.466.784-.753 1.66-.841 2.568-.089.907.024 1.822.33 2.681 1.308 3.467 5.723 5.007 9.865 3.444 4.142-1.563 6.444-5.637 5.136-9.104-.314-.785-.788-1.496-1.391-2.088-.603-.593-1.323-1.054-2.113-1.354l-5.193-13.958c.978-1.398 1.662-2.98 2.011-4.65.348-1.669.354-3.392.016-5.064.569-.551.956-1.263 1.111-2.04.154-.776.068-1.582-.246-2.308zm-9.85 6.07l-1.117.899c-.643.515-1.62.019-1.787-.912l-.054-.143c.17.154.388.245.616.256.23.012.455-.056.64-.192l1.118-.898c.22-.199.378-.456.457-.741.079-.286.076-.587-.01-.871l.192.22c.305.325.47.757.46 1.202-.01.446-.195.87-.514 1.18zm-.221 5.78c-1.9.377-2.702-.464-3.091-1.263l4.868-1.245c.959 1.857-1.777 2.508-1.777 2.508zm-12.297-11.386c-.085-.179-.095-.385-.029-.571.066-.187.203-.34.381-.427l2.384-.899c.19-.036.386-.003.554.091.168.095.298.246.366.426.068.181.07.379.006.561-.063.182-.19.336-.355.435l-2.384.9c-.19.053-.395.028-.568-.069-.172-.096-.3-.257-.355-.447zm1.32 1.115l1.448-.547c.47-.178 1.083.272 1.355.993s.107 1.457-.364 1.634c-.47.178-1.077-.274-1.347-.989-.073-.203-.115-.417-.123-.634l-.97-.457zm11.32-5.885c-.085-.172-.101-.371-.043-.554.058-.183.185-.337.354-.428l2.26-.852c.184-.021.37.02.528.117.159.097.28.244.346.417.065.174.071.364.016.542-.055.177-.168.331-.32.437l-2.217.837c-.094.025-.192.031-.288.019-.096-.013-.189-.044-.273-.093-.084-.049-.158-.113-.217-.19s-.102-.165-.127-.259l-.018.007zm1.52 2.544c-.275-.727-.116-1.461.355-1.638l1.448-.547-.432.966c.136.168.246.356.326.558.272.721.113 1.454-.358 1.632-.47.178-1.05-.257-1.322-.978l-.018.007z"/>
        <path fill="#FFD176" d="M81.71 357.858c.657-2.624.464-5.409 1.049-8.045.726-3.201 3.532-9.35 11.031-12.752.37-.139 1.838-.741 3.221-1.405 1.384-.665 2.776-1.449 2.725-1.947-.064-.602-2.927-.72-4.891-.945-.4-.047-.724-.115-1.049-.162-.258-.028-.505-.122-.716-.274-.11-.186-.281-.328-.483-.405-.202-.077-.424-.084-.63-.019l-5.155.774c-2.376.295-4.727.775-7.03 1.435-1.897.6-2.995 3.682-4.107 5.354-1.769 2.709-1.673 4.136-1.984 7.37-.377 4.416-3.188 8.423-3.192 12.869-.003 2.138.892 4.529 2.88 5.304 2.171.848 4.575-.631 6.01-2.459 1.09-1.386 1.877-2.983 2.315-4.691l.006-.002z"/>
        <path fill="#F3E7DE" d="M42.947 377.5l-2.82 1.187c-1.752.661-3.808.409-5.59-.164-1.103-.352-2.282-.387-3.404-.102-1.122.286-2.14.882-2.94 1.719-.8.837-1.348 1.882-1.582 3.015-.234 1.133-.144 2.309.259 3.394.402 1.085 1.102 2.034 2.02 2.74.916.706 2.014 1.14 3.166 1.252 1.152.113 2.312-.101 3.349-.617 1.036-.515 1.907-1.312 2.512-2.298.99-1.619 2.341-3.232 4.111-3.9l2.912-.962c.624-.204 1.3-.171 1.902.091.6.263 1.084.737 1.359 1.333l-3.676-9.74c.136.613.053 1.254-.235 1.812-.289.557-.764.996-1.343 1.24zM75.651 308.675l-1.186-2.819c-.661-1.752-.41-3.813.163-5.595.35-1.101.383-2.278.096-3.397-.287-1.119-.883-2.135-1.72-2.931-.836-.797-1.88-1.343-3.012-1.575-1.132-.232-2.307-.141-3.39.262-1.083.403-2.031 1.102-2.736 2.018-.705.916-1.139 2.011-1.251 3.161-.113 1.149.1 2.308.615 3.342.514 1.034 1.309 1.903 2.293 2.508 1.617.983 3.23 2.334 3.898 4.103l.964 2.917c.205.623.173 1.3-.09 1.901-.263.602-.738 1.085-1.335 1.358l9.744-3.676c-.613.136-1.255.053-1.813-.236-.558-.288-.997-.763-1.24-1.341z"/>
        <path fill="#fff" d="M115.323 407.641l-1.188-2.825c-.659-1.745-.409-3.806.165-5.588.353-1.103.389-2.282.103-3.404-.286-1.122-.882-2.14-1.719-2.939-.838-.8-1.883-1.347-3.018-1.58-1.134-.233-2.311-.143-3.396.261s-2.035 1.105-2.741 2.023c-.706.917-1.14 2.015-1.251 3.167-.111 1.153.104 2.313.621 3.349.516 1.035 1.315 1.905 2.302 2.508 1.611.985 3.224 2.336 3.892 4.106l.97 2.914c.203.623.171 1.3-.092 1.901s-.737 1.085-1.333 1.359l9.744-3.677c-.614.138-1.256.056-1.816-.232-.559-.288-.999-.763-1.243-1.343z"/>
        <path fill="#F3E7DE" d="M143.575 341.145l2.82-1.187c1.752-.661 3.808-.409 5.59.164 1.103.352 2.282.387 3.404.101 1.122-.286 2.14-.881 2.94-1.718.799-.837 1.347-1.882 1.581-3.015.234-1.134.145-2.31-.258-3.395-.403-1.084-1.103-2.034-2.02-2.74-.917-.706-2.014-1.14-3.166-1.252-1.152-.112-2.312.102-3.349.617-1.036.516-1.907 1.312-2.512 2.299-.989 1.618-2.342 3.231-4.112 3.899l-2.909.969c-.625.202-1.302.168-1.904-.095-.601-.264-1.085-.739-1.359-1.335l3.675 9.74c-.136-.613-.052-1.254.236-1.812.289-.558.764-.997 1.343-1.24z"/>
    </g>
    <defs>
        <clipPath id="prefix__clip0">
            <path fill="#fff" d="M0 0H377.814V436.618H0z" transform="translate(.796)"/>
        </clipPath>
        <clipPath id="prefix__clip1">
            <path fill="#fff" d="M0 0H275.773V205.625H0z" transform="rotate(-72.758 229 63.491)"/>
        </clipPath>
    </defs>
</svg>
