<svg xmlns="http://www.w3.org/2000/svg" width="475" height="196" fill="none" viewBox="0 0 475 196">
    <path fill="#D3A56C" d="M444.447 77.969l14.037-6.843.447-7.23-16.181 4.488 1.697 9.585z"/>
    <path fill="#F9DDCF" d="M458.558 64.086l6.008-6.904c1.47-1.69 2.996-1.5 3.698-.302l-8.039 18.407-3.787-2.422c-.328-.21-.572-.527-.69-.898-.118-.37-.102-.77.045-1.131l2.765-6.75z"/>
    <path fill="#000543" d="M460.225 75.286l.608.49c.383.303.998-.052 1.287-.739l6.068-14.38c.66-1.565.576-2.923.077-3.778l-8.04 18.407zM459.727 69.775c.262.109.486.292.643.528.158.236.243.513.243.796 0 .284-.083.561-.24.797-.157.236-.381.42-.643.53-.261.11-.55.138-.828.084-.278-.054-.534-.19-.735-.39-.202-.2-.339-.454-.396-.732-.057-.278-.03-.567.078-.83.071-.174.176-.333.31-.468.133-.134.291-.24.466-.313.174-.073.361-.11.551-.111.189 0 .376.037.551.11zM337.747 104.356l20.69 23.935c3.563-3.127 6.77-5.976 8.793-7.908 1.891-1.803 5.556-8.201 7.574-9.85 5.001-4.081 7.636-4.998 12.674-9.025 2.44-1.95 6.43-6.765 10.148-9.886 7.285-6.132 9.729-13.073 5.597-18.658-3.892-5.267-12.393-5.386-19.699-.284-13.445 9.382-33.625 22.627-45.777 31.676z"/>
    <path fill="#000543" d="M380.056 83.77c1.12 5.385 6.447 8.63 12.513 7.575 4.737-.81 31.847-6.66 46.503-9.933 4.442-.987 7.74-1.753 8.931-2.048l.246-.059c.989-.235 2.16-.449 2.898-1.145 1.328-1.253 1.906-2.322 1.564-3.99l-1.647-8.074c-.419-2.055-2.936-3.298-5.133-2.972-.18.03-.409.058-.67.093-1.714.223-5.184.554-9.507.95-13.836 1.286-36.733 3.257-41.482 4.131-.617.115-1.769.35-3.181.634-7.241 1.52-12.369 8.41-11.035 14.838z"/>
    <path fill="#A2C7CC" d="M315.705 41.303c1.255 1.544 3.754 1.741 4.825 3.435.794 1.254.582 3.021 1.277 4.345 1.259 2.379 4.861 2.401 6.436 4.584 1.17 1.623.904 3.994 1.619 5.895.402 1.028 1.1 1.913 2.005 2.544.906.63 1.978.978 3.082.999 1.886.04 3.987-.754 5.592.073 3.253 1.674 1.172 7.879 4.267 9.81 1.562.973 3.873.388 5.406 1.397 2.292 1.504 1.606 5.58 3.844 7.147 1.18.822 2.898.715 4.063 1.563 1.166.847 1.525 2.474 1.777 3.973.406 2.366.815 4.784.413 7.24-.597 3.666-2.966 7.047-5.89 9.581-1.355-3.953-.499-8.696-2.152-12.504-1.74-4.004-5.842-6.166-9.781-7.938-3.939-1.772-8.203-3.497-10.582-7.087-1.573-2.366-2.187-5.348-3.816-7.67-2.604-3.703-7.298-5.15-11.55-6.836-4.253-1.685-8.668-4.258-9.619-8.822-.95-4.565 1.805-9.476 1.461-14.131-.076-.508-.079-1.024-.009-1.532.242-1.238 1.473-2.19 2.699-2.485 5.613-1.353 2.505 3.798 4.633 6.42z"/>
    <path fill="#D3A56C" d="M440.709 149.422l15.226 5.631 4.945-6.646-15.124-7.308-5.047 8.323z"/>
    <path fill="#000543" d="M336.048 121.82l1.861 12.632c2.411 5.86 13.056 13.451 18.989 10.66 2.365-1.115 9.895-4.749 12.334-5.674 6.035-2.287 8.823-2.318 14.881-4.537 2.933-1.076 8.239-4.378 12.748-6.157 8.873-3.506 13.371-9.311 11.225-15.917-2.019-6.216-10.045-9.043-18.589-6.516-15.718 4.63-39.046 10.783-53.449 15.509z"/>
    <path fill="#000543" d="M388.501 111.284c-2.713 4.785-.852 10.742 4.39 13.963 4.092 2.515 28.337 16.003 41.493 23.232 3.988 2.184 6.965 3.797 8.059 4.354.073.034.149.076.22.115.904.479 1.931 1.089 2.935 1.054 1.829-.064 2.966-.49 3.812-1.965l4.087-7.155c1.043-1.818-.028-4.418-1.889-5.61-.154-.098-.345-.225-.565-.375-1.43-.973-4.244-2.998-7.768-5.558-11.244-8.164-29.766-21.786-33.894-24.272-.54-.326-1.561-.909-2.827-1.631-6.416-3.652-14.81-1.862-18.053 3.848z"/>
    <path fill="#F9DDCF" d="M457.25 147.318l8.571-3.218c2.094-.785 3.346.105 3.394 1.493l-15.824 12.372-2.181-3.928c-.19-.341-.254-.737-.181-1.121.073-.383.278-.728.581-.975l5.64-4.623z"/>
    <path fill="#000543" d="M453.386 157.967l.301.721c.187.449.897.428 1.464-.03l12.168-9.764c1.334-1.049 1.9-2.299 1.866-3.289l-15.799 12.362zM455.569 152.878c.181.219.294.488.323.771.029.283-.027.569-.16.821-.134.252-.339.458-.59.593-.251.135-.536.193-.82.166-.283-.027-.552-.138-.773-.318-.221-.18-.383-.422-.467-.694-.083-.273-.084-.564-.001-.837.082-.272.243-.515.463-.696.294-.242.673-.358 1.052-.322.38.036.73.222.973.516z"/>
    <path fill="#A2C7CC" d="M309.208 39.477c-4.429-2.217.014-6.95-4.713-5.963-2.115.44-11.944.865-23.495 10.928-6.891 6.016-14.052 15.935-14.589 19.472-.826 5.582 3.276 8.403 6.712 11.188 6.053 4.915 16.986 14.341 19.71 17.743 8.776 10.897 18.998 18.158 37.197 37.235 5.048 5.277 8.767 10.591 11.569 7.374 1.376-1.583.989-2.44 2.429-3.932 1.084-1.117 2.491-1.567 3.545-2.735 1.766-1.948 2.219-5.449 2.858-8.576.64-3.127 1.515-6.007 2.982-8.293.752-1.17 1.639-2.16 2.312-3.426.82-1.572 1.305-3.522 1.76-5.44l2.06-8.735c.103-.337.122-.695.057-1.042.007-1.846-.602-3.641-1.731-5.101-.942-.714-1.845-1.415-2.736-2.112-1.007-.785-1.969-1.555-2.906-2.316-17.39-14.07-23.332-23.531-23.332-23.531-7.752-10.271-15.666-20.73-19.689-22.738z"/>
    <path fill="#D3A56C" d="M328.941 47.45l22.175-6.331c.862-.245 1.598-.808 2.061-1.575.463-.767.618-1.68.433-2.557-1.108-3.835-1.026-6.871-4.981-6.24l-23.142 3.708 3.454 12.995z"/>
    <path fill="#A2C7CC" d="M340.306 46.069l-1.862-15.17c-.041-.351-.153-.69-.328-.997-.175-.306-.411-.574-.692-.788-.281-.213-.602-.368-.945-.454-.342-.087-.698-.103-1.047-.049-10.561 1.302-20.359 3.3-27.557 4.167-11.629 1.408-12.17 22.44-.325 21.63 14.67-.998 17.778-1.758 30.286-4.882.756-.187 1.421-.638 1.874-1.272.453-.634.664-1.409.596-2.185z"/>
    <path fill="#D3A56C" d="M383.299 10.13c-4.89 3.39-10.016 5.992-15.298 9.338-3.053 1.91-21.014 12.088-23.643 13.643-2.217 1.304-.367-.103.263 2.351 1.254 4.891 3.606 6.282 5.686 5.7 6.246-1.736 14.875-8.08 22.733-14.843l.01.025c5.969-5.16 9.261-6.883 12.881-10.628.015-.036-2.281-5.83-2.632-5.586z"/>
    <path fill="#D3A56C" d="M390.588 12.05c.46-.624.769-1.346.902-2.11.02-.468-.096-.932-.333-1.337-.479-.986-1.124-1.882-1.907-2.65-.707-.69-1.738-1.273-3.05-.666-1.273.666-2.279 1.75-2.849 3.069-1.104 2.39-1.478 3.25-1.317 5.334.202 2.608 1.614 3.786 4.506 1.717 1.5-1.03 3.073-1.848 4.048-3.357z"/>
    <path fill="#D3A56C" d="M386.853 6.757l5.653-3.959c.187-.134.323-.328.385-.55.061-.222.045-.458-.048-.669-.044-.094-.11-.177-.191-.243-.081-.065-.176-.112-.278-.135-.102-.024-.207-.025-.309-.002-.102.023-.198.068-.28.133l-5.677 3.944c-.189.133-.326.327-.389.55-.062.222-.046.46.046.671.044.1.11.188.193.257.083.07.181.12.287.144.105.026.215.026.321.001.105-.024.204-.073.287-.142zM388.388 8.336l5.674-3.943c.188-.134.324-.33.386-.552.062-.223.046-.46-.046-.673-.045-.097-.113-.182-.196-.249-.084-.066-.182-.113-.287-.136-.105-.023-.213-.021-.317.004-.104.026-.201.075-.283.144l-5.674 3.943c-.181.137-.311.33-.368.55-.058.22-.04.453.052.66.045.094.111.177.192.242.082.065.177.111.278.135.101.024.207.026.309.004.102-.022.198-.066.28-.129zM388.655 10.898l5.678-3.945c.188-.133.325-.327.386-.55.062-.221.045-.458-.048-.669-.045-.094-.11-.177-.192-.243-.081-.065-.176-.112-.278-.135-.101-.024-.207-.025-.309-.002-.102.023-.197.068-.279.133l-5.678 3.944c-.188.133-.325.327-.386.55-.062.222-.045.458.048.67.045.094.11.177.192.242.081.066.176.112.278.136.101.024.207.024.309.001.102-.022.197-.068.279-.132zM388.103 13.796l5.677-3.945c.187-.132.322-.323.385-.543.062-.219.048-.453-.041-.663-.045-.095-.111-.178-.192-.243-.081-.066-.176-.112-.278-.136-.102-.024-.207-.024-.309-.001-.102.022-.198.068-.28.132l-5.679 3.94c-.188.135-.323.33-.385.553-.061.223-.044.46.049.67.046.093.112.174.193.238.082.064.176.108.277.13.101.023.206.023.306 0 .101-.023.196-.068.277-.132zM385.474 2.755c.114.033.221.09.313.166.093.076.168.17.223.276.054.106.086.223.094.342.008.12-.008.239-.048.351l-1.159 4.914c-.039.246-.169.468-.364.623-.195.155-.44.232-.689.215-.115-.033-.221-.09-.313-.166-.093-.076-.168-.17-.223-.276-.054-.106-.087-.223-.094-.342-.008-.12.008-.239.048-.351l1.159-4.914c.039-.245.169-.468.364-.623.195-.155.44-.231.689-.215zM293.358 48.036c.627 1.373-1.924 3.894-5.708 5.63-3.784 1.738-7.354 2.027-7.986.656-.631-1.37 1.922-3.898 5.702-5.633 3.78-1.735 7.359-2.028 7.992-.653zM260.098 78.391l-22.489 5.084c-.873.199-1.789.059-2.563-.392-.774-.451-1.348-1.18-1.605-2.037-.868-3.896-2.395-6.517 1.374-7.863l22.078-7.85 3.205 13.058z"/>
    <path fill="#A2C7CC" d="M249.446 82.635l-5.644-14.207c-.132-.327-.197-.678-.191-1.03.007-.354.084-.701.228-1.024.144-.322.352-.611.611-.851s.563-.425.895-.545c9.888-3.93 19.427-6.877 26.178-9.571 10.879-4.339 21.445 13.844 10.665 18.82-13.349 6.167-16.441 6.99-28.914 10.256-.754.198-1.553.12-2.254-.219-.702-.338-1.26-.916-1.574-1.629z"/>
    <path fill="#D3A56C" d="M194.281 76.755c5.952-.15 11.652-.492 17.876-.923 3.595-.266 7.467-.518 11.524-.823 4.026-.967 12.601-1.814 15.638-2.131 2.563-.253.237-.296 1.176 2.049 1.873 4.677.796 7.203-1.229 7.965-6.065 2.285-16.776 2.261-27.133 1.445-7.876-.65-15.874-1.792-21.013-2.679l.621-5.127c1.095.04 2.106.233 2.54.224z"/>
    <path fill="#D3A56C" d="M190.388 84.41c-.74.158-1.508.141-2.24-.05-.432-.179-.807-.471-1.087-.846-.72-.846-1.3-1.802-1.718-2.831-.389-.93-.544-2.116.478-3.065 1.066-.887 2.419-1.356 3.806-1.317 2.569-.014 3.493.019 5.343 1.008 2.308 1.272 2.874 3.054-.037 4.83-1.516.918-2.823 2.01-4.545 2.27z"/>
    <path fill="#D3A56C" d="M186.882 78.78l-5.611 3.538c-.197.114-.427.156-.651.12-.225-.037-.429-.15-.58-.32-.067-.076-.116-.166-.144-.262-.029-.097-.036-.2-.021-.3.015-.1.052-.195.107-.28.056-.084.129-.155.215-.208l5.612-3.538c.193-.11.417-.15.636-.117.219.034.421.14.573.302.07.074.123.164.155.261.032.098.042.202.029.303-.013.103-.049.2-.104.287-.055.086-.129.16-.216.214zM187.791 80.852l-5.616 3.54c-.197.113-.426.154-.65.118-.224-.037-.429-.149-.58-.318-.067-.076-.116-.166-.145-.263-.028-.097-.035-.199-.02-.299.015-.1.051-.195.107-.28.056-.084.129-.155.215-.208l5.616-3.54c.197-.113.426-.154.65-.118.224.037.429.149.58.318.067.076.116.166.145.263.028.097.035.199.02.299-.015.1-.051.195-.107.28-.056.084-.129.155-.215.208zM190.028 82.168l-5.611 3.538c-.197.114-.428.156-.653.12-.225-.036-.43-.149-.582-.319-.067-.076-.116-.166-.144-.263-.029-.098-.035-.2-.02-.3.015-.1.053-.196.109-.28.056-.085.13-.156.217-.209l5.611-3.537c.197-.113.427-.155.651-.118.224.036.428.148.579.318.067.076.116.165.145.262.029.097.036.2.021.3-.015.1-.052.195-.108.28-.055.084-.129.155-.215.208zM192.865 82.868l-5.615 3.54c-.197.115-.427.157-.651.12-.225-.036-.429-.15-.58-.32-.065-.076-.114-.166-.142-.263-.028-.097-.035-.198-.02-.298.015-.1.051-.195.106-.28.056-.084.128-.156.214-.21l5.615-3.539c.197-.112.427-.154.651-.117.224.036.429.148.58.317.066.076.116.166.144.263.029.097.036.199.021.299-.015.1-.052.196-.107.28-.056.084-.13.156-.216.209zM183.742 75.868c-.019.242.057.483.211.67.155.189.376.31.618.337l4.883.98c.115.035.235.047.355.036.119-.011.235-.046.341-.103.106-.056.2-.134.276-.227.076-.093.133-.2.167-.315.018-.242-.058-.482-.213-.67-.154-.187-.375-.308-.616-.337l-4.883-.98c-.115-.035-.235-.048-.355-.036-.119.011-.236.046-.341.103-.106.056-.2.133-.276.226-.076.093-.133.2-.167.316z"/>
    <path fill="#292929" d="M288.204 25.838c-.731-.572-1.607-1.126-1.872-1.995-.096-.54-.159-1.086-.189-1.634-.244-1.326-1.511-2.24-2.738-2.904 0 0-4.727-6.916-13.3-4.741-.217.056-.44.124-.629.179-.18-.048-.368-.062-.553-.04-.498.07-.803.434-1.149.666l-.419.175c-.07.022-.142.036-.215.04-.554.04-1.161-.293-1.731-.325-1.376-.066-1.534 1.477-2.691 1.866-.781.262-1.905-.047-2.628.285-.723.33-.764 1.224-.574 2.02.19.798.451 1.634.036 2.245-.326.336-.677.646-1.049.93-.768.813-.415 2.142.063 3.277.637 1.49 1.415 2.915 2.323 4.257.248.498.675.885 1.195 1.082-.068.027-.129.067-.182.118-.052.051-.093.112-.121.18-.029.067-.043.139-.043.212 0 .073.014.145.042.212.064.141.18.252.323.31.143.059.304.06.448.004l.13-.055 1.934-.743c.071-.026.136-.065.191-.117.055-.05.099-.113.13-.182.03-.069.047-.143.048-.218.001-.076-.013-.15-.042-.22-.062-.145-.179-.26-.324-.32-.146-.06-.309-.062-.456-.004l-1.926.74c-.316-.854-.504-1.749-.557-2.657-.189-.371-.307-.774-.348-1.189.12-.162.252-.315.393-.46.823-.835 2.612-2.197 6.216-2.879 5.51-1.044 6.228 5.276 12.255 4.03l1.52-.934c.096-.047.196-.089.298-.124 1.377-.344 2.863.67 3.314 2.269.146.488.166 1.004.057 1.502-.108.497-.341.958-.677 1.34l2.165 4.67c.019-.545-.143-1.133.146-1.597.288-.465.897-.621 1.254-1.016.852-.99-.332-2.495.007-3.734.232-.835 1.129-1.411 1.265-2.265.136-.854-.597-1.69-1.34-2.256z"/>
    <path fill="#000543" d="M261.329 27.288c.041.415.16.817.348 1.189-.034-.55-.019-1.102.046-1.649-.142.145-.273.298-.394.46z"/>
    <path fill="#D3A56C" d="M273.841 26.014c-1.614-1.295-3.165-2.582-5.902-2.065-3.604.682-5.4 2.027-6.216 2.88-.064.548-.079 1.101-.044 1.652.01.212.034.424.059.635.092.698.262 1.383.507 2.043l1.926-.74c.145-.057.306-.056.45.002.144.058.26.169.325.31.029.07.043.144.042.22-.001.075-.018.149-.048.218-.031.069-.075.13-.13.182-.055.051-.12.091-.191.117l-1.935.743 1.45 3.332 1.434 3.305c2.06 4.747 6.654 7.146 11.454 5.556.176-.073.362-.111.544-.182l.344-.144 3.927 8.62c.21.452.588.806 1.053.987.465.18.983.175 1.444-.017l6.889-2.905c.225-.093.428-.231.599-.405.17-.173.304-.38.393-.606.089-.226.132-.468.126-.711-.007-.244-.061-.483-.162-.705l-5.29-11.613-2.121-4.657c.33-.389.555-.854.656-1.353.1-.5.073-1.016-.08-1.501-.45-1.6-1.937-2.613-3.314-2.27-.102.036-.201.077-.298.125l-1.132.684-.387.25c-3.022.627-4.704-.655-6.338-1.952l-.034-.035zm-1.483 4.242c-.216-.516-.115-1.04.234-1.171.349-.131.804.157 1.031.687.226.53.142 1.048-.234 1.175-.375.128-.812-.177-1.031-.691zm-3.971 4.827l.002-.208c.117.196.288.354.492.456.204.102.433.145.659.122l1.198-.126c.183-.017.355-.092.493-.213.137-.121.233-.283.274-.461l.063.092c.089.126.143.273.156.427.013.154-.016.309-.082.448-.067.14-.17.258-.298.345-.128.086-.277.136-.431.146l-1.198.126c-.165.021-.332.007-.492-.04-.159-.049-.306-.13-.431-.239-.126-.109-.227-.243-.296-.394-.07-.151-.107-.315-.109-.481zm-3.839-1.991c-.217-.52-.114-1.04.234-1.175.347-.136.803.156 1.034.685.23.529.114 1.04-.237 1.177-.352.137-.816-.186-1.031-.687z"/>
    <path fill="#000543" d="M272.312 26.844c-.065-.14-.181-.25-.324-.309-.143-.058-.303-.06-.447-.005l-2.07.796c-.068.027-.13.068-.182.12-.052.051-.094.113-.122.18-.029.068-.044.14-.044.214 0 .073.014.146.041.214.065.14.182.252.326.31.144.058.305.058.449.002l2.066-.794c.069-.027.131-.068.183-.12.053-.05.094-.112.123-.18.029-.068.043-.14.043-.214 0-.073-.014-.146-.042-.214zM264.781 31.917c-.344.143-.446.678-.233 1.175.212.497.683.822 1.03.687.347-.135.45-.68.237-1.177-.212-.497-.683-.822-1.034-.685zM273.389 30.947c.348-.145.45-.68.234-1.175-.217-.495-.679-.824-1.031-.687-.351.136-.445.678-.234 1.17.21.494.682.823 1.031.692z"/>
    <path fill="#C68642" d="M271.568 34.745l-.063-.092c-.041.178-.137.34-.275.461-.137.121-.31.196-.492.213l-1.198.126c-.227.023-.456-.02-.659-.122-.204-.102-.375-.26-.492-.456l-.002.208c.001.166.038.33.108.48.07.152.171.286.296.395.126.11.273.19.432.238.159.048.327.062.492.04l1.197-.125c.155-.01.303-.06.432-.146.128-.087.23-.206.297-.345.067-.14.095-.294.083-.448-.013-.153-.067-.301-.156-.427z"/>
    <path fill="#fff" d="M273.269 37.701c.074.172.114.356.116.543.002.186-.034.371-.104.544-.07.173-.175.33-.306.462-.132.132-.289.237-.462.308-.355.157-.757.171-1.122.041-.366-.13-.668-.396-.844-.742l2.722-1.156z"/>
    <path fill="#A2C7CC" d="M264.419 57.963s7.234-2.527 11.025-7.988l-.353 7.27-10.672.718z"/>
    <path fill="#F3E7DE" d="M153.465 87.077l-75.44-42.563c-4.241-2.393-9.618-.896-12.01 3.343l-42.544 75.407c-2.391 4.239-.892 9.615 3.349 12.007l75.44 42.563c4.24 2.393 9.617.896 12.008-3.343l42.545-75.407c2.391-4.24.892-9.615-3.348-12.007z"/>
    <path fill="#FFD176" d="M41.58 136.903l16.888 9.528c.815-1.003 1.671-1.77 2.67-1.894.96-.015 1.894.303 2.645.9 2.505 1.626 4.836 3.899 7.457 5.114 8.942 4.139 10.327-7.559 13.728-11.927 4.803-6.166 11.55-.729 17.53-2.02 8.153-1.76 14.437-16.294 16.159-28.394.911-6.373 1.121-10.465-2.446-12.609-2.727-1.648-2.982-1.39-4.809-5.009-1.244-2.45-2.025-4.513-3.818-6.197-5.068-4.745-11.619-5.605-17.43-2.281-3.558 2.042-6.79 5.555-10.46 7.096-5.78 2.464-11.678-.265-17.574-.184-15.474.203-28.923 20.644-27.712 36.827l.006.068c.208 2.276.97 4.466 2.22 6.38 1.248 1.914 2.947 3.494 4.947 4.602z"/>
    <path fill="#fff" d="M93.978 160.961l1.305-2.313c5.457-9.671 1.53-22.312-8.717-28.093l-9.687-5.465c-9.553-5.39-21.531-2.425-26.616 6.586l-1.977 3.505c-.618 1.18-.742 2.556-.346 3.828.395 1.272 1.28 2.335 2.458 2.956l36.682 20.696c1.141.687 2.508.894 3.802.576 1.293-.319 2.406-1.138 3.096-2.276zM91.44 114.202s2.255 1.681 3.064-.246l-4.078-2.936c-.385.799-.488 1.969 1.014 3.182z"/>
    <path fill="#FBE9DC" d="M95.73 99.405c.11-.164.152-.365.115-.56-.036-.195-.148-.367-.312-.48l-2.219-1.251c-.182-.064-.38-.062-.561.006-.18.068-.332.197-.426.365-.095.168-.128.364-.092.554.035.19.136.36.284.483l2.22 1.252c.18.082.386.089.571.02.186-.07.337-.21.42-.389zM106.317 106.307c.179.049.369.036.541-.035.171-.072.313-.198.405-.36.091-.162.125-.349.098-.533-.027-.183-.115-.353-.25-.481l-2.063-1.164c-.18-.049-.37-.037-.541.035-.172.071-.314.198-.405.36-.092.161-.126.349-.099.532.028.184.115.353.25.481l2.064 1.165z"/>
    <path fill="#EFACA0" d="M97.948 108.903c-.163.247-.392.443-.662.565-.27.123-.568.166-.862.125l-1.406-.281c-.222-.055-.42-.185-.557-.368-.138-.183-.209-.408-.2-.637l-.075.133c-.606.725-.36 1.793.447 1.956l1.407.281c.445.053.892-.073 1.245-.349.353-.276.583-.68.64-1.124l.023-.301z"/>
    <path fill="#381B13" d="M92.266 102.407c.438.248 1.111-.103 1.487-.769.375-.665.33-1.429-.108-1.676l-1.348-.76.28 1.02c-.16.145-.298.314-.407.501-.388.688-.337 1.44.096 1.684zM104.682 107.804c.104-.19.177-.395.219-.607l1.018-.289-1.348-.76c-.439-.247-1.107.107-1.485.778-.379.671-.333 1.42.105 1.667.438.248 1.112-.118 1.491-.789z"/>
    <path fill="#F7C3BA" d="M106.992 114.327c.397-.634.606-1.367.604-2.115-.003-.748-.217-1.48-.618-2.111l2.431-4.309c1.17-2.036 1.773-4.349 1.746-6.698-1.398-.635-2.788-1.398-3.145-1.57-7.42-3.572-13.937-1.78-16.858-.285-2.404 1.24-4.417 3.174-6.846 4.355-.812.394-1.665.697-2.543.904-.04.575.078 1.15.34 1.663.262.513.657.946 1.146 1.252.153.086.315.156.483.207-.564 1.575-.809 3.247-.72 4.918.09 1.671.512 3.307 1.24 4.814l-7.284 12.756c-.9.145-1.757.487-2.51 1.001-.752.514-1.382 1.188-1.845 1.973-1.82 3.228-.17 7.602 3.685 9.777 3.856 2.176 8.458 1.329 10.28-1.898.4-.745.641-1.564.71-2.407.067-.843-.041-1.69-.318-2.489l7.379-12.937c1.7-.146 3.352-.636 4.856-1.439 1.505-.804 2.83-1.905 3.896-3.236.788.083 1.583-.076 2.278-.456.695-.38 1.258-.962 1.613-1.67zm-10.974-3.662l-1.407-.282c-.807-.163-1.053-1.23-.447-1.955l.075-.133c-.009.229.062.454.2.637s.335.313.557.367l1.407.282c.293.04.591-.003.861-.125s.5-.318.662-.566l-.046.289c-.054.442-.279.846-.627 1.124-.349.278-.792.408-1.235.362zm-4.578 3.537c-1.507-1.217-1.376-2.37-1.013-3.182l4.077 2.937c-.809 1.926-3.064.245-3.064.245zm.85-16.738c.083-.18.234-.32.42-.388.185-.07.39-.063.57.019l2.22 1.252c.149.123.25.294.285.484.035.19.002.385-.092.553-.095.168-.246.297-.427.365-.18.068-.379.07-.56.007l-2.22-1.253c-.163-.112-.275-.284-.312-.479-.037-.195.005-.396.116-.56zm-.01 1.728l1.349.76c.438.248.486 1.006.107 1.677-.378.671-1.049 1.016-1.487.769-.438-.247-.48-1.002-.105-1.668.11-.187.246-.356.407-.501l-.27-1.037zm11.777 4.911c.076-.176.219-.316.397-.389.177-.073.377-.074.555-.002l2.103 1.186c.134.128.222.298.249.481.028.184-.007.371-.098.533-.091.162-.234.288-.405.36-.172.071-.362.084-.541.035l-2.064-1.165c-.079-.055-.147-.126-.199-.208-.052-.082-.087-.174-.104-.269-.017-.096-.014-.194.007-.289.021-.094.061-.184.117-.263l-.017-.01zm-.978 2.797c.382-.677 1.046-1.026 1.485-.778l1.348.76-1.018.288c-.042.213-.115.418-.219.608-.379.671-1.043 1.02-1.482.773-.438-.248-.476-.971-.097-1.642l-.017-.009z"/>
    <path fill="#FFD176" d="M84.323 101.603c2.434-1.177 4.447-3.112 6.845-4.355 2.921-1.495 9.439-3.286 16.859.286.344.194 1.747.934 3.144 1.57 1.397.634 2.892 1.199 3.241.84.421-.435-1.325-2.706-2.412-4.358-.22-.336-.377-.629-.548-.908-.145-.216-.231-.466-.249-.726.071-.204.071-.426.001-.63-.071-.204-.208-.379-.39-.496l-3.9-3.457c-1.751-1.635-3.626-3.13-5.609-4.474-1.678-1.07-4.746.064-6.742.283-3.214.38-4.247 1.37-6.928 3.205-3.63 2.543-8.507 2.957-11.92 5.805-1.643 1.369-2.903 3.59-2.223 5.611.743 2.21 3.419 3.106 5.741 3.034 1.762-.053 3.494-.473 5.084-1.233l.006.003z"/>
    <path fill="#F3E7DE" d="M44.391 84.462l-2.719-1.403c-1.631-.92-2.756-2.659-3.46-4.393-.437-1.072-1.166-2-2.105-2.677-.939-.677-2.05-1.077-3.204-1.153-1.155-.077-2.308.173-3.328.72-1.02.547-1.864 1.37-2.438 2.375-.574 1.005-.854 2.151-.807 3.307.046 1.157.417 2.277 1.07 3.233s1.561 1.709 2.622 2.173c1.06.465 2.23.622 3.374.453 1.877-.279 3.981-.276 5.63.654l2.605 1.616c.556.348.965.888 1.15 1.518.184.63.13 1.305-.151 1.897l5.115-9.067c-.383.498-.928.845-1.541.982-.613.136-1.255.053-1.813-.235zM118.171 65.41l1.402-2.719c.92-1.63 2.662-2.76 4.397-3.463 1.069-.437 1.994-1.167 2.668-2.105.674-.938 1.071-2.046 1.146-3.2.075-1.152-.177-2.303-.725-3.32-.548-1.018-1.371-1.86-2.374-2.433-1.004-.573-2.149-.852-3.304-.805-1.154.046-2.272.416-3.227 1.067-.954.651-1.706 1.558-2.17 2.616-.464 1.058-.621 2.225-.453 3.368.283 1.87.281 3.975-.648 5.622l-1.619 2.61c-.347.557-.887.967-1.517 1.151-.63.184-1.306.13-1.899-.153l9.071 5.117c-.497-.383-.845-.928-.982-1.541-.136-.613-.054-1.254.234-1.812z"/>
    <path fill="#fff" d="M67.687 159.323l1.405-2.724c.917-1.625 2.66-2.755 4.394-3.457 1.072-.437 2-1.166 2.677-2.105.678-.938 1.077-2.049 1.153-3.204.076-1.155-.175-2.308-.723-3.328-.549-1.02-1.373-1.865-2.38-2.438-1.005-.574-2.152-.853-3.31-.806-1.156.047-2.276.418-3.232 1.072-.955.654-1.708 1.563-2.17 2.624-.464 1.061-.619 2.23-.448 3.375.277 1.868.275 3.972-.654 5.619l-1.614 2.613c-.347.556-.887.965-1.517 1.149-.63.184-1.305.13-1.898-.151l9.071 5.118c-.5-.383-.849-.929-.986-1.542-.138-.614-.056-1.256.232-1.815z"/>
    <path fill="#F3E7DE" d="M136.825 138.348l2.719 1.402c1.631.921 2.757 2.659 3.46 4.394.437 1.072 1.167 1.999 2.105 2.677.939.677 2.05 1.077 3.205 1.153 1.154.077 2.308-.173 3.327-.72 1.02-.548 1.865-1.371 2.439-2.376.573-1.004.853-2.15.807-3.307-.047-1.156-.418-2.276-1.071-3.232-.652-.956-1.561-1.709-2.621-2.173-1.06-.465-2.23-.622-3.375-.454-1.876.28-3.981.276-5.629-.653l-2.609-1.611c-.556-.35-.964-.891-1.148-1.521-.183-.631-.129-1.306.152-1.899l-5.115 9.066c.383-.497.928-.844 1.541-.981.613-.136 1.255-.053 1.813.235z"/>
</svg>
