<svg xmlns="http://www.w3.org/2000/svg" width="270" height="197" fill="none" viewBox="0 0 270 197">
    <path fill="#E3F1F3" d="M100.957 33.855c14.305-25.57 17.968-65.757 40.83-75.598C164.649-51.585 206.71-31.08 225.084 4.5c18.446 35.743 13.122 86.792-11.274 116.986-24.479 30.425-68.101 39.833-100.78 29.822-32.525-10.078-54.177-39.737-52.642-60.09 1.688-20.42 26.337-31.63 40.569-57.363z"/>
    <path fill="#D2EDF2" fill-opacity=".5" d="M136.324-30.538c23.955-6.692 45.944-18.635 60.525-13.378 14.491 5.367 21.672 28.015 31.061 47.338 9.399 19.513 21.105 35.78 18.454 51.36-2.562 15.47-19.48 30.25-34.069 44.182-14.678 14.041-27.035 27.041-44.8 40.038-17.576 12.967-40.667 25.662-60.783 23.588-20.116-2.073-37.355-18.995-40.82-39.357-3.652-20.332 6.47-44.104 7.821-68.782 1.54-24.708-5.781-50.212 3.617-63.604 9.3-13.472 35.129-14.803 58.994-21.385z"/>
</svg>
