<svg xmlns="http://www.w3.org/2000/svg" width="388" height="396" fill="none" viewBox="0 0 388 396">
    <path fill="#E3F1F3" d="M183.57 280.259c-18.116-37.32-60.18-71.396-54.62-108.43 5.561-37.034 58.745-77.027 111.596-75.094 53.084 1.96 106.031 46.12 122.006 99.993 16.172 54.148-4.863 117.983-39.596 153.37-34.698 35.137-83.329 41.8-104.864 24.962-21.499-17.089-16.172-57.455-34.522-94.801z"/>
    <path fill="#D2EDF2" fill-opacity=".5" d="M204.88 117.73c39.346 12.969 95.009 7.109 115.85 36.303 20.841 29.195 6.86 93.443-35.326 128.775-42.383 35.477-113.31 41.985-162.236 16.206-49.266-25.831-76.333-84.094-73.494-132.395 2.981-48.105 36.067-86.392 64.152-89.807 28.228-3.22 51.51 28.093 91.054 40.918z"/>
</svg>
