<svg xmlns="http://www.w3.org/2000/svg" width="118" height="118" fill="none" viewBox="0 0 118 118">
    <g clip-path="url(#prefix__clip0)">
        <path fill="#E5F4F6" d="M81.951 24.072c5.192 7.08 6.667 15.93 10.68 24.78 3.952 8.909 10.442 17.7 10.855 27.14.472 9.44-5.133 19.47-13.51 22.715-8.438 3.245-19.707-.295-29.56-2.242-9.912-1.888-18.408-2.183-24.72-6.077-6.314-3.953-10.444-11.505-14.928-20.178s-9.322-18.467-8.083-27.494c1.24-8.968 8.614-17.228 17.346-23.187s18.88-9.617 28.38-8.732c9.498.826 18.348 6.136 23.54 13.275z"/>
        <path fill="#D2EDF2" fill-opacity=".5" d="M84.547 13.924c7.493 4.189 15.93 8.437 19.116 15.104 3.186 6.726 1.121 15.812-3.009 22.95-4.13 7.14-10.325 12.332-16.815 17.996-6.49 5.664-13.275 11.8-20.591 12.449-7.257.59-14.986-4.307-21.063-10.09-6.077-5.84-10.443-12.507-11.8-19.528-1.357-7.021.295-14.396.767-24.013.472-9.617-.177-21.535 5.074-26.491 5.192-4.897 16.343-2.832 25.252.236 8.909 3.127 15.517 7.198 23.069 11.387z"/>
    </g>
    <g fill="#A2C7CC" fill-opacity=".5" clip-path="url(#prefix__clip1)">
        <path d="M64.527 35.923l-2.082-.369c-.138-.024-.28.007-.395.087-.115.08-.193.203-.217.342l-.13.729-2.718-.482c-.053-.428-.257-.823-.577-1.114-.32-.29-.732-.456-1.164-.467-.431-.012-.852.132-1.187.405-.334.273-.56.657-.635 1.082-.075.425.004.863.225 1.234.22.371.566.651.976.788.409.138.854.124 1.253-.039.4-.163.728-.464.925-.848l2.718.482-.055.307c-.024.139.007.28.088.395.08.115.203.194.34.218l2.082.369c.138.024.28-.007.395-.087.115-.08.193-.203.218-.341l.054-.308 2.342.415c.053.428.257.823.577 1.113.32.29.732.456 1.163.467.431.012.853-.132 1.187-.405.334-.273.56-.656.635-1.081.075-.425-.005-.863-.225-1.234-.22-.37-.566-.65-.975-.788-.41-.137-.854-.123-1.254.04-.4.162-.727.463-.924.847l-2.341-.415.13-.733c.023-.137-.009-.279-.09-.393-.08-.114-.202-.192-.34-.216zm-7.462 1.264c-.145-.025-.28-.093-.386-.195-.107-.102-.18-.233-.212-.377s-.02-.294.033-.432c.053-.137.146-.256.267-.34.12-.085.264-.132.411-.135.148-.003.293.038.417.117.124.08.222.194.281.329.06.135.078.284.052.43-.035.194-.145.366-.307.48-.162.113-.361.157-.556.123zm11.838.585c.145.026.28.095.385.198.106.102.18.234.21.378.031.144.02.294-.035.431-.054.137-.148.255-.27.339-.12.084-.264.13-.411.132-.148.002-.292-.04-.416-.12-.124-.08-.222-.194-.28-.33-.058-.135-.076-.284-.049-.43.036-.194.147-.366.31-.478.162-.112.362-.156.556-.12zm-5.266.14l-1.04-.184.184-1.04 1.04.184-.183 1.04zM67.04 45.26l-3.587-5.132c-.136-.193-.313-.354-.519-.47-.314-.178-.679-.243-1.035-.183-.233.038-.455.128-.648.263l-5.139 3.587c-.242.168-.432.4-.549.67-.116.271-.155.569-.111.86l1.114 7.55c-.377.058-.726.232-.998.498-.273.267-.455.611-.522.986l-.04.222c-.084.476.025.967.302 1.363.277.397.7.667 1.176.752l.286.05-1.199 6.766c-.073.414.021.84.262 1.185.24.344.609.58 1.023.652l2.081.37c.414.073.84-.022 1.185-.262.345-.241.58-.61.653-1.023l1.199-6.765.285.05c.476.084.967-.025 1.363-.302.397-.277.667-.7.751-1.177l.04-.222c.066-.375.012-.761-.152-1.105-.165-.343-.432-.627-.766-.81l3.64-6.708c.14-.259.207-.551.19-.846-.016-.294-.115-.578-.285-.818zm-5.948 1.764c.172.03.33.11.456.231.126.12.213.276.25.446.038.17.025.348-.039.51-.063.162-.173.302-.316.402-.142.1-.312.155-.486.159-.174.003-.345-.045-.492-.138-.147-.094-.263-.23-.333-.389-.07-.16-.091-.336-.06-.508.04-.23.17-.434.362-.567.192-.134.428-.186.658-.145v-.001zm-1.358 16.755c-.024.138-.102.26-.217.341-.115.08-.257.112-.395.087l-2.082-.368c-.138-.025-.26-.103-.34-.218-.081-.115-.113-.257-.088-.395l1.198-6.765 3.123.553-1.199 6.765zm3.599-8.193c-.036.2-.15.378-.316.495-.167.117-.373.162-.574.127l-5.774-1.023c-.2-.035-.378-.15-.495-.316-.116-.167-.162-.373-.127-.574l.04-.222c.035-.2.149-.378.316-.495.166-.116.373-.162.573-.127l5.775 1.023c.2.036.378.15.494.316.117.167.162.373.127.574l-.04.222zm2.875-9.164l-3.76 6.926-4.801-.85-1.15-7.795c-.013-.098 0-.197.039-.287.039-.09.102-.167.183-.223l4.951-3.462-.927 5.235c-.465.047-.898.261-1.218.602-.32.341-.506.787-.523 1.254-.018.467.135.925.428 1.29.294.363.71.609 1.17.69.46.082.935-.006 1.336-.247.401-.24.701-.618.846-1.063.144-.445.122-.927-.061-1.358-.184-.43-.516-.78-.937-.983l.927-5.236 3.462 4.952c.056.08.089.175.094.273.006.098-.016.196-.062.282h.003z"/>
        <path d="M81.353 39.7c.415.074.84-.02 1.186-.261.344-.24.579-.609.652-1.023l.615-3.47c.073-.413-.02-.84-.262-1.184-.24-.345-.609-.58-1.023-.653l-3.469-.614c-.414-.074-.84.02-1.185.261-.345.241-.58.61-.653 1.023L77 34.993l-26.713-4.732.215-1.214c.073-.414-.02-.84-.262-1.185-.24-.345-.608-.58-1.023-.653l-3.469-.614c-.414-.074-.84.02-1.185.261-.344.241-.58.61-.652 1.023l-.615 3.47c-.073.414.02.84.262 1.184.24.345.608.58 1.023.653l1.214.215-2.107 11.89c-.024.138.007.28.088.395.08.115.203.194.34.218.139.024.28-.007.396-.087.114-.08.193-.203.217-.341l2.106-11.89 1.215.215c.414.073.84-.021 1.185-.262.344-.24.58-.609.652-1.023l.216-1.214 26.713 4.732-.215 1.214c-.074.415.02.84.261 1.185.241.345.61.58 1.023.653l1.215.215-4.733 26.713-1.214-.215c-.414-.073-.84.021-1.185.262-.344.241-.58.609-.653 1.023l-.215 1.214-26.713-4.732.215-1.214c.074-.414-.02-.84-.262-1.185-.24-.345-.608-.58-1.023-.653l-1.214-.215 2.12-11.969c.025-.138-.006-.28-.087-.395-.08-.115-.203-.193-.34-.218-.139-.024-.28.007-.396.088-.114.08-.193.203-.217.34l-2.12 11.97-1.215-.215c-.414-.074-.84.02-1.185.261-.344.241-.58.609-.652 1.023l-.615 3.47c-.073.413.02.84.262 1.184.24.345.609.58 1.023.653l3.469.615c.414.073.84-.021 1.185-.262.344-.241.58-.609.653-1.023l.215-1.214 26.713 4.732-.215 1.214c-.074.414.02.84.261 1.185.241.345.61.58 1.023.653l3.47.614c.414.074.84-.02 1.184-.261.345-.241.58-.609.653-1.023l.615-3.47c.073-.413-.02-.84-.262-1.184-.24-.345-.609-.58-1.023-.653l-1.214-.215 4.732-26.713 1.215.215zm-32.507-7.368c-.025.138-.103.26-.218.34-.115.081-.257.113-.395.088l-3.47-.614c-.137-.025-.26-.103-.34-.218-.08-.115-.112-.257-.087-.395l.614-3.47c.025-.137.103-.26.218-.34.115-.08.257-.112.395-.088l3.47.615c.137.024.26.103.34.218.08.114.112.257.087.395l-.614 3.469zm-5.9 33.305c-.025.138-.103.26-.218.34-.115.08-.257.112-.395.088l-3.469-.615c-.138-.024-.26-.103-.341-.217-.08-.115-.112-.257-.087-.395l.614-3.47c.025-.138.103-.26.218-.34.115-.08.257-.112.395-.088l3.47.615c.137.024.26.102.34.217.08.115.112.257.087.395l-.614 3.47zm33.832 2.035c.04.057.068.121.083.19.015.067.016.137.004.205l-.614 3.47c-.012.068-.038.133-.075.192-.037.058-.086.109-.143.148-.115.08-.257.112-.395.088l-3.47-.615c-.137-.024-.26-.102-.34-.217-.08-.115-.112-.257-.087-.395l.614-3.47c.025-.138.103-.26.218-.34.115-.08.257-.112.395-.088l3.469.615c.138.024.26.103.34.218zm.95-29.844c-.04-.057-.069-.121-.084-.189s-.016-.138-.004-.206l.615-3.47c.025-.137.103-.26.218-.34.115-.08.257-.112.395-.088l3.469.615c.138.024.26.103.34.218.081.114.112.256.088.395l-.615 3.469c-.011.068-.037.133-.074.192s-.086.109-.143.148c-.115.08-.257.112-.395.088l-3.47-.615c-.068-.011-.133-.037-.192-.074-.058-.038-.109-.086-.148-.143z"/>
    </g>
    <defs>
        <clipPath id="prefix__clip0">
            <path fill="#fff" d="M0 0H118V118H0z"/>
        </clipPath>
        <clipPath id="prefix__clip1">
            <path fill="#fff" d="M0 0H45.098V45.098H0z" transform="rotate(10.046 -109.911 249.675)"/>
        </clipPath>
    </defs>
</svg>
