<svg xmlns="http://www.w3.org/2000/svg" width="133" height="140" fill="none" viewBox="0 0 133 140">
    <path fill="#E3F1F3" d="M47.39 42.456c9.651-11.458 14.99-30.55 27.77-33.961 12.782-3.412 33.005 8.857 39.57 27.002 6.589 18.229-.543 42.441-15.86 55.54-15.38 13.205-38.968 15.214-55.185 8.526-16.13-6.711-24.912-22.202-22.376-31.89 2.622-9.71 16.453-13.677 26.08-25.217z"/>
    <path fill="#D2EDF2" fill-opacity=".5" d="M61.705 51.316c15.066-1.635 32.458-11.692 44.055-5.416 11.596 6.276 17.396 28.886 9.219 46.392-8.218 17.58-30.535 30.09-50.832 29.035-20.418-1.021-38.775-15.682-45.663-31.552-6.81-15.829-2.11-32.942 6.59-38.163 8.78-5.18 21.524 1.415 36.631-.296z"/>
    <g fill="#A2C7CC" fill-opacity=".5" clip-path="url(#prefix__clip0)">
        <path d="M71.917 65.273c-9.444-2.63-15.889-8.113-14.672-12.482 1.217-4.37 9.568-5.73 19.012-3.1 9.443 2.63 15.89 8.113 14.674 12.481-1.217 4.368-9.569 5.732-19.014 3.101zm4.033-14.48c-8.532-2.377-16.594-1.322-17.604 2.304-1.01 3.627 5.345 8.698 13.878 11.075 8.532 2.376 16.6 1.323 17.61-2.305 1.011-3.628-5.352-8.699-13.884-11.075zM69.396 74.325c-9.444-2.63-15.889-8.114-14.672-12.483l1.102.307c-1.01 3.626 5.344 8.698 13.877 11.074 8.532 2.376 16.601 1.322 17.611-2.305l1.102.307c-1.223 4.368-9.575 5.73-19.02 3.1zM66.875 83.376c-9.444-2.63-15.889-8.113-14.672-12.482l1.102.306c-1.01 3.626 5.343 8.704 13.875 11.08 8.533 2.377 16.603 1.316 17.613-2.31l1.102.307c-1.223 4.367-9.575 5.73-19.02 3.1z"/>
        <path d="M64.355 92.426c-9.444-2.63-15.89-8.113-14.674-12.477l7.564-27.158 1.101.306-7.563 27.16c-1.01 3.625 5.344 8.697 13.877 11.073 1.199.334 2.416.608 3.62.816l-.195 1.127c-1.257-.22-2.502-.502-3.73-.847zM90.93 62.172l-1.1-.307-7.332 26.324 1.101.307 7.332-26.324z"/>
        <path d="M61.485 64.213c.075-.269.069-.554-.018-.819-.087-.265-.25-.498-.47-.67-.22-.172-.485-.275-.763-.297-.278-.02-.556.04-.8.178-.242.137-.44.343-.565.592-.126.248-.175.53-.142.806.034.277.149.538.33.75.182.21.423.363.692.438.178.05.364.064.548.042.184-.022.361-.08.522-.171.162-.091.303-.213.417-.358.115-.146.199-.313.249-.491zM58.964 73.264c.075-.268.069-.553-.018-.818-.087-.265-.25-.499-.47-.67-.219-.173-.484-.276-.763-.297-.278-.021-.556.04-.799.177-.243.137-.44.343-.566.592-.126.249-.175.53-.141.806.033.277.148.538.33.75.182.211.422.364.691.439.36.1.745.053 1.07-.13.326-.184.566-.489.666-.849zM56.444 82.31c.075-.269.069-.554-.018-.819-.087-.264-.25-.498-.47-.67-.22-.171-.486-.274-.764-.295-.278-.021-.556.04-.798.178-.243.137-.44.343-.566.592-.126.248-.175.529-.141.806s.149.537.33.749c.182.211.422.364.691.439.36.1.746.053 1.071-.13.326-.184.565-.49.665-.85zM72.8 100.629c-.866-.242-1.6-.817-2.042-1.6-.442-.783-.555-1.709-.316-2.575l1.102.307c-.12.428-.109.882.03 1.304.139.423.4.794.75 1.068s.773.438 1.216.472c.443.033.886-.066 1.273-.284.387-.218.701-.547.901-.943.2-.397.28-.844.226-1.285-.054-.442-.237-.857-.527-1.194-.29-.337-.673-.58-1.101-.7-.646-.18-1.225-.547-1.662-1.055-.438-.509-.715-1.135-.796-1.8-.081-.667.037-1.341.34-1.94.302-.599.775-1.094 1.359-1.424.584-.33 1.253-.479 1.921-.429.67.05 1.308.298 1.836.712.528.413.922.974 1.131 1.61.21.638.225 1.323.045 1.97l-1.101-.308c.119-.428.109-.882-.03-1.304-.139-.422-.4-.794-.75-1.068s-.773-.438-1.217-.471c-.443-.034-.886.065-1.273.284-.387.218-.7.547-.901.944-.2.396-.278.844-.225 1.285.054.441.238.857.528 1.193.29.337.673.58 1.102.7.849.256 1.564.834 1.991 1.611.428.777.534 1.69.296 2.545-.238.854-.801 1.581-1.569 2.025-.767.444-1.678.57-2.537.35zM81.849 103.151c-.864-.244-1.596-.82-2.036-1.602-.44-.782-.553-1.707-.313-2.572l1.512-5.431c.242-.867.817-1.602 1.6-2.044.783-.441 1.71-.554 2.576-.313.867.241 1.602.817 2.043 1.6.443.783.555 1.71.314 2.576l-1.513 5.431c-.242.867-.82 1.602-1.604 2.044-.784.441-1.712.553-2.58.311zm3.025-10.862c-.574-.16-1.188-.084-1.707.208-.518.293-.9.78-1.06 1.353l-1.513 5.432c-.08.284-.102.581-.066.874.035.293.128.576.273.833.146.257.34.483.572.665.233.182.498.316.783.395.284.079.581.102.874.066.293-.035.576-.128.833-.273.257-.145.483-.34.665-.572.182-.232.316-.498.395-.783l1.513-5.43c.158-.575.082-1.187-.211-1.705s-.78-.899-1.352-1.06l.001-.004z"/>
        <path d="M84.564 103.905c-.072-.02-.14-.054-.199-.1-.06-.046-.108-.103-.145-.169l-1.96-3.471c-.074-.132-.093-.288-.052-.434.04-.146.138-.27.27-.344.132-.075.288-.094.434-.053.146.04.27.137.344.27l1.96 3.47c.055.099.08.211.071.324-.008.113-.05.221-.12.31-.07.089-.164.155-.271.19-.108.035-.223.038-.332.007zM93.616 106.426l-5.432-1.512c-.145-.041-.27-.138-.344-.27-.074-.132-.093-.288-.052-.434l3.024-10.86c.017-.076.05-.148.095-.21.045-.064.103-.117.17-.157.067-.04.14-.066.218-.076.077-.01.155-.005.23.016.075.02.144.057.205.105.06.049.11.11.147.178.036.069.058.144.065.221.006.078-.003.156-.028.23l-2.871 10.309 4.88 1.359c.075.017.147.049.21.094.063.046.116.104.156.17.04.067.066.141.076.218.01.077.005.155-.016.23-.02.075-.057.145-.105.205-.049.061-.11.111-.178.147-.069.037-.144.059-.221.065-.078.006-.156-.003-.23-.028z"/>
    </g>
    <defs>
        <clipPath id="prefix__clip0">
            <path fill="#fff" d="M0 0H50V50H0z" transform="rotate(15.562 -134.947 239.898)"/>
        </clipPath>
    </defs>
</svg>
