<svg xmlns="http://www.w3.org/2000/svg" width="1589" height="894" fill="none" viewBox="0 0 1589 894">
    <path fill="#E3F1F3" fill-rule="evenodd" d="M1075.7 0c23.61 24.971 42.81 54.229 26.8 89-12.31 26.737-38.91 45.791-68.6 67.058-40.263 28.846-86.213 61.763-109.9 123.442-15.891 41.378-25.791 76.123-34.92 108.159C869.199 457.434 852.978 514.361 786.5 599c-97 123.5-311.501 263-786 236.5l-.5-.028V894h1473.5c35.68-129.857-12.45-195.596-58.07-257.906-16.27-22.217-32.22-43.998-43.93-68.094-40.72-83.748-88.58-224.819 5-369 52.78-81.328 51.83-135.95 50.87-190.58-.05-2.806-.1-5.611-.14-8.42H1075.7z" clip-rule="evenodd"/>
</svg>
