<svg xmlns="http://www.w3.org/2000/svg" width="824" height="894" fill="none" viewBox="0 0 824 894">
    <g clip-path="url(#clip0)">
        <path fill="#EFE4D4" fill-rule="evenodd" d="M179.611 617.368l-.211-5.624H97.035c-9.444 0-17.1 7.653-17.1 17.092v75.83c.203.305.439.59.705.849.91.888 2.115 1.411 3.385 1.471l5.943.235c3.67 0 7.228-2.001 10.131-4.261 1.774-1.375 3.9-2.225 6.133-2.45 2.234-.226 4.487.18 6.5 1.173 2.014.992 3.708 2.531 4.889 4.44 1.18 1.909 1.8 4.111 1.789 6.356-.012 2.244-.655 4.44-1.856 6.336-1.2 1.896-2.91 3.417-4.934 4.389-2.024.971-4.281 1.354-6.512 1.105-2.232-.25-4.348-1.121-6.108-2.515-2.841-2.26-6.4-4.125-10.032-4.125l-5.93.222c-1.218.046-2.38.517-3.286 1.332-.31.279-.584.593-.816.933v76.614c0 9.439 7.655 17.092 17.1 17.092H265.04c9.444 0 17.1-7.653 17.1-17.092V628.836c0-9.439-7.656-17.092-17.1-17.092h-73.344l-.229 5.624c0 4.166 2.277 8.201 4.836 11.488 1.561 2.011 2.525 4.42 2.781 6.952.257 2.532-.205 5.086-1.331 7.368-1.126 2.283-2.871 4.203-5.037 5.542-2.166 1.338-4.664 2.041-7.211 2.028-2.546-.014-5.037-.742-7.189-2.103-2.151-1.361-3.877-3.299-4.979-5.594-1.102-2.294-1.537-4.852-1.254-7.382.283-2.529 1.271-4.928 2.853-6.922 2.56-3.216 4.674-7.261 4.674-11.377z" clip-rule="evenodd"/>
        <path fill="#110B03" fill-rule="evenodd" d="M113.748 678.835c.394-1.25.788-2.5 1.252-3.711 1.556-4.076 4.571-8.164 8.932-8.312 1.56-.126 3.12.272 4.674.67 1.781.455 3.554.908 5.309.565 3.906-.769 6.698-3.12 9.543-5.517 3.456-2.91 6.991-5.887 12.697-6.178 5.597-.297 11.082.729 15.481 4.569.093.081.164.167.235.254.071.086.142.172.234.253 20.078-5.126 39.722-1.038 51.052 12.757 13.69 16.623 11.318 42.57-3.608 64.219-.651.788-1.258 1.613-1.816 2.47-.614 1.506-.776 3.328-.939 5.15-.264 2.978-.53 5.957-2.767 7.558-.911.652-2.032.955-3.145 1.256-1.226.331-2.441.659-3.354 1.449-1.229 1.063-1.622 2.728-2.016 4.397-.164.697-.328 1.395-.554 2.049-1.909 5.552-7.518 7.507-13.303 9.524-4.099 1.429-8.286 2.888-11.309 5.679-1.858 1.718-3.325 3.931-4.743 6.07-2.996 4.517-5.772 8.703-11.541 7.194-2.187-.58-3.859-2.217-5.547-3.869-1.44-1.41-2.891-2.831-4.683-3.615-2.018-.876-4.207-.845-6.405-.814-1.086.015-2.174.031-3.244-.063-3.085-.354-6.007-1.568-8.434-3.502-2.427-1.935-4.261-4.513-5.293-7.44-.299-.853-.538-1.748-.777-2.644-.639-2.397-1.279-4.796-3.078-6.396-1.522-1.346-3.635-1.897-5.698-2.434-2.725-.71-5.36-1.397-6.422-3.865-.722-1.673-.327-3.45.073-5.253.306-1.377.615-2.77.433-4.145-.391-2.953-2.802-4.951-5.206-6.941-.862-.715-1.724-1.429-2.491-2.185-2-2.012-3.443-4.508-4.188-7.244-.653-2.397-.75-4.905-.291-7.337 1.047.439 2.157.728 3.297.856 2.231.249 4.488-.134 6.512-1.105 2.024-.972 3.734-2.493 4.934-4.389 1.201-1.896 1.844-4.092 1.856-6.336.011-2.245-.609-4.447-1.789-6.356-1.181-1.909-2.875-3.448-4.889-4.44-2.013-.993-4.266-1.399-6.5-1.173-2.233.225-4.359 1.075-6.133 2.45-.151.118-.305.235-.46.352-1.148-2.846.168-6.509 2.276-8.774 1.091-1.172 2.359-2.18 3.629-3.189 1.621-1.289 3.246-2.58 4.514-4.221 1.838-2.41 2.764-5.349 3.69-8.293z" clip-rule="evenodd"/>
        <path fill="#CBCBCB" d="M752.986 734.181h.161l-.495 159.029h5.078l.062-17.006h51.707v17.006h4.942v-22.069l.086-26.738v-5.063l.087-26.738v-5.063l.086-26.737v-5.064l.087-26.737v-5.064l.086-26.737v-5.076l.087-26.725v-5.063l.086-26.738v-5.063l.087-26.738v-5.063l.086-26.738v-5.075l.074-26.738v-5.063l.074-26.738v-5.063l.075-26.737v-5.076l.074-26.738v-5.063l.074-26.738v-5.063l.074-26.737v-5.076l.074-26.725v-5.076l.074-26.737v-5.064l.074-26.737v-5.064l.087-26.737v-5.076l.086-26.737v-17.204h-.173v-19.661l.087-26.737v-5.076l.086-26.725v-5.076l.087-26.737V96.497h-5.078v11.361h-50.99V96.497H755l-2.014 637.684zm58.588-594.546h-51.657l.087-26.738h51.657l-.087 26.738zm-.099 31.8h-51.657l.087-26.725h51.657l-.087 26.725zm-.098 31.814h-51.658l.087-26.738h51.657l-.086 26.738zm0 5.063l-.087 26.738h-51.496v-12.14h-.173v-14.598h51.756zm-1.1 349.847l-.074 26.737h-51.497l.087-26.737h51.484zm-.173 58.55h-51.509l.087-26.737h51.484l-.062 26.737zm0 5.064l-.074 26.737h-51.497l.087-26.737h51.484zm-51.768 90.339l.086-26.725h51.484l-.086 26.725h-51.484zm.099-31.801l.086-26.738h51.484l-.074 26.738h-51.496zm.395-127.204l.087-26.737h51.484l-.075 26.737H758.83zm51.892-122.152l-.087 26.738h-51.546l.087-26.738h51.546zm-.111 31.801l-.075 26.737H759.04l.086-26.737h51.485zm-.099 31.813l-.074 26.738h-51.596l.087-26.738h51.583zm.803-254.407l-.087 26.738h-51.496l.086-26.738h51.497zm-.284 90.352h-51.497l.087-26.738h51.496l-.086 26.738zm-.099 31.801h-51.497l.087-26.738h51.496l-.086 26.738zm0 5.075l-.198 26.676h-51.496l.086-26.725 51.608.049zm-51.744 58.539l.087-26.738h51.459v26.738h-51.546zm.396-127.204l.086-26.737h51.497l-.087 26.737h-51.496zm-1.693 545.74h51.608v26.676h-51.658l.05-26.676zm.099-31.801h51.657l-.087 26.738h-51.657l.087-26.738zm.099-31.813h51.657l-.087 26.737h-51.657l.087-26.737zm.098-31.801h51.658l-.087 26.737h-51.657l.086-26.737zm0-5.063l.087-26.738h51.484v16.994h.173v9.744h-51.744z"/>
        <path fill="#EFE4D4" d="M287.021 713.606l5.93-.222c3.633 0 7.191 1.864 10.033 4.124 1.759 1.394 3.876 2.266 6.107 2.515 2.231.25 4.488-.133 6.512-1.105 2.024-.971 3.734-2.492 4.935-4.388 1.2-1.897 1.843-4.093 1.855-6.337.012-2.244-.608-4.446-1.789-6.355-1.18-1.909-2.874-3.448-4.888-4.441-2.014-.992-4.266-1.399-6.5-1.173-2.234.226-4.359 1.075-6.133 2.451-2.891 2.26-6.45 4.26-10.132 4.26l-5.943-.247c-1.271-.057-2.477-.579-3.388-1.467-.911-.888-1.464-2.08-1.554-3.349v20.192c.173-1.205.764-2.312 1.669-3.127.906-.814 2.068-1.286 3.286-1.331z"/>
        <path fill="#F6C19A" d="M173.562 819.234l.779-.988.136.124-.915.864z"/>
        <path fill="#EFE4D4" d="M176.998 816.48l.235 5.928c0 3.631-1.866 7.188-4.127 10.028-1.397 1.758-2.27 3.874-2.521 6.105-.251 2.231.131 4.488 1.102 6.512.972 2.024 2.493 3.735 4.391 4.936 1.898 1.201 4.095 1.844 6.341 1.856 2.246.011 4.45-.609 6.361-1.79 1.91-1.181 3.449-2.875 4.442-4.889.992-2.014 1.398-4.266 1.171-6.5-.228-2.234-1.079-4.358-2.458-6.131-2.248-2.89-4.25-6.447-4.25-10.127l.235-5.94c.063-1.269.587-2.472 1.474-3.381.888-.91 2.077-1.464 3.345-1.559h-20.201c1.207.17 2.315.76 3.131 1.665.815.906 1.286 2.069 1.329 3.287z"/>
        <path fill="#C48357" d="M237.996 711.037l-4.201-9.88v.136-2.816c-.028-2.961-.602-5.891-1.693-8.645-1.322-3.482-2.965-7.335-5.51-9.941-.942-1.262-2.006-2.429-3.176-3.483-.158.964-.419 1.908-.778 2.816-2.17 5.641-6.381 10.26-11.799 12.943-5.053 2.581-10.366 5.816-11.12 9.793-.254-.081-.515-.143-.778-.185-1.393.086-2.718.633-3.767 1.554s-1.762 2.164-2.028 3.534c0 .222-.111.457-.148.691-.086.486-.127.978-.124 1.47-.056 1.353.259 2.697.913 3.883.653 1.187 1.62 2.172 2.794 2.848.691 2.61.572 5.369-.341 7.909-.914 2.541-2.579 4.745-4.774 6.318v-.062c-2.014 7.509-8.785 33.11-8.785 33.11-.186.502-.245 1.041-.172 1.571.074.53.277 1.034.593 1.466.316.432.734.779 1.217 1.009.483.231 1.015.339 1.55.314l10.428.074c1.215-.058 2.383-.488 3.345-1.233.961-.745 1.67-1.768 2.029-2.929l6.314-22.378c.458-1.442 1.346-2.709 2.545-3.631.496-.535 1.112-.946 1.796-1.2.685-.253 1.42-.341 2.145-.257 13.591 1.605 19.225-7.262 19.287-18.315v-2.235l2.619-.741c.35-.106.673-.284.948-.524.276-.24.497-.535.65-.866.153-.332.234-.692.238-1.057.003-.365-.071-.727-.217-1.061zm-8.34-13.276h-5.263c-.35-.033-.674-.195-.91-.454s-.367-.597-.367-.948c0-.35.131-.688.367-.947.236-.26.56-.421.91-.454h5.263c.349.033.673.194.91.454.236.259.367.597.367.947 0 .351-.131.689-.367.948-.237.259-.561.421-.91.454zm-1.483 3.915c0 1.371-.729 2.47-1.618 2.47-.89 0-1.619-1.111-1.619-2.47 0-1.358.729-2.47 1.619-2.47h2.743l-1.322 1.321c.124.371.191.758.197 1.149zm-1.235 21.711c-.901-.177-1.711-.668-2.285-1.384-.574-.717-.877-1.613-.854-2.531l6.425.951c.346 3.582-3.237 2.964-3.237 2.964h-.049z"/>
        <path fill="#fff" d="M223.861 719.472c-.024.918.279 1.814.853 2.531.574.716 1.384 1.206 2.285 1.384 0 0 3.583.617 3.286-2.964l-6.424-.951z"/>
        <path fill="#110B03" d="M229.655 694.958h-5.263c-.349.032-.674.194-.91.453-.236.26-.367.598-.367.948 0 .351.131.689.367.948s.561.421.91.454h5.263c.349-.033.674-.195.91-.454s.367-.597.367-.948c0-.35-.131-.688-.367-.948-.236-.259-.561-.421-.91-.453zM196.568 715.767c-1.174-.676-2.14-1.661-2.794-2.848-.653-1.186-.969-2.529-.912-3.883-.004-.492.038-.984.123-1.469 0-.235.099-.47.149-.692.265-1.37.978-2.613 2.027-3.534 1.049-.921 2.374-1.467 3.767-1.554.264.043.524.105.779.185.716-3.976 6.029-7.212 11.119-9.793 5.418-2.683 9.629-7.302 11.799-12.943.359-.908.62-1.852.779-2.816.063-.337.092-.681.086-1.025-.074-3.124-13.368-7.088-16.494-7.274-15.37-.963-45.714 9.139-24.513 51.166 1.636 3.321 4.001 6.23 6.919 8.509 0 0 1.693 1.828 2.002 2.136v.062c2.204-1.567 3.879-3.767 4.801-6.309.923-2.541 1.049-5.303.363-7.918zM226.554 699.194c-.89 0-1.618 1.111-1.618 2.469 0 1.359.728 2.47 1.618 2.47.89 0 1.619-1.111 1.619-2.47-.006-.394-.072-.786-.198-1.16l1.322-1.322-2.743.013z"/>
        <path fill="#fff" d="M145.875 805.711c-4.003-6.175-9.711-22.23 16.26-44.459 11.28-8.497 27.651-15.598 44.985-5.706 1.524.898 2.938 1.972 4.213 3.199 12.553 11.682 16.964 15.671 18.026 35.74.081 1.449-.135 2.899-.633 4.262-.499 1.362-1.27 2.609-2.266 3.665-.997 1.055-2.198 1.896-3.531 2.471-1.332.576-2.768.875-4.22.877l-72.834-.049z"/>
        <path fill="#fff" d="M146.592 805.711c-1.292.003-2.564-.313-3.704-.92-1.14-.607-2.113-1.486-2.832-2.559-.718-1.072-1.161-2.306-1.288-3.59-.128-1.285.064-2.581.559-3.774 4.114-9.732 9.439-19.439 16.185-27.17 4.275-5.755 14.134-2.606 20.596 1.729 11.194 7.521 9.971 15.746 1.421 36.333l-30.937-.049z"/>
        <path fill="#FFB288" d="M418.085 450.9h-.173c.494.309 1.1.654 1.792 1.013-.149-.303-.38-.558-.666-.737-.286-.178-.616-.274-.953-.276z"/>
        <path fill="#FFC3BD" d="M79.614 729.29c-.053.006-.107.006-.16 0-6.901-1.323-13.685-3.194-20.288-5.594l-.21 9.175c5.572 1.482 11.886 2.47 17.075 3.446 1.181.25 2.402.25 3.583 0v-7.027z"/>
        <path fill="#FFC3BD" d="M79.626 727.339c-.47.753-.927 1.507-1.025 1.618l.827-3.15c.059-.132.088-.276.086-.421-.002-.145-.035-.288-.097-.42-.062-.131-.152-.247-.263-.341-.11-.093-.24-.162-.38-.201-.294-.113-.62-.11-.912.01-.292.119-.527.346-.657.632l-3.225 7.657c-.096.24-.11.505-.038.754.072.248.224.465.433.617.117.203.254.393.408.568.628.647 1.41 1.123 2.273 1.383.532.186 1.236.457 1.878.618.228.053.46.086.692.099v-9.423z"/>
        <path fill="#A08052" d="M6.248 666.565c4.164-3.878 10.193-6.051 12.689-11.312 1.581-3.322 1.594-7.595 2.792-11.115 1.952-5.817 7.203-9.547 13.962-9.88 2.396-.136 4.324.617 6.832 1.309 3.707 1.025 3.707.704 6.758 0 3.966-1 6.511 1.643 10.082 6.175 6.77 8.534 11.898 21.526 7.24 27.898-3.422 4.681-11.848 5.743-11.206 12.647.457 4.939 7.216 12.955-1.915 16.24-2.681.951-5.844 1.074-8.723 1.716-.924.121-1.788.527-2.47 1.161-1.471 1.704-.124 5.026-.087 7.645 0 4.087-3.324 6.459-7.413 6.718-6.29.408-18.916-4.409-24.007-8.423-11.552-9.311-15.493-30.59-4.534-40.779z"/>
        <path fill="#FFC3BD" d="M45.736 875.599c2.41-13.462 5.696-26.664 9.093-39.964.185-.729.37-1.433.544-2.137l14.937.136c-2.94 10.028-15.543 41.026-19.768 58.835-.482 2.025-5.745 2.062-6.882-.976-.642-1.741.445-6.657.79-9.077.347-2.421.89-4.557 1.286-6.817zM30.18 891.592c.828-2.297 4.942-20.538 10.033-58.23l-14.48-.123c0 15.4-1.014 30.405-2.67 47.411-.345 3.594-1.062 8.484-.864 10.942h7.981z"/>
        <path fill="#fff" d="M43.636 776.998c7.168-.326 14.186-2.161 20.596-5.385.57-.264 1.055-.685 1.394-1.215.34-.529.52-1.145.52-1.773 3.41 11.979 7.525 31.763 7.698 44.039.014 5.362-.7 10.7-2.125 15.87-.296 1.235-.63 2.47-.988 3.705-.136.481-.284.963-.42 1.457l-14.938-.222c0-.124 0-.247.099-.383H40.238v.247l-14.48-.124c.099-22.785-1.52-46.114-4.189-62.082v-.606h.173c.027.097.06.192.1.284 3.1 3.236 7.252 6.608 21.794 6.188z"/>
        <path fill="#A2C7CC" d="M28.105 724.795c-.193-6.394-.95-12.758-2.261-19.019 0 0-10.181-12.202-1.236-19.043 10.96-8.398 24.241-10.683 35.138 1.469l1.335 2.112c2.162 1.235-.359 35.543.58 42.446 1.68 12.177 4.386 23.786 4.535 35.901-.001.629-.182 1.245-.521 1.774-.34.53-.823.951-1.394 1.215-6.41 3.224-13.428 5.059-20.596 5.385-14.543.42-18.657-2.952-21.882-6.175-.038-.093-.071-.188-.098-.284-.507-1.766-1.236-7.756-1.236-7.756-1.087-15.437 8.352-23.045 7.636-38.025z"/>
        <path fill="#FFC3BD" d="M39.892 686.72c1.01.619 2.117 1.061 3.274 1.309 1.25.335 2.58.166 3.707-.469.614-.429 1.104-1.012 1.42-1.691.317-.679.45-1.429.384-2.175-.012-.331-.095-.656-.245-.953-.149-.296-.36-.556-.62-.763-.334-.161-.708-.221-1.075-.173-2.582.074-5.832-1.606-8.377-1.075-.692.149-1.236 2.261-.852 3.496.503 1.067 1.34 1.943 2.384 2.494z"/>
        <path fill="#3E2043" d="M56.88 653.968c.039.341-.059.683-.272.951-.213.268-.524.442-.864.482-.328-.075-.62-.258-.83-.521-.21-.262-.323-.588-.323-.924 0-.336.114-.662.323-.924.21-.263.502-.446.83-.521.17.02.336.073.486.158.15.084.282.197.388.333.105.135.183.291.228.457.046.166.057.339.035.509z"/>
        <path fill="#A57C3A" d="M58.907 643.483s-12.553 11.757-24.092 7.41c.012-.061 4.3-23.563 24.092-7.41z"/>
        <path fill="#FFC3BD" d="M56.09 645.126c-.963.132-1.933.21-2.904.235-2.334.094-4.616.723-6.67 1.836-2.054 1.113-3.825 2.682-5.178 4.586-1.236 1.803-1.83 3.939-3.065 5.718-.7.967-1.566 1.803-2.557 2.469.22.308.504.565.832.752.328.188.694.302 1.07.335l-.098 20.501c-.042.511.116 1.018.441 1.414.325.396.792.651 1.3.71h6.994c.51-.053.98-.304 1.307-.698.328-.395.489-.902.447-1.414l.062-13.14c2.562-.107 4.986-1.19 6.773-3.028 1.788-1.837 2.804-4.289 2.84-6.852v-8.052c.008-1.908-.546-3.777-1.594-5.372zm-8.29 8.176c.056.167.085.342.086.518 0 .618-.322 1.112-.73 1.112-.407 0-.728-.494-.728-1.112 0-.617.333-1.124.729-1.124h1.235l-.593.606zm.456-1.161h-2.47c-.086 0-.17-.017-.25-.05-.078-.033-.15-.082-.21-.143-.06-.061-.106-.133-.138-.212-.031-.08-.047-.164-.045-.25 0-.17.068-.334.188-.454s.284-.188.454-.188h2.471c.17 0 .334.068.455.188.12.12.188.284.188.454.002.086-.014.17-.046.25-.031.079-.078.151-.138.212-.06.061-.131.11-.21.143-.079.033-.163.05-.249.05zm2.73 11.325c-1.519-.247-1.89-1.112-1.964-1.816l4.004.445c.185 1.667-2.04 1.371-2.04 1.371zm2.15-4.249l-1.087.346c-.63.21-1.235-.432-1.087-1.173v-.124c.082.163.219.291.386.363.167.072.354.084.528.032l1.088-.358c.22-.084.413-.231.553-.421.14-.191.222-.417.237-.653l.087.222c.134.328.135.696.004 1.025-.131.329-.385.595-.708.741zm3.522-5.397c0 .618-.334 1.112-.729 1.112-.395 0-.729-.494-.729-1.112 0-.617.321-1.124.729-1.124h1.235l-.605.606c.067.164.1.341.099.518zm.519-1.679h-1.89c-.154-.022-.292-.102-.387-.225-.095-.122-.138-.276-.12-.43-.017-.152.026-.305.12-.425.096-.121.234-.198.386-.217h1.89c.153.019.291.096.386.217.095.12.139.273.121.425.018.154-.025.308-.12.43-.094.123-.233.203-.386.225z"/>
        <path fill="#fff" d="M50.987 663.465s2.224.297 2.038-1.371l-4.002-.444c.074.704.444 1.568 1.964 1.815z"/>
        <path fill="#512F0A" d="M48.256 650.844h-2.47c-.171 0-.335.067-.455.188-.12.12-.188.284-.188.454-.002.085.014.17.045.249.032.08.079.152.139.213.06.061.13.109.21.142.078.033.163.051.248.051h2.471c.086 0 .17-.018.249-.051.079-.033.15-.081.21-.142.06-.061.107-.133.138-.213.032-.079.047-.164.046-.249 0-.17-.068-.334-.188-.454-.121-.121-.284-.188-.455-.188zM57.177 650.844h-1.89c-.152.018-.291.096-.386.217-.095.12-.138.273-.12.425-.018.154.025.308.12.43.094.123.233.203.386.225h1.89c.153-.022.292-.102.387-.225.094-.122.137-.276.12-.43.017-.152-.026-.305-.121-.425-.095-.121-.234-.199-.386-.217z"/>
        <path fill="#DDA7A6" d="M53.78 657.229c-.015.236-.098.462-.238.653-.14.19-.332.337-.553.421l-1.087.358c-.175.052-.362.04-.529-.032-.167-.072-.303-.201-.386-.363v.124c-.136.741.457 1.383 1.088 1.173l1.087-.346c.327-.142.587-.405.723-.735.136-.33.138-.7.006-1.031l-.111-.222z"/>
        <path fill="#000" d="M46.428 653.82c0 .618.333 1.112.729 1.112.395 0 .729-.494.729-1.112 0-.176-.03-.351-.087-.519l.605-.605H47.17c-.408 0-.741.47-.741 1.124zM55.93 652.696c-.408 0-.73.507-.73 1.124 0 .618.322 1.112.73 1.112.407 0 .728-.494.728-1.112.002-.178-.032-.354-.099-.519l.606-.605h-1.236z"/>
        <path fill="#A08052" d="M38.273 657.5c1.236-1.778 1.878-3.914 3.064-5.717 1.354-1.904 3.125-3.473 5.179-4.586 2.054-1.113 4.336-1.742 6.67-1.836.972-.025 1.94-.103 2.904-.235.68-.111 1.235-.296 1.235-.58.185-.68-1.544-2.742-1.791-3.397 0-.16-1.73.124-1.866 0-.128-.1-.283-.16-.445-.173l-4.077-.876c-1.864-.452-3.76-.758-5.671-.914-1.59-.193-3.2.164-4.56 1.012-2.087 1.519-2.47 4.459-3.545 6.78-1.557 3.199-4.77 5.397-6.017 8.719-.605 1.606-.618 3.705.655 4.78 1.272 1.074 3.595.827 5.189-.136l.47-.321c1.012-.677 1.895-1.53 2.606-2.52z"/>
        <path fill="#A2C7CC" d="M25.67 719.287c-1.902-8.448-3.768-16.401-4.942-24.959-1.173-8.559 11.417-8.83 12.64-.247 1.05 7.41 2.68 14.82 4.324 22.094.297 1.235.544 2.47.816 3.618l-11.355 4.792c-.593-1.655-1.062-3.409-1.482-5.298z"/>
        <path fill="#FFC3BD" d="M27.105 724.585l11.354-4.792c1.025 4.458 2.2 7.941 6.017 11.436 9.785 8.941 17.569 16.833 29.022 23.144 7.413 4.087 1.742 10.485-5.621 6.421-13.023-7.175-21.498-12.596-32.408-23.057-3.88-3.587-6.761-8.119-8.364-13.152z"/>
        <path fill="#FFC3BD" d="M69.236 758.287c1.802-1.625 4.016-2.727 6.4-3.186.605-.292 1.29-.376 1.948-.241.658.136 1.253.483 1.694.99.44.507.703 1.144.746 1.815.043.67-.136 1.336-.509 1.894-.445 1.352-1.042 2.649-1.779 3.866-.258.485-.621.907-1.062 1.235-.603.435-1.354.612-2.088.494-2.126-.457-4.56-2.816-5.894-3.705-2.607-1.643-1.68-1.149.544-3.162z"/>
        <path fill="#FFC3BD" d="M77.49 756.904l6.733 4.446c.109.072.232.12.36.142.129.023.26.019.388-.011.127-.03.247-.086.352-.163.105-.078.193-.176.259-.289.141-.225.19-.497.134-.758-.055-.26-.21-.489-.43-.637l-6.734-4.446c-.11-.072-.233-.12-.361-.143-.129-.022-.26-.018-.388.012-.127.03-.247.085-.352.163-.105.078-.193.176-.258.289-.139.226-.186.497-.13.757.055.259.207.488.426.638zM76.735 759.72l6.734 4.434c.109.07.23.118.359.14.127.023.258.019.385-.009.127-.029.246-.083.352-.158.105-.076.195-.172.263-.282.138-.23.183-.504.125-.765-.057-.262-.213-.492-.434-.643l-6.734-4.433c-.109-.071-.23-.118-.359-.141-.127-.022-.259-.019-.385.01-.127.028-.246.082-.352.158-.105.075-.195.171-.263.281-.138.23-.183.504-.125.766.057.261.213.491.434.642zM74.202 761.684l6.734 4.433c.11.071.231.118.359.141.128.022.259.019.385-.01.127-.029.246-.082.352-.158.106-.075.195-.171.263-.281.142-.228.19-.502.136-.764-.056-.263-.21-.493-.432-.644l-6.734-4.434c-.11-.07-.231-.118-.359-.14-.128-.023-.259-.019-.385.009-.127.029-.246.083-.352.158-.106.076-.195.171-.263.282-.142.227-.191.501-.136.764.056.262.21.493.432.644zM71.287 762.561l6.733 4.446c.11.07.232.117.36.14.127.022.258.019.385-.01.126-.028.246-.082.352-.157.105-.076.194-.172.262-.282.138-.23.183-.504.126-.765-.057-.262-.213-.492-.434-.643l-6.734-4.434c-.109-.071-.23-.121-.359-.144-.128-.023-.26-.021-.387.008s-.246.083-.352.16c-.105.076-.194.173-.261.285-.137.228-.182.5-.124.76.057.259.212.487.433.636z"/>
        <path fill="#FFC3BD" d="M69.347 756.102l.136.592c.022.114.066.222.13.318.065.096.148.178.245.241.097.064.205.107.32.128.113.02.23.018.343-.007l10.44-2.47c.229-.062.425-.209.547-.412.122-.202.16-.444.108-.675l-.124-.581c-.023-.114-.07-.222-.135-.318-.066-.096-.15-.178-.248-.241-.097-.063-.207-.107-.321-.127-.115-.021-.232-.018-.346.007l-10.428 2.47c-.228.059-.425.203-.55.403-.124.201-.166.441-.117.672z"/>
        <path fill="#FFB881" d="M336.132 874.314c-.184-.293-.471-.506-.805-.597-.334-.092-.69-.055-.998.103l-7.228 5.953c-.42.346-.235 1.062.395 1.494l12.998 8.892c3.422 2.334 6.845 0 4.608-3.211l-8.97-12.634z"/>
        <path fill="#3A2D3F" d="M338.826 881.514c-.084-.131-.113-.29-.081-.443.033-.152.124-.286.254-.372l1.915-1.408c.057-.046.122-.081.192-.102.07-.021.143-.028.216-.02.073.008.143.031.207.067.063.036.119.084.164.142.081.132.108.29.076.442-.032.151-.121.285-.249.373l-1.915 1.445c-.059.045-.126.077-.197.095-.072.018-.146.022-.219.01-.073-.012-.143-.038-.205-.077s-.116-.091-.158-.152zM340.247 883.503c-.041-.064-.07-.136-.083-.211-.014-.075-.013-.152.003-.226.016-.075.047-.146.09-.208.044-.063.099-.117.163-.158l1.915-1.42c.057-.046.123-.08.194-.1.07-.02.144-.026.217-.017.072.009.142.033.206.07.063.037.118.087.162.146.041.064.069.135.083.21.014.075.013.152-.003.227-.017.074-.047.145-.09.208-.044.062-.099.116-.163.157l-1.915 1.421c-.057.046-.123.08-.194.1-.07.02-.144.025-.217.016-.072-.009-.142-.033-.206-.07-.063-.037-.118-.086-.162-.145zM341.52 885.503c-.082-.13-.112-.288-.082-.439.03-.152.117-.286.242-.376l1.928-1.408c.056-.045.121-.079.19-.099.07-.02.143-.025.214-.016.072.009.141.033.203.07.062.037.116.086.159.144.085.128.115.284.085.435-.03.15-.118.282-.246.368l-1.915 1.408c-.055.048-.12.085-.19.107-.071.022-.145.029-.218.021-.073-.008-.144-.032-.208-.069-.063-.036-.119-.086-.162-.146z"/>
        <path fill="#FFB881" d="M410.82 888.566l-15.111-5.693c-.343-.147-.728-.166-1.084-.052-.357.113-.66.351-.855.669l-3.497 9.263c-.198.543.346 1.235 1.162 1.235h16.84c4.423.061 6.313-3.977 2.545-5.422z"/>
        <path fill="#3A2D3F" d="M401.776 887.813c-.073-.026-.139-.066-.195-.119-.056-.053-.101-.117-.131-.187-.03-.071-.046-.148-.045-.225.001-.077.018-.153.05-.223l.889-2.321c.049-.15.153-.275.29-.351.138-.076.299-.096.452-.057.073.027.139.069.196.123.056.053.1.118.131.19.03.072.045.149.044.227-.001.078-.018.155-.05.226l-.902 2.321c-.048.147-.151.269-.286.342-.136.074-.294.093-.443.054zM404.247 888.517c-.072-.028-.137-.071-.192-.126-.055-.054-.098-.119-.127-.191-.029-.071-.043-.148-.041-.225.002-.078.019-.154.051-.224l.89-2.322c.051-.147.156-.269.293-.343.138-.073.298-.092.448-.052.073.027.14.069.196.123.056.054.1.119.129.191.029.072.043.15.04.228-.003.077-.022.154-.056.224l-.889 2.322c-.051.147-.156.269-.293.343-.138.073-.298.091-.449.052zM406.471 889.369c-.072-.028-.137-.071-.192-.126-.055-.054-.098-.119-.127-.191-.029-.071-.043-.148-.041-.225.001-.078.019-.154.051-.224l.89-2.322c.048-.149.152-.273.291-.347.138-.073.299-.091.45-.048.072.027.137.068.192.122.055.053.098.117.127.188.029.07.043.146.041.222-.001.077-.019.152-.051.221l-.89 2.322c-.051.148-.155.272-.292.347-.137.075-.297.097-.449.061z"/>
        <path fill="#E2B393" d="M402.443 877.377l-7.895-.42c-.074.433-.136.852-.198 1.235-.182 1.19-.281 2.391-.296 3.594l7.413.432.976-4.841z"/>
        <path fill="#fff" d="M394.054 881.823c0 3.594.902 5.879 2.631 6.027 1.73.148 4.028-1.717 4.609-4.631l.185-.964-7.425-.432z"/>
        <path fill="#212353" d="M425.251 758.46v-3.532l-26.551 1.519-3.077.358.074 3.075v.791c2.681 25.169 4.374 74.754-4.126 113.618-.124.527-.131 1.074-.02 1.603.11.529.335 1.028.659 1.461.324.433.739.79 1.215 1.046.476.256 1.003.404 1.543.435l8.785.445c1.091.022 2.155-.336 3.012-1.011.856-.676 1.451-1.628 1.683-2.694 9.909-46.942 15.431-91.204 16.803-117.114z"/>
        <path fill="#fff" d="M335.058 872.746c-1.989 4.063-1.087 7.311.395 8.114 1.483.803 4.411-.852 7.117-4.459l-7.512-3.655z"/>
        <path fill="#E2B393" d="M343.088 875.71c.878-1.235 1.755-2.47 2.62-3.705l-7.562-4.94c-.593 1.05-1.235 2.099-1.766 3.161-.396.729-.791 1.445-1.236 2.186 0 .124-.099.247-.161.371l7.512 3.705c.235-.321.42-.531.593-.778z"/>
        <path fill="#212353" d="M396.29 765.735c.006-1.712-.081-3.423-.259-5.126l-.223-1.84-20.188-3.915-7.104-1.457-.445 3.421c-.606 4.718 2.009 3.698 2.429 11.182 2.866 51.622-6.951 49.542-33.984 94.347-.627.919-.867 2.047-.671 3.142.196 1.094.814 2.068 1.721 2.712l6.808 4.421c1.018.587 2.222.766 3.367.503 1.146-.264 2.15-.95 2.81-1.923 32.445-44.163 49.026-50.14 45.739-105.467z"/>
        <path fill="#E2B393" d="M350.4 627.794c.346-6.743.581-10.077.816-11.732L346.57 616c-.754 3.186-1.68 7.225-2.57 11.794h6.4zM437.311 625.439c-.346-6.743-.593-10.065-.816-11.72l4.633-.074c.766 3.186 1.681 7.237 2.57 11.794h-6.387z"/>
        <path fill="#fff" d="M442.33 621h-3.935c-1.168-.005-2.295.395-3.162 1.123-.866.727-1.408 1.728-1.52 2.808-1.139 10.264-3.087 20.438-5.828 30.438-2.142 7.873-22.676 31.052-25.465 34.046-4.52 7.272-2.142 13.699 2.49 16.3 4.633 2.602 11.693 1.561 16.749-5.988 18.616-29.479 25.117-45.294 25.341-74.299.006-.576-.109-1.147-.34-1.681-.232-.533-.574-1.02-1.007-1.431-.434-.411-.95-.739-1.521-.965-.57-.226-1.182-.345-1.802-.351z"/>
        <path fill="#fff" d="M425.596 754.731c-4.064-6.928-5.467-19.617-6.097-27.731-1.816-23.267 12.745-33.561-2.242-48.11-2.471-.481-4.844-.913-7.203-1.235-14.493-2.297-21.177-1.383-28.875 1.137h-.061c-1.992.68-4.118.869-6.198.55-2.081-.318-4.053-1.134-5.75-2.378-3.706-2.701-7.181-5.704-10.391-8.978-5.312-17.117-5.767-10.932-5.78-43.486.003-.935.136-2.313-.499-3-.635-.687-1.067-1.928-2-2H348l-2.5-.5c-.945-.068-2.268.901-3.001 1.5-.733.599-1.082 3.061-1.202 4-3.287 25.132-2.471 42.238 0 48.747 3.608 7.829 6.301 10.522 19.262 23.464l4.077 4.063c-1.928 20.316 0 42.533 3.237 62.206.976 5.854 3.706 5.262 9.736 5.089l35.175-.976 3.225-.086c2.309-.11 4.569-.704 6.635-1.742.908-.474 1.71-1.13 2.356-1.926.646-.796 1.121-1.716 1.398-2.703.277-.987.348-2.02.21-3.036-.137-1.015-.482-1.992-1.012-2.869z"/>
        <path fill="#E2B393" d="M394.054 687.758c4.933 0 8.933-2.516 8.933-5.62 0-3.103-4-5.619-8.933-5.619-4.934 0-8.933 2.516-8.933 5.619 0 3.104 3.999 5.62 8.933 5.62zM383.935 656.599c-.647.391-1.117 1.018-1.31 1.748-.194.73-.096 1.507.272 2.167.252.677.742 1.239 1.379 1.58.637.341 1.377.438 2.081.272-.112-.259-.223-.518-.322-.778l-2.1-4.989zM396.512 640.964c-2.607 4.796-6.306 8.912-10.798 12.016l2.174 2.606c2.2 2.631 2.768 3.149 6.178 2.569 4.015-.692 9.513-3.705 9.884-3.952-.062-.148-.111-.309-.185-.457l-2.471-7.336-2.027.939c-.144.065-.308.071-.456.015-.149-.055-.269-.168-.334-.312-.066-.144-.071-.308-.016-.456.056-.148.168-.269.312-.334l2.039-.939c-.041-.132-.095-.26-.161-.382-.967-1.697-2.405-3.078-4.139-3.977zm-6.103 9.793c-.068-.144-.076-.309-.023-.459.053-.151.163-.274.307-.343l2.039-.927c.07-.035.147-.055.225-.06.078-.005.157.007.231.033.074.027.141.068.199.122.057.053.104.118.135.189.034.071.053.147.057.225.003.078-.008.156-.035.23-.026.073-.067.14-.119.198-.053.058-.116.105-.187.138l-2.038.938c-.071.034-.147.053-.225.057-.078.004-.156-.008-.23-.035-.073-.026-.141-.067-.199-.119-.057-.053-.104-.116-.137-.187zm2.36 2.618c-.346.161-.816-.135-1.063-.666s-.16-1.1.185-1.235c.346-.136.816.135 1.063.666.247.532.173 1.026-.185 1.235zm6.696-5.582c.346-.16.828.149 1.075.68s.161 1.086-.185 1.235c-.346.148-.828-.149-1.063-.68s-.173-1.074.173-1.235zm-.556 6.027c.165-.154.285-.351.346-.569.061-.218.061-.448 0-.666l.161.148c.123.116.222.255.289.411.067.155.102.322.102.491 0 .169-.035.336-.102.491-.067.155-.166.295-.289.41l-.927.778c-.122.104-.268.175-.426.206-.157.03-.319.019-.471-.032-.152-.051-.288-.14-.395-.259-.107-.12-.181-.264-.215-.421v-.111c.16.101.348.148.537.135.189-.013.369-.087.513-.209l.877-.803z"/>
        <path fill="#E2B393" d="M395.437 668.504c-1.616-.28-3.198-.731-4.719-1.346-1.914-.982-3.422-2.603-4.263-4.582l.556 3.977 1.952 14.128c.065.506.328.965.731 1.278.403.312.913.452 1.419.389l7.512-1.037c.502-.079.952-.353 1.253-.763.301-.409.428-.921.353-1.423l-1.557-11.14c-1.027.409-2.133.586-3.237.519z"/>
        <path fill="#331511" d="M391.2 651.042l2.039-.939c.07-.033.134-.08.186-.138.053-.057.094-.125.12-.198.026-.074.038-.152.034-.23-.004-.077-.023-.154-.056-.224-.032-.072-.078-.137-.136-.19-.057-.054-.125-.095-.199-.122-.074-.026-.152-.037-.231-.033-.078.005-.155.025-.225.061l-2.038.926c-.144.069-.255.192-.308.343-.053.15-.045.315.023.459.033.071.08.135.138.187.058.053.125.093.199.12.073.026.151.038.229.034.078-.004.155-.023.225-.056zM398.737 646.262c-.144.066-.257.186-.312.334-.056.148-.05.312.015.456.066.145.186.257.334.312.148.056.313.05.457-.015l2.026-.939c.073-.031.139-.076.194-.132.055-.057.098-.124.127-.198.029-.074.043-.152.041-.231-.002-.079-.02-.157-.053-.229-.062-.138-.176-.246-.317-.301-.14-.056-.297-.054-.437.004l-2.075.939z"/>
        <path fill="#101959" d="M400.355 649.72c.346-.161.433-.716.186-1.235-.247-.519-.729-.84-1.075-.679-.346.16-.42.716-.173 1.235.247.518.717.84 1.062.679zM391.892 651.461c-.346.148-.432.717-.185 1.235.247.519.716.828 1.062.667.346-.16.433-.716.186-1.235-.247-.519-.717-.827-1.063-.667z"/>
        <path fill="#CEA589" d="M396.933 654.672v.111c.034.157.108.302.215.421s.243.209.395.26c.152.051.314.062.471.031.157-.03.304-.101.426-.205l.927-.778c.123-.116.221-.255.289-.41.067-.156.102-.323.102-.492 0-.169-.035-.336-.102-.491-.068-.155-.166-.295-.289-.41l-.161-.148c.061.217.061.448 0 .665-.061.218-.181.415-.346.57l-.927.778c-.137.115-.306.186-.485.204-.178.017-.358-.019-.515-.106z"/>
        <path fill="#fff" d="M397.155 659.229c.334.556 1.001 1.112 2.471.68 0 0 2.199-.717 1.372-2.026l-3.843 1.346z"/>
        <path fill="#212353" d="M59.228 889.529l-13.887-4.73c-.692-.222-1.52 0-1.668.507l-2.261 7.657c-.136.444.395.852 1.112.864l14.937.161c3.917 0 5.239-3.285 1.767-4.459z"/>
        <path fill="#331511" d="M406.162 660.267l-2.261-6.076c-.346.197-5.844 3.272-9.884 3.964-3.385.58-3.953.062-6.177-2.569l-2.125-2.606c4.492-3.104 8.191-7.22 10.798-12.016 1.72.905 3.144 2.286 4.102 3.977.192-.129.349-.303.457-.507.106-.242.15-.507.126-.771-.024-.263-.114-.516-.262-.735-.623-1.505-1.392-2.945-2.298-4.298-.299-.578-.72-1.084-1.234-1.483s-1.109-.681-1.744-.827c-.53.031-1.062.031-1.593 0-.83-.304-1.546-.856-2.051-1.58-.254-.357-1.12.186-1.516 0-.396-.186-1.564.228-2 .26-.815.185-.709-1.272-1.5-1-.52.124-.766 1.624-1.285 1.5-1.095-.413-2.011-1.213-3.09-.76-.769.454-1.361 1.416-1.815 2.186-.606.901-.841-.717-1.384.221-.283.552-1.926.507-1.926 1.853-.877.457-1.073.358-2 .717-.494.248-1.424 2.442-1.695 2.923-.27.482-1.849 1.243-1.805 1.794.112 1.098 1.129 2.052 1.566 3.066.447 1.012-.566 3.134 1.115 3.134-.185.753-1.922 1.637-2.181 2.366-.253.707.945 1.249 1.066 1.99.121.741.428 1.439.893 2.029 1.075 1.334 2.891 2 4.151 3.1v.419c-.097.468-.073.953.069 1.409.143.456.4.868.747 1.197.753.507 1.816.272 2.619.704 1.236.642 1.532 2.594 2.879 2.68.568 0 1.112-.284 1.668-.173.155.045.301.116.432.21l-.556-3.976c.841 1.978 2.349 3.6 4.263 4.581 1.521.615 3.103 1.066 4.719 1.346 1.108.052 2.214-.142 3.238-.568 1.772-.68 3.504-1.459 5.189-2.334.878-.555 1.567-1.363 1.975-2.318.408-.955.516-2.011.31-3.029zm-6.486-.358c-1.52.432-2.187-.124-2.471-.68l3.892-1.346c.778 1.309-1.421 2.026-1.421 2.026zm-16.778.605c-.369-.66-.467-1.437-.273-2.167.194-.731.663-1.357 1.31-1.748l2.101 4.94c.099.259.21.518.321.778-.69.172-1.418.091-2.053-.228-.635-.32-1.134-.857-1.406-1.513v-.062z"/>
        <path fill="#212353" d="M37.964 889.529l-13.887-4.73c-.692-.222-1.52 0-1.668.507l-2.261 7.657c-.136.444.408.852 1.124.864l14.925.161c3.917 0 5.239-3.285 1.767-4.459z"/>
        <path fill="#E3F1F3" d="M527.799 718.212l5.943-.222c3.62 0 7.191 1.865 10.032 4.125 1.76 1.395 3.877 2.267 6.11 2.516 2.232.25 4.489-.134 6.514-1.106 2.024-.972 3.735-2.494 4.935-4.392 1.2-1.898 1.842-4.095 1.852-6.34.011-2.245-.611-4.448-1.794-6.356-1.183-1.909-2.879-3.447-4.894-4.437-2.016-.991-4.27-1.395-6.504-1.166-2.234.228-4.359 1.081-6.132 2.46-2.891 2.247-6.449 4.248-10.119 4.248l-5.955-.235c-1.271-.057-2.477-.579-3.389-1.467-.911-.888-1.464-2.08-1.553-3.349v20.192c.17-1.208.759-2.317 1.665-3.134.906-.818 2.07-1.291 3.289-1.337z"/>
        <path fill="#FFB881" d="M709.779 611.967h-71.265c.21.284.408.568.63.839 1.912 2.456 3.094 5.4 3.411 8.496.317 3.096-.243 6.218-1.617 9.01-1.375 2.793-3.507 5.142-6.154 6.781-2.647 1.638-5.701 2.499-8.814 2.484-3.114-.014-6.16-.904-8.791-2.568-2.631-1.663-4.741-4.033-6.089-6.838-1.347-2.805-1.878-5.933-1.532-9.025.347-3.093 1.557-6.025 3.492-8.463.185-.235.358-.482.531-.716h-71.809c-4.535 0-8.884 1.8-12.091 5.006-3.207 3.205-5.008 7.553-5.008 12.086v167.958c.006 4.529 1.811 8.87 5.017 12.07 3.206 3.2 7.552 4.997 12.082 4.997h168.031c4.535 0 8.885-1.801 12.092-5.006 3.206-3.205 5.008-7.553 5.008-12.086V629.034c-.002-2.245-.446-4.468-1.308-6.541-.862-2.073-2.124-3.956-3.714-5.541-1.591-1.586-3.478-2.842-5.555-3.697-2.076-.856-4.301-1.293-6.547-1.288z"/>
        <path fill="#212353" d="M599.18 798.853c1.742-16.722 4.695-33.135 5.621-49.968-9.958 2.335-17.384 6.842-21.547 14.005-5.869 10.139-8.068 19.155-8.254 27.923-.011 1.055.188 2.102.585 3.079.397.977.984 1.866 1.728 2.614.744.748 1.629 1.341 2.605 1.744.975.403 2.021.608 3.076.603h16.186z"/>
        <path fill="#fff" d="M651.8 798.853c-.494-16.475-.482-32.925-.754-49.474l-1.915-.518c-17.495-2.47-32.654-2.717-44.33 0-.927 16.833-3.88 33.246-5.622 49.967l52.621.025z"/>
        <path fill="#2C2655" d="M677.289 798.853c1.319.002 2.623-.289 3.816-.852 1.193-.563 2.246-1.385 3.082-2.405.836-1.02 1.435-2.214 1.752-3.494.318-1.28.347-2.614.085-3.907 0-.296-.136-.605-.198-.914-.736-3.587-1.841-7.088-3.299-10.448-9.661-22.909-9.39-24.329-31.481-27.454.272 16.549.26 32.999.754 49.474h25.489z"/>
        <path fill="#212353" d="M682.799 798.853c1.356-.003 2.691-.333 3.892-.965 1.2-.631 2.229-1.543 2.999-2.659.77-1.116 1.258-2.401 1.422-3.747.164-1.346 0-2.711-.48-3.979-1.985-5.261-4.106-10.728-6.363-16.4-5.56-13.029-14.356-19.118-22.338-19.661-1.667-.089-3.312.41-4.649 1.41-1.336 1-2.28 2.437-2.665 4.061-3.431 13.786-3.431 28.203 0 41.989l28.182-.049z"/>
        <path fill="#D3A079" d="M644.189 753.405c0 4.459-15.629 11.51-22.041 12.857-.89.179-1.807.169-2.692-.029-.886-.197-1.72-.579-2.448-1.12-2.471-1.803-5.906-4.94-5.906-8.472 0-5.57 7.487-10.09 16.729-10.09 9.242 0 16.358 1.272 16.358 6.854z"/>
        <path fill="#7A7268" d="M650.824 700.684c1.433-3.89 4.337-7.966 3.052-11.831-.433-1.322-1.347-2.47-1.718-3.792-.212-1.132-.332-2.281-.358-3.433-.766-7.052-7.228-9.373-11.799-13.041-4.164-3.322-6.178-9.25-11.367-11.016-.347-.307-.777-.505-1.235-.568-.378-.035-.759-.002-1.125.098-1.435-.074-2.872.098-4.25.507-.661-.53-1.363-1.005-2.1-1.421-2.558-1-4.844 2.322-7.574 2.47-1.841.112-3.583-1.235-5.399-.951-1.817.285-3.052 2.31-3.707 4.138-.655 1.827-1.235 3.89-2.842 4.94-1.043.537-2.115 1.015-3.212 1.432-2.471 1.359-3.558 4.458-4.127 7.299-.688 3.565-1.04 7.187-1.05 10.818 0 1.322-.074 2.297 1.001 3.224.385.32.844.541 1.334.642.511-4.286 2.225-8.341 4.942-11.695 9.311 7.692 20.324 13.052 32.124 15.635l-2.224 7.187c-2.261 7.311-2.978 8.855-10.341 10.535-8.649 1.988-22.24.37-23.327.234h-.086l.519 14.462c.667 4.236 4.942 8.805 9.155 9.04 2.471.136 6.894.568 11.119.469 3.361-.074 6.561-.481 8.513-1.655 3.061-1.954 5.906-4.227 8.488-6.78 3.707-4.001 5.029-10.015 4.831-15.499l.087-12.078c3.113.185 5.522 3.372 5.386 7.2-.008 1.044-.232 2.076-.657 3.03-.425.954-1.042 1.81-1.814 2.515l.099 9.547c.989-.606 2.311-.445 3.361-.976 2.669-1.334 1.73-5.644 3.608-7.99 1.235-1.581 3.632-1.989 4.732-3.705 1.099-1.717.432-4.175-.532-6.077-.568-.889-1.124-1.889-1.507-2.914zm-46.468 16.672l9.057-.531c-.21 1.433-1.1 3.162-4.56 3.545 0 0-5.065.382-4.497-3.014z"/>
        <path fill="#D3A079" d="M640.977 712.873c.771-.705 1.388-1.561 1.813-2.515.426-.954.649-1.985.658-3.03.136-3.828-2.274-7.015-5.387-7.2l-.087 12.078c.198 5.484-1.136 11.498-4.831 15.499-2.582 2.553-5.427 4.826-8.488 6.78-1.952 1.235-5.152 1.581-8.512 1.655l.16 15.709h25.032l-.297-29.429-.061-9.547z"/>
        <path fill="#564A3A" d="M613.722 694.719l4.942.198c.332-.018.647-.159.881-.396.234-.237.371-.554.383-.887.012-.333-.1-.658-.316-.913-.216-.254-.519-.418-.85-.46l-4.942-.197c-.344-.014-.681.108-.937.338-.256.231-.412.553-.434.897-.01.177.015.354.074.521.058.167.149.321.267.453.119.132.262.239.421.316.16.076.334.121.511.13zM600.563 692.805c.017-.347-.103-.686-.334-.945-.231-.259-.555-.416-.901-.439l-4.943-.197h-.111c-.321.02-.623.157-.851.384-.227.228-.364.53-.384.851-.011.345.111.681.341.938.23.257.55.417.894.445l4.942.198c.34.004.668-.122.918-.351.251-.23.404-.546.429-.884z"/>
        <path fill="#0E0911" d="M599.093 695.201c-.828 0-1.557 1-1.606 2.309-.05 1.309.593 2.384 1.42 2.47.828.087 1.557-1 1.607-2.309.049-1.309-.581-2.433-1.421-2.47z"/>
        <path fill="#150D19" d="M617.601 696.312c-.84 0-1.557.988-1.606 2.297-.05 1.309.581 2.384 1.421 2.47.84.086 1.557-1 1.606-2.297.049-1.297-.593-2.445-1.421-2.47z"/>
        <path fill="#B78B6C" d="M610.077 707.501v-.259c-.243.338-.586.591-.98.724-.395.133-.821.139-1.219.017l-2.533-.84c-.49-.162-.92-.466-1.236-.873-.317-.406-.506-.898-.543-1.412l-.21.432c-.161.345-.248.719-.254 1.099-.006.38.067.757.217 1.107.149.349.37.664.649.922s.609.455.969.577l2.471.828c.339.114.702.137 1.053.067.351-.069.677-.23.947-.464.269-.235.473-.536.591-.874.117-.337.144-.7.078-1.051z"/>
        <path fill="#fff" d="M608.853 720.37c3.46-.383 4.349-2.112 4.559-3.545l-9.056.531c-.568 3.396 4.497 3.014 4.497 3.014z"/>
        <path fill="#D3A079" d="M618.861 712.009c7.413-1.68 8.08-3.224 10.341-10.535l2.224-7.187c-11.8-2.582-22.813-7.943-32.123-15.635-2.718 3.354-4.432 7.409-4.942 11.695 0 .321-.075.642-.099.963h.111l4.942.198c.354.013.688.166.929.426.241.259.369.603.356.957-.013.354-.166.688-.426.929-.259.241-.604.369-.958.356l-4.942-.198 1.236 17.191v1.099c1.087.05 14.678 1.667 23.351-.259zm-19.954-12.017c-.828 0-1.47-1.123-1.421-2.47.05-1.346.779-2.334 1.607-2.309.827.025 1.482 1.124 1.42 2.47-.061 1.346-.803 2.272-1.606 2.248v.061zm18.533 1.1c-.84 0-1.47-1.124-1.421-2.47.05-1.347.766-2.335 1.606-2.298.84.038 1.471 1.112 1.421 2.47-.049 1.359-.803 2.273-1.631 2.236l.025.062zm-3.583-9.016l4.942.198c.331.042.634.206.85.46.215.254.328.579.316.913-.013.333-.149.649-.383.886-.234.238-.549.379-.882.396l-4.942-.198c-.344-.028-.664-.187-.894-.445-.23-.257-.352-.593-.341-.938-.002-.173.031-.346.096-.506.064-.161.16-.308.282-.432.122-.124.267-.222.426-.29.16-.068.332-.104.505-.106l.025.062zm-6.4 17.809l-2.471-.828c-.36-.122-.69-.319-.969-.577-.279-.259-.5-.573-.649-.922-.15-.35-.223-.727-.217-1.107.006-.38.093-.754.254-1.099l.21-.432c.037.514.226 1.005.542 1.412.317.407.747.71 1.237.873l2.533.839c.398.123.824.117 1.218-.016.395-.133.738-.386.981-.724v.259c.055.349.019.707-.104 1.039-.124.331-.332.625-.603.853-.271.227-.597.381-.945.445-.348.065-.707.038-1.042-.077l.025.062z"/>
        <path fill="#E3F1F3" d="M620.463 809.453l.223-5.928c0-3.631-1.866-7.187-4.127-10.028-1.397-1.758-2.27-3.874-2.521-6.105-.251-2.231.131-4.488 1.102-6.512.972-2.024 2.493-3.735 4.391-4.936 1.898-1.2 4.095-1.844 6.341-1.855 2.246-.012 4.45.608 6.361 1.789 1.91 1.181 3.449 2.875 4.442 4.889.992 2.014 1.398 4.267 1.171 6.5-.228 2.234-1.079 4.358-2.457 6.131-2.249 2.903-4.251 6.459-4.251 10.127l.235 5.94c.06 1.27.584 2.474 1.471 3.384.888.911 2.079 1.464 3.348 1.556h-20.201c1.208-.17 2.318-.759 3.136-1.664.817-.905 1.29-2.069 1.336-3.288z"/>
        <path fill="#E8B592" d="M466.218 400.285l7.005-1.853.297 1.025c.261.982.455 1.981.58 2.989l-6.597 1.791c-.433-1.309-.865-2.631-1.285-3.952z"/>
        <path fill="#00034F" d="M447.821 292.396v-.765l.099-2.47 26.811-1.026h3.101l-.16 2.804-.075.729c-3.397 23.156-6.461 68.43 1.075 102.985.082.529.053 1.068-.084 1.585-.137.518-.38 1.001-.713 1.419-.333.419-.749.764-1.222 1.015-.473.25-.993.399-1.527.439l-8.908 1.235c-1 .18-2.032-.022-2.89-.566-.858-.545-1.48-1.392-1.743-2.373-8.686-41.78-13.072-81.558-13.764-105.011z"/>
        <path fill="#E8B592" d="M449.328 400.285l7.006-1.853c.111.346.197.692.296 1.025.262.982.456 1.981.581 2.989l-6.598 1.791c-.432-1.309-.865-2.631-1.285-3.952z"/>
        <path fill="#272B59" d="M430.932 292.396v-.765l.098-2.47 26.811-1.026h3.101l-.16 2.804c0 .21 0 .531-.074.729-3.398 23.156-6.45 68.43 1.075 102.985.081.529.052 1.068-.085 1.585-.137.518-.38 1.001-.713 1.419-.333.419-.749.764-1.222 1.015-.473.25-.993.399-1.526.439l-8.908 1.235c-1.001.18-2.032-.022-2.891-.566-.858-.545-1.48-1.392-1.743-2.373-8.685-41.78-13.071-81.558-13.763-105.011z"/>
        <path fill="#00034F" d="M441.446 407.941l14.319-4.939c.704-.235 1.569 0 1.718.518l2.335 7.892c.136.457-.42.889-1.162.889l-15.382.173c-4.028.049-5.399-3.372-1.828-4.533z"/>
        <path fill="#00034F" d="M458.274 407.744l14.332-4.866c.704-.247 1.569 0 1.717.519l2.335 7.879c.136.469-.42.889-1.161.902l-15.382.16c-4.065.05-5.424-3.384-1.841-4.594z"/>
        <path fill="#452A51" d="M382.042 334.151c9.637-8.879 19.595-18.055 23.413-30.479 4.744-15.425-.877-30.529-6.845-46.522-3.707-9.88-7.413-20.019-8.649-30.307-3.286-29.207 15.21-56.525 29.406-74.531.482-.618.963-1.235 1.458-1.914 1.475-2.13 3.186-4.085 5.102-5.829 1.665-1.34 3.014-3.032 3.949-4.953.936-1.921 1.435-4.026 1.463-6.162V0h.988v133.466c-.028 2.28-.558 4.525-1.554 6.576-.995 2.052-2.43 3.859-4.203 5.292-1.851 1.702-3.509 3.603-4.942 5.669-.494.654-.976 1.309-1.471 1.914-14.084 17.87-32.444 44.966-29.195 73.815 1.149 10.164 4.942 20.279 8.575 30.072 5.757 15.437 11.712 31.406 6.857 47.164-3.892 12.683-13.962 21.946-23.685 30.875-1.755 1.646-3.505 3.293-5.251 4.94H376c2.002-1.902 4.028-3.779 6.042-5.632z"/>
        <path fill="#E8B592" d="M426.719 185.311c-.572-.603-1.019-1.312-1.316-2.088-.297-.776-.438-1.602-.414-2.432V175.283c.143-8.692.936-17.361 2.372-25.935.156-1.421.61-2.793 1.334-4.026.297-.432.754-.939 1.236-.865.482.075 1.717 1.087 2.471 3.1.201.866.247 1.761.136 2.643-.05.868-.05 1.738 0 2.606.21 2.68.123 6.484 0 10.497 0 1.717 0 7.052-.074 11.56-.002 1.431.297 2.847.878 4.156.582 1.308 1.431 2.48 2.495 3.439 7.017 6.311 20.349 18.216 23.475 20.031l-14.53 7.065c3.57-.84-15.741-21.835-18.162-24.268l.099.025z"/>
        <path fill="#CBCBCB" d="M474.075 212.37l-24.71-20.588c-.327-.273-.71-.473-1.121-.586-.411-.114-.842-.138-1.263-.071-.421.066-.823.222-1.179.457-.356.235-.658.543-.885.904l-6.289 9.979c-.42.692-.596 1.505-.5 2.309.097.803.46 1.552 1.032 2.125l17.186 17.154 17.729-11.683z"/>
        <path fill="#E8B592" d="M462.623 206.034c-.106-.065-.205-.139-.297-.222-1.636-1.187-2.93-2.783-3.754-4.627-.824-1.845-1.149-3.874-.941-5.883l-.074-.284c.832-.368 1.509-1.014 1.915-1.828.865-1.605.568-3.347-.63-3.89-.478-.18-1.005-.18-1.483 0-.383.12-.74.313-1.05.568-.222-.173 0-.988.074-1.235.161-.506.445-.976.618-1.482.22-.918.266-1.869.136-2.803l-3.806 7.41c-.559 1.279-.825 2.668-.775 4.064.049 1.396.411 2.763 1.06 4 .573 1.152 1.347 2.194 2.285 3.075.136 1.235-.321 8.299.26 10.041.21.617 1.532-.173 2.113.111 2.273 1.124 5.053 2.778 7.413 1.753.815-.358.753-8.274.803-9.176-1.137.161-2.891 1.013-3.867.408z"/>
        <path fill="#AF9251" d="M472.827 202.501c.853-.997 1.879-1.834 3.028-2.47 1.863-1.196 3.332-2.914 4.225-4.939.111-.309.222-.618.309-.939.408-1.553.295-3.198-.321-4.681-.102-.241-.226-.473-.371-.691.291-.916.291-1.9 0-2.816-.185-.66-.468-1.289-.84-1.865-1.077-1.43-2.285-2.758-3.608-3.964-.735-.844-1.532-1.633-2.384-2.359l-.136-.111c-.455-.376-.984-.652-1.552-.811-.568-.16-1.163-.199-1.747-.115-.572.19-1.154.351-1.742.481-.688-.014-1.37-.126-2.027-.333-1.865-.408-4.064-1.544-5.597-.395-1.617 1.435-2.686 3.385-3.026 5.52-.073.789-.073 1.582 0 2.371.129.935.083 1.886-.136 2.804-.173.506-.458.975-.618 1.482 0 .21-.297 1.025-.074 1.235.313-.247.669-.435 1.05-.556.478-.18 1.005-.18 1.483 0 1.235.543 1.494 2.285.63 3.89-.406.814-1.084 1.46-1.915 1.828l.074.284c-.208 2.009.116 4.038.94 5.883.824 1.844 2.119 3.44 3.755 4.627.085.076.176.146.272.21.308.216.673.337 1.05.345.512-.049 1.02-.136 1.519-.259 1.829-.222 2.558 0 4.263-1 1.347-.547 2.521-1.447 3.398-2.606l.098-.05z"/>
        <path fill="#E8B592" d="M392.581 203.922c-.457.235-.532.914-.519 1.433.11 1.424.532 2.807 1.235 4.05 3.832 7.789 8.238 15.281 13.183 22.415l.803 1.149c1.02 1.464 2.401 2.641 4.009 3.416 1.609.774 3.39 1.121 5.171 1.005 3.423-.198 7.413-.556 10.169-.877.333 0 6.61-1.025 6.956-1.062l-2.472-9.88c-4.209 1.329-8.513 2.34-12.874 3.026l-1.939.445c-.62.15-1.27.113-1.869-.107-.598-.22-1.118-.612-1.492-1.128-1.94-2.68-5.646-7.818-7.24-10.14-2.261-3.334-4.411-6.471-6.178-8.533-.545-.673-1.048-1.378-1.507-2.112-.42-.787-.982-1.49-1.656-2.075-1.754-1.149-3.175-1.346-3.78-1.025z"/>
        <path fill="#CBCBCB" d="M427.645 225.361c10.378-3.334 21.127-11.683 25.797-13.103 5.993-2.705 13.974-.642 17.73-.753 7.734-.235 10.094 19.414 9.563 23.576-2.249 17.363-10.922 7.693-1.05 37.123.963 2.878.111 8.447-.952 13.684-.939 4.631-5.226 10.053-10.143 12.757-13.418 7.546-28.664 9.435-35.929 1.988-.704-.741-3.484-5.532-2.916-7.014 7.957-21.094.605-21.748 6.178-40.841 1.038-3.47 2.051-7.089 3.051-10.572.717-2.47-1.235-4.446-3.57-3.593l-1.112.395c-2.212.778-5.325 1.716-8.649 2.655-.365.132-.755.182-1.142.147-.387-.035-.762-.154-1.098-.35-.335-.195-.624-.462-.846-.781-.221-.319-.37-.683-.435-1.066-.89-5.076.074-10.831 5.523-14.252z"/>
        <path fill="#E8B592" d="M433.303 143.803c0 3.211-1.618 5.804-3.607 5.804-1.99 0-3.608-2.593-3.608-5.804 0-3.211 1.618-5.804 3.608-5.804 1.989 0 3.607 2.605 3.607 5.804zM397.72 202.292c0 3.211-1.618 5.804-3.607 5.804-1.99 0-3.608-2.593-3.608-5.804 0-3.211 1.618-5.805 3.608-5.805 1.989 0 3.607 2.606 3.607 5.805z"/>
        <path fill="#FFB881" d="M602 612H650V640H602z"/>
        <path fill="#E3F1F3" d="M619.559 614.954l.222 5.943c0 3.62-1.865 7.191-4.125 10.033-1.395 1.76-2.267 3.877-2.516 6.109-.249 2.232.134 4.49 1.106 6.514.973 2.025 2.494 3.735 4.392 4.935 1.898 1.2 4.095 1.842 6.34 1.853 2.245.01 4.448-.612 6.357-1.794 1.908-1.183 3.446-2.879 4.437-4.895.99-2.015 1.395-4.269 1.166-6.504-.229-2.234-1.082-4.359-2.461-6.132-2.247-2.891-4.248-6.449-4.248-10.119l.235-5.955c.057-1.271.58-2.477 1.468-3.388s2.079-1.464 3.348-1.554h-20.192c1.208.17 2.317.76 3.135 1.665.817.906 1.29 2.07 1.336 3.289z"/>
        <path fill="#BF7C56" d="M776.312 889.074c-.185-19.587-.161-54.969.951-67.516h-17.68c.371 10.917 7.846 50.177 9.402 68.763.223 2.693.717 3.372 3.633 3.372h.259c3.435 0 3.46-1.47 3.435-4.619zM804.42 888.729c-.63-14.894-1.717-37.791-3.867-67.999h-17.137c1.124 15.783 10.996 47.831 13.776 68.196.396 2.952-.123 4.1 3.04 4.1 3.162 0 4.324-1.259 4.188-4.297z"/>
        <path fill="#FF882C" d="M791.694 680.288c1.766.767 3.23 2.096 4.164 3.78.934 1.683 1.285 3.628 1.001 5.532-.927 3.606-4.634 4.372-8.352 3.062-8.12-2.966-15.807-7.003-22.858-12.004l6.178-8.78c6.442 3.211 13.077 6.02 19.867 8.41z"/>
        <path fill="#BF7C56" d="M727.101 638.459c7.057 7.835 14.987 14.837 23.636 20.871 1.235.914 2.607 1.803 3.929 2.68 5.51 3.639 11.237 6.938 17.149 9.88l-6.178 8.781c-14.283-9.88-27.354-23.094-38.548-36.012l.012-6.2z"/>
        <path fill="#212353" d="M759.225 767.391c.166-1.623.703-3.186 1.569-4.569l11.848.074h32.346c.868.99 1.512 2.156 1.887 3.418s.474 2.59.288 3.893c-.346 4.495-.68 8.941-1.026 13.437.161 7.521-5.399 17.685-5.967 25.539-.63 8.583 3.064 15.166 2.471 23.749-3.954 2.11-8.334 3.301-12.813 3.483-11.119 0-13.393-1.347-16.061-2.557-.768-.364-1.561-.674-2.373-.926-3.076-.914-7.907-.519-10.403-.222-.21.026-.423.007-.626-.055-.202-.063-.389-.168-.548-.308-.159-.14-.286-.312-.374-.505-.087-.193-.132-.403-.132-.614-.791-21.217-2.298-42.62-.086-63.837z"/>
        <path fill="#FF882C" d="M780.154 679.189l5.338 6.372c-3.59 5.177-8.709 9.102-14.641 11.226-.087 0-.173 4.002-.26 4.002-2.742.21-5.522.308-8.277.382l-2.385.087c-.559.018-1.116-.077-1.637-.281-.521-.204-.994-.511-1.392-.904-.398-.393-.711-.863-.921-1.382-.21-.518-.312-1.073-.3-1.632l.259-10.843c7.487-1.569 17.73-5.496 24.216-7.027z"/>
        <path fill="#BF7C56" d="M781.971 669.506c-1.825-.185-3.557-.898-4.984-2.052-1.426-1.154-2.485-2.698-3.047-4.444 0-.061-.111-.136-.173-.21.534-.656.846-1.464.89-2.309.099-1.68-.779-2.964-1.953-2.865-.469.051-.906.265-1.235.605-.265.266-.482.575-.643.914-.481-.062-.395-1.976-.432-2.47-.165-.824-.479-1.611-.927-2.322l-.333 7.706c-.001 1.246.291 2.475.851 3.588s1.373 2.079 2.373 2.822c1.136.875 2.475 1.449 3.892 1.667.144.02.277.087.38.189.102.103.169.236.189.379v.531c.041 3.834.355 7.659.939 11.449.173.568.58.358 1.087.592 2.002.951 1.236 1.791 3.324.754.16-.087 4.41-.605 4.485-.778.074-.173-1.236-8.497-1.236-8.645-.249-1.057-.382-2.138-.395-3.224 0-.889.247-2.395.086-3.124-.016-.075-.045-.146-.086-.21-1.421.408-1.137.79-2.076 1.235-.297.166-.636.243-.976.222z"/>
        <path fill="#FF882C" d="M778.116 766.008c3.262.148 6.474.729 9.748.568 3.384-.001 6.64-1.29 9.106-3.606 3.422-3.581 3.435-9.151 1.927-13.585-1.507-4.433-4.25-8.274-5.671-12.733-3.15-9.879.556-20.994 3.917-31.269 2.471-7.633 4.757-15.919 3.966-23.465 2.261 1.309 4.324 2.606 5.955 3.421-.283 7.488-1.563 14.906-3.805 22.057-2.224 7.916-6.017 15.388-4.868 23.637.568 4.138 2.471 7.867 3.805 11.696 1.507 3.986 2.77 8.061 3.781 12.201 1.008 4.319 1.494 8.743 1.445 13.178 0 0-5.127 5.347-18.458 5.347-11.12 0-12.047-3.841-20.263-5.31-1.31-.235-2.471-.371-3.496-.457 4.178-1.285 8.543-1.853 12.911-1.68z"/>
        <path fill="#FF882C" d="M759.237 768.009c.422-4.111 1.36-8.153 2.793-12.029 3.484-9.213 5.3-42.224 6.325-60.576.433-7.719 2.249-14.005 13.505-17.166 1.993-.655 4.079-.981 6.177-.964 4.077-.271 8.884 2.211 13.023 4.632.79 7.57-1.483 15.857-3.966 23.464-3.361 10.3-7.067 21.378-3.917 31.27 1.421 4.458 4.151 8.311 5.671 12.733 1.52 4.421 1.495 9.991-1.927 13.585-2.467 2.315-5.723 3.605-9.106 3.606-3.274.16-6.487-.42-9.748-.568-4.367-.177-8.733.387-12.912 1.667-1.976-.257-3.984-.14-5.918.346z"/>
        <path fill="#231B12" d="M818.641 702.122c-2.471-2.643-5.968-4.853-6.548-8.435-.42-2.544.79-5.063 1.149-7.619.198-1.816.033-3.652-.484-5.403-.518-1.751-1.378-3.382-2.531-4.798-2.316-2.82-5.285-5.032-8.649-6.447-1.393-.512-2.71-1.21-3.916-2.075-1.132-1.088-2.097-2.336-2.867-3.705-.692-.998-1.524-1.893-2.471-2.655 9.588-19.031-11.428-19.266-11.428-19.266l-.136.062c-1.389.054-2.757.355-4.04.889-1.384 1.136-.396 1.001-3.015 1.791-1.668.494-3.867.543-4.683 2.149-.789 1.837-.937 3.885-.42 5.817.245.659.556 1.292.927 1.889.448.711.762 1.498.927 2.322 0 .494 0 2.408.42 2.47.165-.343.387-.656.655-.926.328-.34.765-.554 1.235-.606 1.236-.098 2.051 1.235 1.952 2.866-.044.844-.355 1.653-.889 2.309.061.074.111.148.173.21.562 1.746 1.621 3.29 3.047 4.444 1.426 1.153 3.158 1.867 4.983 2.052.329.03.659-.034.952-.185 1.668 2.26 3.706 4.384 4.448 6.854.273 1.283.264 2.61-.026 3.889-.29 1.28-.855 2.481-1.655 3.521-1.611 2.067-3.465 3.933-5.522 5.557-4.942 4.273-9.6 9.349-10.799 15.685-.976 5.149.507 10.386 2.051 15.375 1.421 4.631 3.188 8.065 6.993 11.115 2.879 2.285 6.548 4.643 10.218 5.113 7.796 1.012 16.062.284 22.956-3.582 6.894-3.865 12.059-11.226 11.849-19.055-.155-4.335-1.88-8.465-4.856-11.622z"/>
        <path fill="#212353" d="M789.396 892.569l13.121-4.013c.643-.198 1.397 0 1.496.444l1.519 6.669c.099.395-.432.753-1.087.753h-13.751c-3.608.062-4.584-2.84-1.298-3.853zM761.029 892.483l13.121-4.026c.642-.198 1.396 0 1.495.445l1.519 6.681c.099.383-.432.741-1.087.753h-13.751c-3.608.062-4.584-2.877-1.297-3.853z"/>
        <path fill="#BF7C56" d="M728.991 655.329c-.092-1.017-.368-2.009-.815-2.927-.365-.593-.815-1.129-1.334-1.593l-2.644-2.606c-.433-.42-.865-.852-1.347-1.235-.046-.049-.101-.089-.163-.116-.061-.028-.128-.043-.195-.044-.096.02-.183.067-.253.134-.07.068-.119.154-.143.248-.049.182-.049.374 0 .556.179.463.453.883.803 1.235l1.409 1.581c.36.325.603.759.692 1.235.012.057.012.116 0 .173-.099.16-.309 0-.408-.087l-2.582-3.396c-.145-.175-.269-.365-.371-.568-.238-.664-.327-1.373-.259-2.075 0-.395-.124-.877-.482-.864-.358.012-.507.321-.63.605-.169.443-.289.902-.359 1.371-.247 1.457-.444 2.939-.58 4.396-.068.463-.068.933 0 1.396.097.409.278.793.534 1.127.255.335.579.611.948.812.692.42 1.483.691 2.2 1.074.755.359 1.346.99 1.655 1.766.346.988.939 2.334 2.743 1.816 1.31-.371 1.668-1.556 1.594-2.94l-.013-1.074z"/>
        <path fill="#BF7C56" d="M727.089 653.587c4.398 9.275 6.894 22.23 10.625 32.876.349.976 1.047 1.79 1.959 2.284.912.495 1.974.636 2.983.396 3.707-.902 8.34-1.902 13.245-2.927l-.371 11.115c-6.894.16-16.58.321-18.78 0-.819-.092-1.61-.352-2.322-.766-.595-.357-1.109-.835-1.507-1.403-.398-.568-.672-1.214-.804-1.895-.148-.666-.321-1.309-.42-1.716-2.817-11.856-4.868-23.687-6.832-35.815l2.224-2.149z"/>
        <path fill="#F3E7DE" fill-rule="evenodd" d="M338.621 412.018h168.006c9.444 0 17.1 7.652 17.1 17.092v167.933c0 9.44-7.656 17.092-17.1 17.092h-76.262l-.139-3.704c0-3.619 1.866-7.188 4.127-10.028 1.396-1.76 2.268-3.876 2.517-6.107.25-2.231-.134-4.488-1.106-6.511-.973-2.024-2.496-3.733-4.394-4.933-1.899-1.2-4.097-1.842-6.343-1.852-2.246-.01-4.45.611-6.359 1.794-1.91 1.182-3.448 2.877-4.439 4.892-.991 2.015-1.396 4.267-1.167 6.501.229 2.233 1.082 4.357 2.462 6.129 2.248 2.89 4.25 6.447 4.25 10.115l-.146 3.704h-81.007c-9.444 0-17.1-7.652-17.1-17.092V429.11c0-9.44 7.656-17.092 17.1-17.092z" clip-rule="evenodd"/>
        <path fill="#FFD176" d="M365.111 602.823h37.61c.42-2.47 1.136-4.582 2.705-5.743 1.606-.94 3.488-1.293 5.326-1 5.782.358-3.337-17.135 2.248-17.58 19.052-1.531 25.464-3.501 27.046-14.122 2.236-14.993 18.817-12.239 27.688-20.118 12.096-10.744 8.858-41.286.235-63.367-4.535-11.634-8.081-18.747-16.149-18.969-6.177-.186-6.363.494-12.899-3.878-4.435-2.952-7.722-5.694-12.355-6.83-13.084-3.186-24.97 1.606-31.617 12.758-4.065 6.841-6.177 15.857-10.909 21.958-7.414 9.67-19.979 10.682-29.863 16.437-25.946 15.092-29.183 62.441-11.713 88.623l.074.111c2.521 3.645 5.896 6.619 9.831 8.662 3.934 2.043 8.309 3.093 12.742 3.058z"/>
        <path fill="#fff" d="M427.702 516.954s5.412.692 4.943-3.334l-9.687-1.075c.111 1.717 1.05 3.792 4.744 4.409z"/>
        <path fill="#FBE9DC" d="M420.846 487.871c.031-.383-.091-.763-.338-1.056-.248-.294-.601-.478-.984-.513h-4.942c-.369.066-.702.259-.942.546-.241.287-.372.649-.372 1.023 0 .374.131.736.372 1.023.24.286.573.48.942.545h4.942c.383-.034.736-.219.984-.512.247-.294.369-.673.338-1.056zM445.309 489.439c.349-.088.659-.29.88-.574.222-.284.342-.634.342-.994s-.12-.71-.342-.994c-.221-.284-.531-.486-.88-.575h-4.596c-.349.089-.659.291-.88.575-.222.284-.342.634-.342.994s.12.71.342.994c.221.284.531.486.88.574h4.596z"/>
        <path fill="#EFACA0" d="M433.646 501.801c-.039.573-.24 1.123-.579 1.586-.339.464-.802.821-1.336 1.032l-2.644.865c-.428.12-.885.089-1.292-.089-.408-.178-.742-.491-.944-.887v.297c-.334 1.803 1.099 3.371 2.619 2.877l2.644-.864c.801-.336 1.438-.975 1.771-1.777.333-.803.336-1.704.008-2.509l-.247-.531z"/>
        <path fill="#381B13" d="M417.856 496.244c.976 0 1.779-1.235 1.779-2.717s-.803-2.73-1.779-2.73h-3.002l1.445 1.458c-.133.398-.204.815-.21 1.235 0 1.531.803 2.754 1.767 2.754zM443.975 493.527c-.006-.42-.077-.837-.21-1.235l1.445-1.458h-3.002c-.976 0-1.767 1.235-1.767 2.73 0 1.494.791 2.717 1.767 2.717.976 0 1.767-1.26 1.767-2.754z"/>
        <path fill="#F7C3BA" d="M454.094 502.345c.066-1.449-.279-2.888-.996-4.149-.717-1.261-1.777-2.293-3.057-2.977v-9.596c.037-4.556-1.149-9.038-3.435-12.98-2.965.26-6.041.297-6.807.346-15.939 1.037-25.242 10.275-28.751 15.586-2.879 4.384-4.435 9.571-7.413 13.881-.996 1.439-2.148 2.765-3.435 3.952.482 1.008 1.228 1.866 2.159 2.484.931.618 2.013.971 3.129 1.023.341 0 .681-.037 1.013-.111.549 3.199 1.729 6.256 3.473 8.993 1.744 2.738 4.016 5.101 6.683 6.951l-.148 28.491c-1.382 1.103-2.504 2.497-3.285 4.083-.782 1.586-1.204 3.325-1.237 5.093 0 7.187 6.956 13.004 15.543 13.004s15.555-5.817 15.555-13.004c-.033-1.64-.405-3.254-1.094-4.742-.69-1.488-1.68-2.817-2.909-3.903l.136-28.887c2.732-1.866 5.056-4.268 6.832-7.06 1.775-2.792 2.965-5.915 3.497-9.18 1.41-.61 2.601-1.636 3.413-2.94.812-1.304 1.208-2.824 1.134-4.358zm-22.03 4.273l-2.644.864c-1.519.494-2.953-1.074-2.619-2.877v-.297c.203.396.536.709.944.887.408.178.864.209 1.292.089l2.644-.865c.534-.211.998-.568 1.337-1.032.339-.463.539-1.013.578-1.586l.198.531c.331.799.335 1.695.012 2.497-.324.801-.949 1.444-1.742 1.789zm-4.361 10.337c-3.707-.618-4.584-2.693-4.744-4.409l9.686 1.074c.47 4.026-4.942 3.335-4.942 3.335zm-14.517-29.084c-.031-.383.09-.763.338-1.056.247-.294.601-.478.984-.513h4.942c.368.066.702.259.942.546.24.287.372.649.372 1.023 0 .374-.132.736-.372 1.023-.24.286-.574.479-.942.545h-4.942c-.383-.034-.737-.219-.984-.512-.248-.294-.369-.674-.338-1.056zm1.63 2.927h3.003c.976 0 1.779 1.235 1.779 2.729s-.803 2.717-1.779 2.717c-.976 0-1.767-1.235-1.767-2.717.006-.42.077-.837.21-1.235l-1.446-1.494zm24.575-2.927c-.039-.371.069-.742.299-1.035.231-.293.567-.484.937-.534h4.682c.349.089.659.291.88.575.222.284.342.634.342.994s-.12.709-.342.994c-.221.284-.531.486-.88.574h-4.596c-.187-.018-.369-.074-.535-.163-.166-.088-.313-.209-.433-.355-.119-.146-.209-.313-.263-.494-.054-.18-.073-.369-.054-.556h-.037zm1.013 5.656c0-1.507.791-2.729 1.767-2.729h3.002l-1.445 1.457c.133.398.203.815.21 1.235 0 1.494-.791 2.717-1.767 2.717-.976 0-1.73-1.186-1.73-2.68h-.037z"/>
        <path fill="#FFD176" d="M403.672 502.456c2.99-4.31 4.546-9.497 7.413-13.882 3.509-5.31 12.812-14.548 28.75-15.585.766 0 3.843-.086 6.808-.346 2.965-.259 6.029-.728 6.277-1.667.296-1.136-4.819-3.31-8.229-5.063-.692-.359-1.236-.704-1.792-1.013-.45-.227-.833-.568-1.111-.988-.075-.413-.286-.788-.6-1.066-.313-.278-.712-.442-1.13-.466l-9.884-2.124c-4.516-1.092-9.109-1.831-13.739-2.21-3.855-.21-7.957 4.631-11.12 6.903-5.066 3.705-5.869 6.36-8.649 12.017-3.706 7.755-11.552 13.103-14.604 21.167-1.47 3.878-1.482 8.83 1.594 11.597 3.361 3.025 8.735 1.988 12.59-.346 2.926-1.769 5.451-4.129 7.413-6.928h.013z"/>
        <path fill="#F3E7DE" d="M319.879 511.557l-5.931.223c-3.632 0-7.19-1.865-10.032-4.125-1.759-1.394-3.876-2.266-6.107-2.515-2.231-.249-4.488.134-6.512 1.105-2.024.971-3.734 2.492-4.935 4.389-1.2 1.896-1.843 4.092-1.855 6.336-.012 2.244.608 4.447 1.789 6.356 1.18 1.909 2.874 3.447 4.888 4.44 2.014.992 4.266 1.399 6.5 1.173 2.234-.226 4.359-1.075 6.133-2.451 2.904-2.26 6.462-4.26 10.131-4.26l5.943.247c1.272.057 2.478.58 3.389 1.468.911.888 1.464 2.079 1.553 3.348v-20.192c-.172 1.206-.763 2.312-1.668 3.127-.906.815-2.069 1.286-3.286 1.331zM426.356 409.054l-.223-5.928c0-3.631 1.866-7.2 4.127-10.041 1.389-1.758 2.256-3.872 2.501-6.099.245-2.227-.14-4.478-1.113-6.497-.973-2.018-2.494-3.723-4.39-4.919-1.895-1.197-4.089-1.836-6.33-1.847-2.242-.01-4.441.61-6.347 1.788-1.907 1.179-3.443 2.87-4.435 4.88-.991 2.009-1.397 4.257-1.173 6.486.225 2.229 1.072 4.351 2.445 6.122 2.261 2.89 4.263 6.447 4.263 10.115l-.247 5.952c-.055 1.272-.577 2.479-1.466 3.39s-2.082 1.463-3.353 1.55h20.201c-1.206-.173-2.313-.763-3.128-1.668-.815-.905-1.287-2.067-1.332-3.284z"/>
        <path fill="#fff" fill-rule="evenodd" d="M476.555 589.374v5.149c-.08 2.582-1.182 5.026-3.062 6.797-1.881 1.771-4.387 2.724-6.97 2.651h-34.149c.62-1.108 1.343-2.158 2.112-3.124 1.395-1.759 2.268-3.876 2.517-6.107.25-2.231-.134-4.487-1.106-6.511-.973-2.024-2.496-3.733-4.394-4.933-1.899-1.2-4.097-1.841-6.343-1.852-2.246-.01-4.45.611-6.359 1.794-1.91 1.182-3.448 2.877-4.439 4.892-.991 2.015-1.396 4.267-1.167 6.501.229 2.233 1.082 4.357 2.461 6.129.777.999 1.525 2.077 2.17 3.211H384.83c-2.582.073-5.089-.88-6.969-2.651-1.881-1.771-2.982-4.215-3.063-6.797v-7.805c0-20.068 17.408-36.493 38.684-36.493h21.572c22.82 0 41.501 17.61 41.501 39.149z" clip-rule="evenodd"/>
        <path fill="#F3E7DE" d="M527.384 514.488l5.93-.222c3.633 0 7.191 1.864 10.033 4.124 1.759 1.395 3.875 2.266 6.107 2.515 2.231.25 4.488-.133 6.512-1.105 2.024-.971 3.734-2.492 4.934-4.388 1.201-1.897 1.844-4.093 1.856-6.337.011-2.244-.608-4.446-1.789-6.355-1.181-1.909-2.875-3.448-4.888-4.441-2.014-.992-4.266-1.399-6.5-1.173-2.234.226-4.36 1.075-6.134 2.451-2.903 2.26-6.461 4.261-10.131 4.261l-5.943-.235c-1.272-.06-2.478-.585-3.389-1.475-.911-.89-1.463-2.084-1.553-3.354v20.192c.173-1.205.764-2.312 1.669-3.127.905-.814 2.068-1.286 3.286-1.331z"/>
        <path fill="#E2B393" d="M354.131 610.925c.023-.127.02-.257-.008-.383-.028-.125-.081-.244-.155-.35-.312-.326-.964-.122-1.25.258-.227.395-.384.827-.462 1.277-.053.231-.167.445-.329.619s-.367.302-.594.372c-.734-1.279-1.047-2.756-.897-4.223.068-.5.068-1.007 0-1.508-.246-.777-.719-1.463-1.358-1.969-.431-.539-1.045-.902-1.726-1.018-.472-.002-.938.11-1.358.326-1.559.546-2.845 1.675-3.587 3.15-.308 1.023-.308 2.114 0 3.137.526 2.372 1.445 4.639 2.717 6.708.226.497.558.939.974 1.293.416.355.904.613 1.431.758.963.111 1.937-.06 2.805-.491.868-.432 1.593-1.106 2.085-1.94.886-1.902 1.464-3.932 1.712-6.016zM434.985 607.02c-.318.183-.569.468-.713.811-.144.343-.173.725-.083 1.086.263.928.399 1.888.405 2.853-.598 1.585-.748 3.31-.433 4.978.215.726.615 1.381 1.159 1.897.698.556 1.662.585 2.444 1.012.583.453 1.194.868 1.829 1.241.684.271 1.704 0 1.69-.813l1.396-2.196c-.154-1.49.042-2.996.573-4.393.287-.618.517-1.263.684-1.926.084-.33.085-.677.005-1.008-.081-.331-.241-.637-.466-.889-.768-.756-6.13-2.396-6.353-2.453-.696-.19-1.419-.258-2.137-.2z"/>
        <path fill="#797A92" d="M619.464 255.155l.223 5.928c0 3.631-1.866 7.188-4.127 10.028-.975 1.233-1.695 2.648-2.119 4.161-.425 1.514-.544 3.097-.352 4.657.366 3.024 1.871 5.795 4.209 7.748 2.339 1.953 5.334 2.941 8.376 2.763 3.042-.178 5.902-1.509 7.997-3.721 2.094-2.212 3.266-5.14 3.276-8.186.019-2.652-.851-5.235-2.471-7.336-2.249-2.889-4.25-6.446-4.25-10.114l.234-5.953c.061-1.269.584-2.473 1.472-3.384.888-.91 2.078-1.463 3.347-1.556h-20.201c1.195.189 2.286.788 3.086 1.694.801.906 1.261 2.063 1.3 3.271zM728.225 154.343l5.931-.222c3.632 0 7.191 1.864 10.032 4.124 1.76 1.395 3.876 2.266 6.108 2.515 2.231.25 4.488-.133 6.512-1.105 2.024-.971 3.733-2.492 4.934-4.388 1.201-1.897 1.844-4.093 1.855-6.337.012-2.244-.608-4.446-1.788-6.355-1.181-1.909-2.875-3.448-4.888-4.441-2.014-.992-4.267-1.399-6.501-1.173-2.233.226-4.359 1.075-6.133 2.451-2.891 2.26-6.449 4.261-10.131 4.261l-5.943-.247c-1.271-.058-2.477-.58-3.388-1.468s-1.464-2.08-1.554-3.349v20.192c.173-1.205.763-2.312 1.669-3.127.905-.814 2.068-1.286 3.285-1.331z"/>
        <path fill="#2C2655" d="M625 .105V25h1V0c-.3.042-.65.07-1 .105z"/>
        <path fill="#2C2655" d="M627.58 24.15c0 .467-.138.923-.398 1.311-.259.388-.627.69-1.059.87-.431.178-.905.224-1.363.133-.458-.09-.878-.315-1.208-.645-.33-.33-.555-.75-.646-1.208-.091-.457-.045-.932.134-1.363.179-.43.481-.8.869-1.058.388-.26.844-.398 1.311-.398.311-.002.618.058.905.176.287.118.548.292.768.511.219.22.393.48.511.767.118.287.178.595.176.905z"/>
        <path fill="#2C2655" d="M542.922 49.876l-.185-.593 80.815-25.639.185.593-80.815 25.639zM627.726 23.872l-.181.59 83.251 25.442.18-.59-83.25-25.442z"/>
        <path fill="#797A92" fill-rule="evenodd" d="M541.563 49.678h168.006c9.444 0 17.099 7.653 17.099 17.092v167.934c0 9.439-7.655 17.092-17.099 17.092H541.563c-9.444 0-17.1-7.653-17.1-17.092v-79.657c.846-.629 1.867-.989 2.929-1.025l5.93-.222c3.632 0 7.191 1.865 10.033 4.125 1.233.974 2.648 1.694 4.163 2.118 1.514.424 3.097.544 4.658.352 1.834-.216 3.593-.852 5.139-1.859 1.547-1.008 2.84-2.359 3.778-3.949.937-1.589 1.494-3.374 1.628-5.215.133-1.84-.162-3.686-.861-5.394-.699-1.708-1.784-3.231-3.169-4.451-1.386-1.219-3.035-2.102-4.818-2.579-1.784-.476-3.654-.534-5.463-.169-1.81.365-3.51 1.144-4.969 2.275-2.891 2.26-6.449 4.261-10.119 4.261l-5.955-.247c-1.057-.046-2.069-.413-2.904-1.046V66.77c0-9.44 7.656-17.092 17.1-17.092z" clip-rule="evenodd"/>
        <path fill="#fff" d="M600.873 239.204h-25.131c-5.869 0-10.551-6.175-9.625-12.708.643-4.545 1.335-9.225 2.088-14.091 3.275-18.216 24.822-22.724 36.547-24.7 9.217-1.605 3.929 17.043 1.347 34.382-.704 2.198-2.755 8.645-5.226 17.117z"/>
        <path fill="#fff" d="M590.717 239.217c.615-16.853 2.482-33.638 5.584-50.215 2.2-.876 4.584-1.84 6.017-2.469h.112c12.775-5.212 24.018-7.176 47.851-2.779-2.631 18.66-5.016 37.049-6.857 55.438l-52.707.025z"/>
        <path fill="#AF3E1B" d="M655.557 135.182c-.939-1.816-2.125-3.705-1.804-5.755.345-1.228.758-2.436 1.236-3.619.803-3.013-.841-5.977-2.644-8.386 0 0-2.731-18.524-21.968-20.834-.482 0-.951-.098-1.421-.135-.317-.243-.678-.423-1.062-.532-1.009-.078-2.022.087-2.953.482l-1.013.074c-.16-.01-.317-.04-.47-.086-1.137-.37-2.026-1.569-3.138-2.1-2.681-1.235-4.485 1.865-7.179 1.742-1.816-.075-3.706-1.643-5.51-1.532-1.804.111-2.706 2.026-3.101 3.829-.395 1.803-.68 3.828-2.113 4.791-.97.443-1.969.818-2.99 1.124-2.323 1.124-2.891 4.162-3.052 7.003-.164 3.651.013 7.311.532 10.929-.008 1.215.468 2.384 1.322 3.248-.33.014-.643.147-.881.374-.239.227-.387.533-.417.861-.008.168.018.335.076.492.058.157.148.3.264.422.115.121.254.217.408.283.155.066.32.1.488.1h4.942c.348-.006.682-.142.933-.383.252-.24.404-.566.426-.914 0-.327-.13-.641-.362-.873-.231-.232-.546-.362-.873-.362h-4.559c.328-3.392 1.404-6.669 3.15-9.596 2.471-1.148 7.339-2.544 15.197-1.074 11.997 2.248 7.314 16.24 20.534 18.525l4.337-.927c2.953.223 5.165 3.15 5.016 6.768-.021 1.241-.353 2.456-.966 3.535-.613 1.079-1.487 1.987-2.543 2.64l-.444 10.72c.233-.794.687-1.505 1.309-2.05 1.001-.741 2.397-.593 3.497-1.235 2.656-1.408 1.754-5.558 3.632-7.917 1.236-1.58 3.608-2.074 4.707-3.779 1.1-1.704.371-4.05-.543-5.853z"/>
        <path fill="#fff" d="M612.264 151.483c3.422-.506 4.337-2.223 4.547-3.63l-8.982.889c.273.921.876 1.71 1.694 2.216.818.505 1.794.693 2.741.525z"/>
        <path fill="#AF3E1B" d="M623.693 126.673c0-.328-.13-.642-.362-.874-.232-.231-.546-.361-.874-.361h-4.942c-.338.004-.663.131-.914.359-.25.228-.409.539-.445.876 0 .327.13.641.362.873.232.231.546.362.874.362h4.942c.338-.007.661-.136.911-.363.25-.227.409-.537.448-.872z"/>
        <path fill="#212353" d="M602.949 129.093c-.828 0-1.557 1.025-1.606 2.297-.05 1.272.556 2.297 1.383 2.297.828 0 1.557-1.025 1.606-2.297.05-1.272-.556-2.297-1.383-2.297zM621.049 134.008c.828 0 1.556-1.037 1.606-2.297.049-1.26-.556-2.297-1.384-2.297-.828 0-1.557 1.025-1.606 2.297-.049 1.272.556 2.297 1.384 2.297z"/>
        <path fill="#E5A7A1" d="M611.115 142.962c.34.088.696.09 1.037.006.34-.084.655-.25.916-.485.26-.235.459-.531.577-.861.119-.33.154-.684.102-1.031v-.247c-.237.34-.573.599-.961.743-.389.143-.813.164-1.214.06l-2.471-.692c-.473-.144-.893-.427-1.203-.813-.311-.385-.499-.855-.539-1.348l-.21.432c-.172.328-.268.69-.281 1.06-.013.37.057.738.205 1.077.148.339.371.64.651.882.281.241.612.417.969.513l2.422.704z"/>
        <path fill="#fff" d="M643.424 239.118c1.841-18.327 4.225-36.778 6.857-55.438 1.606.296 3.225.605 4.843.938 7.698 1.581 27.478 9.436 30.555 18.525 2.693 7.99 2.409 16.166.79 24.799-1.235 6.533-6.177 11.114-12.157 11.114l-30.888.062zM578.374 239.266c2.599-16.511 6.923-32.703 12.899-48.313l5.053-2.025c-3.131 16.616-5.022 33.441-5.658 50.338h-12.294z"/>
        <path fill="#FFC3BD" d="M643.338 145.259c1.055-.654 1.929-1.561 2.542-2.64.613-1.079.945-2.295.966-3.535.149-3.619-2.063-6.546-5.016-6.768l-4.336.926c-13.221-2.247-8.538-16.24-20.535-18.525-7.858-1.469-12.738-.074-15.197 1.075-1.746 2.927-2.822 6.204-3.15 9.596h4.559c.327 0 .642.13.873.361.232.232.362.546.362.874-.022.347-.174.674-.425.914-.252.24-.586.377-.934.382h-4.584l-.679 16.389c-.507 12.189 6.869 21.241 18.73 21.167h1.236l-.68 16.154c-.841.411-1.518 1.096-1.919 1.942-.402.845-.505 1.802-.292 2.714l4.46 17.512c.193.679.567 1.294 1.082 1.777.516.483 1.153.817 1.844.965.691.149 1.409.106 2.078-.122.668-.229 1.262-.635 1.717-1.175l13.999-15.215c.305-.256.575-.551.803-.877l1.112-1.235c.363-.373.649-.816.839-1.301.191-.485.282-1.004.27-1.525-.013-.521-.13-1.034-.343-1.51-.214-.475-.521-.903-.902-1.258l1.087-26.392.433-10.67zm-40.612-11.572c-.828 0-1.446-1.025-1.384-2.297.062-1.272.778-2.297 1.606-2.297.828 0 1.446 1.025 1.384 2.297-.062 1.272-.778 2.297-1.606 2.297zm16.939-1.976c0-1.235.766-2.297 1.606-2.297.84 0 1.446 1.025 1.384 2.297-.062 1.272-.778 2.297-1.606 2.297-.828 0-1.446-1.025-1.384-2.297zm-12.615 7.015l.21-.433c.041.494.228.963.539 1.349.311.385.73.668 1.203.813l2.471.691c.402.105.825.084 1.214-.06.389-.143.724-.403.961-.743v.247c.052.347.017.702-.101 1.032-.119.33-.317.625-.578.86-.261.235-.575.402-.916.485-.341.084-.697.082-1.037-.005l-2.471-.704c-.353-.102-.679-.282-.954-.526-.274-.244-.491-.546-.635-.885-.143-.338-.209-.704-.193-1.071.017-.367.115-.726.287-1.05zm5.202 12.757c-.947.167-1.923-.02-2.741-.526-.818-.505-1.421-1.294-1.695-2.216l8.983-.889c-.198 1.408-1.1 3.125-4.535 3.631h-.012zm3.929-24.799c.036-.336.194-.647.445-.875.25-.227.575-.355.914-.36h4.942c.328 0 .642.131.874.362.231.232.361.546.361.873-.024.347-.177.672-.428.912-.252.239-.583.377-.931.385h-4.942c-.166-.001-.331-.036-.483-.103-.153-.067-.291-.163-.405-.284-.114-.122-.203-.265-.26-.421-.058-.156-.083-.322-.075-.489h-.012z"/>
    </g>
    <defs>
        <clipPath id="clip0">
            <path fill="#fff" d="M0 0H824V894H0z"/>
        </clipPath>
    </defs>
</svg>
