<svg width="143" height="46" viewBox="0 0 143 46" fill="none" xmlns="http://www.w3.org/2000/svg">
<ellipse rx="15.9925" ry="17.7999" transform="matrix(0.869829 0.492909 -0.540707 0.841835 23.6608 23)" fill="#00034F"/>
<ellipse rx="3.26785" ry="3.77732" transform="matrix(0.821454 0.562581 -0.593694 0.809128 26.9933 17.6885)" fill="white"/>
<line y1="-1" x2="10.4214" y2="-1" transform="matrix(0.538124 -0.843314 0.868305 0.495306 28.0035 17.1509)" stroke="white" stroke-width="2"/>
<path d="M55.48 17.12H51.14V14.84H62.34V17.12H58V29H55.48V17.12ZM67.8522 27.68H67.7922C67.4455 28.2267 67.0055 28.6267 66.4722 28.88C65.9389 29.12 65.3522 29.24 64.7122 29.24C64.2722 29.24 63.8389 29.18 63.4122 29.06C62.9989 28.94 62.6255 28.76 62.2922 28.52C61.9722 28.28 61.7122 27.98 61.5122 27.62C61.3122 27.26 61.2122 26.84 61.2122 26.36C61.2122 25.84 61.3055 25.4 61.4922 25.04C61.6789 24.6667 61.9255 24.36 62.2322 24.12C62.5522 23.8667 62.9189 23.6667 63.3322 23.52C63.7455 23.3733 64.1722 23.2667 64.6122 23.2C65.0655 23.12 65.5189 23.0733 65.9722 23.06C66.4255 23.0333 66.8522 23.02 67.2522 23.02H67.8522V22.76C67.8522 22.16 67.6455 21.7133 67.2322 21.42C66.8189 21.1133 66.2922 20.96 65.6522 20.96C65.1455 20.96 64.6722 21.0533 64.2322 21.24C63.7922 21.4133 63.4122 21.6533 63.0922 21.96L61.8322 20.7C62.3655 20.1533 62.9855 19.76 63.6922 19.52C64.4122 19.28 65.1522 19.16 65.9122 19.16C66.5922 19.16 67.1655 19.24 67.6322 19.4C68.0989 19.5467 68.4855 19.74 68.7922 19.98C69.0989 20.22 69.3322 20.5 69.4922 20.82C69.6655 21.1267 69.7855 21.44 69.8522 21.76C69.9322 22.08 69.9789 22.3933 69.9922 22.7C70.0055 22.9933 70.0122 23.2533 70.0122 23.48V29H67.8522V27.68ZM67.7122 24.7H67.2122C66.8789 24.7 66.5055 24.7133 66.0922 24.74C65.6789 24.7667 65.2855 24.8333 64.9122 24.94C64.5522 25.0333 64.2455 25.18 63.9922 25.38C63.7389 25.5667 63.6122 25.8333 63.6122 26.18C63.6122 26.4067 63.6589 26.6 63.7522 26.76C63.8589 26.9067 63.9922 27.0333 64.1522 27.14C64.3122 27.2467 64.4922 27.3267 64.6922 27.38C64.8922 27.42 65.0922 27.44 65.2922 27.44C66.1189 27.44 66.7255 27.2467 67.1122 26.86C67.5122 26.46 67.7122 25.92 67.7122 25.24V24.7ZM72.6344 13.88H75.0344V29H72.6344V13.88ZM79.7097 25.04C79.7897 25.76 80.0697 26.32 80.5497 26.72C81.0297 27.12 81.6097 27.32 82.2897 27.32C82.8897 27.32 83.3897 27.2 83.7897 26.96C84.203 26.7067 84.563 26.3933 84.8697 26.02L86.5897 27.32C86.0297 28.0133 85.403 28.5067 84.7097 28.8C84.0164 29.0933 83.2897 29.24 82.5297 29.24C81.8097 29.24 81.1297 29.12 80.4897 28.88C79.8497 28.64 79.2964 28.3 78.8297 27.86C78.363 27.42 77.9897 26.8933 77.7097 26.28C77.443 25.6533 77.3097 24.96 77.3097 24.2C77.3097 23.44 77.443 22.7533 77.7097 22.14C77.9897 21.5133 78.363 20.98 78.8297 20.54C79.2964 20.1 79.8497 19.76 80.4897 19.52C81.1297 19.28 81.8097 19.16 82.5297 19.16C83.1964 19.16 83.803 19.28 84.3497 19.52C84.9097 19.7467 85.383 20.08 85.7697 20.52C86.1697 20.96 86.4764 21.5067 86.6897 22.16C86.9164 22.8 87.0297 23.54 87.0297 24.38V25.04H79.7097ZM84.6297 23.24C84.6164 22.5333 84.3964 21.98 83.9697 21.58C83.543 21.1667 82.9497 20.96 82.1897 20.96C81.4697 20.96 80.8964 21.1667 80.4697 21.58C80.0564 21.9933 79.803 22.5467 79.7097 23.24H84.6297ZM89.2741 19.4H91.5541V20.94H91.5941C91.8207 20.46 92.1674 20.0467 92.6341 19.7C93.1007 19.34 93.7341 19.16 94.5341 19.16C95.1741 19.16 95.7141 19.2667 96.1541 19.48C96.6074 19.6933 96.9741 19.9733 97.2541 20.32C97.5341 20.6667 97.7341 21.0667 97.8541 21.52C97.9741 21.9733 98.0341 22.4467 98.0341 22.94V29H95.6341V24.14C95.6341 23.8733 95.6207 23.58 95.5941 23.26C95.5674 22.9267 95.4941 22.62 95.3741 22.34C95.2674 22.0467 95.0941 21.8067 94.8541 21.62C94.6141 21.42 94.2874 21.32 93.8741 21.32C93.4741 21.32 93.1341 21.3867 92.8541 21.52C92.5874 21.6533 92.3607 21.8333 92.1741 22.06C92.0007 22.2867 91.8741 22.5467 91.7941 22.84C91.7141 23.1333 91.6741 23.44 91.6741 23.76V29H89.2741V19.4ZM99.6384 21.44V19.4H101.618V16.62H104.018V19.4H106.658V21.44H104.018V25.64C104.018 26.12 104.105 26.5 104.278 26.78C104.465 27.06 104.825 27.2 105.358 27.2C105.572 27.2 105.805 27.18 106.058 27.14C106.312 27.0867 106.512 27.0067 106.658 26.9V28.92C106.405 29.04 106.092 29.12 105.718 29.16C105.358 29.2133 105.038 29.24 104.758 29.24C104.118 29.24 103.592 29.1667 103.178 29.02C102.778 28.8867 102.458 28.68 102.218 28.4C101.992 28.1067 101.832 27.7467 101.738 27.32C101.658 26.8933 101.618 26.4 101.618 25.84V21.44H99.6384ZM108.591 19.4H110.991V29H108.591V19.4ZM108.251 16.14C108.251 15.7533 108.391 15.42 108.671 15.14C108.965 14.8467 109.331 14.7 109.771 14.7C110.211 14.7 110.578 14.84 110.871 15.12C111.178 15.3867 111.331 15.7267 111.331 16.14C111.331 16.5533 111.178 16.9 110.871 17.18C110.578 17.4467 110.211 17.58 109.771 17.58C109.331 17.58 108.965 17.44 108.671 17.16C108.391 16.8667 108.251 16.5267 108.251 16.14ZM112.627 21.44V19.4H114.607V16.62H117.007V19.4H119.647V21.44H117.007V25.64C117.007 26.12 117.093 26.5 117.267 26.78C117.453 27.06 117.813 27.2 118.347 27.2C118.56 27.2 118.793 27.18 119.047 27.14C119.3 27.0867 119.5 27.0067 119.647 26.9V28.92C119.393 29.04 119.08 29.12 118.707 29.16C118.347 29.2133 118.027 29.24 117.747 29.24C117.107 29.24 116.58 29.1667 116.167 29.02C115.767 28.8867 115.447 28.68 115.207 28.4C114.98 28.1067 114.82 27.7467 114.727 27.32C114.647 26.8933 114.607 26.4 114.607 25.84V21.44H112.627ZM121.04 24.2C121.04 23.44 121.173 22.7533 121.44 22.14C121.72 21.5133 122.093 20.98 122.56 20.54C123.027 20.1 123.58 19.76 124.22 19.52C124.86 19.28 125.54 19.16 126.26 19.16C126.98 19.16 127.66 19.28 128.3 19.52C128.94 19.76 129.493 20.1 129.96 20.54C130.427 20.98 130.793 21.5133 131.06 22.14C131.34 22.7533 131.48 23.44 131.48 24.2C131.48 24.96 131.34 25.6533 131.06 26.28C130.793 26.8933 130.427 27.42 129.96 27.86C129.493 28.3 128.94 28.64 128.3 28.88C127.66 29.12 126.98 29.24 126.26 29.24C125.54 29.24 124.86 29.12 124.22 28.88C123.58 28.64 123.027 28.3 122.56 27.86C122.093 27.42 121.72 26.8933 121.44 26.28C121.173 25.6533 121.04 24.96 121.04 24.2ZM123.44 24.2C123.44 24.5733 123.5 24.9333 123.62 25.28C123.753 25.6267 123.94 25.9333 124.18 26.2C124.433 26.4667 124.733 26.68 125.08 26.84C125.427 27 125.82 27.08 126.26 27.08C126.7 27.08 127.093 27 127.44 26.84C127.787 26.68 128.08 26.4667 128.32 26.2C128.573 25.9333 128.76 25.6267 128.88 25.28C129.013 24.9333 129.08 24.5733 129.08 24.2C129.08 23.8267 129.013 23.4667 128.88 23.12C128.76 22.7733 128.573 22.4667 128.32 22.2C128.08 21.9333 127.787 21.72 127.44 21.56C127.093 21.4 126.7 21.32 126.26 21.32C125.82 21.32 125.427 21.4 125.08 21.56C124.733 21.72 124.433 21.9333 124.18 22.2C123.94 22.4667 123.753 22.7733 123.62 23.12C123.5 23.4667 123.44 23.8267 123.44 24.2Z" fill="#00034F"/>
</svg>
