<svg xmlns="http://www.w3.org/2000/svg" width="23" height="27" fill="none" viewBox="0 0 23 27">
    <path fill="#009ADE" d="M20.62 6.86c.33-2.101 0-3.53-1.138-4.824C18.232.605 15.972 0 13.082 0H4.689c-.286 0-.562.102-.78.288-.217.185-.36.443-.405.725L.009 23.17c-.016.103-.01.208.018.308.029.1.078.193.146.272.068.08.152.143.246.187.095.043.198.066.302.066H5.9l-.357 2.267c-.014.09-.009.182.016.27.024.088.068.169.127.238.059.07.132.125.215.163.083.038.173.058.264.058h4.367c.25 0 .492-.09.683-.252.19-.163.315-.388.354-.635l.044-.221.822-5.217.053-.289c.039-.247.165-.472.355-.634.19-.162.432-.252.682-.251h.653c4.233 0 7.543-1.72 8.51-6.69.406-2.077.196-3.81-.873-5.029-.338-.378-.744-.69-1.196-.922z"/>
    <path fill="#002169" d="M20.62 6.86c.33-2.101 0-3.53-1.138-4.824C18.232.605 15.972 0 13.082 0H4.689c-.286 0-.562.102-.78.288-.217.185-.36.443-.405.725L.009 23.17c-.016.103-.01.208.018.308.029.1.078.193.146.272.068.08.152.143.246.187.095.043.198.066.302.066H5.9l1.302-8.252-.041.26c.043-.283.186-.54.403-.726.217-.186.493-.289.78-.289h2.462c4.837 0 8.616-1.965 9.727-7.646.034-.168.062-.33.086-.491z"/>
    <path fill="#002F87" d="M8.604 6.887c.039-.247.165-.472.355-.634.19-.163.432-.252.682-.252h6.579c.726-.007 1.451.044 2.17.152.19.03.374.066.554.105.18.04.352.085.521.133l.25.079c.312.102.616.23.907.384.33-2.101 0-3.53-1.138-4.824C18.232.605 15.972 0 13.082 0H4.689c-.286 0-.562.102-.78.288-.217.185-.36.443-.405.725L.009 23.17c-.016.103-.01.208.018.308.029.1.078.193.146.272.068.08.152.143.246.187.095.043.198.066.302.066H5.9l1.302-8.252 1.401-8.865z"/>
</svg>
