<svg xmlns="http://www.w3.org/2000/svg" width="50" height="51" fill="none" viewBox="0 0 50 51">
    <g clip-path="url(#prefix__clip0)">
        <path fill="#CAEAEA" d="M28.393 41.555l.168 1.125c.077.692-.203 1.41-.574 1.999-.23.365-.352.787-.353 1.218 0 .431.12.854.348 1.22.229.366.555.66.943.849.387.19.82.265 1.25.22.428-.045.836-.21 1.175-.476.34-.266.598-.622.744-1.028.147-.405.177-.844.086-1.265-.091-.422-.299-.809-.6-1.118-.492-.505-.949-1.141-1.026-1.84l-.079-1.138c-.016-.243.058-.484.208-.676.15-.193.366-.323.606-.367l-3.85.427c.233.007.456.096.631.252.175.155.289.367.323.598zM8.875 23.369l-1.126.168c-.692.076-1.41-.204-2-.575-.364-.229-.787-.35-1.218-.352-.431 0-.854.12-1.22.348-.366.229-.66.555-.85.942-.19.388-.265.82-.22 1.25.045.428.21.836.476 1.175.266.34.622.597 1.028.744.406.146.844.176 1.266.085.422-.091.81-.299 1.118-.6.504-.491 1.14-.948 1.841-1.026l1.138-.078c.244-.016.485.058.677.208.193.15.323.365.367.605l-.427-3.849c-.007.234-.096.457-.252.631-.155.175-.367.29-.598.324z"/>
        <path fill="#CAEAEA" d="M41.39.362L9.366 3.916c-1.8.2-3.097 1.82-2.897 3.62l3.552 32.011c.2 1.8 1.821 3.096 3.621 2.897l32.026-3.554c1.8-.2 3.097-1.82 2.898-3.62L45.012 3.258c-.2-1.8-1.82-3.096-3.621-2.896z"/>
        <path fill="#fff" d="M38.584 35.679l-.11-.989c-.46-4.148-4.35-7.143-8.642-6.667l-4.059.45c-4.003.445-6.926 3.97-6.497 7.838l.167 1.5c.03.242.11.477.23.689.122.212.285.399.479.549.193.15.415.26.65.324.237.064.484.081.727.05l15.37-1.705c.245-.023.482-.094.7-.209.217-.115.41-.271.566-.46.157-.19.275-.409.346-.644.072-.235.097-.482.073-.726z"/>
        <path fill="#199FB2" d="M28.814 31.363c-.262.03-.528.006-.782-.068-.253-.073-.49-.196-.696-.362-.206-.165-.377-.37-.504-.601-.127-.232-.207-.486-.235-.749l-.07-.628c-.63.52-1.036 1.206-.565 1.848.966 1.306.486.696 2.176 2.716.11.117.246.207.397.263.151.056.313.076.473.058.16-.018.314-.073.449-.16.135-.088.248-.206.33-.344 1.206-2.341.871-1.641 1.526-3.127.297-.677-.15-1.223-.799-1.596l.06.548c.057.525-.097 1.05-.427 1.463-.33.412-.808.678-1.333.739z"/>
        <path fill="#A33600" d="M32.376 12.908c.076-.368.044-.808-.24-1.043-.283-.236-.789-.15-1.139-.365-.273-.162-.416-.48-.624-.724-.192-.223-.445-.384-.729-.463-.283-.078-.583-.07-.862.022-.294.107-.58.315-.886.249-.434-.09-.739-.705-1.164-.586-.29.08-.402.46-.658.621-.325.208-.737 0-1.115-.055-.267-.034-.54.006-.785.118-.245.111-.454.289-.604.513-.275.405-.476 1.023-.95 1.001-.168-.007-.324-.107-.49-.114-.354-.016-.606.377-.663.745-.057.369.008.757-.076 1.12-.098.425-.393.758-.589 1.142-.195.384-.332.873-.1 1.24.176.284.523.42.671.724.375.798-.13 1.647.432 2.52.189.306.445.565.75.757.032-.244.142-.472.313-.65.171-.177.395-.296.638-.337l.101-.011-.089-.803c-.023-.223.013-.447.106-.65.093-.204.238-.38.422-.507l3.318-2.323c1.425-.997 3.464-.234 3.77 1.474l.038.337.188 1.695c.203.072.383.199.518.366.215-.21.411-.415.4-.697-.01-.237-.194-.455-.18-.695.014-.24.193-.405.323-.605.507-.85-.385-1.921-.324-2.924.069-.37.162-.735.28-1.092z"/>
        <path fill="#D9ACA7" d="M27.362 20.25H29.087999999999997V21.209H27.362z" transform="rotate(-6.333 27.362 20.25)"/>
        <path fill="#EAB5AD" d="M31.357 18.55l-.188-1.695-.037-.336c-.307-1.708-2.347-2.471-3.771-1.474l-3.319 2.322c-.183.128-.329.303-.421.507-.093.204-.13.428-.106.65l.09.803-.102.011c-.243.042-.467.16-.638.338-.171.178-.281.405-.313.65-.03.158-.037.319-.021.479.082.741.641 1.29 1.259 1.226.06-.007.12-.02.177-.04.158.557.426 1.076.789 1.526.361.451.81.826 1.319 1.1l.464 4.358.07.628c.072.516.342.982.753 1.302.41.32.929.469 1.446.414.518-.055.994-.309 1.328-.708.334-.4.5-.912.462-1.431l-.06-.549-.474-4.442c.445-.384.807-.853 1.066-1.38.258-.528.408-1.103.438-1.69.235-.135.423-.338.54-.582.116-.245.156-.519.114-.786-.027-.298-.142-.581-.329-.815-.137-.177-.324-.311-.536-.386zm-3.392 4.259c-.926-.05-1.204-.539-1.298-.955l2.42-.001c.233.982-1.122.956-1.122.956zm.443-1.892l-.454.203c-.259.117-.541-.13-.527-.453l.006-.056c.042.068.107.119.183.143.076.025.158.022.232-.008l.454-.203c.092-.048.167-.122.218-.212.05-.09.075-.193.07-.296l.043.09c.075.136.094.296.052.445-.042.15-.141.276-.276.352v-.005zm-3.495-3.246l.878-.097c.067.004.13.032.177.078.048.046.078.108.085.174.008.066-.008.132-.045.188-.037.055-.091.096-.155.115l-.879.098c-.066-.005-.128-.033-.176-.079-.048-.046-.078-.107-.086-.173-.007-.066.01-.133.046-.188.036-.056.091-.097.155-.116zm.675.73c.171-.018.337.18.365.437.029.256-.089.486-.26.505-.173.02-.338-.18-.366-.436-.029-.256.089-.486.26-.505zm3.68-1.6c-.015-.063-.004-.13.03-.187.034-.056.09-.097.153-.114l.813-.09c.063.01.121.04.166.085.044.046.072.106.079.17.007.063-.007.127-.04.181-.034.055-.084.097-.144.12l-.812.09c-.066-.002-.129-.03-.174-.078-.046-.047-.072-.11-.071-.176zm.36 1.63c-.03-.267.088-.487.26-.507.172-.019.337.18.366.437.028.256-.09.486-.261.505-.172.02-.335-.16-.365-.427v-.009z"/>
        <path fill="#842902" d="M29.302 16.851c.002.07.031.138.081.186.05.049.116.076.184.074l.87-.096c.064-.02.118-.062.154-.119.036-.056.052-.125.044-.193-.007-.068-.038-.13-.085-.178-.048-.048-.11-.077-.176-.082l-.87.096c-.067.014-.126.054-.164.113-.038.058-.051.13-.038.2z"/>
        <path fill="#fff" d="M27.87 22.837s1.354.026 1.128-.957l-2.42.001c.087.417.365.906 1.291.956z"/>
        <path fill="#842902" d="M24.603 17.98c.002.078.035.152.092.205.056.054.132.083.21.081l.995-.11c.072-.022.134-.069.175-.131.042-.063.06-.138.052-.213-.008-.075-.043-.145-.097-.197-.054-.052-.125-.083-.2-.089l-.995.11c-.077.016-.144.06-.187.125-.043.065-.06.143-.045.22z"/>
        <path fill="#010616" d="M30.243 18.387c-.036-.323-.235-.553-.445-.53-.209.024-.352.303-.317.615.034.311.235.552.444.53.21-.024.354-.292.318-.615zM26.05 18.852c-.037-.323-.236-.552-.446-.53-.209.024-.352.303-.317.615.034.312.235.553.444.53.21-.024.354-.291.318-.614z"/>
    </g>
    <defs>
        <clipPath id="prefix__clip0">
            <path fill="#fff" d="M0 0H44.924V46.295H0z" transform="rotate(-6.333 44.787 2.478)"/>
        </clipPath>
    </defs>
</svg>
