<svg xmlns="http://www.w3.org/2000/svg" width="91" height="90" fill="none" viewBox="0 0 91 90">
    <g clip-path="url(#prefix__clip0)">
        <path fill="#FFB881" d="M83.787 42.859l-34.286 2.255c-1.927.126-3.388 1.777-3.262 3.687l2.234 33.978c.126 1.91 1.79 3.355 3.717 3.228l34.287-2.254c1.927-.127 3.387-1.778 3.262-3.688l-2.235-33.977c-.125-1.91-1.79-3.356-3.717-3.23z"/>
        <path fill="#A2C7CC" d="M64.623 82.879c-.204.013-.41-.014-.602-.081-.193-.067-.37-.172-.522-.31-.15-.136-.272-.302-.357-.487-.084-.184-.13-.384-.135-.587-.016-.25-.016-.52-.052-.794-.15-1.815 2.066-8.403 4.353-8.588 2.479-.2 8.116 1.308 9.346 3.792.894 1.81 1.192 3.648 1.385 5 .02.15.01.3-.03.445-.041.145-.112.28-.208.396-.095.116-.214.211-.35.28-.134.069-.281.11-.432.119l-12.396.815z"/>
        <path fill="#EFB9B1" d="M62.537 64.584c1.698-.132 3.261-.968 3.659-2.696l.466-2.038c-.251-.264-.521-.51-.808-.737-.127.066-.245.131-.347.19-.209.109-.437.172-.672.188-.234.015-.469-.018-.69-.098-1.121-.397-2.169-.975-3.1-1.71-.233.448-.424.916-.572 1.397-.194.564-.276 1.159-.242 1.753l.095.631-.785 2.084c-.026.076-.035.157-.027.236.008.08.034.157.075.226.04.069.097.128.163.173.067.045.142.076.222.09l.795.156c.582.11 1.175.163 1.768.154zm-1.091-3.191c-.018-.275.12-.51.307-.522.187-.013.355.197.373.477.019.28-.118.51-.307.522-.19.013-.353-.203-.37-.475l-.003-.002zm.049-1.175l1.107-.073c.074-.005.147.02.203.068.056.049.09.117.095.19.005.074-.02.147-.069.202-.05.056-.118.09-.193.095l-1.112.073c-.074.005-.147-.02-.203-.069-.056-.048-.09-.117-.095-.19-.005-.074.02-.146.07-.202.048-.055.118-.09.192-.094h.005zM68.975 62.37c-.01-.286-.107-.563-.276-.796-.17-.233-.405-.41-.676-.51l.273 2.689c.046-.026.09-.055.131-.086l.022-.017c.043-.035.084-.073.124-.113l.017-.017c.037-.042.072-.087.105-.132l.016-.021c.032-.046.061-.094.087-.144l.016-.029c.024-.048.045-.098.064-.15-.002-.014.01-.025.015-.038.017-.052.03-.105.042-.158l.013-.044c.011-.058.017-.119.023-.18 0-.01 0-.021-.002-.032.007-.073.01-.147.006-.221zM68.37 64.737c.037 1.134-.206 2.327-.878 3.19-.54.627-1.145 1.197-1.806 1.7h-.015l1.238 3.77c.083.216.231.401.425.529.194.127.423.192.656.184l3.307-.233c.1 0 .198-.024.286-.07.088-.046.164-.113.22-.194.057-.082.093-.176.104-.274.012-.098 0-.198-.037-.29l-2.235-6.802c-.593-.334-1.042-.87-1.264-1.51z"/>
        <path fill="#452A51" d="M61.526 60.775l1.108-.072c.074-.005.143-.04.193-.095.049-.055.073-.128.069-.201-.005-.074-.04-.143-.095-.191-.056-.049-.13-.073-.204-.069l-1.107.073c-.074.005-.144.04-.193.095-.049.055-.074.128-.069.201.005.074.04.142.095.191.056.049.13.073.203.068z"/>
        <path fill="#77706C" d="M69.947 66.056c.581-.485 1.04-1.097 1.343-1.787 1.252-2.843 1.377-4.831.859-6.2.462-.374.559-.975-.665-1.916-2.667-2.043-7.128-3.145-8.657-2.633-1.187.4-2.32 1.796-3.143 2.27-.27.155-.262.519.002.752.43.407.883.789 1.356 1.146.932.735 1.98 1.313 3.101 1.71.22.08.456.113.69.098.235-.016.463-.08.672-.187.102-.06.22-.125.347-.19.286.226.556.472.808.736l-.466 2.039c-.393 1.727-1.961 2.563-3.66 2.695-.596.016-1.194-.029-1.781-.134l-.023.001.556 3.64c.216.97 1.395 1.959 2.344 1.952 1.013-.01 1.604-.106 2.03-.402l.015-.001c.66-.503 1.266-1.072 1.806-1.7.672-.862.915-2.055.879-3.19.22.642.67 1.182 1.264 1.518l.045.027s.273-.241.278-.244zm-1.007-3.251l-.012.043c-.011.054-.026.107-.043.159.001.012-.01.023-.015.038-.018.051-.04.101-.063.15l-.016.029c-.026.05-.055.097-.087.143l-.016.022c-.033.044-.068.09-.106.132l-.016.016c-.04.04-.081.078-.124.114l-.022.016c-.042.032-.086.06-.131.087l-.273-2.69c.27.1.506.278.675.51.17.233.266.51.277.797.005.074.004.148-.001.221.002.011.002.022.002.033-.011.06-.017.121-.029.18zm-7.492 2.59l1.34-.276c.013.187-.04.373-.153.524-.112.151-.275.257-.46.3 0 0-.746.171-.727-.548z"/>
        <path fill="#452A51" d="M62.129 61.35c-.018-.275-.184-.49-.373-.477-.19.012-.327.242-.308.522.018.28.187.49.373.478.187-.012.326-.25.308-.523z"/>
        <path fill="#fff" d="M62.175 65.942c.185-.042.348-.148.46-.3.112-.15.166-.336.152-.523l-1.34.276c-.018.72.728.547.728.547zM71.573 72.218l-3.58 1.9-.116.782c-.023.148-.003.3.058.436.06.137.16.254.285.337.125.083.271.13.422.133.15.004.3-.034.43-.111l3.815-2.55-1.314-.927zM66.514 72.31l1.478 1.807-.974 1.083c-.063.07-.145.12-.237.145-.091.024-.188.021-.278-.009-.09-.03-.168-.085-.226-.16-.057-.074-.092-.164-.098-.257l-.167-2.268.502-.342zM71.035 82.457c-.064-1.752-.154-3.533-.21-4.96-.046-1.28 2.636-2.284 3.87-1.76 1.873.815 2.107 2.07 2.217 4.21.047.71.045 1.415.038 2.114l-5.915.396z"/>
        <path fill="#797A92" d="M42.508 46.189l-34.822 2.29c-1.957.128-3.442 1.782-3.316 3.692l2.235 33.993c.126 1.91 1.814 3.355 3.771 3.226l34.822-2.29c1.957-.128 3.442-1.782 3.316-3.692L46.28 49.415c-.126-1.91-1.814-3.355-3.772-3.226z"/>
        <path fill="#FFD176" d="M15.716 86.74l7.795-.513c.054-.506.175-.943.485-1.2.32-.212.705-.309 1.09-.275 1.203-.006 2.49.238 3.641.072 3.929-.57 1.822-4.717 2.008-6.888.264-3.065 3.738-2.734 5.471-4.45 2.364-2.34 1.287-8.477-.794-12.83-1.095-2.292-1.925-3.684-3.6-3.619-1.283.047-1.312.187-2.725-.609-.959-.537-1.676-1.047-2.652-1.214-2.754-.466-5.153.666-6.383 3.013-.751 1.44-1.07 3.294-1.969 4.594-1.407 2.058-3.998 2.434-5.97 3.734-5.177 3.408-5.218 13.037-1.248 18.098l.017.022c.57.703 1.31 1.26 2.152 1.619.843.36 1.764.513 2.682.445z"/>
        <path fill="#fff" d="M38.691 83.338l-.068-1.042c-.287-4.36-4.393-7.67-9.123-7.359l-4.471.294c-4.41.29-7.8 3.852-7.532 7.914l.104 1.58c.051.522.312 1.001.725 1.334.413.333.946.492 1.48.442l16.932-1.114c.536-.02 1.043-.247 1.409-.631.366-.384.562-.894.544-1.418zM27.546 68.505s1.13.067.98-.742l-2.022-.086c.046.346.268.754 1.042.828z"/>
        <path fill="#FBE9DC" d="M25.738 62.712c0-.078-.03-.153-.085-.21-.055-.056-.13-.088-.21-.09l-1.025.068c-.075.018-.142.062-.188.123-.046.061-.068.136-.063.212.005.076.037.147.09.202.054.055.126.09.203.098l1.024-.068c.08-.012.15-.054.197-.117.048-.063.068-.141.057-.218zM30.83 62.696c.07-.023.132-.068.174-.128.042-.061.062-.133.057-.206-.004-.073-.034-.142-.084-.197-.05-.054-.116-.091-.19-.104l-.952.063c-.072.022-.133.067-.175.128-.042.06-.062.133-.058.206.005.073.035.142.084.196.05.055.117.091.19.104l.953-.062z"/>
        <path fill="#EFACA0" d="M28.577 65.357c0 .117-.035.23-.1.33-.063.097-.154.176-.262.226l-.537.211c-.087.03-.182.03-.269 0-.087-.03-.16-.09-.207-.167l.004.06c-.046.37.272.668.58.547l.537-.211c.162-.079.285-.217.344-.384.058-.167.047-.35-.032-.508l-.058-.104z"/>
        <path fill="#381B13" d="M25.229 64.447c.202-.013.352-.274.332-.574-.02-.3-.202-.541-.404-.528l-.623.04.32.276c-.023.082-.032.168-.028.253.02.31.203.546.403.533zM30.606 63.541c-.007-.085-.027-.168-.06-.247l.28-.315-.622.041c-.202.014-.35.274-.33.577.02.302.2.54.403.526.202-.014.349-.28.33-.582z"/>
        <path fill="#F7C3BA" d="M32.823 65.188c-.006-.294-.096-.58-.262-.826-.165-.245-.399-.44-.673-.561l-.128-1.942c-.053-.923-.358-1.814-.884-2.58-.612.092-1.249.141-1.407.162-3.29.427-5.095 2.424-5.751 3.546-.539.927-.792 1.998-1.352 2.911-.187.305-.408.59-.66.847.114.198.28.361.481.474.201.112.43.169.662.164.071-.005.141-.017.209-.036.156.64.442 1.242.84 1.773.397.53.9.977 1.477 1.316l.349 5.768c-.272.243-.486.54-.627.872-.14.332-.205.69-.189 1.048.096 1.454 1.615 2.537 3.395 2.42 1.78-.117 3.147-1.39 3.051-2.844-.029-.332-.127-.654-.29-.945-.163-.292-.386-.548-.655-.75l-.356-5.85c.541-.415.991-.933 1.322-1.522.33-.59.536-1.237.602-1.905.285-.143.518-.367.669-.642.15-.275.212-.588.177-.898zm-4.51 1.165l-.536.211c-.308.121-.626-.177-.58-.546l-.005-.06c.047.077.12.136.208.166.086.03.181.03.269 0l.536-.21c.108-.05.2-.13.263-.228.064-.098.099-.212.1-.329l.047.105c.08.157.092.339.036.505-.056.167-.177.306-.337.386zm-.766 2.152c-.776-.074-.986-.482-1.042-.828l2.022.086c.151.808-.98.742-.98.742zm-3.396-5.69c-.011-.076.009-.155.056-.218.048-.062.119-.104.197-.117l1.025-.067c.077.008.149.043.202.098.054.054.086.126.091.202.005.075-.017.15-.063.212-.046.061-.113.105-.188.123l-1.025.067c-.08-.001-.155-.034-.21-.09-.056-.056-.086-.131-.085-.21zm.377.571l.623-.04c.202-.014.385.225.405.527.02.303-.13.561-.333.575-.202.013-.383-.226-.402-.526-.005-.085.005-.17.027-.253l-.32-.283zm5.055-.927c-.013-.075.004-.151.048-.214.044-.062.111-.105.187-.12l.97-.064c.074.013.14.05.19.104.05.054.08.124.085.196.004.073-.016.146-.058.206s-.104.106-.175.129l-.952.062c-.04-.001-.078-.01-.113-.025-.036-.016-.068-.039-.095-.066-.027-.028-.047-.061-.06-.097-.015-.035-.02-.074-.02-.112h-.007zm.285 1.13c-.02-.304.128-.562.33-.576l.622-.04-.28.314c.033.079.053.162.06.247.02.303-.128.56-.33.574-.202.013-.374-.216-.394-.519h-.008z"/>
        <path fill="#FFD176" d="M22.372 65.898c.563-.913.816-1.984 1.352-2.91.656-1.123 2.462-3.12 5.751-3.547.16-.01.796-.07 1.407-.163.61-.093 1.24-.23 1.278-.423.047-.234-1.042-.604-1.772-.913-.149-.063-.266-.126-.385-.18-.097-.04-.18-.104-.244-.185-.02-.083-.07-.156-.138-.208-.069-.052-.154-.08-.24-.079l-2.078-.295c-.95-.16-1.912-.247-2.877-.26-.801.01-1.587 1.046-2.212 1.549-1.001.819-1.132 1.367-1.633 2.55-.665 1.62-2.22 2.81-2.745 4.484-.253.805-.19 1.807.485 2.325.736.567 1.836.284 2.604-.241.583-.398 1.075-.91 1.445-1.504h.002z"/>
        <path fill="#EFE4D4" d="M39.762 3.663L4.31 5.994C2.318 6.125.808 7.846.94 9.838l2.33 35.437c.13 1.991 1.852 3.5 3.845 3.369l35.451-2.331c1.993-.131 3.503-1.852 3.372-3.844l-2.33-35.436c-.132-1.992-1.853-3.5-3.846-3.37z"/>
        <path fill="#F6C19A" d="M23.338 48.716l.15-.22.03.025-.18.195z"/>
        <path fill="#EFE4D4" d="M24.024 48.087l.132 1.247c.05.767-.294 1.543-.732 2.174-.27.39-.425.849-.447 1.323-.022.474.09.945.323 1.359.233.413.578.753.995.98.417.227.89.333 1.364.304.474-.029.93-.19 1.317-.466.387-.276.688-.655.87-1.093.181-.439.236-.92.157-1.388-.08-.468-.288-.905-.604-1.26-.515-.578-.986-1.301-1.037-2.078l-.033-1.256c-.005-.269.09-.53.264-.734.175-.204.418-.338.684-.376l-4.263.28c.257.02.5.129.684.309.185.18.3.419.326.675z"/>
        <path fill="#110B03" d="M8.98 19.12c-.271.878-.37 1.84-.875 2.6-.437.65-1.129 1.08-1.616 1.677-.487.598-.715 1.589-.158 2.173.262.278.65.404.911.68.74.779.084 1.986-.129 3.016-.11.59-.066 1.197.13 1.765.195.567.534 1.073.984 1.47.652.564 1.583.98 1.75 1.819.133.664-.285 1.385.024 1.99.454.889 1.856.55 2.645 1.161.552.43.664 1.207.94 1.854.257.603.68 1.122 1.22 1.496.538.375 1.172.59 1.828.623.686.014 1.393-.184 2.048.05.845.306 1.392 1.267 2.262 1.438 1.825.351 2.107-1.816 3.253-3.025 1.444-1.521 4.425-1.503 4.982-3.55.13-.48.106-1.053.453-1.395.346-.342.948-.345 1.333-.661.726-.595.32-1.874.606-2.733.106-.189.223-.371.35-.547 2.848-4.775 2.989-10.283-.13-13.6-2.583-2.754-6.785-3.344-10.95-1.984-.042-.032-.065-.07-.106-.1-.982-.75-2.154-.89-3.33-.75-2.188.256-2.73 2.297-4.53 2.776-.685.181-1.422-.226-2.125-.122-.918.092-1.497.997-1.77 1.878z"/>
        <path fill="#C48357" d="M35.432 24.99l-1.023-2.026.002.029-.04-.594c-.047-.625-.208-1.235-.477-1.801-.327-.717-.727-1.507-1.3-2.021-.217-.254-.457-.485-.719-.691-.02.205-.062.408-.125.605-.38 1.22-1.204 2.253-2.31 2.895-1.03.614-2.107 1.37-2.21 2.22-.056-.013-.111-.023-.167-.028-.293.038-.565.172-.774.38-.208.21-.341.481-.379.774.003.047-.017.098-.021.148-.012.104-.014.208-.006.312.007.286.092.565.247.807.154.241.371.436.629.562.182.541.195 1.125.037 1.674-.157.549-.478 1.037-.92 1.399v-.013c-.32 1.612-1.394 7.108-1.394 7.108-.033.109-.038.224-.015.334.023.111.073.215.146.301.072.087.165.155.27.197.105.041.22.057.332.044l2.201-.129c.256-.029.496-.136.689-.306.192-.171.328-.397.387-.647l1.022-4.81c.077-.31.247-.59.487-.8.097-.12.221-.216.362-.279.141-.063.295-.092.45-.084 2.89.15 3.955-1.8 3.815-4.132l-.031-.472.542-.193c.073-.027.138-.069.193-.123.055-.055.098-.12.125-.192.028-.072.04-.15.036-.226-.005-.078-.025-.153-.06-.221zm-1.944-2.685l-1.11.073c-.075-.002-.145-.032-.199-.083-.053-.052-.086-.121-.09-.195-.005-.074.018-.147.064-.205.046-.058.112-.097.186-.109l1.11-.073c.074.002.145.032.199.084.053.051.085.12.09.194.005.074-.018.148-.064.206-.046.058-.113.096-.186.108zm-.258.847c.019.289-.12.53-.308.543-.187.013-.357-.212-.375-.498-.02-.287.12-.532.307-.544l.579-.038-.261.297c.031.076.05.157.058.24zm.04 4.598c-.192-.025-.37-.117-.501-.26-.131-.143-.207-.328-.215-.522l1.368.111c.123.751-.641.67-.641.67l-.01.001z"/>
        <path fill="#fff" d="M32.567 26.966c.008.194.084.38.215.523.132.143.31.235.502.26 0 0 .764.08.652-.67l-1.369-.113z"/>
        <path fill="#110B03" d="M33.45 21.713l-1.11.073c-.074.012-.14.05-.186.109-.047.058-.07.131-.065.205.005.074.037.143.09.195.054.051.125.081.2.083l1.11-.073c.073-.012.14-.05.185-.108.047-.058.07-.131.065-.206-.005-.073-.037-.143-.09-.194-.054-.052-.125-.082-.2-.084zM26.757 26.564c-.257-.127-.475-.321-.63-.563-.153-.24-.239-.52-.245-.806-.008-.104-.006-.209.005-.312-.003-.05.014-.1.022-.148.037-.293.17-.565.379-.774.208-.209.48-.342.773-.38.056.005.112.015.167.028.096-.849 1.172-1.605 2.21-2.22 1.106-.642 1.93-1.675 2.31-2.895.064-.197.106-.4.126-.605.008-.073.01-.145.004-.218-.06-.658-2.92-1.31-3.582-1.306-3.256.01-9.52 2.563-4.462 11.137.391.678.93 1.259 1.578 1.7 0 0 .382.361.452.422v.013c.444-.36.767-.848.926-1.398.16-.549.148-1.133-.033-1.675zM32.854 22.65c-.188.013-.326.257-.307.544.019.287.188.511.376.499.187-.013.326-.257.307-.544-.007-.083-.026-.165-.058-.242l.26-.297-.578.04z"/>
        <path fill="#fff" d="M17.308 46.246c-.93-1.247-2.358-4.556 2.814-9.607 2.262-1.95 5.618-3.675 9.413-1.828.334.168.648.375.934.616 2.81 2.291 3.797 3.072 4.3 7.292.037.304.011.614-.075.908-.086.294-.232.568-.428.805-.195.236-.437.43-.71.57-.273.14-.572.223-.878.244l-15.37 1z"/>
        <path fill="#fff" d="M17.459 46.236c-.273.019-.546-.03-.794-.142-.25-.113-.467-.285-.633-.501-.167-.216-.277-.47-.322-.74-.045-.27-.022-.545.065-.804.734-2.11 1.722-4.233 3.039-5.958.822-1.273 2.946-.746 4.37.08 2.466 1.431 2.322 3.184.804 7.646l-6.53.42z"/>
        <path fill="#CAEAEA" d="M65.1 44.993l.125 1.216c.05.747-.286 1.503-.713 2.118-.264.38-.415.828-.437 1.29-.021.463.088.923.315 1.327.227.403.564.735.97.956.407.222.869.325 1.331.297.463-.028.908-.186 1.285-.455.378-.269.672-.639.849-1.067.177-.428.23-.897.152-1.354-.077-.457-.281-.883-.59-1.229-.503-.566-.963-1.27-1.013-2.024l-.03-1.225c-.004-.262.087-.517.257-.716.17-.2.408-.33.668-.365l-4.154.273c.25.02.486.126.666.3.18.176.292.408.318.658zM45.026 24.533l-1.217.126c-.747.049-1.504-.287-2.118-.713-.381-.264-.829-.415-1.292-.437-.463-.021-.922.088-1.326.315s-.736.563-.958.97c-.221.407-.324.868-.296 1.33.028.463.185.908.455 1.285.269.377.639.67 1.067.848.428.177.898.23 1.355.152.457-.077.883-.281 1.229-.589.564-.504 1.268-.963 2.026-1.013l1.225-.03c.262-.005.517.086.716.256.2.17.33.408.365.668l-.273-4.152c-.02.25-.126.486-.3.666-.176.18-.409.292-.658.318z"/>
        <path fill="#CAEAEA" d="M81.035 1.405L46.489 3.676c-1.942.128-3.413 1.805-3.285 3.746l2.27 34.531c.128 1.941 1.806 3.411 3.748 3.283l34.546-2.271c1.942-.128 3.412-1.805 3.285-3.746L84.782 4.688c-.128-1.941-1.805-3.411-3.747-3.283z"/>
        <path fill="#fff" d="M76.32 39.177l-.07-1.066c-.294-4.475-4.324-7.877-8.956-7.572l-4.377.287c-4.319.284-7.626 3.927-7.352 8.1l.107 1.617c.022.262.095.517.215.751.12.234.285.442.486.612.2.17.433.3.684.38.25.08.514.11.777.089l16.579-1.09c.264-.013.523-.078.761-.19.24-.113.453-.272.63-.468.178-.196.315-.425.403-.673.089-.25.128-.513.114-.777z"/>
        <path fill="#199FB2" d="M66.042 34.074c-.283.019-.567-.019-.836-.11-.269-.092-.517-.235-.73-.422-.213-.188-.387-.415-.512-.67-.125-.255-.198-.532-.216-.815l-.044-.678c-.703.528-1.171 1.245-.696 1.956.973 1.448.487.771 2.204 3.02.113.132.254.235.414.302.16.067.332.096.505.085.172-.011.34-.063.49-.15.149-.088.275-.209.37-.354 1.407-2.454 1.014-1.72 1.79-3.283.35-.711-.103-1.32-.782-1.751l.04.591c.034.566-.157 1.123-.53 1.55-.374.426-.901.688-1.467.729z"/>
        <path fill="#A33600" d="M70.754 14.437c.1-.391.086-.865-.207-1.131-.293-.267-.84-.2-1.206-.446-.285-.188-.423-.536-.634-.808-.195-.249-.46-.434-.76-.532-.3-.098-.623-.104-.927-.018-.32.1-.638.31-.963.224-.462-.117-.759-.791-1.221-.685-.314.072-.454.474-.736.636-.36.207-.791-.035-1.194-.113-.286-.05-.58-.02-.848.088-.269.108-.502.289-.674.522-.314.421-.56 1.075-1.068 1.03-.18-.017-.342-.131-.52-.148-.38-.033-.669.376-.748.769-.078.392-.028.813-.135 1.197-.126.452-.458.795-.687 1.198-.228.403-.399.921-.168 1.327.176.312.542.474.686.81.364.873-.218 1.76.343 2.724.187.338.45.628.767.85.047-.262.176-.5.368-.683.192-.183.438-.299.701-.332l.11-.007-.058-.866c-.014-.24.036-.479.145-.693.11-.214.274-.395.477-.523l3.674-2.333c1.577-1.002 3.73-.085 3.976 1.763l.024.363.12 1.829c.215.087.401.232.538.418.241-.214.462-.425.463-.729 0-.255-.186-.498-.16-.754.027-.257.228-.426.377-.635.585-.887-.32-2.08-.207-3.154.091-.393.21-.78.352-1.158z"/>
        <path fill="#D9ACA7" d="M65.019 22.076H66.87400000000001V23.106H65.019z" transform="rotate(-3.762 65.019 22.076)"/>
        <path fill="#EAB5AD" d="M69.389 20.444l-.12-1.828-.024-.363c-.247-1.849-2.4-2.765-3.977-1.764l-3.674 2.333c-.203.129-.367.31-.477.523-.11.214-.159.454-.144.694l.057.865-.11.008c-.263.033-.508.149-.7.331-.193.183-.322.422-.368.683-.04.168-.055.34-.046.513.053.8.627 1.415 1.293 1.376.064-.005.129-.016.191-.033.144.605.407 1.174.773 1.676.367.501.83.924 1.363 1.244l.29 4.7.044.677c.053.557.32 1.07.745 1.434.425.363.975.547 1.533.513.558-.034 1.081-.283 1.459-.695.377-.413.58-.955.565-1.514l-.039-.592-.294-4.79c.496-.391.908-.878 1.21-1.432.304-.553.491-1.163.553-1.79.258-.135.47-.344.607-.6.137-.258.193-.55.16-.839-.015-.32-.124-.63-.313-.89-.14-.197-.333-.35-.557-.44zm-3.846 4.408c-.992-.099-1.267-.636-1.348-1.088l2.598.115c.202 1.066-1.25.973-1.25.973zm.566-2.01l-.497.197c-.283.113-.575-.167-.544-.513l.009-.06c.042.076.11.133.19.164.08.03.169.03.25.002l.497-.196c.1-.048.185-.123.244-.218.059-.094.09-.203.088-.314l.043.1c.074.148.087.32.034.479-.052.158-.165.29-.313.365v-.005zm-3.595-3.652l.948-.062c.07.008.136.04.185.093.05.051.08.119.084.19.005.071-.016.142-.058.2-.042.057-.103.098-.172.116l-.947.062c-.071-.008-.137-.041-.186-.093-.05-.052-.079-.119-.084-.19-.004-.071.016-.142.058-.2.042-.057.103-.099.172-.116zm.69.817c.185-.013.352.208.37.485.019.277-.119.518-.304.53-.186.013-.353-.208-.371-.485-.019-.277.119-.518.304-.53zm4.026-1.54c-.012-.07.003-.142.042-.2.04-.06.1-.1.17-.115l.876-.058c.068.013.129.048.174.1.045.051.073.116.077.184.005.069-.014.137-.052.194-.038.057-.094.1-.16.121l-.876.058c-.07-.006-.136-.038-.183-.091-.047-.053-.071-.123-.068-.193zm.308 1.765c-.02-.287.119-.518.304-.53.186-.013.353.208.371.485.019.277-.119.518-.304.53-.186.013-.352-.188-.37-.475l-.001-.01z"/>
        <path fill="#842902" d="M67.264 18.521c0 .076.027.15.078.204.051.055.12.086.194.088l.94-.062c.068-.018.128-.06.17-.12.041-.058.061-.131.056-.204-.004-.074-.034-.143-.083-.196-.049-.054-.114-.088-.184-.097l-.94.062c-.072.012-.137.052-.18.113-.043.06-.062.137-.051.212z"/>
        <path fill="#fff" d="M65.438 24.877s1.453.093 1.258-.973l-2.597-.115c.073.452.348.99 1.34 1.088z"/>
        <path fill="#842902" d="M62.166 19.507c-.001.084.031.164.089.224.058.06.137.095.221.097l1.074-.07c.078-.02.147-.067.195-.133.047-.065.07-.145.065-.226-.005-.08-.039-.157-.095-.215-.055-.059-.13-.096-.21-.106l-1.074.071c-.082.013-.156.058-.206.125-.05.067-.071.15-.06.233z"/>
        <path fill="#010616" d="M68.2 20.215c-.023-.348-.226-.605-.451-.59-.226.015-.393.308-.371.644.022.336.226.605.452.59.225-.015.393-.295.37-.644zM63.677 20.512c-.023-.348-.226-.604-.452-.59-.226.015-.393.308-.37.645.022.336.226.604.451.59.226-.015.394-.296.371-.645z"/>
        <path fill="#CAEAEA" d="M65.731 45.07l.126 1.216c.05.747-.286 1.503-.712 2.118-.264.381-.416.829-.437 1.292-.022.463.087.922.315 1.326.227.404.563.736.97.958.407.221.868.324 1.33.296.462-.028.907-.185 1.285-.455.377-.269.67-.639.847-1.067.177-.428.23-.898.153-1.355-.078-.457-.282-.883-.59-1.229-.503-.564-.963-1.269-1.013-2.026l-.03-1.225c-.004-.262.087-.517.257-.716.17-.2.408-.33.667-.365l-4.151.273c.25.019.485.126.665.3.18.176.292.409.318.658z"/>
        <path fill="#FFB881" d="M47.063 66.66l-1.217.126c-.747.05-1.503-.286-2.118-.712-.381-.264-.829-.416-1.292-.437-.463-.022-.922.087-1.326.314-.404.228-.736.564-.957.97-.222.407-.325.868-.297 1.33.028.463.185.908.455 1.285.269.378.639.671 1.067.848.428.177.898.23 1.355.153.457-.078.883-.282 1.229-.59.564-.503 1.269-.963 2.026-1.013l1.225-.03c.262-.004.517.087.716.257.2.17.33.408.365.667l-.273-4.152c-.019.25-.125.486-.3.666-.176.18-.408.292-.658.318z"/>
    </g>
    <defs>
        <clipPath id="prefix__clip0">
            <path fill="#fff" d="M0 0H84V83.614H0z" transform="rotate(-3.762 95.219 -7.573)"/>
        </clipPath>
    </defs>
</svg>
