<svg xmlns="http://www.w3.org/2000/svg"  fill="none" viewBox="0 0 83 53">
    <g clip-path="url(#prefix__clip0)">
        <path fill="#EFE4D4" d="M39.65 1.431L5.348.132C3.42.06 1.798 1.562 1.724 3.49L.426 37.777c-.073 1.928 1.43 3.55 3.359 3.622l34.302 1.3c1.929.072 3.55-1.43 3.624-3.358l1.298-34.288c.073-1.927-1.43-3.549-3.359-3.622z"/>
        <path fill="#F6C19A" d="M19.368 43.088l.167-.196.027.026-.194.17z"/>
        <path fill="#EFE4D4" d="M20.091 42.552l.002 1.212c-.028.741-.436 1.453-.92 2.016-.299.348-.493.773-.562 1.227-.068.453-.008.917.175 1.338.183.42.48.782.858 1.041.378.26.822.409 1.28.428.46.02.914-.09 1.313-.316.4-.226.727-.56.945-.964.218-.403.318-.86.29-1.318-.03-.458-.188-.898-.455-1.27-.437-.608-.818-1.35-.79-2.101l.094-1.211c.023-.259.14-.5.327-.679.189-.179.436-.283.695-.292l-4.124-.157c.245.044.467.173.626.365.16.19.247.432.246.681z"/>
        <path fill="#110B03" d="M8.526 13.212c-.35.817-.54 1.732-1.102 2.412-.484.58-1.192.925-1.72 1.45-.527.526-.846 1.455-.369 2.072.224.294.584.454.808.745.633.822-.118 1.917-.425 2.886-.165.555-.183 1.144-.052 1.708.131.565.406 1.085.8 1.512.57.607 1.423 1.099 1.5 1.922.061.652-.413 1.303-.176 1.915.348.9 1.729.715 2.426 1.38.488.468.517 1.227.717 1.876.188.605.543 1.146 1.023 1.56.481.413 1.068.684 1.695.78.66.083 1.358-.037 1.964.254.781.378 1.211 1.356 2.03 1.607 1.719.52 2.206-1.535 3.428-2.582 1.54-1.318 4.403-1.003 5.142-2.914.174-.448.208-1.002.575-1.297.367-.294.946-.236 1.348-.502.756-.499.494-1.769.855-2.566.12-.17.25-.334.39-.49 3.214-4.305 3.9-9.584 1.233-13.084-2.207-2.904-6.186-3.89-10.325-3-.036-.033-.055-.072-.092-.106-.868-.818-1.98-1.07-3.125-1.053-2.128.028-2.852 1.935-4.631 2.216-.676.106-1.343-.359-2.03-.33-.89-.003-1.538.809-1.887 1.629z"/>
        <path fill="#C48357" d="M33.36 21.495l-.781-2.05-.001.028.022-.575c.017-.604-.078-1.207-.279-1.778-.243-.721-.549-1.52-1.048-2.072-.183-.265-.39-.512-.622-.736-.04.196-.1.386-.18.569-.487 1.135-1.383 2.046-2.51 2.551-1.051.488-2.16 1.108-2.345 1.914-.052-.018-.104-.033-.158-.044-.285.007-.56.108-.781.288-.221.18-.377.428-.441.706-.002.046-.027.093-.036.14-.021.099-.034.199-.037.3-.022.275.032.552.157.8.124.246.314.455.548.602.121.538.075 1.1-.13 1.612-.207.512-.564.95-1.024 1.253v-.012c-.469 1.517-2.05 6.692-2.05 6.692-.041.101-.058.21-.047.32.011.108.049.213.11.303.061.091.144.165.24.216.098.05.205.077.315.076l2.128.096c.249-.003.49-.082.693-.226.202-.145.354-.348.437-.583l1.462-4.52c.105-.29.296-.542.548-.721.105-.106.234-.185.376-.231.141-.047.292-.06.44-.037 2.762.433 3.98-1.334 4.079-3.59l.017-.456.54-.131c.073-.02.14-.053.198-.1.059-.047.106-.105.14-.172.034-.066.053-.139.056-.213.004-.075-.008-.15-.036-.219zm-1.6-2.775l-1.074-.04c-.071-.01-.136-.046-.183-.1-.046-.055-.07-.125-.067-.197.003-.071.032-.14.082-.19.05-.052.118-.082.19-.086l1.074.04c.071.01.136.046.182.1.046.055.07.125.068.197-.003.071-.032.14-.082.19-.05.052-.118.082-.19.086zm-.333.788c-.01.28-.168.499-.35.492-.18-.007-.321-.24-.31-.517.01-.277.167-.499.349-.492l.56.021-.28.26c.022.077.033.156.031.236zm-.42 4.423c-.183-.043-.344-.15-.456-.3-.111-.15-.166-.336-.154-.523l1.304.244c.043.733-.684.58-.684.58h-.01z"/>
        <path fill="#fff" d="M30.41 23.108c-.012.187.042.372.154.523.112.15.273.257.456.3 0 0 .727.154.694-.58l-1.305-.243z"/>
        <path fill="#110B03" d="M31.782 18.148l-1.075-.041c-.071.004-.139.034-.189.085-.05.052-.08.12-.082.191-.003.072.021.142.067.197.047.054.112.09.183.1l1.074.04c.072-.004.14-.035.19-.086.05-.05.08-.119.082-.19.003-.072-.021-.142-.068-.197-.046-.055-.11-.09-.182-.1zM24.866 22.14c-.235-.147-.424-.355-.549-.602-.124-.248-.178-.524-.156-.8.003-.1.015-.201.037-.3.001-.047.023-.095.035-.14.065-.277.22-.525.441-.705.222-.18.497-.282.782-.288.053.01.106.025.157.043.177-.806 1.287-1.426 2.346-1.913 1.127-.506 2.023-1.417 2.51-2.552.08-.182.14-.373.18-.568.016-.069.024-.139.026-.21.009-.638-2.675-1.55-3.312-1.612-3.13-.315-9.404 1.513-5.4 10.257.308.691.768 1.303 1.347 1.791 0 0 .331.386.392.452v.012c.461-.302.82-.739 1.028-1.25.208-.512.256-1.075.136-1.614zM31.117 18.988c-.182-.006-.34.215-.35.493-.011.278.13.51.311.518.182.007.34-.215.35-.493.002-.08-.008-.161-.031-.239l.28-.26-.56-.019z"/>
        <path fill="#fff" d="M13.82 40.113c-.77-1.292-1.811-4.614 3.663-8.952 2.37-1.648 5.767-2.97 9.23-.817.303.195.584.425.835.685 2.472 2.483 3.342 3.332 3.404 7.437.005.297-.05.591-.162.865-.113.275-.28.523-.491.731-.212.208-.464.37-.74.477-.277.108-.572.158-.869.147l-14.87-.573z"/>
        <path fill="#fff" d="M13.966 40.118c-.263-.009-.52-.083-.749-.216-.228-.133-.42-.32-.558-.544-.139-.225-.22-.48-.235-.743-.016-.264.033-.527.143-.767.915-1.955 2.077-3.895 3.515-5.422.917-1.142 2.906-.423 4.191.512 2.228 1.623 1.914 3.292.01 7.43l-6.317-.25z"/>
        <path fill="#CAEAEA" d="M59.873 43.68v1.18c-.027.723-.425 1.417-.896 1.965-.292.34-.482.754-.55 1.197-.066.442-.007.895.17 1.306.179.41.469.762.838 1.016s.802.398 1.25.418c.447.019.89-.088 1.28-.309.39-.22.708-.547.921-.94.213-.394.31-.84.282-1.287-.028-.446-.182-.876-.444-1.24-.427-.594-.799-1.317-.771-2.046l.094-1.18c.02-.253.134-.489.317-.663.184-.175.425-.276.678-.284l-4.019-.152c.239.043.455.17.61.355.156.187.24.421.24.664zM42.625 22.013h-1.182c-.722-.028-1.416-.426-1.965-.897-.34-.292-.754-.482-1.197-.549-.443-.067-.895-.008-1.306.17-.411.178-.763.468-1.017.837-.254.369-.399.802-.418 1.249-.02.447.088.89.309 1.28.22.389.547.708.94.921.395.213.84.31 1.288.282.447-.029.876-.182 1.24-.444.592-.427 1.315-.799 2.048-.771l1.18.094c.253.02.489.134.663.317.175.184.276.425.284.678l.152-4.017c-.043.238-.169.454-.355.61-.187.155-.422.24-.664.24z"/>
        <path fill="#CAEAEA" d="M79.54 3.381L46.114 2.115c-1.88-.07-3.46 1.394-3.531 3.272L41.317 38.8c-.07 1.878 1.395 3.458 3.274 3.53l33.426 1.265c1.879.072 3.46-1.393 3.531-3.272l1.265-33.411c.071-1.878-1.394-3.459-3.273-3.53z"/>
        <path fill="#fff" d="M71.239 39.21l.039-1.031c.163-4.33-3.37-8.002-7.852-8.171l-4.235-.16c-4.179-.159-7.72 3.011-7.874 7.049l-.059 1.565c-.005.254.04.506.132.743s.23.454.406.637c.176.184.386.33.619.433.233.102.483.158.738.163l16.042.607c.255.015.51-.022.75-.106.241-.085.463-.216.653-.386s.344-.377.454-.607c.11-.23.173-.48.186-.735z"/>
        <path fill="#199FB2" d="M61.87 33.28c-.275-.01-.544-.074-.793-.189-.25-.114-.473-.277-.66-.478-.185-.202-.33-.438-.424-.695-.095-.258-.138-.53-.127-.805l.025-.656c-.728.438-1.25 1.08-.863 1.81.79 1.49.39.79 1.816 3.123.095.137.221.25.367.331.147.08.31.126.477.132.167.007.334-.026.486-.095.152-.07.286-.173.391-.303 1.598-2.218 1.147-1.551 2.048-2.976.408-.649.033-1.278-.576-1.761l-.022.572c-.023.547-.262 1.063-.663 1.436-.402.373-.935.572-1.482.555z"/>
        <path fill="#A33600" d="M68.359 14.88c.134-.367.169-.824-.086-1.109-.255-.285-.787-.276-1.114-.549-.256-.209-.353-.557-.53-.84-.162-.258-.398-.462-.677-.586-.279-.124-.588-.162-.89-.11-.317.064-.643.234-.947.12-.432-.16-.65-.837-1.105-.78-.309.037-.483.41-.77.536-.367.163-.757-.112-1.137-.228-.27-.076-.554-.076-.823 0-.27.078-.512.228-.7.435-.344.373-.645.977-1.129.882-.17-.033-.316-.16-.485-.193-.362-.07-.68.294-.796.664-.114.37-.108.778-.25 1.137-.166.422-.519.719-.779 1.083s-.475.846-.294 1.258c.138.318.473.51.579.847.262.876-.386 1.67.057 2.652.146.344.37.65.653.893.07-.246.218-.463.421-.619.203-.156.451-.243.707-.248l.106.004.032-.838c.01-.232.081-.457.208-.652.126-.195.303-.352.51-.455l3.764-1.876c1.616-.805 3.593.291 3.645 2.092l-.013.352-.067 1.769c.198.105.362.263.475.456.253-.183.486-.363.517-.655.027-.245-.129-.497-.078-.741.052-.244.261-.386.426-.572.65-.795-.1-2.032.115-3.052.128-.369.28-.729.455-1.078z"/>
        <path fill="#D9ACA7" d="M62.084 21.648H63.876000000000005V22.644H62.084z" transform="rotate(2.169 62.084 21.648)"/>
        <path fill="#EAB5AD" d="M66.447 20.516l.067-1.77.013-.35c-.052-1.801-2.03-2.897-3.645-2.093l-3.764 1.876c-.208.103-.384.26-.51.455-.127.195-.199.42-.209.652l-.032.838-.105-.004c-.256.005-.504.092-.707.248-.203.157-.35.373-.422.62-.055.157-.086.321-.094.488-.03.774.46 1.422 1.104 1.452.063.002.126-.002.188-.013.077.595.273 1.17.575 1.688.303.518.706.971 1.186 1.332L59.9 30.48l-.024.656c-.005.54.2 1.06.573 1.452.372.392.882.623 1.421.646.54.023 1.068-.164 1.472-.523.404-.358.653-.86.694-1.398l.022-.573.195-4.633c.516-.326.96-.752 1.307-1.254.346-.502.588-1.07.71-1.667.26-.103.485-.283.642-.516.158-.233.24-.508.239-.789.017-.31-.057-.618-.213-.886-.114-.204-.285-.37-.491-.48zm-4.137 3.852c-.943-.194-1.153-.738-1.186-1.18l2.485.37c.088 1.044-1.299.81-1.299.81zm.746-1.874l-.498.138c-.283.08-.535-.217-.471-.547l.014-.056c.033.077.092.139.166.176.074.037.16.046.24.027l.498-.139c.1-.036.19-.1.256-.184.066-.085.106-.187.116-.294l.03.1c.058.15.052.317-.014.464-.066.147-.187.262-.337.32v-.005zm-3.09-3.87l.916.035c.067.015.127.053.17.108.041.055.063.122.06.191-.002.069-.029.135-.075.186-.046.051-.109.085-.177.095l-.917-.035c-.067-.015-.127-.053-.169-.108-.042-.054-.064-.122-.061-.191.002-.069.03-.135.075-.186.046-.051.109-.085.177-.095zm.58.854c.18.007.318.236.308.504-.01.268-.166.486-.345.479-.18-.007-.319-.236-.309-.504.01-.268.166-.486.346-.48zM64.57 18.4c-.005-.068.016-.136.06-.188.044-.053.106-.086.174-.093l.849.032c.063.019.118.059.157.113.038.054.058.119.055.185-.002.066-.027.13-.07.18-.042.052-.1.087-.165.101l-.847-.032c-.068-.012-.128-.05-.167-.106-.04-.055-.057-.124-.046-.192zm.119 1.727c.01-.278.166-.486.346-.48.179.008.318.237.308.505-.01.267-.166.485-.346.479-.18-.007-.319-.217-.308-.494v-.01z"/>
        <path fill="#842902" d="M64.597 18.456c-.008.073.012.146.055.204.044.057.107.095.177.104l.91.034c.067-.01.13-.045.175-.098.046-.053.072-.12.075-.191.002-.071-.019-.14-.06-.197-.042-.056-.101-.095-.168-.11l-.91-.035c-.07.003-.136.036-.184.09-.047.054-.073.126-.07.199z"/>
        <path fill="#fff" d="M62.208 24.381s1.387.235 1.306-.809l-2.485-.37c.025.442.236.986 1.18 1.18z"/>
        <path fill="#842902" d="M59.6 18.894c-.01.08.013.161.063.225.05.063.122.104.202.114l1.04.04c.076-.011.148-.05.2-.108.052-.058.082-.132.085-.21.003-.078-.021-.155-.07-.217-.047-.062-.115-.105-.19-.122l-1.04-.04c-.08.005-.156.04-.21.1-.055.06-.084.138-.08.218z"/>
        <path fill="#010616" d="M65.328 20.177c.013-.337-.157-.603-.375-.612-.219-.008-.409.257-.42.582-.013.326.156.604.374.612.219.008.408-.244.42-.582zM60.951 20.012c.013-.338-.157-.604-.375-.612-.219-.009-.409.256-.42.581-.013.326.156.604.374.612.219.009.408-.244.421-.581z"/>
    </g>
    <defs>
        <clipPath id="prefix__clip0">
            <path fill="#fff" d="M0 0H81.16V49.057H0z" transform="rotate(2.169 .928 49.04)"/>
        </clipPath>
    </defs>
</svg>
