<svg xmlns="http://www.w3.org/2000/svg" width="88" height="87" fill="none" viewBox="0 0 88 87">
    <g clip-path="url(#prefix__clip0)">
        <path fill="#EFE4D4" d="M42.276 1.938L6.76.97C4.764.915 3.1 2.489 3.048 4.484l-.968 35.5c-.054 1.995 1.52 3.657 3.516 3.712l35.515.967c1.997.055 3.659-1.519 3.713-3.514l.968-35.5c.054-1.995-1.52-3.657-3.516-3.711z"/>
        <path fill="#F6C19A" d="M21.742 45.272l.17-.204.029.027-.199.177z"/>
        <path fill="#EFE4D4" d="M22.485 44.71l.015 1.254c-.02.767-.436 1.509-.93 2.096-.305.364-.502.806-.568 1.276-.066.47.002.95.195 1.383.194.434.506.804.9 1.069.394.264.855.413 1.33.428.475.016.944-.102 1.355-.341.41-.239.745-.588.967-1.008.221-.42.32-.894.285-1.367-.035-.474-.203-.928-.484-1.31-.459-.624-.861-1.388-.84-2.166l.084-1.254c.02-.268.138-.52.33-.706.194-.188.448-.298.717-.31l-4.27-.117c.253.043.484.174.652.37.167.196.26.445.262.703z"/>
        <path fill="#110B03" d="M10.193 14.471c-.352.85-.54 1.799-1.113 2.51-.495.605-1.224.969-1.764 1.519-.54.55-.86 1.515-.36 2.148.235.302.61.463.845.762.664.844-.101 1.986-.408 2.99-.165.578-.177 1.187-.035 1.77.141.583.432 1.119.843 1.555.598.623 1.486 1.122 1.575 1.974.07.673-.413 1.352-.161 1.984.369.927 1.796.72 2.525 1.4.51.48.549 1.265.763 1.934.201.625.574 1.18 1.076 1.603.502.423 1.113.697 1.763.79.682.078 1.405-.054 2.035.24.813.383 1.269 1.39 2.12 1.641 1.783.519 2.265-1.613 3.518-2.71 1.58-1.38 4.546-1.086 5.29-3.072.175-.465.204-1.04.58-1.348.377-.308.977-.255 1.39-.534.777-.525.491-1.836.857-2.665.122-.178.255-.349.398-.512 3.28-4.49 3.93-9.962 1.132-13.554-2.315-2.982-6.444-3.959-10.718-2.991-.038-.035-.058-.075-.096-.11-.908-.837-2.062-1.085-3.247-1.055-2.202.052-2.93 2.034-4.768 2.344-.699.117-1.394-.357-2.103-.318-.923.006-1.584.853-1.937 1.705z"/>
        <path fill="#C48357" d="M35.986 22.771l-.831-2.112v.028l.015-.595c.011-.626-.093-1.249-.308-1.837-.26-.744-.584-1.568-1.107-2.133-.192-.272-.41-.525-.651-.755-.04.203-.1.401-.181.59-.491 1.18-1.408 2.133-2.569 2.669-1.083.516-2.225 1.17-2.407 2.006-.053-.018-.108-.033-.163-.044-.296.01-.579.119-.806.307-.227.189-.385.448-.449.736-.001.047-.026.096-.035.145-.02.102-.032.206-.035.31-.02.286.04.571.17.826.132.255.33.468.575.618.131.556.09 1.138-.117 1.67-.208.532-.573.988-1.046 1.308v-.013c-.469 1.576-2.047 6.949-2.047 6.949-.043.104-.058.218-.046.33.013.113.053.22.117.314.064.093.15.169.251.22.101.052.213.078.326.075l2.204.076c.257-.005.507-.09.714-.241.208-.152.364-.364.446-.608l1.464-4.694c.105-.302.3-.564.559-.753.108-.11.24-.193.386-.243.147-.05.303-.064.455-.042 2.864.418 4.106-1.424 4.183-3.76l.013-.473.558-.142c.074-.02.143-.056.203-.105.06-.049.108-.11.142-.18.035-.068.054-.144.057-.221.003-.077-.01-.154-.04-.226zM34.3 19.917l-1.113-.03c-.074-.01-.141-.045-.19-.102-.048-.056-.074-.128-.072-.202.002-.074.032-.145.083-.198.051-.054.121-.086.195-.091l1.113.03c.073.01.141.045.19.101.048.057.074.129.072.203-.003.074-.032.145-.084.198-.05.054-.12.086-.194.09zm-.336.819c-.008.29-.169.518-.357.513-.188-.005-.335-.244-.328-.532.008-.287.169-.518.357-.512l.58.015-.288.272c.025.079.036.161.036.244zm-.387 4.582c-.19-.042-.357-.15-.475-.305-.117-.155-.176-.346-.165-.54l1.352.238c.053.759-.701.608-.701.608h-.01z"/>
        <path fill="#fff" d="M32.95 24.473c-.01.194.048.385.166.54.117.155.285.263.475.306 0 0 .754.151.712-.608l-1.353-.238z"/>
        <path fill="#110B03" d="M34.316 19.325l-1.113-.03c-.074.004-.143.036-.195.09-.05.053-.08.124-.083.198-.002.074.024.147.073.203.048.056.116.092.19.1l1.112.031c.074-.005.144-.037.195-.09.051-.054.08-.125.083-.199.002-.074-.024-.146-.072-.202-.049-.056-.116-.092-.19-.101zM27.202 23.533c-.244-.15-.443-.364-.574-.618-.131-.255-.19-.54-.17-.826.002-.104.013-.208.034-.31.002-.05.024-.099.035-.146.064-.288.222-.546.45-.735.226-.189.51-.296.805-.307.055.01.11.025.163.044.175-.837 1.316-1.49 2.407-2.006 1.16-.536 2.078-1.489 2.569-2.668.081-.19.142-.388.18-.591.016-.071.024-.144.025-.216.002-.661-2.785-1.576-3.445-1.633-3.243-.292-9.716 1.669-5.476 10.675.326.711.81 1.34 1.413 1.838 0 0 .348.396.411.463v.014c.475-.319.841-.774 1.051-1.306.21-.532.252-1.115.122-1.672zM33.636 20.202c-.188-.005-.349.226-.356.513-.008.287.14.526.328.531.188.006.348-.225.356-.512.001-.084-.01-.167-.035-.247l.287-.272-.58-.013z"/>
        <path fill="#fff" d="M15.967 42.254c-.81-1.329-1.924-4.755 3.694-9.305 2.433-1.731 5.935-3.138 9.542-.947.317.199.61.434.872.7 2.586 2.543 3.496 3.411 3.605 7.66.009.306-.045.612-.159.897-.113.285-.283.544-.5.762-.217.217-.475.388-.76.502-.285.114-.59.169-.897.16l-15.397-.43z"/>
        <path fill="#fff" d="M16.119 42.258c-.273-.007-.54-.081-.778-.216-.237-.135-.438-.326-.584-.557-.145-.23-.232-.494-.251-.767-.02-.272.028-.545.14-.794.925-2.033 2.107-4.055 3.578-5.65.936-1.192 3.002-.47 4.343.484 2.323 1.654 2.017 3.386.091 7.689l-6.54-.189z"/>
        <path fill="#CAEAEA" d="M63.67 45.44l.012 1.223c-.02.748-.425 1.47-.906 2.042-.299.355-.49.786-.555 1.245-.065.458.001.926.19 1.35.19.422.493.784.878 1.042.384.258.834.403 1.297.418.463.016.921-.1 1.322-.333.4-.233.728-.574.944-.984.215-.41.312-.872.277-1.334-.034-.462-.198-.904-.473-1.278-.45-.61-.841-1.354-.82-2.11l.083-1.222c.02-.262.134-.507.322-.69.188-.182.437-.29.699-.3l-4.161-.114c.247.042.472.17.634.361.163.191.254.433.257.684zM45.58 23.206l-1.222.012c-.748-.02-1.47-.424-2.044-.906-.354-.298-.786-.49-1.245-.554-.459-.065-.927.001-1.35.19-.423.189-.785.493-1.043.877-.259.384-.404.834-.419 1.297-.015.463.1.92.334 1.321.233.4.574.727.984.943.41.216.872.312 1.335.278.462-.035.905-.198 1.278-.473.609-.45 1.353-.841 2.111-.82l1.223.084c.262.019.507.133.69.321.182.188.29.437.301.699l.113-4.16c-.042.247-.17.472-.361.635-.191.163-.433.253-.684.256z"/>
        <path fill="#CAEAEA" d="M83.58 3.518l-34.607-.943c-1.946-.053-3.566 1.48-3.619 3.425l-.943 34.592c-.053 1.945 1.482 3.564 3.427 3.617l34.608.943c1.945.053 3.565-1.48 3.618-3.425l.943-34.592c.053-1.945-1.481-3.564-3.427-3.617z"/>
        <path fill="#fff" d="M75.382 40.69l.03-1.068c.121-4.482-3.576-8.244-8.216-8.37l-4.385-.12c-4.327-.118-7.957 3.202-8.071 7.382l-.044 1.62c-.003.264.046.525.144.769.098.244.243.466.427.654s.404.338.646.441c.242.104.502.158.765.161l16.61.453c.263.011.527-.029.775-.119s.476-.228.67-.407c.195-.178.353-.394.464-.633.111-.24.174-.499.185-.762z"/>
        <path fill="#199FB2" d="M65.622 34.656c-.284-.008-.564-.072-.823-.188-.259-.115-.492-.281-.687-.488-.195-.206-.347-.449-.448-.714-.1-.265-.148-.548-.14-.831l.02-.68c-.75.461-1.282 1.131-.875 1.883.835 1.533.414.814 1.915 3.212.1.141.23.257.383.339.153.082.322.127.495.131.173.005.345-.03.502-.104.157-.073.294-.182.401-.318 1.63-2.313 1.17-1.617 2.087-3.102.416-.676.02-1.323-.615-1.817l-.017.593c-.018.567-.259 1.104-.67 1.494-.412.39-.961.602-1.528.59z"/>
        <path fill="#A33600" d="M72.135 15.54c.136-.38.166-.853-.1-1.145-.268-.293-.818-.277-1.16-.556-.266-.214-.371-.573-.557-.863-.17-.266-.417-.475-.707-.6s-.61-.161-.922-.104c-.327.07-.663.25-.979.134-.449-.16-.682-.859-1.152-.795-.32.042-.496.43-.792.564-.377.173-.784-.108-1.179-.223-.279-.077-.574-.073-.852.01-.277.082-.526.24-.72.456-.351.39-.656 1.018-1.158.926-.177-.033-.329-.162-.504-.195-.375-.069-.701.312-.816.696-.115.384-.103.807-.246 1.18-.167.438-.53.749-.795 1.129s-.482.88-.29 1.305c.146.328.495.523.608.87.28.904-.381 1.733.088 2.744.155.354.39.668.686.917.07-.255.22-.481.43-.645.207-.164.463-.257.728-.265l.11.003.023-.867c.008-.24.08-.474.208-.677.129-.203.31-.368.524-.477l3.874-1.982c1.664-.851 3.722.262 3.796 2.125l-.01.363-.05 1.832c.206.107.377.268.497.467.26-.192.5-.381.528-.683.024-.254-.14-.513-.089-.767.05-.253.266-.402.434-.596.665-.83-.126-2.101.086-3.16.128-.383.281-.757.458-1.12z"/>
        <path fill="#D9ACA7" d="M65.716 22.615H67.571V23.645H65.716z" transform="rotate(1.561 65.716 22.615)"/>
        <path fill="#EAB5AD" d="M70.218 21.395l.05-1.832.01-.363c-.074-1.864-2.132-2.976-3.796-2.125l-3.874 1.982c-.214.109-.395.274-.524.477-.128.203-.2.436-.208.676l-.023.868-.11-.003c-.265.008-.52.101-.729.265-.208.164-.359.39-.43.645-.054.164-.086.334-.092.507-.022.801.492 1.467 1.16 1.49.064.002.129-.003.193-.015.087.615.296 1.207.614 1.74.32.534.741.998 1.242 1.366l-.148 4.706-.019.679c.001.559.22 1.095.61 1.497.388.4.919.635 1.478.653.559.018 1.103-.182 1.517-.558.414-.375.666-.897.703-1.454l.017-.593.15-4.798c.53-.342.986-.789 1.339-1.312s.597-1.113.716-1.732c.27-.11.5-.299.66-.542.16-.242.243-.528.238-.819.014-.32-.065-.639-.23-.915-.12-.21-.299-.38-.514-.49zm-4.238 4.032c-.978-.19-1.202-.751-1.24-1.208l2.575.355c.103 1.08-1.335.853-1.335.853zm.75-1.948l-.513.149c-.293.086-.557-.219-.494-.56l.014-.059c.035.078.097.142.174.18.077.037.165.046.249.025l.513-.149c.105-.038.196-.105.263-.194.068-.088.108-.194.117-.305l.033.103c.06.155.057.328-.01.48-.066.154-.19.274-.345.335v-.005zm-3.24-3.97l.949.025c.07.015.132.054.176.11.044.056.068.126.066.197-.002.072-.03.14-.076.194-.047.053-.112.088-.182.1l-.95-.026c-.07-.015-.132-.054-.176-.11-.044-.056-.067-.126-.065-.197.002-.072.028-.14.075-.194.048-.053.112-.089.183-.1zm.61.877c.186.005.332.24.325.518-.008.277-.167.504-.353.5-.186-.006-.332-.242-.324-.519.007-.277.166-.505.352-.5zm4.153-1.16c-.007-.07.015-.14.06-.196.045-.055.109-.09.18-.098l.877.024c.066.019.124.06.164.115.04.055.062.123.06.191-.002.069-.027.135-.07.188-.043.053-.103.09-.17.106l-.878-.024c-.07-.012-.132-.05-.174-.108-.042-.057-.06-.128-.05-.198zm.142 1.786c.008-.288.166-.505.352-.5.186.005.332.24.325.518-.008.277-.167.505-.353.5-.185-.005-.332-.22-.324-.508v-.01z"/>
        <path fill="#842902" d="M68.281 19.283c-.008.076.014.151.06.21.045.06.111.098.184.106l.941.026c.07-.012.134-.048.18-.103.047-.055.074-.126.076-.2.002-.073-.02-.145-.064-.202-.044-.058-.106-.098-.175-.113l-.941-.026c-.073.005-.142.04-.19.096-.05.056-.075.13-.071.206z"/>
        <path fill="#fff" d="M65.874 25.442s1.438.227 1.342-.852l-2.575-.355c.03.456.255 1.017 1.233 1.207z"/>
        <path fill="#842902" d="M63.114 19.792c-.009.083.016.166.068.231.052.065.128.107.21.117l1.076.03c.08-.013.153-.053.207-.114.053-.06.084-.138.086-.22.002-.08-.024-.159-.074-.223-.05-.063-.121-.107-.2-.124l-1.076-.03c-.083.006-.161.044-.217.106-.056.062-.084.144-.08.227z"/>
        <path fill="#010616" d="M69.056 21.057c.01-.35-.169-.623-.395-.63-.226-.006-.42.27-.429.607-.009.337.17.623.395.63.226.006.42-.258.43-.607zM64.524 20.933c.01-.349-.169-.623-.395-.629-.226-.006-.42.27-.429.607-.009.336.17.623.396.629.226.006.419-.258.428-.607z"/>
        <path fill="#FFB881" d="M82.505 45.05l-34.053-.928c-1.914-.053-3.508 1.456-3.56 3.37l-.928 34.038c-.052 1.913 1.457 3.506 3.371 3.558l34.053.928c1.914.053 3.508-1.456 3.56-3.37l.928-34.038c.052-1.913-1.457-3.506-3.371-3.558z"/>
        <path fill="#A2C7CC" d="M59.897 83.124c-.203-.006-.403-.052-.588-.136-.184-.085-.35-.206-.486-.356s-.241-.327-.307-.519c-.067-.192-.094-.395-.08-.597.008-.25.032-.52.022-.796.02-1.82 2.815-8.175 5.09-8.148 2.465.03 7.89 2.054 8.875 4.64.715 1.886.84 3.743.906 5.108.007.15-.017.3-.071.44-.054.14-.136.267-.241.374-.105.107-.231.191-.37.247-.14.056-.29.083-.44.078l-12.31-.335z"/>
        <path fill="#EFB9B1" d="M59.524 64.714c1.689.026 3.309-.661 3.861-2.345l.648-1.986c-.224-.287-.468-.557-.73-.81-.131.055-.253.11-.36.159-.215.088-.447.13-.68.124-.233-.007-.462-.061-.672-.16-1.07-.5-2.051-1.173-2.903-1.991-.27.424-.503.873-.693 1.339-.244.542-.38 1.127-.4 1.722l.035.637-.967 2.003c-.033.073-.05.152-.049.232 0 .08.019.16.053.232.035.072.084.136.145.188.062.051.134.088.211.11l.77.228c.565.165 1.145.271 1.731.318zm-.782-3.278c.007-.275.166-.496.351-.491.185.005.332.23.325.51-.008.28-.164.496-.352.491-.188-.005-.33-.234-.322-.507l-.002-.003zm.157-1.165l1.099.03c.074.002.144.033.194.086.051.054.078.125.076.199-.002.074-.033.144-.086.194-.054.05-.126.078-.2.076l-1.104-.03c-.073-.002-.143-.033-.194-.087-.05-.053-.078-.125-.076-.198.002-.074.033-.144.087-.195.053-.05.125-.078.199-.076h.005zM66.084 63.107c.016-.287-.054-.572-.2-.82-.145-.246-.36-.445-.62-.57l.022 2.703c.048-.021.093-.046.138-.074l.022-.014c.047-.031.09-.065.134-.102l.017-.014c.042-.04.08-.08.117-.122l.018-.02c.035-.043.069-.088.099-.135l.018-.027c.028-.046.053-.094.076-.143 0-.015.014-.025.019-.037.022-.05.04-.102.057-.154l.016-.042c.017-.057.028-.117.04-.177v-.032c.014-.073.023-.146.027-.22zM65.269 65.407c-.069 1.133-.419 2.298-1.162 3.094-.591.575-1.24 1.087-1.939 1.526h-.015l.875 3.868c.06.223.19.42.37.565.18.145.4.23.63.244l3.286.075c.099.009.198-.006.29-.044.09-.037.171-.097.235-.173.063-.076.107-.166.127-.263.02-.097.018-.197-.01-.292l-1.579-6.98c-.554-.387-.948-.963-1.108-1.62z"/>
        <path fill="#452A51" d="M58.878 60.829l1.1.03c.074.002.145-.026.199-.076.053-.05.085-.12.087-.194.002-.074-.026-.146-.076-.2-.051-.053-.121-.084-.195-.086l-1.1-.03c-.073-.002-.145.025-.199.076-.053.05-.084.12-.086.194-.002.074.025.146.076.2.05.053.12.084.194.086z"/>
        <path fill="#77706C" d="M66.703 66.866c.619-.429 1.13-.995 1.492-1.655 1.497-2.715 1.804-4.683 1.419-6.094.49-.33.641-.919-.48-1.97-2.444-2.28-6.746-3.79-8.303-3.422-1.208.288-2.456 1.574-3.311 1.97-.282.13-.307.492-.068.749.387.444.8.867 1.233 1.266.852.818 1.833 1.49 2.903 1.99.21.1.44.155.672.161.233.006.465-.036.68-.124.107-.05.229-.104.36-.158.263.252.507.523.73.81l-.648 1.985c-.547 1.684-2.172 2.371-3.86 2.345-.591-.039-1.176-.139-1.746-.298h-.023l.213 3.675c.124.986 1.197 2.08 2.134 2.16 1 .085 1.593.043 2.04-.212h.016c.698-.439 1.348-.95 1.939-1.525.743-.797 1.093-1.962 1.162-3.095.158.66.552 1.24 1.108 1.628l.042.032.296-.218zm-.693-3.33l-.016.042c-.017.052-.036.103-.057.154 0 .012-.013.022-.019.037-.023.049-.048.097-.076.143l-.019.027c-.03.047-.063.092-.099.135l-.018.02c-.036.041-.075.083-.116.122l-.018.014c-.043.037-.087.07-.133.102l-.023.014c-.044.028-.09.053-.137.074l-.022-2.703c.259.125.475.324.62.57.146.248.215.533.2.82-.002.073-.01.147-.022.22v.032c-.017.06-.029.12-.045.177zm-7.635 1.886l1.347-.151c-.003.187-.074.367-.198.507-.125.14-.296.23-.482.256 0 0-.752.102-.667-.612z"/>
        <path fill="#452A51" d="M59.42 61.458c.008-.276-.137-.505-.325-.51-.187-.006-.344.21-.351.491-.008.28.139.505.324.51.186.005.345-.218.352-.491z"/>
        <path fill="#fff" d="M59.042 66.034c.186-.025.357-.116.482-.256s.195-.32.198-.508l-1.348.152c-.084.714.668.612.668.612zM67.74 73.152l-3.709 1.56-.186.769c-.036.145-.03.297.017.439.047.141.134.267.25.361.116.095.256.155.404.172.149.018.3-.006.434-.07l4.002-2.186-1.212-1.045z"/>
        <path fill="#fff" d="M62.738 72.775l1.293 1.937-1.062.988c-.069.064-.154.107-.247.123-.093.015-.188.003-.273-.035-.086-.038-.159-.1-.209-.18-.05-.08-.076-.172-.074-.266l.045-2.273.527-.294zM66.265 83.297c.098-1.75.174-3.532.25-4.958.073-1.278 2.813-2.03 3.983-1.394 1.773.985 1.888 2.256 1.8 4.398-.02.71-.086 1.412-.158 2.107l-5.875-.153z"/>
        <path fill="#CAEAEA" d="M64.291 45.575l.013 1.222c-.02.749-.425 1.471-.907 2.044-.297.355-.49.786-.554 1.245-.065.459.001.927.19 1.35.189.423.493.785.877 1.043.385.259.834.404 1.297.419.463.015.921-.1 1.321-.334.4-.233.728-.574.944-.984.215-.41.312-.872.277-1.334-.034-.463-.198-.906-.473-1.28-.449-.607-.841-1.352-.82-2.11l.084-1.223c.019-.261.133-.507.321-.69.188-.182.437-.29.699-.3l-4.16-.114c.248.042.472.17.635.361.163.191.253.434.256.684z"/>
        <path fill="#FFB881" d="M43.7 65.34l-1.223.013c-.748-.02-1.47-.425-2.043-.906-.355-.298-.786-.49-1.245-.555-.46-.064-.927.002-1.35.19-.423.19-.785.493-1.043.878-.259.384-.404.834-.419 1.297-.015.462.1.92.334 1.32.233.401.574.728.984.944.41.216.872.312 1.334.277.462-.034.906-.198 1.279-.472.608-.45 1.352-.842 2.11-.821l1.224.084c.261.02.507.133.69.322.182.188.29.436.3.698l.114-4.16c-.042.248-.17.473-.361.635-.191.163-.434.254-.685.256z"/>
    </g>
    <defs>
        <clipPath id="prefix__clip0">
            <path fill="#fff" d="M0 0H84V82.982H0z" transform="rotate(1.561 -30.407 115.9)"/>
        </clipPath>
    </defs>
</svg>
