<svg xmlns="http://www.w3.org/2000/svg" width="147" height="146" fill="none" viewBox="0 0 147 146">
    <g clip-path="url(#prefix__clip0)">
        <path fill="#EFE4D4" d="M108.02.864L9.979 9.36C4.468 9.837.387 14.69.864 20.2l8.492 97.998c.477 5.509 5.332 9.587 10.842 9.11l98.042-8.495c5.511-.478 9.592-5.33 9.114-10.839l-8.491-97.999c-.477-5.509-5.332-9.587-10.843-9.11z"/>
        <path fill="#fff" d="M57.963 4.554l.488 3.912c.208 2.402-.822 4.87-2.153 6.875-.822 1.244-1.277 2.694-1.315 4.184-.037 1.49.346 2.961 1.106 4.245.759 1.283 1.864 2.327 3.188 3.012 1.325.685 2.815.985 4.302.864 1.486-.121 2.909-.658 4.105-1.548 1.196-.891 2.118-2.1 2.66-3.489.541-1.389.681-2.902.403-4.367-.277-1.465-.961-2.822-1.974-3.916-1.66-1.789-3.192-4.028-3.403-6.46l-.181-3.944c-.038-.847.238-1.679.775-2.336C66.5.928 67.26.492 68.098.358L54.726 1.517c.81.045 1.58.375 2.171.93.592.555.97 1.301 1.066 2.107z"/>
        <path fill="#EFE4D4" d="M125.997 59.195l3.45-.43c2.119-.184 4.29.725 6.063 1.9 1.097.725 2.376 1.126 3.691 1.159 1.314.032 2.612-.305 3.744-.974 1.132-.67 2.053-1.644 2.658-2.81.604-1.168.869-2.482.762-3.792-.107-1.31-.58-2.564-1.365-3.619-.786-1.054-1.852-1.866-3.077-2.344-1.226-.477-2.561-.6-3.853-.356-1.292.245-2.489.848-3.455 1.74-1.573 1.466-3.548 2.813-5.697 3l-3.48.156c-.745.03-1.475-.214-2.052-.686-.576-.472-.959-1.14-1.076-1.875l1.021 11.783c.04-.712.329-1.388.816-1.91.487-.52 1.142-.854 1.85-.942zM66.994 124.792l.436 3.447c.184 2.119-.725 4.289-1.9 6.061-.727 1.096-1.13 2.375-1.163 3.69-.034 1.314.303 2.612.972 3.744.67 1.132 1.644 2.054 2.812 2.658 1.168.605 2.483.869 3.794.763 1.312-.107 2.567-.58 3.622-1.366 1.055-.786 1.867-1.852 2.345-3.078.477-1.225.6-2.56.354-3.852-.245-1.292-.85-2.489-1.744-3.454-1.458-1.572-2.806-3.547-2.992-5.695l-.163-3.478c-.028-.744.217-1.472.69-2.047.471-.576 1.137-.96 1.872-1.079l-11.788 1.021c.712.039 1.39.327 1.91.814.522.487.856 1.142.943 1.851z"/>
        <path fill="#110B03" d="M23.666 45.436c-.703 2.45-.922 5.12-2.277 7.255-1.171 1.822-3.062 3.054-4.376 4.736-1.315 1.682-1.89 4.44-.314 6.025.741.756 1.823 1.083 2.564 1.832 2.093 2.113.345 5.496-.184 8.36-.272 1.638-.114 3.32.46 4.878.572 1.56 1.54 2.943 2.81 4.016 1.839 1.525 4.44 2.62 4.953 4.936.405 1.831-.713 3.852.18 5.51 1.307 2.436 5.17 1.418 7.39 3.063 1.554 1.158 1.907 3.306 2.707 5.08.75 1.656 1.951 3.068 3.465 4.074 1.515 1.007 3.281 1.567 5.099 1.618 1.903.002 3.85-.588 5.675.023 2.358.798 3.93 3.428 6.349 3.851 5.072.867 5.728-5.151 8.832-8.564 3.913-4.296 12.17-4.416 13.593-10.116.335-1.336.234-2.925 1.174-3.892.94-.967 2.608-1.01 3.656-1.907 1.975-1.689.776-5.208 1.52-7.603.282-.529.595-1.04.935-1.533 7.615-13.389 7.687-28.65-1.142-37.659-7.309-7.477-18.98-8.869-30.437-4.863-.116-.084-.183-.187-.3-.271-2.76-2.02-6.013-2.34-9.264-1.884-6.044.836-7.426 6.517-12.387 7.95-1.885.54-3.948-.545-5.888-.217-2.538.307-4.09 2.845-4.793 5.302z"/>
        <path fill="#C48357" d="M97.258 60.175l-2.95-5.553.006.079-.142-1.643c-.167-1.727-.65-3.408-1.425-4.96-.948-1.965-2.102-4.13-3.719-5.522-.613-.69-1.293-1.316-2.029-1.872-.043.57-.148 1.134-.312 1.682-.98 3.402-3.205 6.31-6.23 8.15-2.819 1.762-5.756 3.918-5.994 6.277-.153-.034-.308-.057-.464-.069-.809.121-1.554.508-2.12 1.098-.565.59-.919 1.352-1.004 2.165.011.13-.042.272-.052.41-.025.288-.024.577.002.865.036.792.288 1.56.73 2.22.44.659 1.054 1.185 1.774 1.52.535 1.488.605 3.104.2 4.633-.404 1.529-1.264 2.899-2.466 3.928l-.003-.036c-.795 4.483-3.452 19.766-3.452 19.766-.084.302-.09.62-.021.925.07.306.214.59.42.825.206.236.468.418.761.528.294.11.61.146.92.104l6.09-.484c.706-.095 1.366-.405 1.89-.888.523-.483.884-1.116 1.035-1.812l2.553-13.378c.195-.865.649-1.649 1.302-2.248.262-.337.6-.608.987-.79.387-.183.812-.272 1.24-.26 8.011.25 10.85-5.21 10.328-11.662L95 62.868l1.49-.565c.2-.079.38-.2.528-.353.148-.154.263-.337.335-.539.073-.2.102-.415.085-.628-.016-.213-.078-.42-.18-.608zm-5.538-7.326l-3.071.266c-.206-.001-.403-.08-.554-.219-.151-.139-.245-.33-.262-.534-.018-.205.041-.409.166-.572.125-.163.306-.274.508-.31l3.071-.267c.206.002.403.08.554.219.151.14.244.33.262.535.018.204-.041.408-.166.571-.125.163-.306.274-.508.311zm-.667 2.36c.07.8-.3 1.478-.82 1.523-.519.045-1-.567-1.07-1.36-.068-.792.301-1.478.82-1.523l1.601-.139-.705.838c.092.21.15.433.174.66zm.377 12.732c-.535-.058-1.032-.303-1.404-.692-.371-.39-.593-.897-.626-1.434l3.798.23c.383 2.072-1.74 1.893-1.74 1.893l-.028.003z"/>
        <path fill="#fff" d="M89.436 65.812c.033.537.254 1.044.626 1.434.371.389.868.634 1.403.692 0 0 2.122.18 1.768-1.896l-3.797-.23z"/>
        <path fill="#110B03" d="M91.578 51.213l-3.072.266c-.202.037-.383.148-.508.311-.124.163-.184.367-.166.572.018.204.111.395.262.535.151.139.349.217.554.218l3.072-.266c.202-.037.383-.147.507-.31.125-.164.184-.368.167-.572-.018-.205-.112-.396-.262-.535-.151-.14-.349-.217-.554-.219zM89.982 53.842c-.519.045-.888.73-.82 1.524.07.792.55 1.404 1.07 1.36.52-.046.888-.731.82-1.524-.023-.23-.082-.455-.174-.667l.704-.838-1.6.145z"/>
        <path fill="#fff" d="M48.288 120.08c-2.648-3.401-6.791-12.481 7.24-26.766 6.153-5.53 15.347-10.5 25.963-5.605.935.447 1.814 1.002 2.62 1.654 7.916 6.183 10.692 8.288 12.327 19.945.12.841.068 1.698-.154 2.519-.222.82-.61 1.587-1.137 2.253-.529.666-1.187 1.218-1.936 1.621-.748.404-1.57.65-2.418.725l-42.505 3.654z"/>
        <path fill="#fff" d="M48.705 120.044c-.753.067-1.512-.053-2.208-.349-.696-.297-1.308-.76-1.781-1.35-.474-.59-.795-1.287-.934-2.03-.139-.744-.092-1.51.136-2.231 1.909-5.887 4.525-11.821 8.07-16.674 2.205-3.574 8.117-2.235 12.107-.032 6.913 3.823 6.615 8.685 2.667 21.131l-18.057 1.535zM7.761 71.959l3.45-.43c2.12-.183 4.29.725 6.063 1.9 1.097.725 2.376 1.126 3.69 1.159 1.316.033 2.613-.305 3.745-.974 1.132-.67 2.053-1.643 2.658-2.81.605-1.168.869-2.482.762-3.792-.106-1.31-.58-2.564-1.365-3.619-.785-1.054-1.852-1.866-3.077-2.344-1.226-.477-2.56-.6-3.853-.356-1.292.245-2.49.848-3.455 1.74-1.58 1.466-3.555 2.814-5.697 3l-3.48.163c-.744.03-1.473-.215-2.05-.687-.576-.472-.959-1.139-1.077-1.874l1.02 11.776c.04-.712.329-1.388.816-1.909.487-.521 1.142-.855 1.85-.943z"/>
    </g>
    <defs>
        <clipPath id="prefix__clip0">
            <path fill="#fff" d="M0 0H146.967V145.758H0z"/>
        </clipPath>
    </defs>
</svg>
