<svg xmlns="http://www.w3.org/2000/svg" width="50" height="50" fill="none" viewBox="0 0 50 50">
    <path fill="#FFB881" fill-rule="evenodd" d="M40.625 7.292L37.5 4.167l-3.125 3.125-3.125-3.125-3.125 3.125L25 4.167l-3.125 3.125-3.125-3.125-3.125 3.125L12.5 4.167 9.375 7.292 6.25 4.167v41.666l3.125-3.125 3.125 3.125 3.125-3.125 3.125 3.125 3.125-3.125L25 45.833l3.125-3.125 3.125 3.125 3.125-3.125 3.125 3.125 3.125-3.125 3.125 3.125V4.167l-3.125 3.125zM10.417 39.77V10.229h29.166v29.542H10.417zM37.5 35.417V31.25h-25v4.167h25zm0-12.5v4.166h-25v-4.166h25zm0-4.167v-4.167h-25v4.167h25z" clip-rule="evenodd"/>
</svg>
