<svg xmlns="http://www.w3.org/2000/svg" width="203" height="178" fill="none" viewBox="0 0 203 178">
    <path fill="#EFE4D4" d="M180.743 64.339l3.731-.14c2.286 0 4.525 1.173 6.313 2.595 1.107.878 2.439 1.426 3.843 1.583 1.404.157 2.824-.084 4.097-.695 1.274-.612 2.35-1.569 3.105-2.762.756-1.193 1.161-2.575 1.168-3.987.007-1.412-.383-2.798-1.126-4-.742-1.2-1.808-2.169-3.075-2.793-1.268-.625-2.685-.88-4.091-.739-1.405.143-2.742.677-3.859 1.543-1.819 1.422-4.058 2.68-6.375 2.68l-3.739-.155c-.8-.036-1.559-.365-2.132-.923-.574-.56-.922-1.31-.978-2.108v12.706c.109-.759.48-1.455 1.05-1.967.57-.513 1.301-.81 2.068-.838z"/>
    <path fill="#EFE4D4" fill-rule="evenodd" d="M113.156 3.782l-.133-3.538H61.196c-5.942 0-10.76 4.815-10.76 10.755v47.49c.148.253.33.486.542.693.573.56 1.332.888 2.132.924l3.74.155c2.316 0 4.555-1.259 6.374-2.68 1.117-.866 2.454-1.4 3.86-1.543 1.405-.142 2.822.114 4.09.739 1.267.624 2.332 1.592 3.075 2.793.743 1.202 1.133 2.587 1.126 4-.007 1.412-.412 2.793-1.168 3.987-.755 1.193-1.831 2.15-3.105 2.761-1.273.612-2.693.852-4.097.696-1.404-.157-2.736-.706-3.843-1.583-1.788-1.422-4.027-2.595-6.313-2.595l-3.731.14c-.767.028-1.498.325-2.068.837-.242.218-.448.469-.613.743v48.113c0 5.939 4.817 10.755 10.76 10.755h105.715c5.942 0 10.76-4.816 10.76-10.755V10.999c0-5.94-4.818-10.755-10.76-10.755h-46.151l-.144 3.538c0 2.622 1.433 5.16 3.043 7.229.983 1.265 1.589 2.781 1.75 4.375.162 1.593-.129 3.2-.837 4.636-.709 1.436-1.807 2.645-3.17 3.487-1.363.842-2.935 1.284-4.537 1.276-1.602-.009-3.17-.467-4.524-1.323-1.354-.857-2.439-2.076-3.133-3.52-.693-1.444-.967-3.053-.789-4.645.178-1.591.8-3.101 1.795-4.356 1.611-2.024 2.941-4.569 2.941-7.159z" clip-rule="evenodd"/>
    <path fill="#110B03" fill-rule="evenodd" d="M71.713 42.46c.248-.787.495-1.574.787-2.336.98-2.564 2.877-5.136 5.621-5.23.982-.08 1.963.172 2.94.422 1.122.286 2.237.571 3.342.355 2.457-.484 4.214-1.963 6.005-3.47 2.174-1.832 4.399-3.705 7.989-3.889 3.522-.186 6.973.459 9.741 2.876.058.05.103.105.148.159.044.054.089.109.147.16 12.634-3.226 24.995-.654 32.124 8.027 8.614 10.46 7.121 26.786-2.27 40.409-.41.496-.792 1.015-1.143 1.554-.387.947-.489 2.094-.591 3.24-.166 1.874-.333 3.749-1.741 4.756-.573.41-1.279.601-1.979.79-.771.209-1.536.415-2.11.912-.774.669-1.021 1.717-1.269 2.767-.103.439-.207.878-.348 1.29-1.202 3.493-4.731 4.723-8.371 5.992-2.579.899-5.214 1.817-7.116 3.574-1.169 1.081-2.093 2.473-2.985 3.819-1.885 2.842-3.632 5.476-7.262 4.527-1.376-.365-2.428-1.395-3.49-2.435-.906-.887-1.82-1.781-2.947-2.275-1.27-.551-2.647-.531-4.03-.512-.683.01-1.368.02-2.042-.039-1.94-.223-3.78-.987-5.306-2.204-1.528-1.218-2.682-2.84-3.33-4.681-.189-.537-.34-1.1-.49-1.664-.402-1.508-.804-3.018-1.936-4.025-.958-.847-2.288-1.193-3.586-1.531-1.715-.447-3.373-.88-4.041-2.432-.454-1.053-.206-2.17.046-3.305.192-.867.387-1.744.273-2.609-.246-1.858-1.764-3.115-3.276-4.367-.543-.45-1.085-.9-1.568-1.375-1.258-1.266-2.166-2.837-2.635-4.558-.41-1.508-.472-3.087-.183-4.617.659.276 1.357.458 2.074.538 1.404.157 2.824-.084 4.098-.695 1.273-.612 2.35-1.568 3.105-2.762.755-1.193 1.16-2.575 1.167-3.987.008-1.412-.382-2.798-1.125-3.999s-1.809-2.17-3.076-2.794c-1.267-.624-2.684-.88-4.09-.738-1.406.142-2.743.676-3.86 1.542-.095.074-.191.148-.289.221-.723-1.79.105-4.095 1.432-5.52.687-.738 1.484-1.372 2.284-2.007 1.02-.811 2.042-1.624 2.84-2.656 1.156-1.517 1.739-3.366 2.322-5.218z" clip-rule="evenodd"/>
    <path fill="#EFE4D4" d="M111.512 129.071l.148 3.73c0 2.285-1.174 4.523-2.597 6.31-.879 1.107-1.429 2.438-1.587 3.842-.158 1.404.083 2.824.694 4.097.611 1.274 1.569 2.35 2.763 3.106 1.194.756 2.577 1.16 3.99 1.168 1.413.007 2.8-.383 4.002-1.126 1.202-.743 2.171-1.809 2.795-3.077.625-1.267.88-2.684.737-4.09-.143-1.405-.679-2.742-1.546-3.857-1.415-1.819-2.674-4.057-2.674-6.373l.147-3.738c.04-.798.37-1.555.928-2.127.559-.572 1.307-.921 2.104-.981h-12.711c.76.107 1.457.478 1.97 1.048.514.57.81 1.302.837 2.068z"/>
    <path fill="#C48357" d="M149.894 62.722l-2.643-6.216v.085-1.772c-.018-1.863-.379-3.707-1.066-5.44-.831-2.19-1.865-4.615-3.467-6.255-.593-.794-1.262-1.528-1.998-2.191-.1.606-.264 1.2-.49 1.771-1.365 3.55-4.015 6.456-7.424 8.144-3.18 1.624-6.523 3.66-6.997 6.163-.16-.05-.324-.09-.49-.117-.877.055-1.71.399-2.37.978-.66.58-1.109 1.362-1.276 2.224 0 .14-.07.287-.093.435-.054.305-.08.615-.078.925-.036.851.163 1.697.574 2.443.411.747 1.019 1.367 1.758 1.792.435 1.642.36 3.378-.214 4.977-.575 1.599-1.623 2.985-3.004 3.975v-.039c-1.268 4.725-5.528 20.834-5.528 20.834-.117.316-.154.656-.108.989.046.333.174.65.373.922s.462.49.765.635c.304.146.639.213.976.197l6.561.047c.765-.036 1.5-.307 2.105-.775.605-.47 1.051-1.113 1.277-1.844l3.973-14.08c.288-.908.847-1.705 1.601-2.285.313-.337.7-.596 1.131-.755.431-.16.893-.215 1.35-.162 8.551 1.01 12.096-4.57 12.135-11.525v-1.406l1.648-.467c.22-.066.424-.178.597-.329.174-.15.313-.337.409-.545.096-.209.147-.435.15-.665.002-.23-.045-.457-.137-.668zm-5.248-8.353h-3.312c-.219-.021-.424-.123-.572-.286-.149-.163-.231-.376-.231-.596 0-.221.082-.434.231-.597.148-.163.353-.265.572-.285h3.312c.22.02.424.122.573.285.148.163.231.376.231.597 0 .22-.083.433-.231.596-.149.163-.353.265-.573.286zm-.933 2.463c0 .863-.458 1.554-1.018 1.554s-1.019-.7-1.019-1.554c0-.855.459-1.554 1.019-1.554h1.726l-.832.831c.078.233.12.477.124.723zm-.777 13.661c-.567-.111-1.076-.42-1.438-.87-.361-.451-.551-1.016-.537-1.593l4.043.598c.217 2.254-2.037 1.865-2.037 1.865h-.031z"/>
    <path fill="#fff" d="M141 68.03c-.015.577.175 1.141.537 1.592.361.451.87.76 1.437.871 0 0 2.255.389 2.069-1.865L141 68.03z"/>
    <path fill="#110B03" d="M144.645 52.605h-3.311c-.22.02-.424.122-.573.285-.148.163-.231.376-.231.596 0 .221.083.434.231.597.149.163.353.265.573.285h3.311c.22-.02.424-.122.573-.285.149-.163.231-.376.231-.596 0-.221-.082-.434-.231-.597-.149-.163-.353-.265-.573-.285zM142.694 55.27c-.56 0-1.018.7-1.018 1.554 0 .855.458 1.554 1.018 1.554s1.019-.699 1.019-1.554c-.004-.248-.046-.495-.125-.73l.832-.832-1.726.008z"/>
    <path fill="#fff" d="M91.929 122.295c-2.52-3.886-6.111-13.988 10.231-27.976 7.098-5.346 17.399-9.815 28.306-3.59.959.565 1.849 1.24 2.651 2.013 7.899 7.351 10.674 9.861 11.343 22.489.051.912-.085 1.824-.399 2.681-.313.858-.799 1.643-1.426 2.307-.627.663-1.383 1.193-2.221 1.555-.839.362-1.742.55-2.656.552l-45.83-.031z"/>
    <path fill="#fff" d="M92.38 122.295c-.813.001-1.614-.197-2.331-.579-.718-.382-1.33-.935-1.782-1.61-.452-.675-.73-1.451-.81-2.26-.08-.808.04-1.624.35-2.374 2.59-6.124 5.94-12.232 10.185-17.096 2.69-3.622 8.894-1.64 12.96 1.088 7.044 4.732 6.274 9.908.894 22.862l-19.467-.031z"/>
    <path fill="#FFC3BD" d="M50.235 74.208c-.034.003-.068.003-.102 0-4.342-.833-8.61-2.01-12.765-3.52l-.132 5.773c3.506.933 7.479 1.555 10.744 2.168.743.158 1.511.158 2.255 0v-4.421z"/>
    <path fill="#FFC3BD" d="M50.242 72.98c-.295.474-.583.948-.645 1.018l.52-1.982c.037-.083.056-.174.055-.265-.002-.091-.023-.181-.062-.264-.039-.082-.095-.155-.165-.214-.07-.06-.151-.102-.24-.127-.184-.071-.39-.069-.573.006-.184.075-.332.218-.414.398l-2.029 4.818c-.06.151-.069.318-.024.474.045.157.141.293.273.389.073.127.16.247.256.357.396.407.888.707 1.431.87.334.117.777.288 1.182.39.143.032.288.053.435.061V72.98z"/>
    <path fill="#A08052" d="M4.07 34.74c2.62-2.44 6.414-3.808 7.984-7.119.995-2.09 1.003-4.779 1.757-6.994 1.229-3.66 4.533-6.007 8.785-6.216 1.508-.086 2.721.388 4.3.823 2.332.645 2.332.443 4.252 0 2.496-.63 4.097 1.034 6.344 3.886 4.26 5.37 7.486 13.544 4.556 17.554-2.154 2.946-7.456 3.614-7.052 7.958.288 3.108 4.54 8.152-1.205 10.219-1.687.598-3.677.676-5.488 1.08-.582.076-1.126.331-1.555.73-.925 1.073-.078 3.163-.055 4.81 0 2.573-2.091 4.065-4.664 4.228-3.958.256-11.903-2.774-15.106-5.3C-.346 54.54-2.826 41.15 4.07 34.74z"/>
    <path fill="#FFC3BD" d="M28.917 166.271c1.516-8.471 3.584-16.778 5.722-25.147.116-.459.233-.902.342-1.345l9.399.086c-1.85 6.31-9.78 25.815-12.439 37.021-.303 1.274-3.615 1.297-4.33-.614-.405-1.096.28-4.189.497-5.712.218-1.523.56-2.867.809-4.289zM19.129 176.334c.52-1.445 3.11-12.923 6.313-36.64l-9.112-.078c0 9.691-.637 19.132-1.68 29.833-.217 2.261-.668 5.339-.543 6.885h5.022z"/>
    <path fill="#fff" d="M27.595 104.227c4.51-.205 8.927-1.359 12.96-3.388.36-.166.664-.431.877-.764.214-.334.328-.72.328-1.117 2.146 7.538 4.735 19.987 4.844 27.712.008 3.374-.441 6.733-1.337 9.986-.187.777-.397 1.554-.622 2.331-.086.303-.18.606-.265.917l-9.399-.14c0-.078 0-.156.062-.241h-9.585v.155l-9.112-.077c.062-14.338-.956-29.017-2.636-39.065v-.381h.11c.016.061.037.121.062.179 1.95 2.036 4.563 4.157 13.713 3.893z"/>
    <path fill="#A2C7CC" d="M17.823 71.38c-.121-4.024-.597-8.028-1.423-11.968 0 0-6.406-7.678-.777-11.983 6.896-5.284 15.253-6.722 22.11.925l.84 1.329c1.36.777-.226 22.365.365 26.709 1.057 7.662 2.76 14.967 2.853 22.59 0 .395-.114.783-.328 1.116-.213.333-.517.598-.877.764-4.033 2.029-8.45 3.183-12.96 3.389-9.15.264-11.739-1.858-13.768-3.886-.024-.058-.045-.118-.062-.179-.319-1.11-.778-4.88-.778-4.88-.684-9.714 5.256-14.5 4.805-23.927z"/>
    <path fill="#FFC3BD" d="M25.24 47.421c.635.39 1.332.668 2.06.824.786.21 1.623.104 2.332-.295.387-.27.695-.637.894-1.064.2-.427.283-.9.241-1.369-.007-.208-.06-.413-.153-.6-.094-.186-.227-.35-.39-.48-.211-.1-.446-.139-.677-.109-1.625.047-3.67-1.01-5.271-.676-.436.094-.778 1.422-.537 2.2.317.672.844 1.222 1.5 1.57z"/>
    <path fill="#FFC3BD" d="M35.432 21.248c-.606.083-1.216.133-1.827.148-1.47.06-2.905.455-4.197 1.155-1.293.701-2.407 1.688-3.259 2.886-.777 1.135-1.15 2.479-1.928 3.598-.44.609-.986 1.135-1.61 1.554.14.194.318.355.524.473.207.118.437.19.674.211l-.062 12.9c-.026.321.073.64.278.89.204.25.498.41.818.447h4.4c.322-.034.617-.192.823-.44.207-.248.307-.568.281-.89l.04-8.268c1.611-.067 3.136-.749 4.261-1.905 1.125-1.156 1.764-2.699 1.787-4.311v-5.067c.005-1.2-.344-2.377-1.003-3.38zm-5.217 5.145c.036.105.054.215.055.326 0 .389-.203.7-.46.7-.256 0-.458-.311-.458-.7 0-.388.21-.707.459-.707h.777l-.373.38zm.288-.73h-1.555c-.054 0-.107-.011-.157-.032-.05-.02-.094-.051-.132-.09-.037-.038-.067-.084-.087-.133-.02-.05-.03-.104-.028-.157 0-.108.042-.21.118-.286.076-.076.179-.119.286-.119h1.555c.107 0 .21.043.286.119.075.076.118.178.118.286.001.053-.009.107-.028.157-.02.05-.05.095-.088.133-.037.039-.082.07-.132.09-.05.02-.102.032-.156.031zm1.718 7.125c-.956-.155-1.19-.699-1.236-1.142l2.519.28c.116 1.049-1.283.863-1.283.863zm1.353-2.673l-.684.218c-.397.132-.778-.272-.685-.738v-.078c.052.102.138.183.243.228.105.046.223.053.333.02l.684-.225c.139-.053.26-.145.348-.265.088-.12.14-.262.15-.41l.054.139c.084.206.085.438.002.645-.082.207-.242.374-.445.466zm2.215-3.396c0 .389-.21.7-.458.7-.25 0-.459-.311-.459-.7 0-.388.202-.707.459-.707h.777l-.38.38c.041.105.063.216.061.327zm.327-1.057h-1.19c-.096-.013-.183-.064-.243-.14-.06-.078-.086-.175-.075-.271-.011-.096.016-.192.076-.268.06-.076.147-.125.242-.137h1.19c.096.012.183.061.242.137.06.076.088.172.077.268.01.096-.016.193-.076.27-.06.077-.147.128-.243.141z"/>
    <path fill="#fff" d="M32.221 32.789s1.4.186 1.283-.863l-2.52-.28c.047.443.28.987 1.237 1.143z"/>
    <path fill="#512F0A" d="M30.503 24.847h-1.555c-.107 0-.21.042-.286.118-.076.076-.118.179-.118.286-.002.053.008.107.028.157s.05.095.087.134c.038.038.083.068.132.09.05.02.103.03.157.03h1.555c.053 0 .107-.01.156-.03.05-.022.095-.052.132-.09.038-.039.068-.084.087-.134.02-.05.03-.104.029-.157 0-.107-.043-.21-.119-.286-.075-.076-.178-.118-.285-.118zM36.116 24.847h-1.19c-.095.011-.182.06-.242.136-.06.076-.087.172-.076.268-.011.096.016.194.075.27.06.078.147.128.244.142h1.19c.096-.014.183-.064.242-.142.06-.076.087-.174.076-.27.01-.096-.017-.192-.076-.268-.06-.076-.147-.125-.243-.136z"/>
    <path fill="#DDA7A6" d="M33.978 28.864c-.01.149-.061.291-.15.411-.088.12-.208.212-.347.265l-.684.226c-.11.032-.228.025-.333-.02-.105-.046-.191-.127-.243-.229v.078c-.085.466.288.87.685.738l.684-.218c.206-.089.369-.255.454-.462.086-.208.088-.44.004-.649l-.07-.14z"/>
    <path fill="#000" d="M29.352 26.72c0 .388.21.699.46.699.248 0 .458-.311.458-.7 0-.11-.019-.22-.055-.326l.381-.38h-.777c-.257 0-.466.294-.466.706zM35.33 26.012c-.256 0-.458.319-.458.707 0 .389.202.7.459.7.256 0 .458-.311.458-.7.002-.111-.02-.223-.062-.326l.381-.38h-.777z"/>
    <path fill="#FFC3BD" d="M17.193 71.247l7.145-3.015c.645 2.805 1.384 4.997 3.786 7.196C34.281 81.054 39.18 86.02 46.386 89.99c4.665 2.572 1.096 6.597-3.537 4.04-8.194-4.514-13.528-7.926-20.392-14.508-2.441-2.257-4.255-5.109-5.264-8.276z"/>
    <path fill="#FFC3BD" d="M43.704 92.454c1.134-1.023 2.527-1.716 4.027-2.005.381-.184.812-.237 1.226-.152.414.085.788.304 1.066.623.277.32.442.72.47 1.142.026.422-.086.84-.32 1.192-.281.85-.657 1.667-1.12 2.433-.163.305-.391.57-.669.777-.38.273-.852.385-1.314.31-1.337-.287-2.868-1.771-3.708-2.33-1.64-1.034-1.057-.724.342-1.99z"/>
    <path fill="#FFC3BD" d="M48.897 91.584l4.237 2.797c.07.045.146.076.227.09.081.014.164.012.244-.007.08-.019.156-.054.222-.103.066-.049.121-.11.163-.181.089-.142.119-.313.084-.477-.035-.164-.132-.308-.271-.402l-4.237-2.797c-.069-.045-.146-.076-.227-.09-.081-.014-.164-.011-.244.007-.08.02-.155.054-.221.103-.067.05-.122.11-.163.182-.087.142-.117.313-.082.476.035.163.13.307.268.402zM48.423 93.356l4.237 2.79c.069.043.145.073.226.088.08.014.163.012.242-.006.08-.018.155-.052.222-.1.066-.047.122-.108.165-.177.087-.144.115-.317.08-.481-.037-.165-.135-.31-.274-.405l-4.237-2.79c-.069-.044-.146-.074-.226-.088-.08-.014-.163-.012-.243.006-.08.018-.154.052-.22.1-.067.047-.124.107-.166.177-.087.144-.115.317-.08.481.037.165.134.31.274.405zM46.83 94.591l4.236 2.79c.07.044.146.074.226.088.08.015.163.013.243-.005.08-.019.155-.052.221-.1.066-.047.123-.108.166-.177.09-.143.12-.316.085-.48-.035-.166-.132-.311-.272-.406l-4.237-2.79c-.069-.044-.145-.074-.226-.088-.08-.014-.163-.012-.242.006-.08.018-.155.052-.222.1-.066.047-.122.107-.165.176-.09.144-.12.316-.086.481.035.165.133.31.272.405zM44.995 95.143l4.237 2.797c.068.045.145.075.226.089.08.014.162.012.242-.006.08-.018.155-.052.221-.1.067-.047.123-.107.166-.177.087-.144.115-.317.079-.481-.036-.165-.134-.31-.274-.405l-4.237-2.79c-.068-.045-.145-.076-.225-.09-.081-.015-.164-.013-.244.005-.08.018-.155.052-.221.1-.067.048-.123.11-.165.18-.086.143-.114.314-.078.478.036.163.134.306.273.4z"/>
    <path fill="#FFC3BD" d="M43.774 91.079l.085.373c.014.07.042.139.083.2.04.06.093.111.153.151.061.04.13.067.201.08.072.013.145.012.216-.004l6.57-1.554c.143-.039.267-.132.344-.26.077-.127.1-.279.068-.424l-.078-.365c-.015-.072-.044-.14-.085-.2-.041-.061-.094-.113-.156-.152-.061-.04-.13-.067-.202-.08-.072-.013-.146-.012-.218.004l-6.562 1.554c-.143.037-.267.128-.345.254-.078.126-.105.277-.074.422z"/>
    <path fill="#212353" d="M37.407 175.036l-8.739-2.976c-.435-.14-.956 0-1.05.319l-1.422 4.818c-.086.279.249.536.7.544l9.399.101c2.464 0 3.296-2.067 1.112-2.806zM24.026 175.036l-8.738-2.976c-.435-.14-.956 0-1.05.319l-1.422 4.818c-.086.279.256.536.707.544l9.392.101c2.464 0 3.296-2.067 1.111-2.806z"/>
</svg>
