<svg xmlns="http://www.w3.org/2000/svg" width="703" height="444" fill="none" viewBox="0 0 703 444">
    <g clip-path="url(#clip0)">
        <path fill="#EFE4D4" d="M226.236 203.232H82.749c-8.066 0-14.605 6.535-14.605 14.597V361.24c0 8.061 6.539 14.596 14.605 14.596h143.487c8.065 0 14.604-6.535 14.604-14.596V217.829c0-8.062-6.539-14.597-14.604-14.597z"/>
        <path fill="#E3F1F3" d="M153.059 202.292l.216 5.743c0 3.515-1.806 6.969-3.992 9.715-1.351 1.704-2.195 3.752-2.437 5.912-.241 2.161.13 4.345 1.071 6.304.941 1.96 2.415 3.615 4.253 4.777 1.837 1.162 3.965 1.785 6.14 1.796 2.174.011 4.308-.589 6.158-1.732 1.85-1.143 3.34-2.783 4.302-4.732.962-1.95 1.356-4.13 1.137-6.292-.219-2.163-1.042-4.22-2.375-5.938-2.186-2.806-4.13-6.252-4.13-9.81l.233-5.752c.052-1.235.557-2.409 1.419-3.296s2.021-1.426 3.255-1.514h-19.57c1.171.168 2.247.743 3.037 1.624.79.881 1.244 2.012 1.283 3.195z"/>
        <path fill="#EFE4D4" d="M245.008 290.22l5.065-.19c3.102 0 6.141 1.592 8.568 3.522 1.503 1.191 3.31 1.935 5.216 2.148 1.906.213 3.833-.114 5.562-.944 1.728-.829 3.189-2.128 4.214-3.747 1.025-1.62 1.575-3.495 1.585-5.412.01-1.916-.52-3.797-1.528-5.427-1.008-1.63-2.455-2.944-4.175-3.792-1.72-.848-3.644-1.195-5.551-1.002-1.908.193-3.723.918-5.239 2.093-2.469 1.93-5.508 3.639-8.652 3.639l-5.076-.211c-1.086-.049-2.115-.496-2.894-1.254-.778-.758-1.25-1.776-1.327-2.86v17.244c.148-1.029.652-1.974 1.426-2.67.773-.696 1.766-1.098 2.806-1.137zM151.04 378.072l.201 5.063c0 3.1-1.594 6.138-3.525 8.563-1.192 1.502-1.939 3.309-2.153 5.214-.214 1.905.112 3.832.942 5.561.829 1.729 2.129 3.189 3.749 4.215 1.621 1.026 3.498 1.575 5.416 1.585 1.919.01 3.801-.52 5.433-1.528 1.631-1.009 2.946-2.456 3.793-4.175.848-1.72 1.195-3.644 1-5.551-.194-1.908-.921-3.722-2.098-5.236-1.921-2.468-3.63-5.505-3.63-8.648l.2-5.073c.054-1.084.502-2.111 1.26-2.887.757-.777 1.773-1.251 2.856-1.332h-17.253c1.031.146 1.978.649 2.674 1.423.697.773 1.099 1.767 1.135 2.806z"/>
        <path fill="#110B03" d="M98.091 257.357c-1.33 3.47-1.983 7.319-4.22 10.251-1.931 2.5-4.833 4.05-6.954 6.328-2.121 2.278-3.303 6.212-1.214 8.712.982 1.191 2.512 1.803 3.493 2.984 2.775 3.333-.19 8.026-1.319 12.118-.602 2.346-.584 4.808.053 7.145.636 2.337 1.869 4.468 3.577 6.186 2.48 2.447 6.12 4.366 6.574 7.794.359 2.71-1.52 5.505-.433 8.026 1.594 3.702 7.334 2.71 10.352 5.379 2.11 1.877 2.353 5.041 3.292 7.72.881 2.499 2.447 4.701 4.52 6.353 2.073 1.652 4.569 2.688 7.203 2.991 2.765.242 5.667-.369 8.242.749 3.323 1.455 5.276 5.473 8.737 6.391 7.259 1.898 8.969-6.761 13.907-11.327 6.226-5.748 18.234-4.883 21.02-12.983.654-1.898.707-4.219 2.195-5.505 1.488-1.287 3.915-1.139 5.55-2.31 3.081-2.204 1.783-7.467 3.166-10.852.476-.732.994-1.436 1.551-2.11 12.747-18.488 14.773-40.646 3.081-54.841-9.676-11.781-26.454-15.272-43.601-10.895-.158-.137-.243-.295-.401-.432-3.757-3.28-8.442-4.156-13.222-3.902-8.885.453-11.607 8.532-18.993 9.987-2.807.548-5.667-1.287-8.527-1.055-3.724.127-6.3 3.618-7.629 7.098z"/>
        <path fill="#C48357" d="M203.138 288.026l-3.588-8.437v.116-2.405c-.024-2.529-.514-5.031-1.446-7.382-1.129-2.974-2.532-6.265-4.706-8.49-.804-1.078-1.713-2.074-2.712-2.974-.135.823-.358 1.629-.665 2.404-1.853 4.817-5.45 8.762-10.077 11.053-4.316 2.204-8.853 4.967-9.497 8.363-.217-.069-.439-.121-.665-.158-1.189.074-2.321.541-3.217 1.327-.896.787-1.505 1.848-1.731 3.018 0 .19-.095.39-.127.591-.073.414-.109.834-.106 1.255-.048 1.156.222 2.303.78 3.316s1.383 1.854 2.386 2.432c.59 2.229.489 4.584-.291 6.754-.781 2.17-2.203 4.052-4.078 5.395v-.052c-1.72 6.412-7.502 28.275-7.502 28.275-.159.428-.21.889-.147 1.342.063.452.237.882.506 1.251.27.369.627.665 1.039.862.413.197.868.289 1.324.268l8.906.063c1.038-.049 2.036-.417 2.857-1.053.821-.636 1.427-1.509 1.733-2.501l5.393-19.11c.391-1.232 1.149-2.314 2.173-3.101.424-.457.95-.808 1.534-1.025.585-.216 1.213-.291 1.832-.22 11.608 1.371 16.419-6.201 16.472-15.64v-1.909l2.237-.633c.299-.09.575-.242.81-.447.235-.204.425-.457.555-.74.131-.283.2-.59.203-.902.003-.312-.06-.621-.185-.906zm-7.123-11.338h-4.495c-.299-.028-.576-.166-.777-.387-.202-.221-.314-.51-.314-.81 0-.299.112-.588.314-.809.201-.221.478-.36.777-.388h4.495c.298.028.575.167.777.388.202.221.313.51.313.809 0 .3-.111.589-.313.81-.202.221-.479.359-.777.387zm-1.266 3.344c0 1.17-.623 2.109-1.383 2.109-.759 0-1.382-.949-1.382-2.109 0-1.16.623-2.11 1.382-2.11h2.343l-1.129 1.129c.106.316.163.647.169.981zm-1.056 18.54c-.769-.151-1.46-.57-1.951-1.182-.49-.611-.749-1.377-.729-2.161l5.487.812c.296 3.059-2.764 2.531-2.764 2.531h-.043z"/>
        <path fill="#fff" d="M191.066 295.229c-.019.784.239 1.55.729 2.161.491.612 1.182 1.031 1.951 1.182 0 0 3.06.528 2.807-2.531l-5.487-.812z"/>
        <path fill="#110B03" d="M196.014 274.295h-4.494c-.298.028-.575.166-.777.387-.202.222-.313.51-.313.81 0 .299.111.588.313.809.202.221.479.36.777.388h4.494c.299-.028.576-.167.777-.388.202-.221.314-.51.314-.809 0-.3-.112-.588-.314-.81-.201-.221-.478-.359-.777-.387zM167.756 292.066c-1.003-.577-1.828-1.419-2.386-2.432s-.828-2.16-.78-3.316c-.002-.421.033-.841.106-1.255 0-.2.084-.401.127-.591.226-1.169.835-2.231 1.731-3.017.896-.787 2.028-1.254 3.218-1.328.225.037.447.09.664.158.612-3.395 5.15-6.159 9.497-8.363 4.627-2.291 8.224-6.236 10.077-11.053.307-.775.53-1.581.665-2.404.054-.289.079-.582.074-.876-.063-2.668-11.417-6.053-14.087-6.211-13.127-.823-39.043 7.804-20.935 43.694 1.396 2.836 3.417 5.32 5.909 7.266 0 0 1.446 1.561 1.709 1.825v.052c1.883-1.338 3.313-3.217 4.101-5.387.788-2.17.896-4.529.31-6.762zM193.366 277.912c-.759 0-1.382.949-1.382 2.109 0 1.16.623 2.109 1.382 2.109.76 0 1.383-.949 1.383-2.109-.005-.337-.062-.671-.169-.991l1.129-1.128-2.343.01z"/>
        <path fill="#fff" d="M124.46 368.876c-3.419-5.274-8.294-18.984 13.887-37.968 9.634-7.256 23.615-13.32 38.42-4.872 1.302.767 2.509 1.684 3.598 2.731 10.721 9.977 14.488 13.384 15.396 30.522.068 1.237-.116 2.475-.541 3.639-.426 1.164-1.085 2.229-1.936 3.13-.851.901-1.877 1.619-3.015 2.111-1.138.492-2.364.746-3.604.749l-62.205-.042z"/>
        <path fill="#fff" d="M125.073 368.876c-1.103.002-2.19-.268-3.163-.786-.974-.518-1.805-1.269-2.418-2.185-.614-.916-.992-1.969-1.101-3.066-.109-1.097.055-2.204.477-3.223 3.514-8.311 8.062-16.6 13.824-23.202 3.651-4.915 12.071-2.226 17.59 1.476 9.56 6.423 8.515 13.447 1.213 31.028l-26.422-.042z"/>
        <path fill="#FFC3BD" d="M67.87 303.614c-.046.005-.092.005-.138 0-5.893-1.13-11.687-2.727-17.326-4.778l-.18 7.836c4.76 1.266 10.152 2.11 14.584 2.943 1.008.213 2.05.213 3.06 0v-6.001z"/>
        <path fill="#FFC3BD" d="M67.882 301.948c-.401.643-.792 1.286-.876 1.381l.707-2.689c.05-.114.075-.236.073-.36-.002-.124-.03-.246-.083-.358-.053-.112-.13-.212-.224-.292-.095-.079-.206-.138-.325-.171-.251-.097-.53-.094-.78.008-.248.102-.45.295-.56.54l-2.755 6.539c-.082.205-.093.431-.032.643.061.212.191.398.37.528.1.172.217.335.348.485.537.552 1.205.958 1.942 1.181.454.158 1.055.39 1.604.527.194.045.392.074.59.085v-8.047z"/>
        <path fill="#A08052" d="M5.212 250.048c3.556-3.311 8.706-5.168 10.837-9.66 1.351-2.837 1.362-6.487 2.385-9.492 1.667-4.968 6.152-8.153 11.924-8.437 2.047-.117 3.693.527 5.835 1.117 3.166.876 3.166.602 5.772 0 3.387-.854 5.561 1.403 8.61 5.274 5.783 7.287 10.162 18.382 6.184 23.824-2.923 3.997-10.12 4.904-9.57 10.8.39 4.218 6.162 11.063-1.636 13.868-2.29.813-4.991.918-7.45 1.466-.79.104-1.527.45-2.11.992-1.256 1.455-.106 4.292-.074 6.528 0 3.491-2.839 5.516-6.331 5.737-5.371.348-16.155-3.765-20.503-7.192-9.866-7.952-13.232-26.124-3.873-34.825z"/>
        <path fill="#FFC3BD" d="M38.936 428.558c2.058-11.495 4.864-22.769 7.766-34.128.159-.622.317-1.223.465-1.825l12.757.116c-2.511 8.564-13.274 35.036-16.883 50.244-.412 1.73-4.907 1.761-5.878-.833-.548-1.487.38-5.685.676-7.752.295-2.067.76-3.892 1.097-5.822zM25.651 442.216c.707-1.962 4.221-17.539 8.568-49.727l-12.367-.105c0 13.151-.865 25.965-2.279 40.488-.295 3.069-.907 7.245-.738 9.344h6.816z"/>
        <path fill="#fff" d="M37.142 344.355c6.122-.279 12.116-1.846 17.59-4.599.488-.225.901-.585 1.19-1.037.29-.452.445-.978.446-1.515 2.912 10.23 6.426 27.126 6.574 37.609.011 4.579-.6 9.138-1.815 13.552-.254 1.055-.538 2.109-.844 3.164-.117.411-.243.823-.36 1.245l-12.757-.19c0-.106 0-.211.085-.327H34.24v.211l-12.368-.106c.084-19.458-1.298-39.38-3.577-53.017v-.517h.148c.023.083.051.164.084.243 2.649 2.763 6.194 5.642 18.614 5.284z"/>
        <path fill="#A2C7CC" d="M23.879 299.775c-.164-5.46-.81-10.895-1.931-16.241 0 0-8.695-10.42-1.055-16.263 9.36-7.172 20.703-9.123 30.01 1.255l1.14 1.804c1.846 1.054-.307 30.352.495 36.248 1.435 10.399 3.746 20.312 3.873 30.658 0 .537-.155 1.063-.445 1.515-.29.452-.703.812-1.19 1.038-5.475 2.753-11.469 4.32-17.59 4.598-12.42.358-15.934-2.521-18.689-5.273-.033-.079-.06-.16-.084-.243-.433-1.508-1.055-6.623-1.055-6.623-.929-13.183 7.133-19.68 6.52-32.473z"/>
        <path fill="#FFC3BD" d="M33.944 267.261c.863.528 1.808.906 2.797 1.117 1.067.286 2.203.142 3.166-.4.524-.367.942-.865 1.213-1.444.27-.58.383-1.22.327-1.857-.01-.284-.08-.561-.208-.814-.128-.253-.309-.476-.53-.652-.286-.137-.605-.189-.919-.148-2.205.063-4.98-1.371-7.154-.918-.59.127-1.055 1.93-.728 2.985.43.912 1.145 1.66 2.036 2.131z"/>
        <path fill="#FFC3BD" d="M47.78 231.739c-.823.113-1.65.18-2.48.201-1.994.081-3.943.617-5.697 1.568-1.754.95-3.267 2.29-4.423 3.916-1.055 1.54-1.562 3.364-2.617 4.883-.598.826-1.338 1.54-2.184 2.109.188.263.43.482.71.642.281.16.593.258.915.286l-.084 17.507c-.036.437.099.87.377 1.208.277.338.675.556 1.11.606h5.973c.436-.045.837-.259 1.117-.596.28-.337.417-.77.381-1.207l.053-11.222c2.188-.091 4.258-1.016 5.785-2.585 1.526-1.569 2.394-3.663 2.425-5.852v-6.876c.007-1.63-.467-3.225-1.362-4.588zm-7.081 6.982c.048.143.073.292.074.443 0 .527-.275.949-.623.949s-.622-.422-.622-.949c0-.527.285-.96.622-.96h1.055l-.506.517zm.39-.991h-2.11c-.073 0-.145-.015-.213-.043-.067-.028-.128-.07-.179-.122-.051-.052-.091-.113-.118-.181-.027-.068-.04-.14-.039-.213 0-.146.058-.285.16-.388.104-.103.243-.161.389-.161h2.11c.146 0 .285.058.388.161.103.103.161.242.161.388.001.073-.012.145-.039.213s-.067.129-.118.181c-.051.052-.112.094-.18.122-.067.028-.139.043-.212.043zm2.332 9.671c-1.298-.211-1.614-.949-1.678-1.551l3.42.38c.158 1.424-1.742 1.171-1.742 1.171zm1.836-3.628l-.928.295c-.538.179-1.055-.369-.929-1.002v-.105c.07.138.187.248.33.31.142.061.302.071.451.027l.929-.306c.188-.072.352-.197.472-.359.12-.163.19-.357.203-.558l.074.19c.114.28.115.594.003.875s-.329.508-.605.633zm3.008-4.609c0 .527-.285.949-.623.949s-.623-.422-.623-.949c0-.527.275-.96.623-.96h1.055l-.517.517c.058.141.086.291.085.443zm.443-1.434h-1.615c-.13-.019-.249-.087-.33-.192-.08-.104-.117-.236-.102-.367-.015-.13.022-.261.103-.364.081-.102.2-.169.33-.185h1.614c.13.016.248.083.33.185.08.103.117.234.103.364.015.131-.022.263-.103.367-.08.105-.2.173-.33.192z"/>
        <path fill="#fff" d="M43.42 247.401s1.9.253 1.741-1.171l-3.418-.379c.063.601.38 1.339 1.678 1.55z"/>
        <path fill="#512F0A" d="M41.09 236.623h-2.11c-.146 0-.286.057-.388.16-.103.103-.161.242-.161.388-.002.073.012.145.038.213.027.068.068.129.119.181.05.053.112.094.179.122.067.028.14.043.212.043h2.11c.074 0 .146-.015.213-.043.067-.028.128-.069.18-.122.05-.052.09-.113.117-.181.027-.068.04-.14.04-.213 0-.146-.059-.285-.162-.388-.102-.103-.242-.16-.387-.16zM48.707 236.623h-1.614c-.13.015-.248.082-.33.185-.08.102-.117.233-.102.363-.016.131.021.263.102.367.08.105.2.173.33.192h1.614c.131-.019.25-.087.33-.192.081-.104.118-.236.103-.367.015-.13-.022-.261-.103-.363-.081-.103-.2-.17-.33-.185z"/>
        <path fill="#DDA7A6" d="M45.804 242.075c-.012.202-.083.395-.203.558-.12.163-.283.287-.472.36l-.928.305c-.15.044-.309.035-.452-.027-.142-.062-.259-.171-.329-.31v.105c-.116.633.39 1.181.928 1.002l.929-.295c.28-.121.501-.346.617-.628.117-.281.118-.597.005-.88l-.095-.19z"/>
        <path fill="#000" d="M39.527 239.164c0 .527.285.949.623.949.337 0 .622-.422.622-.949 0-.15-.025-.3-.074-.443l.517-.516H40.16c-.348 0-.633.4-.633.959zM47.641 238.205c-.348 0-.622.432-.622.959 0 .527.274.949.622.949s.623-.422.623-.949c.001-.152-.027-.302-.085-.443l.517-.516h-1.055z"/>
        <path fill="#A2C7CC" d="M21.8 295.071c-1.625-7.214-3.218-14.005-4.22-21.314-1.003-7.309 9.75-7.541 10.794-.211.897 6.328 2.29 12.656 3.694 18.868.253 1.054.464 2.109.696 3.09l-9.697 4.092c-.507-1.414-.908-2.911-1.267-4.525z"/>
        <path fill="#FFC3BD" d="M23.023 299.595l9.698-4.092c.876 3.808 1.878 6.782 5.139 9.766 8.357 7.636 15.005 14.375 24.786 19.765 6.332 3.49 1.488 8.954-4.8 5.484-11.123-6.128-18.361-10.758-27.679-19.691-3.313-3.063-5.774-6.933-7.144-11.232z"/>
        <path fill="#FFC3BD" d="M59.007 328.377c1.54-1.389 3.43-2.33 5.466-2.721.517-.249 1.101-.321 1.663-.206.562.116 1.07.413 1.447.845.377.433.6.978.637 1.55.037.572-.115 1.141-.434 1.618-.38 1.154-.89 2.262-1.52 3.301-.22.415-.53.775-.907 1.055-.515.371-1.156.523-1.783.422-1.815-.391-3.894-2.405-5.034-3.164-2.226-1.403-1.435-.981.465-2.7z"/>
        <path fill="#FFC3BD" d="M66.055 327.195l5.75 3.796c.094.061.199.103.308.122.11.019.223.016.332-.01.108-.025.21-.073.3-.139.09-.067.165-.15.221-.247.12-.192.162-.424.115-.647-.047-.222-.18-.417-.368-.544l-5.75-3.797c-.094-.06-.198-.102-.308-.121-.11-.019-.223-.016-.332.01-.108.025-.21.073-.3.139-.09.067-.165.15-.221.247-.118.193-.158.424-.11.646.046.221.177.417.363.545zM65.412 329.6l5.75 3.785c.093.06.198.101.307.12.109.019.22.017.329-.008.108-.024.21-.07.3-.135.09-.064.167-.146.225-.24.118-.196.156-.43.107-.654-.049-.223-.182-.42-.37-.548l-5.75-3.786c-.094-.06-.198-.101-.308-.12-.109-.019-.22-.016-.329.008-.108.025-.21.071-.3.135-.09.065-.166.146-.225.241-.117.196-.156.43-.107.653.05.224.182.42.371.549zM63.248 331.277l5.75 3.786c.094.06.198.101.307.12.11.019.221.016.33-.008.107-.025.21-.071.3-.135.09-.064.166-.146.224-.241.121-.194.163-.427.116-.652-.047-.224-.18-.421-.37-.55l-5.75-3.785c-.093-.06-.197-.101-.306-.12-.109-.019-.22-.017-.329.008-.108.024-.21.07-.3.135-.09.064-.167.146-.225.24-.121.194-.163.428-.116.652.048.225.18.422.37.55zM60.758 332.026l5.75 3.796c.093.06.198.101.307.12.109.019.22.016.329-.008.108-.025.21-.07.3-.135.09-.064.167-.146.225-.24.118-.197.156-.43.107-.654-.05-.223-.182-.42-.371-.549l-5.75-3.785c-.093-.062-.197-.104-.306-.124-.11-.02-.222-.017-.33.008-.11.024-.212.071-.302.136-.09.065-.166.148-.223.243-.117.195-.155.427-.106.649.05.222.182.416.37.543z"/>
        <path fill="#FFC3BD" d="M59.1 326.51l.117.506c.019.097.057.189.112.271.055.082.126.152.209.206.082.054.175.091.272.109.097.017.197.015.293-.006l8.917-2.109c.195-.053.363-.179.467-.352.104-.173.137-.379.092-.576l-.105-.496c-.02-.097-.06-.19-.116-.272-.056-.082-.128-.152-.211-.206-.084-.054-.177-.091-.275-.108-.098-.018-.198-.016-.295.006l-8.906 2.109c-.195.05-.363.173-.47.344-.106.171-.142.377-.1.574z"/>
        <path fill="#FFB881" d="M286.952 427.462c-.157-.251-.403-.433-.688-.511-.285-.078-.589-.046-.852.089l-6.173 5.083c-.359.295-.201.907.337 1.276l11.101 7.594c2.923 1.993 5.846 0 3.936-2.742l-7.661-10.789z"/>
        <path fill="#3A2D3F" d="M289.252 433.61c-.072-.112-.097-.248-.069-.379.028-.13.105-.244.217-.317l1.635-1.202c.048-.04.104-.07.163-.088.06-.018.123-.024.185-.017.062.007.122.027.177.057.054.031.102.072.14.121.069.113.092.248.065.378-.028.129-.104.243-.213.318l-1.635 1.234c-.05.038-.108.066-.169.082-.061.015-.124.018-.186.008-.062-.01-.122-.032-.175-.066-.053-.033-.099-.077-.135-.129zM290.466 435.308c-.035-.055-.059-.116-.071-.18-.012-.064-.011-.13.003-.193.014-.064.04-.124.077-.178.037-.053.084-.099.139-.134l1.635-1.213c.049-.039.105-.069.165-.086.06-.017.123-.022.186-.014.062.008.121.029.175.06.055.032.102.074.139.124.035.055.059.116.071.18.012.064.011.13-.003.193-.014.064-.04.124-.077.178-.037.054-.084.099-.139.135l-1.635 1.212c-.049.04-.105.069-.165.086-.06.017-.123.022-.186.014-.062-.008-.122-.028-.176-.06-.054-.032-.101-.074-.138-.124zM291.553 437.016c-.07-.111-.095-.246-.07-.375.026-.129.1-.244.207-.321l1.646-1.202c.048-.039.103-.068.163-.085.059-.017.121-.022.183-.014.061.008.12.029.173.06.053.032.099.073.135.123.073.11.099.243.073.371-.025.129-.101.242-.21.315l-1.635 1.202c-.048.041-.103.072-.163.091-.06.019-.123.025-.186.018-.062-.007-.123-.027-.177-.058-.054-.032-.102-.074-.139-.125z"/>
        <path fill="#FFB881" d="M350.739 439.632l-12.905-4.862c-.293-.126-.622-.142-.927-.045-.304.097-.563.3-.73.572l-2.986 7.91c-.169.464.295 1.055.992 1.055h14.383c3.777.052 5.392-3.396 2.173-4.63z"/>
        <path fill="#3A2D3F" d="M343.017 438.988c-.062-.022-.119-.056-.167-.101-.048-.045-.086-.1-.112-.16-.026-.061-.039-.126-.038-.191.001-.066.015-.131.042-.191l.76-1.982c.042-.128.13-.235.248-.3.117-.064.255-.082.385-.048.063.023.119.058.167.104.049.046.087.102.112.163.026.061.039.127.038.194-.001.066-.015.132-.043.192l-.77 1.983c-.041.125-.128.229-.244.292-.116.063-.251.079-.378.045zM345.126 439.589c-.061-.024-.117-.061-.164-.107-.047-.047-.084-.102-.108-.163-.025-.061-.037-.127-.036-.193.002-.066.017-.131.045-.191l.759-1.982c.044-.126.133-.231.25-.293.118-.063.254-.079.383-.045.063.023.119.059.167.105.048.046.086.102.11.163.025.062.037.128.035.195-.003.066-.019.131-.048.191l-.76 1.982c-.043.126-.133.231-.25.293-.117.063-.254.079-.383.045zM347.025 440.318c-.062-.024-.118-.061-.164-.107-.047-.047-.084-.102-.109-.164-.025-.061-.037-.126-.035-.192.001-.066.016-.131.044-.191l.76-1.983c.041-.127.13-.233.248-.296.118-.063.256-.078.385-.041.061.023.117.058.163.104.047.045.084.1.109.16.025.06.037.125.035.19-.001.066-.016.13-.043.189l-.76 1.983c-.044.126-.133.231-.25.296-.117.064-.253.082-.383.052z"/>
        <path fill="#E2B393" d="M343.586 430.077l-6.742-.359c-.063.369-.116.728-.169 1.055-.155 1.016-.24 2.041-.253 3.068l6.33.369.834-4.133z"/>
        <path fill="#fff" d="M336.422 433.874c0 3.069.77 5.02 2.247 5.146 1.477.127 3.44-1.466 3.935-3.954l.159-.823-6.341-.369z"/>
        <path fill="#212353" d="M363.066 328.524v-3.016l-22.677 1.297-2.627.306.063 2.626v.675c2.29 21.494 3.735 63.838-3.525 97.028-.105.449-.111.916-.016 1.368.094.452.286.878.563 1.248.276.37.63.675 1.037.893.407.219.857.346 1.318.372l7.503.38c.931.018 1.841-.287 2.572-.864.732-.577 1.24-1.39 1.438-2.3 8.462-40.088 13.179-77.886 14.351-100.013z"/>
        <path fill="#fff" d="M286.034 426.122c-1.699 3.469-.928 6.243.338 6.928 1.266.686 3.766-.727 6.077-3.807l-6.415-3.121z"/>
        <path fill="#E2B393" d="M292.894 428.654c.749-1.055 1.498-2.11 2.237-3.164l-6.458-4.219c-.507.896-1.055 1.793-1.509 2.7-.338.622-.675 1.234-1.055 1.867 0 .105-.085.211-.137.316l6.415 3.164c.201-.274.359-.454.507-.664z"/>
        <path fill="#212353" d="M338.33 334.737c.005-1.462-.069-2.923-.222-4.377l-.189-1.572-17.243-3.343-6.067-1.244-.38 2.921c-.517 4.029 1.716 3.158 2.075 9.549 2.448 44.085-5.937 42.308-29.025 80.571-.535.785-.74 1.748-.573 2.682.168.935.696 1.767 1.47 2.317l5.814 3.776c.87.5 1.898.654 2.877.429.978-.225 1.835-.812 2.399-1.642 27.71-37.715 41.871-42.819 39.064-90.067z"/>
        <path fill="#fff" d="M377.65 211.136h-3.36c-.998-.004-1.961.338-2.701.959s-1.203 1.476-1.298 2.398c-.973 8.766-2.637 17.454-4.977 25.994-1.83 6.723-19.367 26.517-21.749 29.074-3.861 6.21-1.83 11.699 2.127 13.92 3.956 2.222 9.986 1.333 14.304-5.114 15.9-25.174 21.451-38.68 21.643-63.45.005-.491-.094-.979-.291-1.435-.197-.455-.49-.871-.86-1.222s-.811-.631-1.298-.824c-.487-.193-1.01-.295-1.54-.3z"/>
        <path fill="#fff" d="M363.361 325.34c-3.472-5.917-4.669-16.753-5.208-23.682-1.551-19.869 10.885-28.66-1.915-41.084-2.11-.412-4.136-.781-6.152-1.055-12.377-1.961-18.086-1.181-24.66.97h-.053c-1.701.581-3.517.743-5.293.471-1.777-.272-3.461-.969-4.911-2.031-3.165-2.307-6.133-4.871-8.874-7.668-4.537-14.617-4.926-9.335-4.937-37.135.003-.799.116-1.976-.426-2.562-.542-.587-.911-1.647-1.708-1.708h-2.135l-2.135-.427c-.807-.058-1.937.769-2.563 1.281-.626.511-.924 2.614-1.027 3.416-2.807 21.462-2.11 36.07 0 41.628 3.081 6.687 5.382 8.986 16.451 20.038l3.482 3.47c-1.646 17.349 0 36.322 2.764 53.123.834 4.999 3.166 4.493 8.315 4.345l30.042-.833 2.754-.074c1.972-.094 3.903-.601 5.667-1.487.776-.405 1.461-.965 2.012-1.645.552-.68.958-1.465 1.194-2.308.237-.843.298-1.725.18-2.593-.118-.867-.412-1.701-.864-2.45z"/>
        <path fill="#E2B393" d="M336.421 268.146c4.214 0 7.629-2.148 7.629-4.798 0-2.651-3.415-4.799-7.629-4.799-4.213 0-7.629 2.148-7.629 4.799 0 2.65 3.416 4.798 7.629 4.798zM327.777 241.538c-.552.334-.953.869-1.119 1.492-.165.624-.082 1.287.233 1.851.215.578.634 1.058 1.178 1.349.544.291 1.175.374 1.776.233-.095-.222-.19-.443-.274-.665l-1.794-4.26z"/>
        <path fill="#E2B393" d="M337.602 251.704c-1.381-.239-2.732-.624-4.031-1.149-1.634-.839-2.922-2.223-3.64-3.913l.475 3.396 1.667 12.065c.055.432.279.824.624 1.091.344.267.78.387 1.212.333l6.416-.886c.428-.067.813-.302 1.07-.651.257-.35.365-.786.301-1.216l-1.329-9.513c-.878.349-1.822.501-2.765.443z"/>
        <path fill="#331511" d="M333.982 236.791l1.741-.801c.061-.029.115-.068.16-.118.044-.049.079-.107.102-.169.022-.063.032-.13.029-.196-.003-.067-.02-.132-.048-.192-.027-.061-.067-.117-.116-.162-.049-.046-.107-.081-.17-.104-.063-.022-.13-.032-.197-.028s-.132.021-.192.051l-1.741.791c-.123.06-.217.165-.263.293-.045.128-.038.269.02.393.028.06.068.114.118.159.049.045.107.08.169.102.063.023.13.033.196.029.067-.003.132-.019.192-.048zM340.419 232.71c-.123.056-.219.158-.266.285-.048.126-.043.266.013.389.056.124.158.219.285.267.127.047.267.043.39-.013l1.73-.802c.063-.026.119-.065.166-.113.047-.049.084-.106.108-.169.025-.063.037-.13.035-.197-.002-.068-.017-.134-.045-.196-.053-.117-.15-.21-.27-.257-.121-.047-.254-.046-.374.004l-1.772.802z"/>
        <path fill="#101959" d="M341.801 235.662c.296-.137.369-.611.158-1.054-.211-.443-.622-.717-.917-.58-.296.137-.359.611-.148 1.054.211.443.612.717.907.58zM334.573 237.15c-.296.127-.369.612-.158 1.055.211.443.612.706.907.569.295-.137.369-.612.158-1.054-.211-.443-.612-.707-.907-.57z"/>
        <path fill="#CEA589" d="M338.879 239.892v.094c.029.134.092.258.184.36.091.101.207.178.337.221.13.044.268.053.403.027.134-.026.259-.086.363-.175l.791-.664c.106-.099.19-.218.247-.351.058-.132.087-.275.087-.419 0-.145-.029-.287-.087-.42-.057-.132-.141-.251-.247-.35l-.137-.127c.052.186.052.383 0 .569-.052.186-.154.354-.295.486l-.791.664c-.118.099-.262.16-.415.175-.152.015-.306-.017-.44-.09z"/>
        <path fill="#331511" d="M346.762 244.67l-1.931-5.189c-.296.169-4.992 2.795-8.442 3.385-2.891.496-3.377.053-5.276-2.193l-1.815-2.226c3.836-2.65 6.996-6.166 9.222-10.261 1.47.773 2.686 1.951 3.504 3.396.164-.11.298-.259.39-.433.091-.207.128-.433.108-.658-.021-.225-.098-.441-.224-.629-.532-1.284-1.189-2.514-1.963-3.67-.255-.493-.615-.925-1.054-1.266-.439-.34-.947-.581-1.489-.706-.453.026-.908.026-1.361 0-.708-.26-1.32-.731-1.752-1.35-.216-.304-.956.159-1.294 0-.338-.159-1.335.195-1.708.222-.697.159-.606-1.086-1.281-.854-.444.106-.654 1.387-1.098 1.281-.935-.353-1.717-1.036-2.639-.649-.657.388-1.162 1.21-1.55 1.867-.517.77-.718-.612-1.182.189-.242.471-1.645.433-1.645 1.582-.749.391-.917.306-1.708.612-.422.213-1.216 2.086-1.447 2.497-.232.412-1.58 1.062-1.542 1.532.096.938.964 1.752 1.337 2.618.382.864-.483 2.676.953 2.676-.158.644-1.642 1.399-1.863 2.021-.216.604.807 1.067.91 1.699.104.633.366 1.229.763 1.733.918 1.139 2.469 1.708 3.545 2.647v.359c-.083.399-.063.813.059 1.203.122.389.342.741.638 1.022.644.432 1.551.232 2.237.601 1.055.549 1.308 2.215 2.459 2.289.485 0 .949-.243 1.424-.148.133.038.257.099.369.179l-.474-3.396c.718 1.69 2.006 3.075 3.64 3.913 1.299.525 2.65.91 4.031 1.15.946.044 1.89-.122 2.765-.485 1.513-.581 2.993-1.247 4.432-1.994.749-.474 1.338-1.164 1.686-1.98.349-.815.441-1.717.266-2.586zm-5.54-.306c-1.298.369-1.868-.106-2.111-.58l3.324-1.15c.665 1.118-1.213 1.73-1.213 1.73zm-14.33.517c-.315-.564-.398-1.227-.233-1.851.166-.624.567-1.159 1.119-1.493l1.794 4.219c.085.221.18.443.275.664-.589.148-1.212.079-1.754-.194-.543-.273-.969-.732-1.201-1.293v-.052z"/>
        <path fill="#fff" d="M339.069 243.783c.285.475.855.949 2.11.58 0 0 1.878-.611 1.172-1.729l-3.282 1.149z"/>
        <path fill="#212353" d="M50.459 440.455l-11.86-4.04c-.592-.19-1.299 0-1.425.433l-1.931 6.539c-.116.379.337.727.95.738l12.757.137c3.345 0 4.474-2.805 1.509-3.807zM32.3 440.455l-11.861-4.04c-.591-.19-1.298 0-1.425.433l-1.93 6.539c-.117.379.348.727.96.738l12.746.137c3.346 0 4.474-2.805 1.51-3.807z"/>
        <path fill="#E3F1F3" d="M71.647 293.88l5.065-.19c3.103 0 6.142 1.593 8.569 3.523 1.502 1.19 3.31 1.934 5.216 2.147 1.905.213 3.832-.114 5.561-.943 1.729-.83 3.19-2.129 4.215-3.748 1.025-1.62 1.574-3.495 1.584-5.411.01-1.917-.519-3.798-1.527-5.428-1.009-1.63-2.456-2.944-4.175-3.792-1.72-.847-3.644-1.195-5.552-1.002-1.908.193-3.723.918-5.238 2.093-2.48 1.93-5.519 3.639-8.653 3.639l-5.075-.201c-1.085-.051-2.114-.498-2.891-1.256-.778-.758-1.251-1.774-1.33-2.857v17.233c.148-1.029.652-1.974 1.425-2.67.774-.696 1.767-1.098 2.806-1.137z"/>
        <path fill="#FFB881" d="M606.068 204h-60.865c.18.242.349.484.539.715 1.632 2.09 2.642 4.596 2.913 7.231.271 2.634-.208 5.292-1.382 7.669-1.173 2.376-2.994 4.376-5.255 5.77-2.26 1.395-4.869 2.128-7.528 2.115-2.659-.012-5.261-.77-7.508-2.185-2.247-1.416-4.049-3.433-5.2-5.821-1.151-2.387-1.604-5.049-1.308-7.681.296-2.632 1.329-5.129 2.982-7.203.158-.2.306-.41.453-.61h-61.328c-3.874 0-7.588 1.533-10.327 4.261s-4.277 6.428-4.277 10.286V361.5c.005 3.854 1.546 7.549 4.284 10.273 2.739 2.724 6.45 4.253 10.32 4.253h143.508c3.873 0 7.588-1.532 10.326-4.261 2.739-2.728 4.278-6.428 4.278-10.286V218.527c-.002-1.911-.381-3.803-1.117-5.568-.736-1.764-1.814-3.367-3.172-4.716-1.359-1.349-2.971-2.418-4.744-3.146-1.774-.729-3.674-1.101-5.592-1.097z"/>
        <path fill="#212353" d="M511.609 363.062c1.488-14.232 4.01-28.201 4.801-42.528-8.505 1.987-14.846 5.823-18.402 11.92-5.013 8.63-6.891 16.303-7.049 23.766-.01.897.16 1.788.499 2.62.339.832.841 1.588 1.476 2.225s1.392 1.141 2.225 1.484c.833.343 1.726.518 2.627.513h13.823z"/>
        <path fill="#fff" d="M556.55 363.063c-.422-14.022-.411-28.023-.643-42.108l-1.636-.442c-14.942-2.102-27.889-2.312-37.861 0-.791 14.327-3.313 28.296-4.801 42.529l44.941.021z"/>
        <path fill="#2C2655" d="M578.32 363.063c1.127.002 2.24-.246 3.259-.725 1.019-.48 1.918-1.179 2.632-2.047.714-.868 1.225-1.884 1.497-2.974.271-1.089.296-2.225.072-3.325 0-.253-.116-.515-.169-.778-.629-3.053-1.573-6.033-2.817-8.893-8.252-19.498-8.02-20.707-26.887-23.366.232 14.085.222 28.086.644 42.108h21.769z"/>
        <path fill="#212353" d="M583.025 363.063c1.159-.002 2.299-.284 3.324-.821 1.025-.537 1.904-1.314 2.562-2.263.657-.95 1.074-2.044 1.214-3.19.14-1.145 0-2.307-.41-3.386-1.695-4.478-3.506-9.131-5.434-13.959-4.748-11.089-12.261-16.271-19.078-16.734-1.424-.075-2.829.35-3.97 1.201-1.142.851-1.948 2.074-2.277 3.456-2.93 11.734-2.93 24.004 0 35.738l24.069-.042z"/>
        <path fill="#D3A079" d="M550.051 324.381c0 3.795-13.349 9.797-18.825 10.942-.76.153-1.543.145-2.3-.024-.756-.168-1.468-.493-2.09-.953-2.11-1.535-5.044-4.205-5.044-7.211 0-4.741 6.395-8.588 14.288-8.588 7.893 0 13.971 1.083 13.971 5.834z"/>
        <path fill="#7A7268" d="M555.717 279.508c1.224-3.311 3.703-6.779 2.606-10.069-.369-1.125-1.15-2.103-1.467-3.227-.182-.964-.284-1.942-.306-2.922-.654-6.002-6.173-7.978-10.077-11.1-3.556-2.828-5.276-7.873-9.708-9.376-.296-.262-.663-.43-1.055-.484-.323-.029-.648-.001-.96.084-1.226-.063-2.454.083-3.63.431-.565-.45-1.164-.854-1.794-1.208-2.184-.852-4.137 1.976-6.469 2.102-1.572.094-3.06-1.051-4.611-.81-1.551.242-2.606 1.966-3.165 3.522-.56 1.555-1.056 3.311-2.427 4.204-.891.457-1.807.865-2.744 1.219-2.11 1.157-3.039 3.795-3.524 6.213-.589 3.034-.889 6.117-.897 9.207 0 1.125-.064 1.956.854 2.744.329.272.721.46 1.14.546.436-3.648 1.9-7.099 4.221-9.954 7.952 6.548 17.357 11.11 27.435 13.308l-1.899 6.117c-1.931 6.223-2.543 7.537-8.832 8.966-7.387 1.692-18.994.315-19.923.2h-.073l.443 12.308c.57 3.606 4.221 7.495 7.819 7.695 2.11.115 5.888.483 9.497.399 2.87-.063 5.603-.41 7.27-1.408 2.614-1.664 5.044-3.598 7.249-5.771 3.166-3.406 4.295-8.525 4.126-13.192l.074-10.28c2.659.158 4.717 2.87 4.601 6.128-.007.889-.198 1.767-.561 2.579-.364.812-.891 1.541-1.55 2.141l.085 8.125c.844-.515 1.973-.378 2.87-.83 2.279-1.136 1.477-4.804 3.081-6.801 1.055-1.345 3.103-1.692 4.042-3.153.939-1.461.369-3.553-.454-5.172-.485-.757-.96-1.608-1.287-2.481zm-39.687 14.191l7.735-.452c-.179 1.219-.939 2.69-3.894 3.016 0 0-4.326.326-3.841-2.564z"/>
        <path fill="#D3A079" d="M547.307 289.883c.659-.6 1.186-1.328 1.549-2.14s.554-1.69.561-2.579c.116-3.259-1.941-5.971-4.6-6.128l-.074 10.28c.169 4.667-.971 9.786-4.126 13.191-2.206 2.173-4.635 4.107-7.249 5.771-1.668 1.051-4.401 1.345-7.271 1.408l.137 13.371h21.379l-.253-25.049-.053-8.125z"/>
        <path fill="#564A3A" d="M524.029 274.432l4.22.168c.284-.015.553-.135.753-.337.2-.202.316-.471.327-.754.011-.284-.086-.561-.27-.777-.184-.216-.443-.356-.725-.392l-4.221-.168c-.294-.011-.581.092-.8.288-.219.197-.352.471-.371.763-.008.151.013.301.063.444.05.142.128.273.229.385.101.113.223.204.359.269.137.065.285.103.436.111zM512.79 272.802c.015-.295-.088-.583-.285-.804-.198-.22-.474-.354-.77-.373l-4.22-.168h-.095c-.274.017-.533.134-.727.327-.194.194-.311.451-.328.724-.009.294.095.579.291.798.197.219.47.355.764.379l4.22.168c.29.004.571-.103.784-.298.214-.196.345-.465.366-.753z"/>
        <path fill="#0E0911" d="M511.536 274.842c-.707 0-1.33.851-1.372 1.965-.042 1.114.506 2.028 1.213 2.102.707.074 1.33-.851 1.372-1.965.042-1.114-.496-2.071-1.213-2.102z"/>
        <path fill="#150D19" d="M527.343 275.788c-.718 0-1.33.841-1.372 1.955-.042 1.114.496 2.028 1.213 2.102.718.073 1.33-.851 1.372-1.955.042-1.103-.506-2.081-1.213-2.102z"/>
        <path fill="#B78B6C" d="M520.915 285.31v-.221c-.207.288-.5.504-.837.617-.337.113-.701.118-1.041.014l-2.163-.715c-.418-.138-.785-.396-1.056-.742-.27-.346-.431-.765-.463-1.202l-.18.368c-.137.293-.211.612-.216.935-.006.323.057.644.185.942.127.297.316.565.554.784.239.22.52.388.828.492l2.11.704c.29.097.599.117.899.057.3-.059.578-.195.809-.395.23-.2.404-.456.504-.743.1-.288.123-.596.067-.895z"/>
        <path fill="#fff" d="M519.871 296.264c2.954-.326 3.713-1.797 3.893-3.016l-7.734.451c-.485 2.891 3.841 2.565 3.841 2.565z"/>
        <path fill="#D3A079" d="M528.418 289.148c6.332-1.43 6.901-2.744 8.832-8.966l1.9-6.118c-10.078-2.198-19.484-6.76-27.436-13.307-2.321 2.855-3.784 6.306-4.22 9.954 0 .273-.064.547-.085.82h.095l4.221.168c.302.011.588.141.793.362.206.221.316.514.304.815-.011.301-.142.586-.363.791-.222.205-.516.314-.819.302l-4.22-.168 1.055 14.632v.935c.928.042 12.536 1.419 19.943-.22zm-17.041-10.228c-.707 0-1.256-.956-1.214-2.102.042-1.146.665-1.987 1.372-1.966.707.021 1.266.957 1.214 2.103-.053 1.145-.686 1.934-1.372 1.913v.052zm15.828.936c-.718 0-1.256-.957-1.214-2.103.043-1.145.655-1.986 1.372-1.955.718.032 1.256.946 1.214 2.103-.043 1.156-.686 1.934-1.393 1.902l.021.053zm-3.06-7.673l4.221.168c.282.035.541.175.725.391.184.217.281.494.27.777-.01.284-.127.553-.327.755-.2.202-.469.322-.753.337l-4.221-.169c-.294-.024-.567-.159-.763-.378-.197-.219-.301-.505-.292-.799-.001-.148.027-.294.082-.431.055-.137.137-.262.241-.367.104-.106.228-.19.364-.247.137-.058.283-.089.432-.09l.021.053zm-5.466 15.157l-2.111-.705c-.307-.104-.589-.271-.827-.491-.238-.22-.427-.487-.555-.785-.127-.297-.19-.618-.185-.942.005-.323.079-.642.217-.935l.179-.368c.032.438.193.856.464 1.202.27.346.638.605 1.056.743l2.163.714c.34.104.704.099 1.041-.014.337-.113.63-.328.837-.616v.221c.047.297.017.602-.089.884-.106.282-.283.532-.515.726-.231.193-.509.324-.807.379-.297.055-.603.032-.889-.066l.021.053z"/>
        <path fill="#BF7C56" d="M662.891 440.066c-.158-16.726-.137-46.942.813-57.657h-15.1c.316 9.323 6.7 42.85 8.03 58.723.19 2.299.612 2.879 3.102 2.879h.222c2.933 0 2.954-1.255 2.933-3.945zM686.896 439.771c-.538-12.719-1.467-32.273-3.303-58.069h-14.635c.96 13.478 9.391 40.846 11.765 58.237.338 2.521-.105 3.502 2.596 3.502s3.693-1.076 3.577-3.67z"/>
        <path fill="#FF882C" d="M676.028 261.768c1.508.655 2.758 1.789 3.556 3.227.797 1.438 1.098 3.099.855 4.725-.792 3.079-3.957 3.733-7.134 2.615-6.934-2.533-13.499-5.981-19.521-10.251l5.276-7.499c5.502 2.743 11.169 5.142 16.968 7.183z"/>
        <path fill="#BF7C56" d="M620.861 226.046c6.027 6.691 12.799 12.671 20.186 17.824 1.055.78 2.226 1.54 3.355 2.289 4.706 3.107 9.597 5.925 14.647 8.437l-5.277 7.498c-12.198-8.437-23.362-19.722-32.922-30.753l.011-5.295z"/>
        <path fill="#212353" d="M648.297 336.152c.142-1.386.6-2.721 1.34-3.902l10.119.063h27.626c.741.845 1.291 1.841 1.611 2.919.321 1.077.405 2.211.246 3.324-.296 3.839-.58 7.636-.876 11.475.137 6.423-4.611 15.102-5.097 21.81-.538 7.33 2.617 12.951 2.111 20.281-3.377 1.802-7.118 2.819-10.943 2.974-9.497 0-11.438-1.15-13.717-2.183-.656-.311-1.333-.576-2.026-.791-2.628-.781-6.754-.443-8.885-.19-.18.022-.362.007-.535-.047-.173-.053-.333-.143-.468-.262-.136-.12-.245-.267-.319-.432-.075-.165-.113-.344-.113-.525-.676-18.118-1.963-36.395-.074-54.514z"/>
        <path fill="#FF882C" d="M666.172 260.829l4.559 5.442c-3.066 4.42-7.438 7.772-12.504 9.586-.074 0-.148 3.417-.222 3.417-2.342.18-4.716.264-7.07.327l-2.036.074c-.478.016-.953-.066-1.398-.24-.445-.174-.849-.436-1.189-.772-.34-.336-.608-.737-.787-1.179-.179-.443-.266-.917-.256-1.395l.222-9.259c6.394-1.34 15.142-4.694 20.681-6.001z"/>
        <path fill="#BF7C56" d="M667.723 252.561c-1.559-.159-3.038-.768-4.256-1.753-1.218-.985-2.122-2.304-2.602-3.795 0-.053-.095-.116-.148-.179.456-.56.722-1.251.76-1.972.084-1.435-.665-2.531-1.668-2.447-.401.044-.774.227-1.055.517-.226.227-.412.491-.549.78-.411-.053-.337-1.687-.369-2.109-.141-.704-.409-1.376-.791-1.983l-.285 6.581c-.001 1.064.248 2.113.727 3.064.478.95 1.172 1.776 2.027 2.41.97.747 2.113 1.237 3.324 1.424.122.017.236.073.324.161.087.087.144.201.161.324v.453c.036 3.274.304 6.541.802 9.777.148.485.496.306.929.506 1.709.812 1.055 1.529 2.838.643.137-.074 3.767-.516 3.831-.664.063-.148-1.056-7.256-1.056-7.383-.213-.902-.326-1.825-.337-2.752 0-.76.211-2.046.074-2.669-.014-.063-.039-.124-.074-.179-1.214.348-.971.675-1.773 1.055-.254.142-.543.207-.834.19z"/>
        <path fill="#FF882C" d="M664.431 334.97c2.785.127 5.529.622 8.325.485 2.89-.001 5.671-1.102 7.777-3.079 2.923-3.059 2.934-7.815 1.646-11.601-1.287-3.787-3.63-7.067-4.843-10.874-2.691-8.437.475-17.929 3.345-26.704 2.11-6.517 4.062-13.594 3.387-20.038 1.931 1.118 3.693 2.225 5.086 2.922-.242 6.395-1.335 12.729-3.25 18.836-1.899 6.76-5.139 13.14-4.157 20.186.485 3.533 2.11 6.718 3.25 9.987 1.287 3.405 2.365 6.884 3.229 10.42.861 3.688 1.275 7.466 1.234 11.253 0 0-4.379 4.567-15.765 4.567-9.496 0-10.288-3.28-17.305-4.535-1.119-.201-2.11-.317-2.986-.39 3.568-1.097 7.296-1.582 11.027-1.435z"/>
        <path fill="#FF882C" d="M648.308 336.678c.36-3.51 1.161-6.961 2.384-10.272 2.976-7.868 4.527-36.058 5.403-51.73.369-6.592 1.921-11.96 11.533-14.66 1.703-.559 3.485-.837 5.276-.823 3.483-.232 7.587 1.888 11.122 3.955.676 6.465-1.266 13.542-3.387 20.039-2.87 8.795-6.036 18.256-3.345 26.703 1.214 3.808 3.546 7.098 4.844 10.874 1.297 3.775 1.276 8.532-1.647 11.601-2.106 1.977-4.887 3.078-7.777 3.079-2.796.138-5.539-.358-8.325-.485-3.73-.151-7.458.331-11.027 1.424-1.688-.22-3.403-.119-5.054.295z"/>
        <path fill="#231B12" d="M699.042 280.413c-2.11-2.257-5.097-4.144-5.593-7.203-.358-2.172.676-4.324.982-6.507.169-1.55.028-3.118-.414-4.614-.442-1.495-1.176-2.888-2.161-4.097-1.978-2.408-4.513-4.298-7.386-5.506-1.19-.437-2.315-1.033-3.345-1.771-.967-.93-1.792-1.996-2.448-3.164-.592-.853-1.303-1.617-2.111-2.268 8.189-16.252-9.761-16.452-9.761-16.452l-.116.052c-1.186.046-2.354.303-3.45.76-1.182.97-.338.854-2.575 1.529-1.424.422-3.303.464-3.999 1.835-.674 1.569-.801 3.318-.359 4.967.209.563.475 1.104.792 1.614.382.607.65 1.279.791 1.983 0 .422 0 2.056.359 2.109.141-.293.33-.56.559-.791.281-.29.654-.473 1.055-.517 1.055-.084 1.752 1.055 1.667 2.447-.037.721-.303 1.412-.759 1.972.052.064.095.127.147.18.481 1.49 1.385 2.809 2.603 3.794 1.218.986 2.697 1.595 4.256 1.753.281.026.563-.029.813-.158 1.424 1.93 3.165 3.744 3.799 5.853.233 1.096.225 2.229-.023 3.322-.247 1.092-.729 2.118-1.413 3.006-1.375 1.765-2.959 3.359-4.716 4.746-4.221 3.649-8.199 7.984-9.223 13.394-.834 4.398.433 8.87 1.752 13.13 1.213 3.955 2.722 6.887 5.972 9.492 2.459 1.951 5.593 3.966 8.727 4.366 6.658.865 13.718.243 19.606-3.058 5.888-3.301 10.298-9.587 10.119-16.273-.132-3.702-1.605-7.229-4.147-9.925z"/>
        <path fill="#212353" d="M674.065 443.051l11.207-3.428c.548-.169 1.192 0 1.277.38l1.297 5.695c.085.337-.369.643-.928.643h-11.745c-3.081.053-3.915-2.425-1.108-3.29zM649.838 442.977l11.206-3.438c.549-.169 1.192 0 1.277.38l1.298 5.705c.084.327-.37.633-.929.644h-11.744c-3.081.052-3.915-2.458-1.108-3.291z"/>
        <path fill="#BF7C56" d="M622.476 240.452c-.079-.868-.314-1.715-.696-2.499-.312-.506-.696-.965-1.14-1.361l-2.258-2.225c-.369-.358-.739-.728-1.15-1.055-.039-.042-.087-.075-.139-.099-.053-.023-.11-.036-.167-.038-.081.018-.156.058-.216.115-.06.058-.102.132-.122.212-.042.156-.042.319 0 .475.153.395.387.754.686 1.055l1.203 1.349c.307.278.515.648.591 1.055.01.049.01.099 0 .148-.084.137-.264 0-.348-.074l-2.206-2.9c-.123-.15-.229-.312-.316-.485-.204-.568-.279-1.173-.222-1.772 0-.338-.105-.749-.411-.739-.306.011-.433.275-.538.517-.144.378-.247.771-.306 1.171-.211 1.244-.38 2.51-.496 3.754-.058.396-.058.797 0 1.192.082.35.238.678.456.963.218.285.494.522.81.693.591.359 1.266.591 1.878.918.645.306 1.15.845 1.414 1.508.296.843.802 1.993 2.343 1.55 1.118-.316 1.424-1.329 1.361-2.51l-.011-.918z"/>
        <path fill="#BF7C56" d="M620.851 238.966c3.757 7.92 5.888 18.984 9.075 28.075.298.834.894 1.528 1.672 1.951.779.422 1.687.542 2.549.337 3.165-.77 7.122-1.624 11.311-2.499l-.316 9.492c-5.888.137-14.161.274-16.039 0-.7-.078-1.375-.301-1.984-.654-.508-.305-.947-.713-1.287-1.198-.34-.485-.574-1.037-.686-1.618-.127-.57-.275-1.118-.359-1.466-2.406-10.125-4.158-20.228-5.835-30.585l1.899-1.835z"/>
        <path fill="#F3E7DE" d="M432.566 32.67H289.079c-8.066 0-14.604 6.535-14.604 14.597v143.411c0 8.061 6.538 14.596 14.604 14.596h143.487c8.065 0 14.604-6.535 14.604-14.596V47.267c0-8.062-6.539-14.597-14.604-14.597z"/>
        <path fill="#FFD176" d="M311.702 195.613h32.121c.359-2.109.971-3.912 2.311-4.904 1.371-.802 2.979-1.104 4.548-.854 4.938.306 10.151 1.688 14.92 1.308 16.272-1.308 8.748-19.311 10.099-28.381 1.91-12.803 16.071-10.451 23.647-17.18 10.33-9.175 7.566-35.257.2-54.114-3.872-9.935-6.901-16.01-13.791-16.2-5.276-.158-5.434.422-11.016-3.311-3.789-2.52-6.595-4.862-10.553-5.832-11.174-2.721-21.325 1.37-27.002 10.894-3.472 5.843-5.276 13.542-9.318 18.752-6.331 8.258-17.062 9.123-25.504 14.037-22.159 12.888-24.924 53.323-10.003 75.682l.063.095c2.153 3.113 5.035 5.653 8.396 7.397 3.36 1.745 7.096 2.641 10.882 2.611z"/>
        <path fill="#fff" d="M406.882 187.673v-4.398c0-18.393-15.955-33.433-35.445-33.433h-18.424c-18.171 0-33.038 14.027-33.038 31.165v6.666c.069 2.204 1.009 4.291 2.615 5.804 1.606 1.512 3.747 2.326 5.953 2.264h69.77c2.206.062 4.347-.752 5.953-2.264 1.606-1.513 2.547-3.6 2.616-5.804zM365.159 122.284s4.622.59 4.221-2.848l-8.273-.917c.095 1.466.897 3.237 4.052 3.765z"/>
        <path fill="#FBE9DC" d="M359.302 97.447c.026-.327-.078-.651-.289-.902-.212-.25-.514-.408-.84-.438h-4.221c-.314.056-.599.221-.804.466-.206.245-.318.554-.318.874 0 .32.112.628.318.873.205.245.49.41.804.466h4.221c.326-.03.628-.187.84-.438.211-.25.315-.574.289-.901zM380.195 98.786c.298-.076.562-.248.751-.49.189-.243.292-.542.292-.85 0-.307-.103-.605-.292-.848-.189-.242-.453-.415-.751-.49h-3.925c-.298.075-.563.248-.752.49-.189.243-.291.541-.291.849 0 .307.102.606.291.848.189.243.454.415.752.49h3.925z"/>
        <path fill="#EFACA0" d="M370.234 109.344c-.033.489-.205.958-.494 1.354-.29.396-.685.701-1.141.881l-2.258.738c-.366.103-.755.076-1.104-.076-.348-.151-.632-.419-.806-.757v.253c-.285 1.54.939 2.879 2.237 2.457l2.258-.738c.684-.287 1.228-.832 1.512-1.517.285-.685.287-1.455.007-2.142l-.211-.453z"/>
        <path fill="#381B13" d="M356.749 104.597c.834 0 1.52-1.055 1.52-2.32 0-1.266-.686-2.33-1.52-2.33h-2.563l1.234 1.244c-.113.34-.174.695-.179 1.054 0 1.308.685 2.352 1.508 2.352zM379.056 102.277c-.006-.358-.066-.714-.18-1.054l1.235-1.245h-2.564c-.834 0-1.509 1.055-1.509 2.331s.675 2.32 1.509 2.32c.833 0 1.509-1.076 1.509-2.352z"/>
        <path fill="#F7C3BA" d="M387.699 109.808c.057-1.238-.238-2.466-.851-3.543-.612-1.077-1.517-1.958-2.61-2.543v-8.194c.031-3.89-.982-7.718-2.934-11.085-2.532.222-5.16.254-5.814.296-13.612.886-21.558 8.774-24.554 13.31-2.459 3.743-3.789 8.173-6.332 11.854-.85 1.229-1.834 2.361-2.933 3.374.411.861 1.048 1.595 1.844 2.122.795.527 1.719.829 2.672.874.291 0 .581-.032.865-.095.469 2.731 1.477 5.342 2.966 7.68 1.49 2.338 3.43 4.355 5.708 5.935l-.126 24.331c-1.181.942-2.139 2.133-2.806 3.487-.668 1.355-1.028 2.84-1.056 4.349 0 6.138 5.94 11.106 13.274 11.106 7.334 0 13.285-4.968 13.285-11.106-.028-1.4-.346-2.779-.935-4.049-.588-1.271-1.434-2.406-2.484-3.333l.116-24.669c2.334-1.594 4.319-3.645 5.835-6.029s2.532-5.051 2.987-7.839c1.204-.522 2.221-1.398 2.915-2.511.693-1.114 1.031-2.412.968-3.722zm-18.814 3.649l-2.258.738c-1.298.422-2.522-.918-2.238-2.457v-.253c.174.337.459.605.807.757.348.152.738.178 1.103.076l2.258-.739c.457-.18.852-.485 1.142-.881.289-.396.461-.865.494-1.354l.169.453c.283.682.286 1.447.01 2.132-.276.684-.81 1.233-1.487 1.528zm-3.725 8.827c-3.166-.527-3.915-2.299-4.052-3.765l8.273.918c.401 3.438-4.221 2.847-4.221 2.847zm-12.399-24.837c-.026-.327.078-.65.289-.902.211-.25.513-.408.84-.437h4.221c.315.056.6.22.805.466.205.245.317.554.317.873 0 .32-.112.629-.317.874-.205.245-.49.41-.805.466h-4.221c-.327-.03-.629-.187-.84-.438-.211-.25-.315-.575-.289-.902zm1.393 2.5h2.564c.834 0 1.52 1.054 1.52 2.33 0 1.277-.686 2.321-1.52 2.321-.833 0-1.509-1.055-1.509-2.321.006-.358.066-.714.18-1.054l-1.235-1.276zm20.988-2.5c-.033-.316.059-.633.256-.883s.484-.414.799-.456h3.999c.299.075.563.248.752.49.189.243.292.542.292.85 0 .307-.103.605-.292.848-.189.242-.453.415-.752.49h-3.925c-.16-.015-.315-.062-.457-.138-.142-.076-.267-.18-.369-.304-.102-.124-.179-.267-.225-.421-.047-.154-.062-.316-.046-.476h-.032zm.865 4.83c0-1.286.676-2.33 1.509-2.33h2.564l-1.234 1.244c.113.34.174.696.179 1.055 0 1.276-.675 2.32-1.509 2.32-.833 0-1.477-1.012-1.477-2.289h-.032z"/>
        <path fill="#FFD176" d="M344.636 109.902c2.553-3.681 3.883-8.11 6.331-11.854 2.997-4.535 10.942-12.424 24.554-13.31.655 0 3.282-.074 5.815-.295 2.532-.222 5.149-.622 5.36-1.424.253-.97-4.115-2.826-7.028-4.324-.591-.306-1.055-.601-1.53-.865-.384-.194-.711-.485-.949-.844-.064-.352-.244-.672-.512-.91-.268-.237-.608-.377-.966-.397l-8.441-1.814c-3.857-.933-7.78-1.565-11.734-1.888-3.292-.18-6.796 3.955-9.497 5.895-4.326 3.164-5.012 5.432-7.386 10.262-3.166 6.623-9.867 11.19-12.473 18.077-1.256 3.311-1.266 7.54 1.361 9.903 2.87 2.584 7.46 1.698 10.753-.295 2.499-1.511 4.655-3.526 6.331-5.917h.011z"/>
        <path fill="#F3E7DE" d="M273.071 117.675l-5.065.19c-3.102 0-6.141-1.592-8.568-3.522-1.503-1.191-3.31-1.935-5.216-2.148-1.906-.213-3.833.114-5.562.944-1.728.829-3.189 2.128-4.214 3.748-1.025 1.619-1.574 3.494-1.585 5.411-.01 1.916.52 3.797 1.528 5.427 1.009 1.63 2.455 2.944 4.175 3.792 1.72.848 3.644 1.195 5.551 1.002 1.908-.193 3.723-.918 5.239-2.093 2.479-1.93 5.518-3.638 8.652-3.638l5.076.211c1.086.049 2.115.495 2.894 1.253.778.758 1.25 1.776 1.327 2.86v-17.244c-.148 1.03-.652 1.975-1.426 2.67-.773.696-1.766 1.099-2.806 1.137zM364.008 30.14l-.19-5.063c0-3.1 1.594-6.149 3.525-8.574 1.186-1.502 1.926-3.307 2.136-5.209.209-1.902-.12-3.824-.951-5.548-.831-1.724-2.13-3.18-3.749-4.201-1.618-1.022-3.492-1.568-5.406-1.577-1.915-.009-3.793.52-5.421 1.527-1.628 1.007-2.941 2.45-3.787 4.167-.847 1.716-1.194 3.635-1.002 5.539.192 1.904.915 3.715 2.088 5.228 1.931 2.468 3.64 5.505 3.64 8.638l-.211 5.083c-.046 1.086-.492 2.117-1.251 2.895-.759.778-1.779 1.25-2.864 1.324h17.253c-1.03-.148-1.976-.652-2.672-1.425-.696-.773-1.099-1.765-1.138-2.805z"/>
        <path fill="#E3F1F3" d="M367.618 206.709l-.19-5.073c0-3.09 1.594-6.138 3.525-8.564 1.192-1.502 1.937-3.309 2.15-5.215.213-1.905-.115-3.832-.946-5.56-.83-1.728-2.131-3.188-3.752-4.213-1.622-1.024-3.499-1.572-5.417-1.581-1.918-.009-3.801.522-5.431 1.532-1.631 1.009-2.945 2.457-3.792 4.177-.846 1.721-1.191 3.645-.996 5.552.196 1.907.924 3.721 2.102 5.234 1.921 2.468 3.63 5.506 3.63 8.638l-.2 5.083c-.049 1.086-.496 2.115-1.255 2.893-.758.778-1.777 1.25-2.861 1.326h17.253c-1.032-.145-1.98-.648-2.678-1.421-.698-.774-1.103-1.767-1.142-2.808z"/>
        <path fill="#F3E7DE" d="M450.292 120.178l5.065-.19c3.102 0 6.141 1.592 8.568 3.522 1.503 1.191 3.31 1.935 5.216 2.148 1.906.213 3.833-.114 5.562-.944 1.728-.829 3.189-2.128 4.214-3.747 1.026-1.62 1.575-3.495 1.585-5.412.01-1.916-.52-3.797-1.528-5.427-1.008-1.63-2.455-2.944-4.175-3.792-1.72-.848-3.643-1.195-5.551-1.002-1.908.193-3.723.918-5.238 2.093-2.48 1.93-5.519 3.639-8.653 3.639l-5.076-.201c-1.086-.051-2.116-.5-2.894-1.26s-1.25-1.779-1.326-2.864v17.244c.147-1.029.652-1.974 1.425-2.67s1.766-1.098 2.806-1.137z"/>
        <path fill="#E2B393" d="M302.325 202.533c.019-.109.017-.22-.007-.327-.024-.108-.069-.209-.133-.299-.266-.279-.823-.105-1.067.22-.194.337-.328.706-.394 1.09-.046.198-.143.38-.282.529-.138.148-.313.258-.507.318-.627-1.093-.895-2.354-.766-3.607.058-.427.058-.86 0-1.287-.21-.664-.614-1.25-1.16-1.682-.368-.46-.892-.77-1.474-.869-.403-.002-.801.093-1.16.278-1.331.466-2.43 1.431-3.063 2.69-.264.874-.264 1.806 0 2.679.449 2.025 1.233 3.961 2.32 5.729.193.424.477.801.832 1.104.355.302.772.523 1.222.647.822.094 1.655-.051 2.396-.42.741-.368 1.36-.943 1.781-1.656.757-1.624 1.25-3.358 1.462-5.137zM371.378 199.198c-.272.156-.485.399-.608.692-.123.293-.148.619-.071.928.224.792.34 1.612.345 2.436-.511 1.354-.639 2.827-.369 4.251.183.62.525 1.179.99 1.62.596.475 1.419.499 2.087.865.498.387 1.02.74 1.562 1.06.584.231 1.455 0 1.443-.695l1.193-1.876c-.132-1.272.035-2.558.489-3.751.245-.528.441-1.079.584-1.644.072-.283.073-.579.004-.861-.069-.283-.205-.544-.397-.76-.656-.645-5.236-2.046-5.427-2.095-.594-.162-1.211-.22-1.825-.17z"/>
        <path fill="#FFB881" d="M510 204H567V237H510z"/>
        <path fill="#E3F1F3" d="M529.015 205.973l.19 5.075c0 3.092-1.593 6.141-3.523 8.568-1.192 1.503-1.936 3.311-2.149 5.217-.213 1.906.114 3.834.945 5.563.83 1.729 2.13 3.189 3.75 4.214 1.621 1.025 3.498 1.573 5.415 1.582 1.918.009 3.799-.522 5.429-1.532 1.63-1.01 2.943-2.458 3.79-4.18.846-1.721 1.191-3.646.995-5.554-.195-1.908-.923-3.723-2.101-5.236-1.919-2.469-3.628-5.508-3.628-8.642l.2-5.085c.049-1.086.496-2.116 1.254-2.894s1.776-1.25 2.86-1.327h-17.245c1.031.145 1.979.649 2.677 1.422.698.774 1.102 1.768 1.141 2.809z"/>
        <path fill="#E2B393" d="M338.52 228.185c-2.226 4.096-5.386 7.611-9.222 10.262l1.857 2.225c1.878 2.247 2.364 2.689 5.276 2.194 3.43-.591 8.125-3.164 8.442-3.375-.053-.127-.095-.264-.159-.39l-2.11-6.265-1.731.802c-.123.056-.263.06-.39.013-.126-.048-.229-.143-.285-.267-.056-.123-.061-.263-.013-.389.047-.127.143-.23.266-.286l1.742-.801c-.035-.113-.081-.223-.138-.327-.826-1.449-2.054-2.628-3.535-3.396zm-5.212 8.363c-.058-.123-.066-.264-.02-.392.045-.129.14-.234.262-.293l1.741-.791c.06-.03.126-.048.193-.052.067-.004.134.006.197.029.063.022.121.058.17.103.049.046.089.101.116.163.028.06.045.125.048.192.003.066-.007.133-.029.195-.023.063-.058.121-.102.17-.045.049-.1.089-.16.118l-1.741.801c-.06.029-.126.045-.192.048-.067.003-.133-.007-.196-.029-.063-.023-.121-.057-.17-.102-.049-.045-.089-.099-.117-.16zm2.015 2.236c-.295.137-.696-.116-.907-.569-.211-.454-.138-.939.158-1.055.295-.116.696.116.907.57.211.453.148.875-.158 1.054zm5.719-4.767c.296-.137.707.127.918.58.211.454.138.928-.158 1.055-.295.127-.707-.127-.907-.58-.201-.454-.148-.918.147-1.055zm-.474 5.147c.141-.132.243-.3.295-.486.052-.186.052-.383 0-.569l.137.127c.106.099.19.218.247.35.058.133.087.275.087.42 0 .144-.029.287-.087.419-.057.133-.141.252-.247.351l-.791.664c-.104.089-.229.149-.364.175-.134.026-.273.017-.403-.026-.129-.044-.245-.12-.337-.222-.091-.102-.154-.226-.184-.359v-.095c.137.086.298.126.459.115.162-.011.315-.074.438-.179l.75-.685z"/>
        <path fill="#A08052" d="M32.564 242.307c1.055-1.519 1.604-3.343 2.617-4.883 1.156-1.626 2.668-2.966 4.422-3.916 1.755-.951 3.703-1.487 5.697-1.568.83-.021 1.658-.088 2.48-.201.58-.095 1.055-.253 1.055-.495.158-.58-1.319-2.342-1.53-2.901 0-.137-1.477.106-1.593 0-.11-.085-.242-.136-.38-.147l-3.482-.749c-1.592-.386-3.211-.647-4.844-.78-1.358-.165-2.732.14-3.893.864-1.784 1.298-2.11 3.808-3.029 5.79-1.33 2.732-4.073 4.609-5.139 7.446-.517 1.371-.527 3.164.56 4.082 1.086.917 3.07.706 4.431-.116l.401-.275c.866-.578 1.62-1.306 2.227-2.151z"/>
        <path fill="#3E2043" d="M48.453 239.291c.032.29-.052.582-.233.811-.182.23-.447.378-.738.412-.28-.064-.53-.22-.709-.445-.179-.224-.276-.502-.276-.789 0-.287.097-.565.276-.789.18-.224.43-.381.709-.445.146.017.287.063.415.135.128.072.24.169.33.284.091.116.158.249.196.391.039.141.049.289.03.435z"/>
        <path fill="#A57C3A" d="M50.185 230.336s-10.721 10.041-20.577 6.328c.011-.052 3.673-20.122 20.577-6.328z"/>
        <path fill="#E2B393" d="M299.138 216.939c.295-5.759.496-8.606.696-10.02l-3.967-.052c-.644 2.721-1.435 6.169-2.195 10.072h5.466zM373.363 214.927c-.295-5.759-.506-8.596-.696-10.009l3.957-.063c.654 2.721 1.435 6.18 2.195 10.072h-5.456z"/>
        <path fill="#FFB881" d="M452.646 294.154l5.076-.19c3.092 0 6.141 1.593 8.568 3.523 1.503 1.191 3.311 1.936 5.218 2.149 1.906.213 3.834-.115 5.563-.945 1.729-.83 3.19-2.13 4.215-3.751 1.025-1.62 1.573-3.496 1.582-5.414.009-1.917-.522-3.798-1.532-5.428s-2.459-2.943-4.18-3.789c-1.722-.846-3.646-1.191-5.555-.996-1.908.195-3.723.923-5.237 2.101-2.469 1.919-5.508 3.628-8.642 3.628l-5.086-.2c-1.086-.049-2.116-.496-2.894-1.254s-1.25-1.776-1.327-2.86v17.244c.145-1.031.649-1.979 1.422-2.677.774-.698 1.768-1.102 2.809-1.141z"/>
        <path fill="#E3F1F3" d="M529.787 372.071l.19-5.062c0-3.101-1.593-6.139-3.524-8.564-1.193-1.502-1.939-3.308-2.154-5.214-.214-1.905.112-3.832.942-5.561s2.129-3.189 3.75-4.215c1.621-1.025 3.497-1.575 5.416-1.585 1.918-.01 3.8.52 5.432 1.528 1.631 1.009 2.946 2.456 3.794 4.176.847 1.72 1.194 3.643 1 5.551-.195 1.907-.922 3.721-2.099 5.235-1.92 2.479-3.63 5.516-3.63 8.649l.201 5.072c.051 1.085.498 2.113 1.256 2.89.759.778 1.776 1.25 2.859 1.329h-17.253c1.032-.145 1.98-.648 2.678-1.421.699-.774 1.103-1.767 1.142-2.808z"/>
    </g>
    <defs>
        <clipPath id="clip0">
            <path fill="#fff" d="M0 0H703V444H0z"/>
        </clipPath>
    </defs>
</svg>
