<svg xmlns="http://www.w3.org/2000/svg" fill="none" viewBox="0 0 388 275">
    <g clip-path="url(#prefix__clip0)">
        <ellipse cx="193.999" cy="232.207" fill="#E3F1F3" fill-opacity=".7" rx="193.448" ry="42.793"/>
        <g clip-path="url(#prefix__clip1)">
            <path fill="#E8B592" d="M295.496 226.145c-.997-10.938-2.521-26.766-4.878-47.095-1.055-.329-1.864-.692-2.696-1.032-.761-.33-1.545-.604-2.345-.821-2.654-.54-5.376-.659-8.066-.352 3.013 14.855 8.511 35.431 11.22 49.582.094.48.152.903.211 1.278l5.498-1.607c.347-.108.72-.091 1.056.047zM296.258 180.034c1.173 14.702 3.518 33.602 4.186 46.815v.762l5.545-1.618c.194-.06.398-.08.6-.058.202.023.397.086.573.187.48-11.021 1.078-26.649 1.477-46.592-1.831.477-3.713.729-5.604.751-2.779-.024-4.983-.118-6.777-.247z"/>
            <path fill="#797A92" d="M312.73 118.694c-.091.655-.334 1.28-.711 1.823-.377.544-.876.992-1.458 1.307-.734.389-1.489.738-2.262 1.043-3.963 1.451-8.162 2.15-12.381 2.064-10.329 0-11.384-3.365-19.099-4.69-1.231-.211-2.344-.34-3.282-.41-1.661-.167-3.337-.112-4.983.164-.164 18.512 3.072 37.189 5.663 55.701.055.395.263.752.578.995.316.244.714.354 1.11.307l1.653-.153c2.691-.307 5.413-.188 8.066.352.801.217 1.584.491 2.345.821.832.34 1.641.703 2.697 1.031 1.839.526 3.73.848 5.639.962 1.794.152 3.998.246 6.812.246 1.891-.021 3.773-.273 5.604-.75 2.092-.547 4.114-1.334 6.026-2.345-.164-7.55-4.186-13.33-4.35-20.881-.152-6.905 4.139-15.839 3.342-22.452-.082-3.951-.153-7.855-.223-11.806.035-1.007-.128-2.011-.481-2.954 0 .082 0 .176-.058.258-.071-.172-.153-.383-.247-.633z"/>
            <path fill="#212353" d="M306.012 225.969l-5.545 1.618-3.916 1.173-.657-2.263c-.037-.082-.092-.155-.161-.214s-.15-.102-.237-.126c-.327-.113-.682-.113-1.008 0l-5.522 1.548-6.578 1.922c-2.743.809-2.134 2.99.528 3.365H308.088c.609 0 1.078-.316.984-.656l-1.688-5.862c-.044-.112-.127-.204-.234-.258-.163-.116-.348-.198-.544-.24-.195-.042-.397-.045-.594-.007z"/>
            <path fill="#E8B592" d="M291.169 40.365h.071c-.157-.648-.494-1.237-.973-1.7-.645-.457-1.583-.34-2.275-.739-1.301-.727-.985-2.614-1.641-3.798-.213-.26-.444-.502-.692-.727-1.437-1.59-2.655-3.364-3.623-5.276.452-.252.838-.607 1.126-1.037.287-.43.468-.923.527-1.437.235-1.548-.586-2.954-1.758-3.06-.471-.027-.938.105-1.325.375-.283.217-.528.478-.727.774-.539-.14-.293-1.981-.293-2.427-.113-.824-.379-1.62-.785-2.345l-.938 7.316c-.075 1.254.142 2.508.634 3.664.493 1.155 1.247 2.18 2.203 2.995 1.113 1.035 2.449 1.8 3.904 2.24.146.038.276.12.372.236.097.116.155.259.167.409 0 .164 0 .328-.058.492-.149 1.696-.208 3.398-.176 5.1.176 0 .34-.129.516-.176 1.846-.637 3.792-.935 5.744-.88z"/>
            <path fill="#000543" d="M288.473 9.894l.493-.153h-.117l-.376.153z"/>
            <path fill="#A2C7CC" d="M273.536 119.831c.962.07 2.052.199 3.283.41 7.714 1.29 8.77 4.69 19.099 4.69 4.217.098 8.415-.59 12.38-2.028.773-.306 1.529-.654 2.263-1.044.582-.315 1.081-.763 1.458-1.306.376-.544.62-1.169.711-1.824.029-.273.029-.548 0-.821-.216-2.343-.608-4.667-1.172-6.952-.188-.774-.387-1.548-.61-2.345-.317-1.043-.657-2.087-1.008-3.119-.891-2.579-1.923-5.111-3.013-7.609-1.454-3.353-3.318-6.647-4.022-10.282-1.243-6.401 1.114-12.263 2.896-18.336.235-.81.457-1.618.668-2.439 1.121-4.091 1.905-8.267 2.345-12.486.041-.574.041-1.15 0-1.724-.143-1.67-.694-3.281-1.606-4.69-.358.357-.797.622-1.278.775-2.79.785-3.787-2.263-5.862-3.81-2.661-1.947-7.375-1.454-8.781-4.292 0-.07-.059-.152-.094-.222s0 0-.071 0c-1.954-.069-3.904.217-5.756.844-.176 0-.34.117-.516.176-2.168.721-4.168 1.874-5.879 3.39-1.71 1.515-3.097 3.36-4.075 5.426l1.477-1.595c.562-.539 1.225-.961 1.951-1.242.726-.28 1.501-.413 2.28-.39.778.022 1.544.199 2.253.52.709.322 1.347.782 1.876 1.352.53.571.94 1.242 1.208 1.973.267.73.386 1.508.35 2.285-.036.778-.226 1.54-.56 2.244-.334.703-.805 1.333-1.385 1.852-2.415 1.911-4.889 3.893-5.546 4.409-2.063 1.63-3.833 3.036-5.404 4.302-.282 16.156-.927 36.978-3.295 43.638-1.183 3.404-1.893 6.954-2.11 10.551 0 0 .199-.058.562-.129 1.647-.272 3.323-.323 4.983-.152z"/>
            <path fill="#E8B592" d="M308.897 52.617c.041.573.041 1.15 0 1.723-.44 4.219-1.224 8.395-2.345 12.486-.211.82-.434 1.63-.668 2.439 1.927 7.664 3.205 15.476 3.822 23.354.105 1.407.199 2.802.258 4.198.105 2.895.105 5.838.105 8.675.352 1.032.692 2.076 1.009 3.119.222.762.422 1.536.609 2.345.565 2.285.957 4.609 1.173 6.952.029.273.029.548 0 .821.093.219.176.442.246.668 0-.082 0-.176.058-.258 4.491-21.666 6.965-46.357 0-66.499-.996-2.884-3.13-4.96-5.744-4.69.847 1.42 1.352 3.018 1.477 4.666zM284.358 57.212c.58-.519 1.051-1.149 1.385-1.852.334-.703.524-1.466.56-2.243.036-.778-.083-1.555-.35-2.286-.268-.731-.678-1.402-1.208-1.973-.529-.57-1.167-1.03-1.876-1.351-.709-.322-1.475-.5-2.253-.521-.779-.023-1.553.11-2.28.39-.726.28-1.389.703-1.95 1.243l-1.489 1.594c-4.69 5.147-10.552 11.314-13.038 14.186 1.689-9.73 5.687-26.508 6.097-36.051.208-1.732-.001-3.489-.61-5.124-.197-.575-.473-1.119-.82-1.618l-2.052-4.69c-.103-.231-.293-.413-.53-.504-.236-.091-.499-.085-.73.018-.232.103-.414.293-.505.53-.091.236-.085.499.018.73l1.172 2.72c-.769.109-1.476.487-1.993 1.067-.404.537-.691 1.152-.843 1.806-.151.654-.164 1.333-.036 1.993.257 1.718 1.117 3.29 2.427 4.432-2.626 7.902-8.043 27.786-9.473 39.428-.633 5.287.316 6.859 3.06 8.441l1.336-.375c1.21-.37 2.315-1.02 3.224-1.9 2.978-2.168 5.863-4.689 11.795-9.379 1.571-1.266 3.341-2.673 5.405-4.302.656-.516 3.13-2.498 5.557-4.409z"/>
            <path fill="#B56F31" d="M323.505 22.802c.352-.434.926-.68 1.278-1.172.727-.927.129-2.287-.797-3.084-.927-.797-2.134-1.243-2.99-2.098-.847-1.07-1.537-2.254-2.052-3.518-.285-.656-.737-1.227-1.311-1.654-.574-.428-1.249-.698-1.96-.784-1.172 0-2.192.668-3.318.515-2.954-.457-4.349-3.317-7.878-3.317-1.832-.132-3.645.434-5.077 1.582-.044.057-.091.112-.141.164-1.989-.376-4.016-.514-6.038-.41-.809-.105-4.337-.715-6.049 0-1.712.715-.481.88-3.26 1.172-1.77.212-4.056-.105-5.029 1.29-.969 1.655-1.286 3.61-.891 5.487.201.68.468 1.34.797 1.97.406.725.673 1.52.786 2.345 0 .469-.235 2.344.246 2.427.206-.294.455-.555.738-.774.403-.273.888-.397 1.372-.352 1.173.105 1.993 1.512 1.759 3.06-.06.514-.241 1.006-.528 1.436-.288.43-.673.786-1.125 1.038.967 1.912 2.185 3.686 3.622 5.276.248.225.48.468.692.726.657 1.173.34 3.072 1.641 3.8.692.398 1.63.28 2.275.738.479.463.816 1.052.973 1.7 0 .07 0 .152.094.222 1.407 2.838 6.12 2.345 8.781 4.291 2.122 1.548 3.119 4.596 5.862 3.81.482-.152.92-.417 1.278-.773.558-.643 1.215-1.194 1.946-1.63 1.051-.284 2.137-.415 3.225-.386.981-.106 1.91-.495 2.674-1.12.764-.624 1.329-1.457 1.628-2.398.27-.973.247-2.098 1.02-2.79 1.091-.997 3.4-.727 3.893-2.075.34-.903-.504-1.876-.469-2.837.058-1.232 1.418-1.958 2.345-2.873.607-.618 1.021-1.4 1.189-2.25.169-.85.086-1.73-.24-2.533-.586-1.384-1.934-3.002-.961-4.221zM288.473 9.905l.375-.14h.118l-.493.14zm-7.187 5.863c.05-.1.109-.194.176-.282-.065.077-.124.16-.176.246v.036zm-.152.351v-.117.117z"/>
        </g>
        <path fill="#FFB881" d="M128.777 118.424c-.212.621-.543 1.194-.973 1.689-5.257 3.487-11.303 5.603-17.586 6.155-8.958.774-9.954-5.053-26.556-4.362-.922.039-1.827-.262-2.544-.844v1.583c-.524 2.58-.659 5.224-.398 7.843.328 4.69-1.43 9.38-1.419 14.069 0 4.315.54 8.653 0 12.897-.317 2.661-1.043 5.264-1.348 7.937-.586 5.053.293 10.177-.106 15.242-.55 8.206-4.467 15.815-5.1 23.905-.046 1.804-.222 3.603-.527 5.381-.484 1.424-.799 2.9-.938 4.397.01.4.084.797.222 1.172-.022.563.09 1.123.33 1.633.238.51.596.955 1.042 1.298.495.394 1.072.671 1.688.809l5.734 1.302 2.427.551c.923.262 1.912.165 2.767-.272.855-.438 1.512-1.182 1.84-2.085 7.164-23.776 12.721-46.967 16.508-66.323-.68-9.708-1.595-17.481-2.158-21.737-3.069-.398-5.988-1.563-8.488-3.388-.031-.031-.056-.067-.073-.107-.017-.041-.025-.084-.025-.127 0-.044.008-.087.025-.128.017-.04.042-.076.073-.107.065-.058.148-.09.235-.09.086 0 .17.032.234.09 2.477 1.792 5.363 2.937 8.395 3.33.074.005.144.036.197.087.054.052.088.12.096.194 1.571 11.865 6.19 53.146-.293 86.501-.016.077-.057.146-.116.197-.06.051-.134.08-.213.084.028.904.391 1.766 1.02 2.416.629.651 1.478 1.043 2.38 1.101l1.278.141 6.706.75c2.146.587 5.429-.539 6.179-2.438.856-2.193.586-4.631.915-6.964.598-4.092 3.048-7.703 3.822-11.724.727-3.834-.094-7.797.129-11.725.293-4.865 2.192-9.508 2.767-14.35.574-4.842-.223-9.919-.153-14.89.668-4.127 1.102-8.207 1.348-12.017.176-1.078.34-2.145.493-3.224.801-5.76 1.169-11.572 1.102-17.387 0-2.825.551-7.456-.07-11.032-.206.881-.497 1.741-.868 2.567z"/>
        <path fill="#FFE0BD" d="M72.876 218.42c-.188 1.348-.375 2.696-.54 3.997-.058.505-.082 1.396-.093 1.865.258-.165.539-.469.844-.469h6.296c.293-.985.645-2.24.926-3.295l-5.745-1.301c-.616-.135-1.193-.408-1.688-.797zM106.337 220.717l-.07.938-.118 2.24c.279-.207.615-.322.962-.329h5.674c.106-.785.188-1.535.258-2.087l-6.706-.762z"/>
        <path fill="#F7BD77" d="M101.987 216.813c6.484-33.355 1.865-74.636.293-86.5-.008-.074-.041-.143-.095-.194-.054-.052-.124-.083-.198-.088-3.032-.392-5.917-1.537-8.394-3.329-.065-.058-.148-.09-.235-.09-.086 0-.17.032-.234.09-.031.03-.056.067-.073.107-.017.04-.026.083-.026.127s.01.087.026.127c.017.041.042.077.073.108 2.488 1.838 5.4 3.019 8.465 3.435.563 4.256 1.477 12.029 2.157 21.736 1.254 18.055 1.7 42.817-2.474 64.284-.008.044-.008.089.001.133.009.043.026.085.051.122.025.037.058.069.095.093.037.025.079.042.123.05.087.031.182.025.266-.014.083-.039.148-.11.179-.197z"/>
        <path fill="#FF6F00" d="M72.195 224.082c-.284.197-.517.46-.679.766-.161.306-.246.647-.247.993l-.117 4.924 20.54.281c.845-1.325.41-3.095-1.77-3.927l-2.966-1.173-.48 1.923c.005.04 0 .081-.015.119-.015.037-.04.07-.073.094-.033.024-.071.039-.112.042-.04.004-.08-.003-.117-.02l-.598-.2c-.065-.026-.117-.075-.148-.138-.03-.063-.036-.135-.016-.202l.492-1.958-1.172-.457-.481 1.935c-.005.03-.017.06-.035.086-.017.026-.04.048-.066.064-.027.017-.057.028-.088.032-.03.004-.062.002-.092-.007l-.598-.199c-.064-.024-.116-.071-.147-.132-.03-.061-.037-.131-.017-.196l.492-1.97-1.29-.492-.504 2.075c-.005.032-.017.063-.035.09-.018.027-.042.05-.07.066-.028.017-.06.028-.092.031-.032.003-.065-.001-.096-.011l-.598-.2c-.06-.03-.11-.08-.137-.142-.028-.062-.033-.132-.015-.197l.527-2.111-.375-.141h-1.63l-6.342.083c-.297.012-.585.106-.833.269z"/>
        <path fill="#000543" d="M71.152 230.765l-.234.856c-.14.551.445 1.067 1.172 1.067h16.016c.69.048 1.383-.081 2.01-.374.628-.293 1.17-.742 1.577-1.303l-20.54-.246zM81.013 226.298l.598.2c.03.01.063.014.096.011.032-.004.064-.014.092-.031.027-.017.051-.039.07-.066.018-.027.03-.058.035-.09l.504-2.075.246-.997c.018-.066.013-.135-.015-.197-.028-.062-.076-.113-.137-.143l-.598-.199c-.03-.009-.062-.011-.093-.007-.03.004-.06.015-.087.032-.027.016-.05.038-.067.064-.017.026-.03.056-.034.087l-.235.961-.528 2.11c-.017.066-.012.136.016.198.027.062.076.112.137.142zM83.369 227.037l.598.199c.03.009.061.011.093.007.03-.005.06-.015.087-.032.026-.017.05-.039.067-.065.017-.025.029-.055.034-.086l.48-1.934.282-1.173c.02-.065.013-.135-.017-.196s-.083-.108-.147-.132l-.598-.211c-.03-.007-.063-.007-.094-.001-.03.005-.06.017-.086.035-.027.017-.05.04-.067.067-.017.026-.029.056-.034.087l-.27 1.102-.492 1.969c-.015.035-.023.072-.022.11 0 .037.008.074.023.108.016.035.038.065.066.09.028.025.061.044.097.056zM85.596 227.881l.563.223c.03.008.062.011.093.006.03-.004.06-.015.087-.031.027-.017.05-.039.067-.065.017-.026.03-.055.035-.086l.48-1.923.282-1.172c.02-.064.015-.133-.013-.194-.028-.061-.078-.109-.14-.135l-.598-.211c-.03-.01-.063-.014-.096-.011-.032.004-.063.014-.091.031-.028.017-.052.039-.07.066-.019.027-.03.058-.036.09l-.27 1.114-.492 1.958c-.018.071-.007.147.03.211.038.063.098.11.17.129z"/>
        <path fill="#FF6F00" d="M106.149 223.895c-.257.201-.465.457-.609.749-.144.292-.22.613-.224.939l-.187 4.866 20.541.562c.855-1.324.445-3.095-1.724-3.962l-2.954-1.173-.504 1.911c-.006.031-.018.06-.035.086-.018.026-.04.048-.067.065-.026.017-.056.027-.087.032-.031.004-.063.002-.093-.007l-.598-.211c-.061-.026-.111-.074-.139-.135-.028-.06-.033-.129-.013-.193l.516-1.958-1.173-.469-.527 1.934c-.005.033-.017.063-.036.09-.018.027-.042.05-.07.067-.028.017-.059.027-.091.03-.033.004-.066 0-.096-.011l-.587-.211c-.062-.028-.112-.078-.14-.141-.028-.063-.032-.133-.012-.199l.574-1.969-1.278-.516-.551 2.075c-.005.031-.017.06-.034.086-.018.026-.04.048-.067.065-.026.016-.056.027-.087.031-.031.005-.063.002-.093-.006l-.598-.211c-.061-.031-.109-.081-.137-.143-.028-.062-.033-.132-.015-.197l.551-2.099-.364-.152h-7.972c-.372.007-.732.139-1.02.375zm3.869 5.921c.001.048-.007.097-.024.142-.018.046-.044.087-.078.122s-.075.063-.12.082c-.045.019-.093.029-.142.029h-2.649c-.1 0-.195-.04-.266-.11-.07-.071-.109-.166-.109-.265v-.411c0-.049.009-.097.028-.142.019-.045.047-.085.082-.119.035-.034.077-.06.122-.078.046-.018.094-.026.143-.024h2.603c.047 0 .095.009.139.027.044.019.084.045.118.079.033.034.06.074.078.118.019.044.028.091.028.139l.047.411z"/>
        <path fill="#000543" d="M105.129 230.449l-.223.891c-.152.562.422 1.078 1.172 1.09l15.957.199c.689.057 1.382-.062 2.013-.345.632-.283 1.181-.72 1.598-1.273l-20.517-.562zM115.048 226.158l.598.211c.03.008.061.011.092.006.031-.004.061-.015.087-.032.027-.016.05-.038.067-.064.018-.026.03-.055.035-.086l.551-2.075.258-.985c.018-.066.012-.136-.015-.198-.028-.062-.077-.112-.138-.142l-.597-.211c-.031-.009-.062-.011-.093-.007-.031.004-.061.015-.087.032-.027.016-.05.038-.067.064-.018.026-.029.056-.035.087l-.258.961-.551 2.099c-.018.065-.012.135.015.197.028.062.077.112.138.143zM117.392 226.931l.587.211c.03.011.063.015.096.012.032-.004.063-.014.091-.031.028-.017.052-.04.07-.067.019-.027.031-.057.036-.089l.504-1.923.293-1.173c.018-.065.012-.135-.015-.197-.028-.062-.077-.112-.138-.143l-.597-.211c-.031-.008-.062-.011-.093-.006-.031.004-.061.015-.087.031-.027.017-.05.039-.067.065-.018.026-.029.055-.035.086l-.223 1.091-.515 1.957c-.02.032-.033.067-.038.104-.006.036-.004.073.004.109.009.036.025.07.046.1.022.03.05.055.081.074zM119.608 227.799l.598.211c.03.009.062.011.093.006.031-.004.061-.015.087-.031.027-.017.05-.039.067-.065.017-.026.029-.055.035-.086l.504-1.911.293-1.173c.013-.031.019-.065.018-.099 0-.034-.008-.067-.022-.098-.015-.031-.035-.058-.061-.081-.025-.022-.055-.039-.088-.05l-.586-.223c-.031-.008-.064-.01-.097-.005-.032.005-.063.016-.091.034-.028.018-.051.041-.069.068-.018.028-.03.059-.036.091l-.281 1.102-.516 1.958c-.013.033-.02.069-.019.104 0 .036.008.071.022.104.014.032.034.062.06.087.026.024.056.044.089.057zM109.655 229.042h-2.662c-.2 0-.363.162-.363.363v.422c0 .201.163.364.363.364h2.662c.2 0 .363-.163.363-.364v-.422c0-.201-.163-.363-.363-.363z"/>
        <path fill="#FFE0BD" d="M128.671 25.523c0-.27.082-.493.118-.727.083-.164.157-.332.222-.505.736-1.359 1.184-2.856 1.313-4.396.018-.651-.14-1.295-.457-1.864-.258-.318-.599-.557-.985-.692-.951-.379-1.956-.608-2.978-.68-.257-.029-.516-.029-.773 0l1.582-3.857c.071-.186.068-.391-.008-.575-.076-.183-.22-.33-.402-.41-.187-.073-.395-.07-.579.009-.184.079-.33.227-.406.413l-2.345 5.64c-.023.1-.023.204 0 .304-.04.072-.075.147-.105.223l-.68-1.336c-.038-.107-.098-.204-.176-.286-.079-.081-.173-.146-.277-.189-.105-.043-.217-.064-.33-.06-.113.002-.224.029-.326.077-.102.049-.193.118-.266.204-.074.086-.129.186-.161.294-.033.108-.042.222-.028.335.014.112.052.22.11.316l1.77 3.775s0 .07.071.106c.117 1.159.519 2.27 1.172 3.236-.223 1.135-.545 2.25-.961 3.33-1.982 4.455-4.831 8.206-7.656 12.427 3.388 0 6.706 0 9.836-.07 1.888-6.601 3.236-12.744 3.705-15.042z"/>
        <path fill="#FFE0BD" d="M112.116 40.646h.575c.651-1.325 1.026-2.769 1.102-4.244.072-1.187.257-2.365.551-3.517 1.036-.6 1.944-1.396 2.673-2.345.804-1.035 1.345-2.25 1.575-3.541.231-1.291.145-2.618-.25-3.868l-2.814-7.703c0 .152 0 .316-.094.469-.093.152 0 .187 0 .281 0 .094 0 .27-.058.399-.059.129 0 .187 0 .27v.62c.004.194.028.387.07.575.07.317.164.622.258.938v.117c.049.146.088.295.117.446.005.09.005.18 0 .27.071.422.071.773-.129.855-.133-.145-.278-.278-.434-.398l-.187-.13c-.09-.073-.189-.135-.293-.187-.063-.042-.13-.077-.2-.105l-.281-.13c-.352-.13-.732-.167-1.102-.105h-.07l-.293.094-.211.117-.094.07c-.078.054-.149.117-.211.188v.059c-.089.099-.164.21-.223.328-.05.095-.093.192-.129.293v.094c-.04.13-.067.263-.082.399v.07c-.012.16-.012.32 0 .48.009.194.032.386.07.575v.07c.037.206.096.406.176.598.326.858.907 1.594 1.665 2.11l-.106.247c-.017.48-.072.958-.164 1.43v.188c-.079.397-.184.79-.316 1.172v.153c-.438 1.28-1.15 2.448-2.087 3.423l-.199.211c-.235.223-.481.446-.763.669-.281.222-.41.304-.621.457l-.129.082c-.621.415-1.285.761-1.981 1.032-.341.128-.711.156-1.067.082-.504-.106-.987-.292-1.431-.551-.082.386-.117.785-.187 1.078-.293 1.173-.715 2.005-1.008 3.142-.129.528-.352 1.349-.493 2.087 2.966-.456 5.995-.256 8.875.586z"/>
        <path fill="#D3A56C" d="M107.263 34.292c.696-.27 1.36-.617 1.981-1.032l.129-.082c.211-.152.422-.293.622-.457.267-.207.521-.43.762-.669l.199-.21c.928-.983 1.639-2.15 2.087-3.424v-.152c.128-.385.234-.776.316-1.173v-.188c.085-.472.14-.95.165-1.43l.105-.246c-.758-.516-1.339-1.253-1.665-2.11-.078-.193-.137-.394-.176-.598v-.07c-.034-.171-.057-.343-.07-.517-.012-.18-.012-.36 0-.539v-.07c.015-.135.042-.269.082-.399v-.094c.031-.102.074-.2.129-.293.059-.119.134-.23.223-.328v-.059c.062-.071.133-.134.211-.187l.094-.07.211-.118.293-.094h.07c.358-.066.727-.033 1.067.094l.246.106c.07.028.137.063.2.105.104.052.202.114.293.188l.187.129c.154.123.298.256.434.398.199-.082.199-.433.129-.855-.04-.242-.095-.48-.164-.716v-.117c-.106-.399-.223-.762-.258-.938-.042-.189-.066-.38-.07-.574v-.211-.41-.27c0-.094 0-.27.058-.399.059-.129 0-.188 0-.281.226-.873.379-1.763.457-2.662-.098-2.13-.926-4.163-2.344-5.756-1.173-1.266-4.268-2.017-6.109-2.345-3.306-.551-4.83-2.216-7.374-2.275-.487-.051-.976.085-1.366.382-.39.296-.652.73-.733 1.213.063.668.233 1.321.504 1.934.188.645.118 1.454-.469 1.677-.586.223-1.008-.082-1.512-.094-.349-.022-.694.085-.969.301-.275.217-.46.527-.52.872-.082.61.2 1.266.059 1.852-.352 1.548-3.049 1.255-3.611 2.732-.352.95.398 2.063.562 3.13.329 2.275-2.087 4.256-1.055 6.401.833 1.747 3.377 2.181 4.35 3.87.973 1.688.105 2.344 2.779 3.33.014 1.02.412 2 1.113 2.742.794.527 1.761.725 2.697.552.938-.196 1.908-.176 2.837.058.444.26.927.446 1.43.551.459.14.952.102 1.384-.105z"/>
        <path fill="#4CBDCE" d="M121.332 59.335c-.065 0-.128-.026-.174-.072-.046-.047-.072-.11-.072-.174 0-.066.026-.128.072-.175.046-.046.109-.072.174-.072 3.517-.598 7.034-1.078 10.552-1.547l3.868-.54c6.355-.89 14.503-2.661 17.587-4.818-2.706.783-5.572.828-8.301.129-.531-.156-1.006-.458-1.372-.873-.365-.416-.605-.926-.691-1.472-.458-2.52-.903-5.534-.094-7.632-.129-.68-.235-1.349-.34-2.005-4.221.246-10.388.375-17.434.445-3.13 0-6.448 0-9.837.07h-3.153c-2.934-.84-6.018-1.017-9.028-.515-10.212 1.852-14.925 11.724-14.925 11.724-1.805 2.509-4.385 9.461-4.537 20.001-.774 53.685-5.757 28.959-3.904 46.568.111.966.582 1.854 1.318 2.489.737.634 1.685.968 2.656.935 16.602-.692 17.587 5.135 26.555 4.361 6.284-.552 12.33-2.668 17.587-6.155.43-.494.761-1.068.973-1.688.327-.85.57-1.729.727-2.626.299-1.629.334-3.296.105-4.936-.692-4.983-2.087-11.994-2.052-15.535 0-8.277-.398-27.821 1.384-37.036-2.544.352-5.1.727-7.632 1.172l-.012-.023z"/>
        <path fill="#50577F" d="M153.292 51.937c-3.13 2.157-11.278 3.928-17.586 4.819l-3.869.54c-3.447.468-7.034.949-10.552 1.547-.065 0-.128.026-.174.072-.046.046-.072.109-.072.174 0 .065.026.128.072.174.046.046.109.072.174.072 2.58-.422 5.135-.797 7.68-1.172l2.919-.375 3.869-.528c2.485-.352 15.089-2.263 18.501-5.417l.152-.14-.07-.118c-.293.106-.645.235-1.044.352z"/>
        <path fill="#FFE0BD" d="M143.444 14.29c-.129-.27-.258-.504-.375-.738.184-.615.259-1.258.222-1.9.132-1.537-.052-3.085-.539-4.548-.245-.606-.65-1.133-1.172-1.524-.359-.193-.766-.279-1.173-.247-.563.02-1.124.086-1.676.2l-.082-4.139c-.007-.2-.091-.39-.236-.528s-.338-.214-.538-.21c-.197.006-.384.089-.52.231-.136.143-.21.333-.207.53l.082 4.538c-.18.072-.356.154-.528.246l-.129-4.162c-.001-.099-.022-.196-.061-.286-.039-.09-.096-.173-.167-.241-.07-.069-.154-.123-.246-.16-.091-.035-.189-.053-.288-.052-.198.006-.386.09-.523.232-.138.142-.215.332-.215.53l.105 5.288c-.211.26-.37.559-.469.88l-.563-.54c-.072-.09-.164-.164-.267-.216-.104-.052-.218-.082-.334-.086-.116-.004-.231.017-.339.061-.107.045-.203.112-.282.197-.079.085-.139.186-.176.296-.036.11-.049.227-.036.342.012.116.05.227.109.327s.14.185.235.251l2.345 2.099c.962 1.287 2.085 2.445 3.341 3.447-.01 1.702.187 3.399.587 5.053 1.524 6.436 1.864 13.072 3.106 20.61.106.657.211 1.326.34 2.006-.809 2.098-.363 5.111.094 7.632.087.546.327 1.057.692 1.472.365.415.841.718 1.372.873 2.728.7 5.595.655 8.3-.129.399-.117.751-.246 1.02-.352.165-.07.322-.156.469-.258 4.514-3.024-8.676-31.666-11.278-37.024z"/>
    </g>
    <defs>
        <clipPath id="prefix__clip0">
            <path fill="#fff" d="M0 0H386.897V274.345H0z" transform="translate(.55 .655)"/>
        </clipPath>
        <clipPath id="prefix__clip1">
            <path fill="#fff" d="M0 0H71.318V225.303H0z" transform="translate(253.793 7.69)"/>
        </clipPath>
    </defs>
</svg>
