<svg xmlns="http://www.w3.org/2000/svg" fill="none" viewBox="0 0 650 651">
    <path fill="#E8B592" d="M142.233 133.079l-5.153-14.576c-.505-1.135-.558-2.419-.15-3.592.408-1.173 1.248-2.147 2.348-2.723.541-.267 1.133-.415 1.736-.436.602-.021 1.203.086 1.761.314.559.228 1.063.571 1.479 1.008.416.437.735.957.935 1.526l5.507 15.625.897 2.526 1.364 3.789-10.724-3.461z"/>
    <path fill="#D1A282" d="M137.484 112.958c-.674.773-1.11 1.725-1.255 2.74-.146 1.015.005 2.051.434 2.982l5.204 14.74 11.735 3.928-8.084-22.963c-.228-.631-.587-1.207-1.053-1.69-.466-.483-1.028-.862-1.65-1.114-.608-.242-1.259-.352-1.913-.324-.653.028-1.292.195-1.877.489-.587.299-1.111.711-1.541 1.212zm5.053 19.768l-5.053-14.374c-.489-1.042-.555-2.233-.183-3.322.373-1.089 1.154-1.991 2.179-2.514.478-.238 1.001-.372 1.534-.394.533-.021 1.065.07 1.561.268.506.207.962.518 1.339.915.377.396.665.868.846 1.384l7.49 21.27-9.713-3.233z"/>
    <path fill="#E2B393" d="M150.595 148.426l-16.357-11.368c-.718-.499-1.247-1.226-1.501-2.062-.255-.836-.22-1.734.099-2.548.288-1.157.916-2.201 1.803-2.998.887-.797 1.992-1.31 3.173-1.474h.19c4.079-.555 8.765 1.832 12.378 3.79l3.878 2.791 3.789 10.926-7.452 2.943z"/>
    <path fill="#D1A282" d="M133.834 129.644c-.676.773-1.16 1.695-1.415 2.69-.34.896-.371 1.88-.087 2.796.284.916.866 1.71 1.654 2.256l16.559 11.495 8.008-3.158-3.929-11.444-3.991-2.88c-4.244-2.362-8.677-4.458-12.631-3.915h-.202c-1.543.206-2.955.975-3.966 2.16zm16.824 18.289l-16.167-11.229c-.642-.442-1.116-1.087-1.346-1.833-.229-.745-.2-1.545.083-2.272.257-1.08.835-2.058 1.658-2.804.822-.746 1.852-1.226 2.952-1.377h.202c3.789-.505 8.033 1.529 12.101 3.79l3.789 2.69 3.536 10.358-6.808 2.677z"/>
    <path fill="#E8B592" d="M166.132 155.992l-18.062 2.703c-1.108-.094-2.143-.589-2.913-1.391-.769-.802-1.22-1.856-1.268-2.967-.013-.214-.013-.429 0-.644.075-1.484.572-2.916 1.434-4.127.861-1.21 2.051-2.149 3.429-2.706l10.824-3.625 6.556 12.757z"/>
    <path fill="#D1A282" d="M145.467 148.704c-1.234 1.372-1.949 3.132-2.021 4.976v.682c.064 1.21.562 2.357 1.401 3.231.839.874 1.965 1.418 3.171 1.531h.102l18.655-2.791-6.985-13.604-11.178 3.79c-1.201.48-2.276 1.227-3.145 2.185zm2.589 9.549c-.992-.092-1.917-.54-2.602-1.263-.686-.723-1.085-1.67-1.124-2.666v-.618c.072-1.403.544-2.755 1.362-3.897.817-1.142 1.944-2.025 3.249-2.545l6.517-2.249 5.507 10.8-12.909 2.438zM135.11 136.578c-.199.236-.377.49-.53.758l-.177.341 7.945 5.558.253-.228c.233-.216.411-.484.521-.783.11-.298.147-.619.11-.934-.101-1.491-1.503-3.095-4.155-4.775l-1.971-1.263-.189.063c-.698.265-1.318.699-1.807 1.263zm.443.846c.378-.506.877-.91 1.452-1.174l1.604.998c2.968 1.894 3.688 3.258 3.789 4.079.034.261-.014.526-.138.758l-6.707-4.661zM136.512 118.124l2.804 7.793h.328c.345-.045.675-.166.968-.353.292-.188.54-.438.725-.733.682-1.111.53-2.842-.43-5.153l-.783-1.844h-.202c-1.005-.227-2.054-.157-3.019.202l-.391.088zm3.372 6.821l-2.261-6.316c.611-.155 1.247-.185 1.869-.088l.607 1.453c1.061 2.526.859 3.789.505 4.357-.167.273-.42.482-.72.594z"/>
    <path fill="#797A92" d="M199.213 193.38c3.044-1.754 5.269-4.641 6.189-8.03.921-3.39.463-7.006-1.275-10.058L143.498 69.42c-.866-1.507-2.021-2.829-3.399-3.89-1.377-1.06-2.95-1.839-4.628-2.291-1.679-.453-3.43-.57-5.154-.347-1.724.224-3.387.785-4.893 1.652-1.507.867-2.829 2.022-3.889 3.4-1.061 1.377-1.84 2.95-2.293 4.628-.452 1.678-.57 3.43-.346 5.153.224 1.724.785 3.387 1.652 4.894l60.628 105.872c1.751 3.033 4.631 5.25 8.01 6.166 3.38.916 6.985.457 10.027-1.277z"/>
    <path fill="#A2C7CC" d="M153.728 20.096l4.825 15.864-31.552 8.956-5.091-16.61 31.818-8.21z"/>
    <path fill="#A2C7CC" d="M121.354 27.99l5.356 17.482 32.386-9.183-5.053-16.698-32.689 8.4zm5.937 16.42l-4.838-15.763 30.984-7.995 4.572 15.056-30.718 8.703z"/>
    <path fill="#000543" d="M152.718 0l8.463 29.948-38.777 11.481c-2.967.884-6.161.59-8.916-.822-2.755-1.412-4.859-3.832-5.875-6.756L96.03 0h56.688z"/>
    <path fill="#000543" d="M106.753 0l13.78 40.785 40.078-11.14L152.262 0h.897l8.399 29.822.127.43-41.72 11.594L105.843 0h.91z"/>
    <path fill="#fff" d="M162.304 48.3l28.268 54.844c4.118 7.983 2.324 11.722 0 20.374l-.745 2.69-15.069-2.791.556-2.792c.201-1.023.096-2.082-.301-3.046-.398-.964-1.071-1.789-1.934-2.372l-7.579-5.053c-.258-.17-.562-.255-.871-.243-.309.012-.606.12-.85.31-.244.189-.422.45-.51.747-.088.296-.081.612.021.904l8.69 25.527 4.282 12.631c.439 1.257.539 2.608.29 3.916-.236 1.348-.83 2.609-1.718 3.651-.889 1.041-2.04 1.826-3.334 2.273-1.952.617-4.068.451-5.9-.463-1.832-.915-3.236-2.507-3.915-4.438l-12.315-33.005c-.687-1.839-1.612-3.58-2.753-5.179l-11.368-15.902c-3.36-4.752-5.148-10.436-5.116-16.256V62.561c.002-5.74-.976-11.439-2.892-16.85l-.24-.795 31.577-8.956 3.726 12.34z"/>
    <path fill="#E8B592" d="M126.46 44.612l.366 1.263c1.905 5.37 2.879 11.026 2.88 16.724V84.69c-.007 5.89 1.835 11.634 5.267 16.42l11.368 15.903c1.122 1.556 2.031 3.255 2.703 5.052l12.315 33.005c.716 2.038 2.199 3.716 4.133 4.679 1.934.962 4.167 1.132 6.225.474 2.021-.737 3.674-2.237 4.604-4.177.93-1.94 1.064-4.168.372-6.206l-12.984-38.107c-.075-.21-.081-.438-.018-.651.064-.214.194-.402.371-.536.171-.129.38-.199.594-.199.214 0 .423.07.594.199l7.578 5.052c.793.533 1.411 1.289 1.775 2.172.364.884.459 1.855.271 2.792l-.631 3.234 15.89 2.93.846-3.069c.24-.885.48-1.731.707-2.527 1.996-6.997 3.095-10.85-.695-18.163l-28.242-54.806-3.865-12.706-32.424 9.157z"/>
    <path fill="#D1A282" d="M163.984 145.357c-.815.955-1.332 2.127-1.491 3.372-.151.835-.151 1.691 0 2.526.132.567.313 1.121.543 1.655l.266.707.631 1.756c.077.201.179.392.303.568.245.34.563.62.93.821.367.201.774.318 1.192.341.431.017.86-.052 1.263-.202l3.499-1.263.821-.29c.505-.177 1.023-.354 1.503-.569.42-.214.786-.518 1.072-.892.286-.374.486-.807.583-1.267.094-.474.072-.964-.063-1.428-.101-.316-.228-.631-.354-.947l-1.036-2.526c-.318-.836-.804-1.597-1.427-2.238s-1.371-1.147-2.198-1.488c-.815-.342-1.7-.481-2.581-.404-.88.077-1.728.367-2.471.846-.368.262-.699.572-.985.922zm9.827 8.109c-.188.209-.41.384-.657.518-.417.189-.922.353-1.415.53l-.834.291-3.486 1.263c-.285.11-.59.162-.897.151-.309-.006-.612-.088-.882-.237-.271-.15-.501-.363-.671-.622-.092-.113-.164-.241-.215-.379l-.631-1.73c-.076-.24-.177-.48-.266-.72-.202-.492-.367-.999-.492-1.516-.132-.722-.132-1.462 0-2.185.079-.725.308-1.425.674-2.056.365-.63.858-1.178 1.448-1.607.622-.389 1.328-.625 2.06-.686.732-.062 1.467.052 2.146.333.719.277 1.374.7 1.924 1.241.55.541.982 1.189 1.271 1.904l1.036 2.526c.128.287.238.583.329.884.076.324.076.661 0 .985-.044.404-.197.788-.442 1.112z"/>
    <path fill="#E2B393" d="M174.935 122.318l-1.529 7.882 1.503 1.578c.225.235.405.509.531.809l.972 2.248 5.293 17.191c.878-.795 1.509-1.825 1.819-2.968l1.768-6.455 4.762-17.38-15.119-2.905z"/>
    <path fill="#E2B393" d="M174.608 122.027c-.051.058-.086.128-.102.202l-1.566 8.11 1.655 1.743c.186.195.335.422.442.669l.973 2.248 5.481 17.835.506-.454c.932-.865 1.598-1.978 1.92-3.209l6.53-23.822c.031-.112.017-.232-.04-.334-.057-.101-.152-.176-.263-.209-.055-.015-.112-.019-.169-.012-.056.007-.111.025-.16.053-.049.028-.093.066-.127.111-.035.045-.06.096-.075.151l-6.53 23.835c-.228.829-.638 1.597-1.2 2.248l-5.052-16.496-.986-2.286c-.15-.345-.36-.661-.619-.935l-1.414-1.376 1.49-7.667c.019-.114-.008-.231-.074-.325s-.166-.159-.279-.181c-.061-.007-.123-.002-.182.015-.058.017-.113.047-.159.086z"/>
    <path fill="#FFEB9A" d="M218.942 176.833L565.5 508.5c-5 7 13.5 34.076-15 72.5-21.999 29.66-56.5 7.5-93.5 24s-105.5 18.753-133 14.5-88.073-9.076-96.5-56c-8.428-46.924-51.515-360.47-51.515-360.47l42.957-26.197z"/>
    <path fill="#797A92" d="M176.742 154.198c12.328-6.315 25.679-4.913 29.822 3.171l12.378 19.287-20.841 3.512-.315-.556c-1.89 1.481-3.916 2.78-6.051 3.878-2.166 1.109-4.433 2.01-6.77 2.69l1.503 1.036-12.744 12.631-11.368-18.707c-.152-.303-.341-.581-.493-.871-4.092-8.046 2.539-19.73 14.879-26.071z"/>
    <path fill="#fff" d="M173.728 199.922c-4.213-8.18 2.492-20.024 14.976-26.453 12.484-6.43 26.019-5.011 30.232 3.169 4.213 8.18-2.492 20.023-14.976 26.453-12.484 6.43-26.019 5.011-30.232-3.169z"/>
    <path fill="#FFEB9A" d="M213.511 192.685c.105-.001.209-.029.301-.079.093-.051.171-.123.229-.212 3.032-4.623 3.663-9.435 1.731-13.199-.718-1.318-1.693-2.478-2.866-3.413-1.174-.935-2.523-1.625-3.968-2.031-5.406-1.743-12.479-.796-18.946 2.526-1.902.974-3.701 2.137-5.368 3.474-.066.05-.121.114-.162.186-.041.072-.067.152-.076.234-.01.083-.002.166.021.246.024.08.063.154.116.218.106.131.26.215.428.234.167.019.336-.029.469-.133 1.598-1.286 3.325-2.404 5.153-3.335 6.164-3.17 12.884-4.079 17.974-2.45 1.287.358 2.489.968 3.537 1.797s1.919 1.858 2.564 3.028c1.717 3.347 1.111 7.692-1.668 11.924-.091.142-.122.315-.086.481.035.165.134.31.276.403.102.064.22.099.341.101zM189.992 205.253c4.578-.081 9.074-1.237 13.124-3.373 3.501-1.772 6.625-4.209 9.195-7.174.107-.13.159-.296.145-.464-.014-.168-.094-.323-.221-.433-.062-.054-.135-.095-.214-.121-.078-.025-.161-.035-.244-.028-.082.007-.162.031-.236.069-.073.039-.138.092-.19.156-2.469 2.847-5.473 5.181-8.842 6.871-6.163 3.17-12.883 4.08-17.973 2.45-1.287-.357-2.49-.968-3.538-1.797-1.047-.828-1.919-1.858-2.563-3.028-.957-1.919-1.224-4.108-.758-6.201.032-.168-.004-.341-.1-.482-.096-.141-.244-.238-.412-.27-.167-.032-.34.004-.481.1-.141.096-.238.244-.27.412-.513 2.368-.205 4.839.871 7.01.716 1.321 1.69 2.484 2.863 3.421 1.174.938 2.524 1.63 3.971 2.035 1.902.585 3.883.871 5.873.847z"/>
    <path fill="#797A92" d="M186.669 144.776l-16.37-28.281-.442 7.642 9.157 29.177 7.97-.631-.315-7.907z"/>
    <ellipse cx="407.5" cy="555" fill="#FFC88E" rx="180.5" ry="96"/>
    <path fill="#fff" d="M362.467 386.367c-1.099-6.442-4.597-8.841-7.667-7.945l-5.305 10.598c1.567 5.052 6.808 27.788 6.316 34.002-.741 8.526-1.969 17.002-3.676 25.388-.251.755-.205 1.577.128 2.3.333.723.929 1.291 1.666 1.591l2.273.606c1.516.404 3.196-.884 3.79-2.842 6.504-23.38 6.416-37.11 2.475-63.698z"/>
    <path fill="#EDAE9D" d="M345.784 555.445c-1.264-13.048-3.183-33.106-6.467-59.555h-13.541c1.718 13.818 9.713 41.897 13.187 59.732.505 2.526 0 3.587 3.044 3.587s4.017-1.112 3.777-3.764zM357.568 556.683c.593-13.086 1.376-33.22 1.755-59.846l-13.426-1.705c-.19 13.894 3.89 42.731 4.888 60.843.139 2.615-.442 3.562 2.526 3.928 2.968.367 4.143-.555 4.257-3.22z"/>
    <path fill="#000543" d="M321.796 445.164l10.635.063h29.052c.824.73 1.478 1.632 1.914 2.643.437 1.011.645 2.105.612 3.206.075 3.599.139 7.161.214 10.761-.391 7.389-3.359 14.159-3.22 20.462.126 5.293 2.45 9.638 3.587 14.501.319 1.205.181 2.487-.388 3.597-.569 1.11-1.529 1.97-2.694 2.415-2.445.813-5.002 1.239-7.579 1.263-18.656 0-20.373-1.263-26.133-2.968-.783-.228-1.529-.442-1.63-1.188-2.526-16.988-4.825-34.469-4.622-51.458.05-1.326-.379-2.236.252-3.297z"/>
    <path fill="#EDAE9D" d="M331.244 354.79l1.63-7.162c.352.762.545 1.587.568 2.425 0 .468-.442 2.236 0 2.438.227-.282.506-.518.821-.695.411-.241.894-.331 1.364-.252.319.1.613.264.865.483.252.218.457.486.601.787.145.301.226.628.239.961.013.334-.043.666-.164.977-.176.785-.623 1.482-1.263 1.97l.126.215c.364 1.884 1.222 3.638 2.488 5.081 1.265 1.443 2.891 2.523 4.712 3.129.327.12.682.147 1.023.076 1.061-.215.821-.644 2.362-.657.013.071.013.144 0 .215 0 .72-.53 2.071-.619 2.918-.162 1.036-.204 2.087-.126 3.132 0 .177-.076 8.349-.177 8.488-.101.139-4.572-.48-4.762-.442-2.336.417-1.402-.164-3.296-1.579-.493-.366-.948-.265-1.024-.833.028-3.699.345-7.39.948-11.04 0-.151.076-.328.113-.48.001-.153-.046-.302-.134-.426-.089-.125-.214-.219-.358-.269-1.436-.548-2.731-1.411-3.789-2.526-.872-.91-1.519-2.01-1.892-3.214-.373-1.203-.46-2.477-.256-3.72z"/>
    <path fill="#1C0A02" d="M333.656 340.239c1.099-1.263 3.385-.771 5.191-.808h1.011c.45-.024.887-.168 1.263-.417.6-.369 1.268-.614 1.964-.723.696-.108 1.406-.077 2.09.091.442.101.948.24 1.491.417 4.699 1.528 12.163 6.038 5.545 18.744.076.771-.073 1.548-.43 2.236-.047.09-.089.183-.126.278-.733 1.844.72 4.989-3.448 4.61-.533-.057-1.069-.082-1.604-.076-1.541 0-1.263.442-2.362.657-.342.071-.696.045-1.023-.076-1.821-.606-3.448-1.686-4.713-3.129-1.265-1.443-2.124-3.196-2.487-5.081l-.126-.214c.639-.488 1.086-1.186 1.263-1.971.121-.311.176-.643.163-.977-.012-.333-.094-.66-.238-.961-.145-.301-.349-.569-.601-.787-.253-.219-.547-.383-.865-.483-.47-.078-.953.011-1.364.253-.316.176-.595.412-.821.694-.468-.202-.064-1.97 0-2.438-.024-.838-.217-1.663-.569-2.425-.269-.658-.481-1.338-.631-2.033-.224-1.91.286-3.833 1.427-5.381z"/>
    <path fill="#fff" d="M363.276 447.918c-.262-3.137-.824-6.242-1.68-9.271-.29-1.061-.619-2.097-.973-3.133-.858-2.526-1.844-5.115-2.892-7.578-1.402-3.373-3.196-6.669-3.878-10.307-2.526-13.705 13.642-35.885.506-43.274-6.227-3.473-9.221-5.418-15.878-3.284-6.656 2.135-12.883 8.375-12.971 15.157-.203 16.168-.531 45.244-3.297 53.366-.523 1.528-.945 3.09-1.263 4.673-.145.681-.136 1.385.026 2.062.163.676.475 1.308.913 1.848.439.541.993.976 1.621 1.274.629.298 1.316.452 2.012.45 10.496.821 11.76 5.393 22.925 5.393 5.646-.012 15.347-1.844 14.829-7.376z"/>
    <path fill="#B4C0DB" fill-opacity=".35" d="M361.28 452.187c.049.019.103.019.152 0 .749-.41 1.364-1.027 1.772-1.777.407-.751.59-1.603.527-2.454-.268-3.143-.839-6.252-1.705-9.284-.266-.935-.581-1.92-.986-3.12-.783-2.311-1.705-4.724-2.917-7.578-.367-.834-.746-1.668-1.124-2.527-1.224-2.436-2.152-5.01-2.767-7.667-1.01-5.355.455-10.268 2.009-15.46.265-.884.543-1.768.795-2.665.253-.897.442-1.629.645-2.438 1.092-4.097 1.861-8.274 2.298-12.492.004-.041-.001-.083-.014-.123-.012-.039-.033-.076-.06-.108-.027-.031-.06-.057-.097-.076-.037-.019-.078-.03-.119-.034-.041-.007-.083-.005-.124.005-.04.011-.078.03-.11.056-.033.027-.059.06-.077.097-.019.037-.029.078-.03.12-.434 4.188-1.194 8.335-2.274 12.404-.202.808-.417 1.617-.644 2.412-.227.796-.518 1.781-.796 2.665-1.503 5.053-3.069 10.244-2.033 15.751.627 2.71 1.577 5.335 2.829 7.819.379.833.758 1.654 1.099 2.526 1.263 2.867 2.135 5.267 2.918 7.578.391 1.188.707 2.173.972 3.095.853 2.991 1.416 6.058 1.68 9.157.06.733-.095 1.466-.445 2.112-.35.646-.88 1.176-1.525 1.526-.072.042-.124.11-.148.19-.023.08-.016.165.022.24.039.029.084.049.132.058.049.008.098.006.145-.008z"/>
    <path fill="#1C0A02" d="M375.035 372.082c-2.299-.682-5.053-.796-6.543-2.653-1.086-1.263-1.263-3.17-1.844-4.749-.478-1.103-1.171-2.101-2.039-2.933-.867-.833-1.892-1.485-3.014-1.917-2.278-.845-4.728-1.118-7.136-.796-.967.17-1.953.208-2.931.114-1.003-.239-1.965-.626-2.854-1.15-2.817-1.402-9.549-1.591-8.526 3.474.834 4.054 5.987 3.789 8.387 6.138.572.647.998 1.409 1.249 2.235.251.826.32 1.697.203 2.552-.251 1.733-.709 3.429-1.364 5.053-1.414 4.067-2.526 8.551-1.073 12.631 1.124 3.271 3.701 5.772 6.227 8.121 2.037 2.158 4.734 3.576 7.667 4.03 2.523.503 5.133.347 7.578-.455 4.935-1.882 9.152-5.272 12.05-9.688 2.691-4.496 3.259-10.458.569-14.867-1.498-2.465-3.849-4.294-6.606-5.14z"/>
    <path fill="#000543" d="M344.747 558.666l2.362-.745c1.617 1.018 3.514 1.5 5.421 1.378 1.908-.122 3.728-.844 5.201-2.06l1.112 4.142c.088.342-.341.657-.922.657h-11.898c-3.12.038-4.08-2.488-1.276-3.372z"/>
    <path fill="#EDAE9D" d="M347.109 557.921l8.841-2.779c.543-.177 1.263 0 1.263.391l.455 1.706c-1.468 1.202-3.276 1.915-5.17 2.037-1.894.123-3.779-.351-5.389-1.355zM319.283 449.08l.101 1.528c-.132 1.042-.326 2.076-.581 3.095-.126 2.109.215 6.391 2.034 9.056.114.159.276.278.463.34.186.062.387.064.574.005.187-.058.351-.175.469-.332.118-.157.183-.347.186-.543-.263-4.497.276-9.005 1.592-13.313.24-.821-4.838.164-4.838.164z"/>
    <path fill="#fff" d="M341.438 387.908c0-6.581-3.79-9.688-7.579-9.549l-8.374 9.208c.846 5.368 2.614 28.95.77 34.887-2.578 8.247-5.71 16.311-9.372 24.137-.208.365-.338.768-.382 1.185-.044.417 0 .839.128 1.238.129.4.339.768.617 1.081.279.314.62.566 1.001.74l2.589 1.112c.936.328 1.958.312 2.884-.044.925-.357 1.694-1.03 2.169-1.901 12.403-21.511 14.98-35.038 15.549-62.094z"/>
    <path fill="#B4C0DB" fill-opacity=".37" d="M322.087 452.516c.811-.019 1.603-.245 2.299-.659.697-.414 1.276-1.001 1.68-1.703 12.631-21.827 15.056-35.278 15.612-62.233-.005-.757-.065-1.512-.177-2.261-.005-.041-.018-.081-.038-.117-.021-.036-.048-.067-.082-.092-.033-.025-.071-.043-.111-.052-.04-.01-.082-.011-.123-.004-.041.006-.082.02-.118.042-.036.022-.067.051-.092.085-.024.034-.042.073-.051.114-.01.041-.011.084-.004.125.102.716.156 1.437.164 2.16-.556 26.816-2.993 40.204-15.523 61.892-.434.798-1.135 1.418-1.981 1.75-.845.333-1.781.357-2.642.069l-2.589-1.112c-.316-.134-.6-.331-.837-.579-.236-.247-.42-.54-.54-.861-.136-.386-.191-.797-.16-1.206.03-.408.145-.806.337-1.169 3.67-7.841 6.805-15.923 9.384-24.188 1.731-5.557.72-25.956.177-33.345.001-.042-.008-.083-.025-.121-.017-.038-.042-.072-.073-.099-.031-.028-.068-.049-.107-.061-.04-.012-.082-.015-.123-.01-.042.002-.084.012-.122.03-.038.018-.071.044-.099.076-.027.033-.047.07-.059.11-.013.041-.016.083-.011.125.493 6.859 1.529 27.662-.164 33.106-2.556 8.247-5.679 16.308-9.347 24.125-.222.443-.353.926-.386 1.421-.032.494.035.99.197 1.459.152.4.384.765.681 1.074.298.308.655.553 1.049.719l2.526 1.112c.469.19.972.285 1.478.278z"/>
    <path fill="#EDAE9D" d="M335.299 557.921l8.842-2.779c.543-.177 1.263 0 1.263.391l.454 1.706c-1.468 1.202-3.276 1.915-5.17 2.037-1.894.123-3.778-.351-5.389-1.355z"/>
    <path fill="#000B5E" d="M332.962 558.666l2.362-.745c1.617 1.018 3.514 1.5 5.421 1.378 1.908-.122 3.728-.844 5.201-2.06l1.112 4.142c.088.342-.341.657-.922.657h-11.899c-3.145.038-4.105-2.488-1.275-3.372z"/>
</svg>
