<svg xmlns="http://www.w3.org/2000/svg" width="50" height="50" fill="none" viewBox="0 0 50 50">
    <path fill="#FFB881" fill-rule="evenodd" d="M25 10.24c2.27-2.667 5.75-4.354 9.375-4.354 6.416 0 11.458 5.041 11.458 11.458 0 7.868-7.072 14.281-17.786 23.997l-.026.024L25 44.115l-3.021-2.73-.082-.074c-10.683-9.708-17.73-16.112-17.73-23.967 0-6.417 5.041-11.459 11.458-11.459 3.625 0 7.104 1.688 9.375 4.355zm0 28.25l.208-.209c9.917-8.979 16.459-14.916 16.459-20.937 0-4.167-3.126-7.292-7.292-7.292-3.209 0-6.334 2.063-7.417 4.917h-3.896c-1.104-2.854-4.229-4.917-7.437-4.917-4.167 0-7.292 3.125-7.292 7.292 0 6.02 6.542 11.958 16.458 20.937l.209.209z" clip-rule="evenodd"/>
</svg>
