<svg xmlns="http://www.w3.org/2000/svg" width="834" height="905" fill="none" viewBox="0 0 834 905">
    <path fill="#E3F1F3" fill-rule="evenodd" d="M511.13 0H834v160.629c-6.042 12.137-13.316 24.887-22.067 38.371-93.578 144.181-45.717 285.252-5 369 7.598 15.628 16.976 30.283 27.067 44.714V905H0V761.708C107.995 715.862 177.366 655.742 221.933 599c66.477-84.639 82.699-141.566 102.58-211.341l.003-.007c9.128-32.035 19.027-66.777 34.917-108.152 23.686-61.679 69.637-94.596 109.904-123.441 29.689-21.268 56.288-40.322 68.596-67.059 16.005-34.772-3.191-64.029-26.803-89z" clip-rule="evenodd"/>
</svg>
