<svg xmlns="http://www.w3.org/2000/svg" width="50" height="50" fill="none" viewBox="0 0 50 50">
    <path fill="#FFB881" fill-rule="evenodd" d="M43.75 18.75v-4.167c0-3.437-2.813-6.25-6.25-6.25h-25c-3.438 0-6.25 2.813-6.25 6.25v4.167C2.812 18.75 0 21.562 0 25v10.417c0 3.437 2.813 6.25 6.25 6.25h37.5c3.438 0 6.25-2.813 6.25-6.25V25c0-3.438-2.813-6.25-6.25-6.25zm-33.333-4.167c0-1.146.937-2.083 2.083-2.083h25c1.146 0 2.083.937 2.083 2.083v5.792C38.313 21.52 37.5 23.167 37.5 25v4.167h-25V25c0-1.833-.813-3.48-2.083-4.625v-5.792zM43.75 37.5c1.146 0 2.083-.938 2.083-2.083V25c0-1.146-.937-2.083-2.083-2.083-1.146 0-2.083.937-2.083 2.083v8.333H8.333V25c0-1.146-.937-2.083-2.083-2.083-1.146 0-2.083.937-2.083 2.083v10.417c0 1.145.937 2.083 2.083 2.083h37.5z" clip-rule="evenodd"/>
</svg>
