<svg xmlns="http://www.w3.org/2000/svg" fill="none" viewBox="0 0 1589 973">
<!-- <svg xmlns="http://www.w3.org/2000/svg" fill="none" viewBox="0 0 1491 973"> -->
    <g clip-path="url(#prefix__clip0)">
        <path fill="#E3F1F3" d="M1432.88 1h-404.4c-37.603 36.551 110.71 87.286 74.02 167-29 63-137.349 83.345-178.5 190.5-50.5 131.5-40.5 196-137.5 319.5S474.999 941 .5 914.5c-314.763-17.579-169.503 334.54-162 374.5 78.612 8.01 62.958-132.87 171.5-196.5 233.592-80.9 339.879-37.09 649-43.5 309.12-6.41 445 101.75 510 94s264.25-23.5 304.5-170c48.4-176.157-57.43-234.323-102-326-40.72-83.748-88.58-224.819 5-369 79.5-122.491 37.09-184.404 56.38-277z"/>
        <path fill="#CBCBCB" d="M1361.99 813.181h.16l-.5 159.029h5.08l.06-17.006h51.71v17.006h4.94v-22.069l.09-26.738v-5.063l.08-26.738v-5.063l.09-26.737v-5.064l.09-26.737v-5.064l.08-26.737v-5.076l.09-26.725v-5.063l.09-26.738v-5.063l.08-26.738v-5.063l.09-26.738v-5.075l.07-26.738v-5.063l.08-26.738v-5.063l.07-26.737v-5.076l.08-26.738v-5.063l.07-26.738v-5.063l.07-26.737v-5.076l.08-26.725v-5.076l.07-26.737v-5.064l.08-26.737v-5.064l.08-26.737v-5.076l.09-26.737v-17.204h-.17v-19.661l.08-26.737v-5.076l.09-26.725v-5.076l.09-26.737v-16.425h-5.08v11.361h-50.99v-11.361H1364l-2.01 637.684zm58.58-594.546h-51.65l.08-26.738h51.66l-.09 26.738zm-.09 31.8h-51.66l.08-26.725h51.66l-.08 26.725zm-.1 31.814h-51.66l.09-26.738h51.65l-.08 26.738zm0 5.063l-.09 26.738h-51.5v-12.14h-.17v-14.598h51.76zm-1.1 349.847l-.08 26.737h-51.49l.08-26.737h51.49zm-.18 58.55h-51.5l.08-26.737h51.49l-.07 26.737zm0 5.064l-.07 26.737h-51.5l.09-26.737h51.48zm-51.76 90.339l.08-26.725h51.49l-.09 26.725h-51.48zm.09-31.801l.09-26.738h51.49l-.08 26.738h-51.5zm.4-127.204l.09-26.737h51.48l-.07 26.737h-51.5zm51.89-122.152l-.08 26.738h-51.55l.09-26.738h51.54zm-.11 31.801l-.07 26.737h-51.5l.09-26.737h51.48zm-.1 31.813l-.07 26.738h-51.6l.09-26.738h51.58zm.8-254.407l-.08 26.738h-51.5l.09-26.738h51.49zm-.28 90.352h-51.5l.09-26.738h51.5l-.09 26.738zm-.1 31.801h-51.49l.08-26.738h51.5l-.09 26.738zm0 5.075l-.2 26.676h-51.49l.08-26.725 51.61.049zm-51.74 58.539l.08-26.738h51.46v26.738h-51.54zm.39-127.204l.09-26.737h51.5l-.09 26.737h-51.5zm-1.69 545.74h51.61v26.676h-51.66l.05-26.676zm.1-31.801h51.66l-.09 26.738h-51.66l.09-26.738zm.1-31.813h51.66l-.09 26.737H1367l.09-26.737zm.1-31.801h51.65l-.08 26.737h-51.66l.09-26.737zm0-5.063l.08-26.738h51.49v16.994h.17v9.744h-51.74z"/>
        <path fill="#EFE4D4" d="M874.041 690.744H706.035c-9.444 0-17.099 7.653-17.099 17.092V875.77c0 9.439 7.655 17.092 17.099 17.092h168.006c9.444 0 17.1-7.653 17.1-17.092V707.836c0-9.439-7.656-17.092-17.1-17.092z"/>
        <path fill="#E3F1F3" d="M788.358 689.643l.253 6.725c0 4.116-2.114 8.161-4.674 11.377-1.582 1.994-2.57 4.393-2.853 6.923-.283 2.529.152 5.087 1.254 7.381 1.102 2.295 2.828 4.233 4.979 5.594 2.152 1.361 4.643 2.089 7.189 2.103 2.547.013 5.045-.69 7.211-2.028 2.166-1.339 3.911-3.259 5.037-5.542 1.126-2.282 1.588-4.836 1.331-7.368-.256-2.532-1.22-4.941-2.781-6.952-2.559-3.287-4.836-7.322-4.836-11.488l.274-6.735c.061-1.447.652-2.821 1.662-3.86 1.009-1.039 2.366-1.67 3.811-1.773H783.3c1.372.197 2.631.87 3.556 1.902.925 1.031 1.457 2.356 1.502 3.741z"/>
        <path fill="#EFE4D4" d="M896.021 792.606l5.93-.222c3.633 0 7.191 1.864 10.033 4.124 1.759 1.394 3.876 2.266 6.107 2.515 2.231.25 4.488-.133 6.512-1.105 2.024-.971 3.734-2.492 4.935-4.388 1.2-1.897 1.843-4.093 1.855-6.337.012-2.244-.608-4.446-1.789-6.355-1.18-1.909-2.874-3.448-4.888-4.441-2.014-.992-4.266-1.399-6.5-1.173-2.234.226-4.359 1.075-6.133 2.451-2.891 2.26-6.45 4.26-10.132 4.26l-5.943-.247c-1.271-.057-2.477-.579-3.388-1.467-.911-.888-1.464-2.08-1.554-3.349v20.192c.173-1.205.764-2.312 1.669-3.127.906-.814 2.068-1.286 3.286-1.331z"/>
        <path fill="#F6C19A" d="M782.562 898.234l.779-.988.136.124-.915.864z"/>
        <path fill="#EFE4D4" d="M785.998 895.48l.235 5.928c0 3.631-1.866 7.188-4.127 10.028-1.397 1.758-2.27 3.874-2.521 6.105-.251 2.231.131 4.488 1.102 6.512.972 2.024 2.493 3.735 4.391 4.936 1.898 1.201 4.095 1.844 6.341 1.856 2.246.011 4.45-.609 6.361-1.79 1.91-1.181 3.449-2.875 4.442-4.889.992-2.014 1.398-4.266 1.171-6.5-.228-2.234-1.079-4.358-2.458-6.131-2.248-2.89-4.25-6.447-4.25-10.127l.235-5.94c.063-1.269.587-2.472 1.474-3.381.888-.91 2.077-1.464 3.345-1.559h-20.201c1.207.17 2.315.76 3.131 1.665.815.906 1.286 2.069 1.329 3.287z"/>
        <path fill="#110B03" d="M724 754.124c-1.557 4.063-2.323 8.57-4.942 12.004-2.261 2.927-5.659 4.742-8.143 7.41-2.483 2.667-3.867 7.274-1.42 10.201 1.149 1.395 2.94 2.111 4.089 3.495 3.25 3.902-.222 9.398-1.544 14.19-.705 2.747-.683 5.629.062 8.366.745 2.736 2.188 5.232 4.188 7.244 2.903 2.865 7.166 5.113 7.697 9.126.42 3.174-1.779 6.447-.506 9.398 1.865 4.335 8.587 3.174 12.12 6.299 2.471 2.198 2.755 5.903 3.855 9.04 1.032 2.927 2.866 5.505 5.293 7.44 2.427 1.934 5.349 3.148 8.434 3.502 3.237.284 6.634-.432 9.649.877 3.892 1.704 6.178 6.409 10.23 7.484 8.501 2.223 10.502-7.916 16.284-13.264 7.29-6.731 21.35-5.718 24.612-15.203.766-2.223.828-4.94 2.57-6.446 1.742-1.507 4.584-1.334 6.499-2.705 3.607-2.581 2.088-8.743 3.706-12.708.558-.857 1.165-1.682 1.816-2.47 14.926-21.649 17.298-47.596 3.608-64.219-11.33-13.795-30.974-17.883-51.052-12.757-.185-.161-.284-.346-.469-.507-4.399-3.84-9.884-4.866-15.481-4.569-10.403.531-13.591 9.991-22.24 11.695-3.286.642-6.634-1.507-9.983-1.235-4.361.148-7.376 4.236-8.932 8.312z"/>
        <path fill="#C48357" d="M846.996 790.037l-4.201-9.88v.136-2.816c-.028-2.961-.602-5.891-1.693-8.645-1.322-3.482-2.965-7.335-5.51-9.941-.942-1.262-2.006-2.429-3.176-3.483-.158.964-.419 1.908-.778 2.816-2.17 5.641-6.381 10.26-11.799 12.943-5.053 2.581-10.366 5.816-11.12 9.793-.254-.081-.515-.143-.778-.185-1.393.086-2.718.633-3.767 1.554s-1.762 2.164-2.028 3.534c0 .222-.111.457-.148.691-.086.486-.127.978-.124 1.47-.056 1.353.259 2.697.913 3.883.653 1.187 1.62 2.172 2.794 2.848.691 2.61.572 5.369-.341 7.909-.914 2.541-2.579 4.745-4.774 6.318v-.062c-2.014 7.509-8.785 33.11-8.785 33.11-.186.502-.245 1.041-.172 1.571.074.53.277 1.034.593 1.466.316.432.734.779 1.217 1.009.483.231 1.015.339 1.55.314l10.428.074c1.215-.058 2.383-.488 3.345-1.233.961-.745 1.67-1.768 2.029-2.929l6.314-22.378c.458-1.442 1.346-2.709 2.545-3.631.496-.535 1.112-.946 1.796-1.2.685-.253 1.42-.341 2.145-.257 13.591 1.605 19.225-7.262 19.287-18.315v-2.235l2.619-.741c.35-.106.673-.284.948-.524.276-.24.497-.535.65-.866.153-.332.234-.692.238-1.057.003-.365-.071-.727-.217-1.061zm-8.34-13.276h-5.263c-.35-.033-.674-.195-.91-.454s-.367-.597-.367-.948c0-.35.131-.688.367-.947.236-.26.56-.421.91-.454h5.263c.349.033.673.194.91.454.236.259.367.597.367.947 0 .351-.131.689-.367.948-.237.259-.561.421-.91.454zm-1.483 3.915c0 1.371-.729 2.47-1.618 2.47-.89 0-1.619-1.111-1.619-2.47 0-1.358.729-2.47 1.619-2.47h2.743l-1.322 1.321c.124.371.191.758.197 1.149zm-1.235 21.711c-.901-.177-1.711-.668-2.285-1.384-.574-.717-.877-1.613-.854-2.531l6.425.951c.346 3.582-3.237 2.964-3.237 2.964h-.049z"/>
        <path fill="#fff" d="M832.861 798.472c-.024.918.279 1.814.853 2.531.574.716 1.384 1.206 2.285 1.384 0 0 3.583.617 3.286-2.964l-6.424-.951z"/>
        <path fill="#110B03" d="M838.655 773.958h-5.263c-.349.032-.674.194-.91.453-.236.26-.367.598-.367.948 0 .351.131.689.367.948s.561.421.91.454h5.263c.349-.033.674-.195.91-.454s.367-.597.367-.948c0-.35-.131-.688-.367-.948-.236-.259-.561-.421-.91-.453zM805.568 794.767c-1.174-.676-2.14-1.661-2.794-2.848-.653-1.186-.969-2.529-.912-3.883-.004-.492.038-.984.123-1.469 0-.235.099-.47.149-.692.265-1.37.978-2.613 2.027-3.534 1.049-.921 2.374-1.467 3.767-1.554.264.043.524.105.779.185.716-3.976 6.029-7.212 11.119-9.793 5.418-2.683 9.629-7.302 11.799-12.943.359-.908.62-1.852.779-2.816.063-.337.092-.681.086-1.025-.074-3.124-13.368-7.088-16.494-7.274-15.37-.963-45.714 9.139-24.513 51.166 1.636 3.321 4.001 6.23 6.919 8.509 0 0 1.693 1.828 2.002 2.136v.062c2.204-1.567 3.879-3.767 4.801-6.309.923-2.541 1.049-5.303.363-7.918zM835.554 778.194c-.89 0-1.618 1.111-1.618 2.469 0 1.359.728 2.47 1.618 2.47.89 0 1.619-1.111 1.619-2.47-.006-.394-.072-.786-.198-1.16l1.322-1.322-2.743.013z"/>
        <path fill="#fff" d="M754.875 884.711c-4.003-6.175-9.711-22.23 16.26-44.459 11.28-8.497 27.651-15.598 44.985-5.706 1.524.898 2.938 1.972 4.213 3.199 12.553 11.682 16.964 15.671 18.026 35.74.081 1.449-.135 2.899-.633 4.262-.499 1.362-1.27 2.609-2.266 3.665-.997 1.055-2.198 1.896-3.531 2.471-1.332.576-2.768.875-4.22.877l-72.834-.049z"/>
        <path fill="#fff" d="M755.592 884.711c-1.292.003-2.564-.313-3.704-.92-1.14-.607-2.113-1.486-2.832-2.559-.718-1.072-1.161-2.306-1.288-3.59-.128-1.285.064-2.581.559-3.774 4.114-9.732 9.439-19.439 16.185-27.17 4.275-5.755 14.134-2.606 20.596 1.729 11.194 7.521 9.971 15.746 1.421 36.333l-30.937-.049z"/>
        <path fill="#FFB288" d="M1027.09 529.9h-.18c.5.309 1.1.654 1.79 1.013-.15-.303-.38-.558-.66-.737-.29-.178-.62-.274-.95-.276z"/>
        <path fill="#FFC3BD" d="M688.614 808.29c-.053.006-.107.006-.161 0-6.9-1.323-13.684-3.194-20.287-5.594l-.21 9.175c5.572 1.482 11.886 2.47 17.075 3.446 1.181.25 2.402.25 3.583 0v-7.027z"/>
        <path fill="#FFC3BD" d="M688.626 806.339c-.469.753-.927 1.507-1.025 1.618l.827-3.15c.059-.132.088-.276.086-.421-.002-.145-.035-.288-.097-.42-.062-.131-.152-.247-.263-.341-.111-.093-.241-.162-.38-.201-.295-.113-.621-.11-.913.01-.291.119-.526.346-.657.632l-3.224 7.657c-.096.24-.11.505-.038.754.072.248.224.465.433.617.117.203.254.393.408.568.628.647 1.41 1.123 2.273 1.383.532.186 1.236.457 1.878.618.228.053.459.086.692.099v-9.423z"/>
        <path fill="#A08052" d="M615.248 745.565c4.164-3.878 10.193-6.051 12.689-11.312 1.581-3.322 1.594-7.595 2.792-11.115 1.952-5.817 7.203-9.547 13.962-9.88 2.397-.136 4.324.617 6.832 1.309 3.707 1.025 3.707.704 6.758 0 3.966-1 6.512 1.643 10.082 6.175 6.771 8.534 11.898 21.526 7.24 27.898-3.422 4.681-11.848 5.743-11.206 12.647.457 4.939 7.216 12.955-1.915 16.24-2.681.951-5.844 1.074-8.723 1.716-.924.121-1.788.527-2.471 1.161-1.47 1.704-.123 5.026-.086 7.645 0 4.087-3.324 6.459-7.413 6.718-6.289.408-18.916-4.409-24.006-8.423-11.553-9.311-15.494-30.59-4.535-40.779z"/>
        <path fill="#FFC3BD" d="M654.736 954.599c2.409-13.462 5.696-26.664 9.093-39.964.186-.729.371-1.433.544-2.137l14.937.136c-2.94 10.028-15.543 41.026-19.768 58.835-.482 2.025-5.745 2.062-6.882-.976-.642-1.741.445-6.657.791-9.077.346-2.421.889-4.557 1.285-6.817zM639.18 970.592c.828-2.297 4.942-20.538 10.033-58.23l-14.48-.123c0 15.4-1.014 30.405-2.669 47.411-.346 3.594-1.063 8.484-.865 10.942h7.981z"/>
        <path fill="#fff" d="M652.636 855.998c7.168-.326 14.186-2.161 20.596-5.385.571-.264 1.055-.685 1.394-1.215.339-.529.52-1.145.521-1.773 3.41 11.979 7.524 31.763 7.697 44.039.014 5.362-.701 10.7-2.125 15.87-.296 1.235-.63 2.47-.988 3.705-.136.481-.285.963-.42 1.457l-14.938-.222c0-.124 0-.247.099-.383h-15.234v.247l-14.48-.124c.099-22.785-1.52-46.114-4.189-62.082v-.606h.173c.027.097.06.192.099.284 3.101 3.236 7.253 6.608 21.795 6.188z"/>
        <path fill="#A2C7CC" d="M637.105 803.795c-.193-6.394-.949-12.758-2.261-19.019 0 0-10.181-12.202-1.236-19.043 10.959-8.398 24.241-10.683 35.138 1.469l1.335 2.112c2.162 1.235-.359 35.543.58 42.446 1.681 12.177 4.387 23.786 4.535 35.901-.001.629-.182 1.245-.521 1.774-.339.53-.823.951-1.394 1.215-6.41 3.224-13.428 5.059-20.596 5.385-14.543.42-18.657-2.952-21.881-6.175-.039-.093-.072-.188-.099-.284-.507-1.766-1.236-7.756-1.236-7.756-1.087-15.437 8.352-23.045 7.636-38.025z"/>
        <path fill="#FFC3BD" d="M648.892 765.72c1.009.619 2.117 1.061 3.274 1.309 1.25.335 2.58.166 3.707-.469.614-.429 1.104-1.012 1.42-1.691.317-.679.449-1.429.384-2.175-.012-.331-.095-.656-.244-.953-.15-.296-.362-.556-.621-.763-.334-.161-.708-.221-1.075-.173-2.582.074-5.832-1.606-8.377-1.075-.692.149-1.235 2.261-.852 3.496.503 1.067 1.34 1.943 2.384 2.494z"/>
        <path fill="#3E2043" d="M665.881 732.968c.038.341-.06.683-.273.951-.213.268-.524.442-.864.482-.328-.075-.62-.258-.83-.521-.209-.262-.323-.588-.323-.924 0-.336.114-.662.323-.924.21-.263.502-.446.83-.521.171.02.336.073.486.158.15.084.282.197.388.333.105.135.183.291.228.457.045.166.057.339.035.509z"/>
        <path fill="#A57C3A" d="M667.907 722.483s-12.553 11.757-24.093 7.41c.013-.061 4.3-23.563 24.093-7.41z"/>
        <path fill="#FFC3BD" d="M665.09 724.126c-.963.132-1.932.21-2.904.235-2.334.094-4.616.723-6.67 1.836-2.054 1.113-3.825 2.682-5.179 4.586-1.235 1.803-1.828 3.939-3.064 5.718-.7.967-1.566 1.803-2.557 2.469.22.308.504.565.832.752.329.188.694.302 1.071.335l-.099 20.501c-.042.511.116 1.018.441 1.414.325.396.792.651 1.301.71h6.993c.51-.053.98-.304 1.308-.698.327-.395.488-.902.446-1.414l.062-13.14c2.562-.107 4.985-1.19 6.773-3.028 1.788-1.837 2.804-4.289 2.839-6.852v-8.052c.009-1.908-.545-3.777-1.593-5.372zm-8.291 8.176c.057.167.086.342.087.518 0 .618-.322 1.112-.729 1.112-.408 0-.729-.494-.729-1.112 0-.617.333-1.124.729-1.124h1.235l-.593.606zm.457-1.161h-2.471c-.085 0-.17-.017-.248-.05-.079-.033-.151-.082-.21-.143-.06-.061-.107-.133-.139-.212-.031-.08-.047-.164-.045-.25 0-.17.068-.334.188-.454.121-.12.284-.188.454-.188h2.471c.171 0 .334.068.455.188.12.12.188.284.188.454.002.086-.014.17-.045.25-.032.079-.079.151-.139.212-.06.061-.131.11-.21.143-.079.033-.163.05-.249.05zm2.731 11.325c-1.52-.247-1.89-1.112-1.965-1.816l4.003.445c.186 1.667-2.038 1.371-2.038 1.371zm2.15-4.249l-1.088.346c-.63.21-1.235-.432-1.087-1.173v-.124c.082.163.219.291.386.363.167.072.354.084.528.032l1.088-.358c.221-.084.413-.231.553-.421.14-.191.222-.417.237-.653l.087.222c.134.328.135.696.004 1.025-.131.329-.385.595-.708.741zm3.521-5.397c0 .618-.334 1.112-.729 1.112-.395 0-.729-.494-.729-1.112 0-.617.321-1.124.729-1.124h1.235l-.605.606c.067.164.101.341.099.518zm.519-1.679h-1.891c-.153-.022-.291-.102-.386-.225-.095-.122-.138-.276-.12-.43-.017-.152.026-.305.121-.425.095-.121.233-.198.385-.217h1.891c.152.019.291.096.385.217.095.12.139.273.121.425.018.154-.025.308-.12.43-.094.123-.233.203-.386.225z"/>
        <path fill="#fff" d="M659.987 742.465s2.224.297 2.039-1.371l-4.004-.444c.075.704.445 1.568 1.965 1.815z"/>
        <path fill="#512F0A" d="M657.256 729.844h-2.471c-.17 0-.334.067-.454.188-.121.12-.188.284-.188.454-.002.085.013.17.045.249.032.08.079.152.138.213.06.061.132.109.21.142.079.033.164.051.249.051h2.471c.086 0 .17-.018.249-.051.079-.033.15-.081.21-.142.06-.061.107-.133.138-.213.032-.079.047-.164.046-.249 0-.17-.068-.334-.189-.454-.12-.121-.283-.188-.454-.188zM666.177 729.844h-1.89c-.152.018-.291.096-.386.217-.095.12-.138.273-.121.425-.017.154.026.308.12.43.095.123.234.203.387.225h1.89c.153-.022.292-.102.387-.225.094-.122.137-.276.12-.43.017-.152-.026-.305-.121-.425-.095-.121-.234-.199-.386-.217z"/>
        <path fill="#DDA7A6" d="M662.78 736.229c-.015.236-.098.462-.238.653-.14.19-.332.337-.553.421l-1.087.358c-.175.052-.362.04-.529-.032-.167-.072-.303-.201-.386-.363v.124c-.136.741.458 1.383 1.088 1.173l1.087-.346c.327-.142.587-.405.723-.735.136-.33.138-.7.006-1.031l-.111-.222z"/>
        <path fill="#000" d="M655.428 732.82c0 .618.333 1.112.729 1.112.395 0 .729-.494.729-1.112-.001-.176-.03-.351-.087-.519l.606-.605h-1.236c-.408 0-.741.47-.741 1.124zM664.929 731.696c-.408 0-.729.507-.729 1.124 0 .618.321 1.112.729 1.112s.729-.494.729-1.112c.002-.178-.031-.354-.099-.519l.606-.605h-1.236z"/>
        <path fill="#A08052" d="M647.273 736.5c1.236-1.778 1.878-3.914 3.065-5.717 1.353-1.904 3.124-3.473 5.178-4.586 2.054-1.113 4.336-1.742 6.67-1.836.972-.025 1.941-.103 2.904-.235.679-.111 1.235-.296 1.235-.58.186-.68-1.544-2.742-1.791-3.397 0-.16-1.73.124-1.866 0-.128-.1-.283-.16-.445-.173l-4.077-.876c-1.864-.452-3.76-.758-5.671-.914-1.591-.193-3.2.164-4.559 1.012-2.088 1.519-2.471 4.459-3.546 6.78-1.557 3.199-4.769 5.397-6.017 8.719-.605 1.606-.618 3.705.655 4.78 1.272 1.074 3.595.827 5.189-.136l.469-.321c1.013-.677 1.896-1.53 2.607-2.52z"/>
        <path fill="#A2C7CC" d="M634.671 798.287c-1.903-8.448-3.769-16.401-4.942-24.959-1.174-8.559 11.416-8.83 12.639-.247 1.05 7.41 2.681 14.82 4.324 22.094.297 1.235.544 2.47.816 3.618l-11.355 4.792c-.593-1.655-1.062-3.409-1.482-5.298z"/>
        <path fill="#FFC3BD" d="M636.104 803.585l11.355-4.792c1.025 4.458 2.199 7.941 6.017 11.436 9.785 8.941 17.569 16.833 29.022 23.144 7.413 4.087 1.742 10.485-5.621 6.421-13.023-7.175-21.498-12.596-32.408-23.057-3.879-3.587-6.761-8.119-8.365-13.152z"/>
        <path fill="#FFC3BD" d="M678.236 837.287c1.802-1.625 4.016-2.727 6.4-3.186.605-.292 1.289-.376 1.947-.241.659.136 1.254.483 1.695.99.441.507.703 1.144.746 1.815.043.67-.136 1.336-.509 1.894-.445 1.352-1.042 2.649-1.779 3.866-.258.485-.621.907-1.062 1.235-.603.435-1.354.612-2.088.494-2.126-.457-4.56-2.816-5.894-3.705-2.607-1.643-1.68-1.149.544-3.162z"/>
        <path fill="#FFC3BD" d="M686.489 835.904l6.734 4.446c.109.072.232.12.36.142.129.023.261.019.388-.011s.247-.086.352-.163c.105-.078.193-.176.259-.289.141-.225.189-.497.134-.758-.055-.26-.21-.489-.431-.637l-6.733-4.446c-.11-.072-.233-.12-.361-.143-.129-.022-.261-.018-.388.012s-.247.085-.352.163c-.105.078-.193.176-.259.289-.138.226-.184.497-.129.757.055.259.207.488.426.638zM685.735 838.72l6.734 4.434c.109.07.231.118.359.14.128.023.259.019.385-.009.127-.029.246-.083.352-.158.105-.076.195-.172.263-.282.138-.23.183-.504.125-.765-.057-.262-.213-.492-.434-.643l-6.734-4.433c-.109-.071-.231-.118-.359-.141-.127-.022-.259-.019-.385.01-.127.028-.246.082-.352.158-.105.075-.195.171-.263.281-.138.23-.183.504-.125.766.057.261.213.491.434.642zM683.202 840.684l6.734 4.433c.109.071.231.118.359.141.128.022.259.019.385-.01.127-.029.246-.082.352-.158.106-.075.195-.171.263-.281.142-.228.191-.502.136-.764-.056-.263-.211-.493-.432-.644l-6.734-4.434c-.109-.07-.231-.118-.359-.14-.128-.023-.259-.019-.385.009-.127.029-.247.083-.352.158-.106.076-.195.171-.263.282-.142.227-.191.501-.136.764.056.262.21.493.432.644zM680.287 841.561l6.733 4.446c.11.07.232.117.359.14.128.022.259.019.386-.01.126-.028.246-.082.351-.157.106-.076.195-.172.263-.282.139-.23.183-.504.126-.765-.057-.262-.213-.492-.434-.643l-6.734-4.434c-.109-.071-.231-.121-.359-.144-.128-.023-.26-.021-.387.008s-.246.083-.352.16c-.105.076-.194.173-.261.285-.137.228-.182.5-.124.76.057.259.212.487.433.636z"/>
        <path fill="#FFC3BD" d="M678.347 835.102l.136.592c.022.114.066.222.131.318.064.096.147.178.244.241.097.064.205.107.319.128.114.02.231.018.344-.007l10.44-2.47c.229-.062.425-.209.547-.412.122-.202.161-.444.108-.675l-.124-.581c-.023-.114-.069-.222-.135-.318s-.15-.178-.248-.241c-.097-.063-.207-.107-.321-.127-.115-.021-.232-.018-.346.007l-10.428 2.47c-.228.059-.425.203-.549.403-.125.201-.167.441-.118.672z"/>
        <path fill="#FFB881" d="M945.132 953.314c-.184-.293-.471-.506-.805-.597-.334-.092-.69-.055-.998.103l-7.228 5.953c-.42.346-.235 1.062.395 1.494l12.998 8.892c3.422 2.334 6.845 0 4.608-3.211l-8.97-12.634z"/>
        <path fill="#3A2D3F" d="M947.826 960.514c-.084-.131-.113-.29-.081-.443.033-.152.124-.286.254-.372l1.915-1.408c.057-.046.122-.081.192-.102.07-.021.143-.028.216-.02.073.008.143.031.207.067.063.036.119.084.164.142.081.132.108.29.076.442-.032.151-.121.285-.249.373l-1.915 1.445c-.059.045-.126.077-.197.095-.072.018-.146.022-.219.01-.073-.012-.143-.038-.205-.077s-.116-.091-.158-.152zM949.247 962.503c-.041-.064-.07-.136-.083-.211-.014-.075-.013-.152.003-.226.016-.075.047-.146.09-.208.044-.063.099-.117.163-.158l1.915-1.42c.057-.046.123-.08.194-.1.07-.02.144-.026.217-.017.072.009.142.033.206.07.063.037.118.087.162.146.041.064.069.135.083.21.014.075.013.152-.003.227-.017.074-.047.145-.09.208-.044.062-.099.116-.163.157l-1.915 1.421c-.057.046-.123.08-.194.1-.07.02-.144.025-.217.016-.072-.009-.142-.033-.206-.07-.063-.037-.118-.086-.162-.145zM950.52 964.503c-.082-.13-.112-.288-.082-.439.03-.152.117-.286.242-.376l1.928-1.408c.056-.045.121-.079.19-.099.07-.02.143-.025.214-.016.072.009.141.033.203.07.062.037.116.086.159.144.085.128.115.284.085.435-.03.15-.118.282-.246.368l-1.915 1.408c-.055.048-.12.085-.19.107-.071.022-.145.029-.218.021-.073-.008-.144-.032-.208-.069-.063-.036-.119-.086-.162-.146z"/>
        <path fill="#FFB881" d="M1019.82 967.566l-15.11-5.693c-.34-.147-.73-.166-1.09-.052-.35.113-.65.351-.85.669l-3.497 9.263c-.198.543.346 1.235 1.157 1.235h16.84c4.43.061 6.32-3.977 2.55-5.422z"/>
        <path fill="#3A2D3F" d="M1010.78 966.813c-.08-.026-.14-.066-.2-.119-.06-.053-.1-.117-.13-.187-.03-.071-.05-.148-.04-.225 0-.077.01-.153.04-.223l.89-2.321c.05-.15.16-.275.29-.351.14-.076.3-.096.46-.057.07.027.14.069.19.123.06.053.1.118.13.19.03.072.05.149.05.227 0 .078-.02.155-.05.226l-.91 2.321c-.04.147-.15.269-.28.342-.14.074-.29.093-.44.054zM1013.25 967.517c-.07-.028-.14-.071-.2-.126-.05-.054-.09-.119-.12-.191-.03-.071-.04-.148-.04-.225 0-.078.02-.154.05-.224l.89-2.322c.05-.147.15-.269.29-.343.14-.073.3-.092.45-.052.07.027.14.069.2.123.05.054.1.119.12.191.03.072.05.15.04.228 0 .077-.02.154-.05.224l-.89 2.322c-.05.147-.16.269-.29.343-.14.073-.3.091-.45.052zM1015.47 968.369c-.07-.028-.14-.071-.19-.126-.06-.054-.1-.119-.13-.191-.03-.071-.04-.148-.04-.225 0-.078.02-.154.05-.224l.89-2.322c.05-.149.15-.273.29-.347.14-.073.3-.091.45-.048.07.027.14.068.19.122.06.053.1.117.13.188.03.07.04.146.04.222 0 .077-.02.152-.05.221l-.89 2.322c-.05.148-.15.272-.29.347-.14.075-.3.097-.45.061z"/>
        <path fill="#E2B393" d="M1011.44 956.377l-7.89-.42c-.08.433-.14.852-.2 1.235-.18 1.19-.28 2.391-.3 3.594l7.42.432.97-4.841z"/>
        <path fill="#fff" d="M1003.05 960.823c0 3.594.91 5.879 2.64 6.027 1.73.148 4.02-1.717 4.6-4.631l.19-.964-7.43-.432z"/>
        <path fill="#212353" d="M1034.25 837.46v-3.532l-26.55 1.519-3.08.358.08 3.075v.791c2.68 25.169 4.37 74.754-4.13 113.618-.12.527-.13 1.074-.02 1.603.11.529.34 1.028.66 1.461.32.433.74.79 1.22 1.046.47.256 1 .404 1.54.435l8.78.445c1.09.022 2.16-.336 3.01-1.011.86-.676 1.46-1.628 1.69-2.694 9.91-46.942 15.43-91.204 16.8-117.114z"/>
        <path fill="#fff" d="M944.058 951.746c-1.989 4.063-1.087 7.311.395 8.114 1.483.803 4.411-.852 7.117-4.459l-7.512-3.655z"/>
        <path fill="#E2B393" d="M952.088 954.71c.878-1.235 1.755-2.47 2.62-3.705l-7.562-4.94c-.593 1.05-1.235 2.099-1.766 3.161-.396.729-.791 1.445-1.236 2.186 0 .124-.099.247-.161.371l7.512 3.705c.235-.321.42-.531.593-.778z"/>
        <path fill="#212353" d="M1005.29 844.735c.01-1.712-.08-3.423-.26-5.126l-.22-1.84-20.19-3.915-7.104-1.457-.445 3.421c-.606 4.718 2.009 3.698 2.429 11.182 2.866 51.622-6.951 49.542-33.984 94.347-.627.919-.867 2.047-.671 3.142.196 1.094.814 2.068 1.721 2.712l6.808 4.421c1.018.587 2.222.766 3.367.503 1.146-.264 2.15-.95 2.81-1.923 32.445-44.163 49.029-50.14 45.739-105.467z"/>
        <path fill="#E2B393" d="M959.4 706.794c.346-6.743.581-10.077.816-11.732L955.57 695c-.754 3.186-1.68 7.225-2.57 11.794h6.4zM1046.31 704.439c-.35-6.743-.59-10.065-.81-11.72l4.63-.074c.76 3.186 1.68 7.237 2.57 11.794h-6.39z"/>
        <path fill="#fff" d="M1051.33 700h-3.93c-1.17-.005-2.3.395-3.17 1.123-.86.727-1.41 1.728-1.52 2.808-1.14 10.264-3.08 20.438-5.82 30.438-2.15 7.873-22.68 31.052-25.47 34.046-4.52 7.272-2.14 13.699 2.49 16.3 4.63 2.602 11.69 1.561 16.75-5.988 18.62-29.479 25.12-45.294 25.34-74.299.01-.576-.11-1.147-.34-1.681-.23-.533-.57-1.02-1.01-1.431-.43-.411-.95-.739-1.52-.965-.57-.226-1.18-.345-1.8-.351z"/>
        <path fill="#fff" d="M1034.6 833.731c-4.07-6.928-5.47-19.617-6.1-27.731-1.82-23.267 12.74-33.561-2.24-48.11-2.47-.481-4.85-.913-7.21-1.235-14.49-2.297-21.173-1.383-28.871 1.137h-.061c-1.992.68-4.118.869-6.198.55-2.081-.318-4.053-1.134-5.75-2.378-3.706-2.701-7.181-5.704-10.391-8.978-5.312-17.117-5.767-10.932-5.78-43.486.003-.935.136-2.313-.499-3-.635-.687-1.067-1.928-2-2H957l-2.5-.5c-.945-.068-2.268.901-3.001 1.5-.733.599-1.082 3.061-1.202 4-3.287 25.132-2.471 42.238 0 48.747 3.608 7.829 6.301 10.522 19.262 23.464l4.077 4.063c-1.928 20.316 0 42.533 3.237 62.206.976 5.854 3.706 5.262 9.736 5.089l35.171-.976 3.23-.086c2.31-.11 4.57-.704 6.63-1.742.91-.474 1.71-1.13 2.36-1.926.65-.796 1.12-1.716 1.4-2.703.27-.987.35-2.02.21-3.036-.14-1.015-.48-1.992-1.01-2.869z"/>
        <path fill="#E2B393" d="M1003.05 766.758c4.94 0 8.94-2.516 8.94-5.62 0-3.103-4-5.619-8.94-5.619-4.93 0-8.929 2.516-8.929 5.619 0 3.104 3.999 5.62 8.929 5.62zM992.935 735.599c-.647.391-1.117 1.018-1.31 1.748-.194.73-.096 1.507.272 2.167.252.677.742 1.239 1.379 1.58.637.341 1.377.438 2.081.272-.112-.259-.223-.518-.322-.778l-2.1-4.989zM1005.51 719.964c-2.6 4.796-6.304 8.912-10.796 12.016l2.174 2.606c2.2 2.631 2.768 3.149 6.182 2.569 4.01-.692 9.51-3.705 9.88-3.952-.06-.148-.11-.309-.19-.457l-2.47-7.336-2.02.939c-.15.065-.31.071-.46.015-.15-.055-.27-.168-.33-.312-.07-.144-.07-.308-.02-.456.06-.148.17-.269.31-.334l2.04-.939c-.04-.132-.09-.26-.16-.382-.97-1.697-2.4-3.078-4.14-3.977zm-6.101 9.793c-.068-.144-.076-.309-.023-.459.053-.151.163-.274.307-.343l2.037-.927c.07-.035.15-.055.23-.06.08-.005.15.007.23.033.07.027.14.068.2.122.05.053.1.118.13.189.04.071.05.147.06.225 0 .078-.01.156-.04.23-.02.073-.06.14-.12.198-.05.058-.11.105-.18.138l-2.04.938c-.07.034-.15.053-.225.057-.078.004-.156-.008-.23-.035-.073-.026-.141-.067-.199-.119-.057-.053-.104-.116-.137-.187zm2.361 2.618c-.35.161-.82-.135-1.06-.666-.25-.531-.16-1.1.18-1.235.35-.136.82.135 1.06.666.25.532.18 1.026-.18 1.235zm6.7-5.582c.34-.16.82.149 1.07.68.25.531.16 1.086-.19 1.235-.34.148-.82-.149-1.06-.68-.23-.531-.17-1.074.18-1.235zm-.56 6.027c.16-.154.28-.351.35-.569.06-.218.06-.448 0-.666l.16.148c.12.116.22.255.28.411.07.155.11.322.11.491 0 .169-.04.336-.11.491-.06.155-.16.295-.28.41l-.93.778c-.12.104-.27.175-.43.206-.15.03-.32.019-.47-.032-.15-.051-.29-.14-.39-.259-.11-.12-.18-.264-.22-.421v-.111c.16.101.35.148.54.135.19-.013.37-.087.51-.209l.88-.803z"/>
        <path fill="#E2B393" d="M1004.44 747.504c-1.62-.28-3.2-.731-4.722-1.346-1.914-.982-3.422-2.603-4.263-4.582l.556 3.977 1.952 14.128c.065.506.328.965.731 1.278.403.312.913.452 1.416.389l7.52-1.037c.5-.079.95-.353 1.25-.763.3-.409.43-.921.35-1.423l-1.56-11.14c-1.02.409-2.13.586-3.23.519z"/>
        <path fill="#331511" d="M1000.2 730.042l2.04-.939c.07-.033.13-.08.19-.138.05-.057.09-.125.11-.198.03-.074.04-.152.04-.23 0-.077-.02-.154-.06-.224-.03-.072-.07-.137-.13-.19-.06-.054-.13-.095-.2-.122-.08-.026-.15-.037-.23-.033-.08.005-.16.025-.23.061l-2.036.926c-.144.069-.255.192-.308.343-.053.15-.045.315.023.459.033.071.08.135.138.187.058.053.125.093.199.12.073.026.151.038.229.034.075-.004.155-.023.225-.056zM1007.74 725.262c-.15.066-.26.186-.32.334-.05.148-.05.312.02.456.07.145.19.257.33.312.15.056.32.05.46-.015l2.03-.939c.07-.031.14-.076.19-.132.06-.057.1-.124.13-.198.03-.074.04-.152.04-.231 0-.079-.02-.157-.05-.229-.07-.138-.18-.246-.32-.301-.14-.056-.3-.054-.44.004l-2.07.939z"/>
        <path fill="#101959" d="M1009.36 728.72c.34-.161.43-.716.18-1.235-.25-.519-.73-.84-1.07-.679-.35.16-.42.716-.18 1.235.25.518.72.84 1.07.679zM1000.89 730.461c-.34.148-.43.717-.18 1.235.24.519.71.828 1.06.667.35-.16.43-.716.18-1.235-.24-.519-.71-.827-1.06-.667z"/>
        <path fill="#CEA589" d="M1005.93 733.672v.111c.04.157.11.302.22.421.1.119.24.209.39.26.15.051.32.062.47.031.16-.03.31-.101.43-.205l.93-.778c.12-.116.22-.255.29-.41.06-.156.1-.323.1-.492 0-.169-.04-.336-.1-.491-.07-.155-.17-.295-.29-.41l-.16-.148c.06.217.06.448 0 .665-.07.218-.18.415-.35.57l-.93.778c-.13.115-.3.186-.48.204-.18.017-.36-.019-.52-.106z"/>
        <path fill="#331511" d="M1015.16 739.267l-2.26-6.076c-.34.197-5.84 3.272-9.88 3.964-3.388.58-3.956.062-6.18-2.569l-2.125-2.606c4.492-3.104 8.195-7.22 10.795-12.016 1.72.905 3.15 2.286 4.1 3.977.2-.129.35-.303.46-.507.11-.242.15-.507.13-.771-.03-.263-.12-.516-.26-.735-.63-1.505-1.4-2.945-2.3-4.298-.3-.578-.72-1.084-1.24-1.483-.51-.399-1.11-.681-1.74-.827-.53.031-1.06.031-1.59 0-.83-.304-1.55-.856-2.05-1.58-.26-.357-1.124.186-1.52 0-.396-.186-1.564.228-2 .26-.815.185-.709-1.272-1.5-1-.52.124-.766 1.624-1.285 1.5-1.095-.413-2.011-1.213-3.09-.76-.769.454-1.361 1.416-1.815 2.186-.606.901-.841-.717-1.384.221-.283.552-1.926.507-1.926 1.853-.877.457-1.073.358-2 .717-.494.248-1.424 2.442-1.695 2.923-.27.482-1.849 1.243-1.805 1.794.112 1.098 1.129 2.052 1.566 3.066.447 1.012-.566 3.134 1.115 3.134-.185.753-1.922 1.637-2.181 2.366-.253.707.945 1.249 1.066 1.99.121.741.428 1.439.893 2.029 1.075 1.334 2.891 2 4.151 3.1v.419c-.097.468-.073.953.069 1.409.143.456.4.868.747 1.197.753.507 1.816.272 2.619.704 1.236.642 1.532 2.594 2.879 2.68.568 0 1.112-.284 1.668-.173.155.045.301.116.432.21l-.556-3.976c.841 1.978 2.349 3.6 4.263 4.581 1.519.615 3.099 1.066 4.719 1.346 1.11.052 2.21-.142 3.24-.568 1.77-.68 3.5-1.459 5.19-2.334.87-.555 1.56-1.363 1.97-2.318.41-.955.52-2.011.31-3.029zm-6.48-.358c-1.52.432-2.19-.124-2.48-.68l3.9-1.346c.78 1.309-1.42 2.026-1.42 2.026zm-16.782.605c-.369-.66-.467-1.437-.273-2.167.194-.731.663-1.357 1.31-1.748l2.101 4.94c.099.259.21.518.321.778-.69.172-1.418.091-2.053-.228-.635-.32-1.134-.857-1.406-1.513v-.062z"/>
        <path fill="#fff" d="M1006.16 738.229c.33.556 1 1.112 2.47.68 0 0 2.2-.717 1.37-2.026l-3.84 1.346z"/>
        <path fill="#212353" d="M668.228 968.529l-13.887-4.73c-.692-.222-1.52 0-1.668.507l-2.261 7.657c-.136.444.395.852 1.112.864l14.937.161c3.917 0 5.239-3.285 1.767-4.459zM646.964 968.529l-13.887-4.73c-.692-.222-1.52 0-1.668.507l-2.261 7.657c-.136.444.408.852 1.124.864l14.925.161c3.917 0 5.239-3.285 1.767-4.459z"/>
        <path fill="#E3F1F3" d="M1330.29 578.645l-5.93.222c-3.63 0-7.19-1.865-10.03-4.125-1.76-1.394-3.87-2.265-6.11-2.515-2.23-.249-4.48.134-6.51 1.105-2.02.972-3.73 2.493-4.93 4.389-1.2 1.897-1.85 4.092-1.86 6.337-.01 2.244.61 4.446 1.79 6.355 1.18 1.909 2.88 3.448 4.89 4.44 2.01.993 4.27 1.399 6.5 1.174 2.23-.226 4.36-1.076 6.13-2.451 2.89-2.26 6.45-4.261 10.13-4.261l5.95.247c1.27.057 2.47.58 3.38 1.468.92.888 1.47 2.08 1.56 3.348v-20.191c-.17 1.205-.76 2.312-1.67 3.126-.91.815-2.07 1.286-3.29 1.332zM693.037 796.891l5.931-.222c3.632 0 7.191 1.865 10.032 4.125 1.76 1.394 3.876 2.265 6.108 2.515 2.231.249 4.488-.134 6.512-1.105 2.024-.972 3.734-2.493 4.934-4.389 1.201-1.896 1.844-4.092 1.856-6.336.011-2.245-.609-4.447-1.789-6.356-1.181-1.909-2.875-3.448-4.889-4.44-2.013-.993-4.266-1.399-6.5-1.173-2.233.225-4.359 1.075-6.133 2.45-2.903 2.26-6.462 4.261-10.131 4.261l-5.943-.235c-1.27-.06-2.475-.583-3.385-1.471-.911-.887-1.465-2.077-1.557-3.345v20.179c.173-1.205.763-2.312 1.669-3.126.905-.815 2.068-1.286 3.285-1.332zM1136.8 797.212l5.94-.222c3.62 0 7.19 1.865 10.03 4.125 1.76 1.395 3.88 2.267 6.11 2.516 2.24.25 4.49-.134 6.52-1.106 2.02-.972 3.73-2.494 4.93-4.392 1.2-1.898 1.85-4.095 1.86-6.34.01-2.245-.62-4.448-1.8-6.356-1.18-1.909-2.88-3.447-4.89-4.437-2.02-.991-4.27-1.395-6.51-1.166-2.23.228-4.36 1.081-6.13 2.46-2.89 2.247-6.45 4.248-10.12 4.248l-5.95-.235c-1.27-.057-2.48-.579-3.39-1.467-.91-.888-1.47-2.08-1.56-3.349v20.192c.17-1.208.76-2.317 1.67-3.134.91-.818 2.07-1.291 3.29-1.337z"/>
        <path fill="#FFB881" d="M1318.78 690.967h-71.27c.21.284.41.568.63.839 1.92 2.456 3.1 5.4 3.42 8.496.31 3.096-.25 6.218-1.62 9.01-1.38 2.793-3.51 5.142-6.16 6.781-2.64 1.638-5.7 2.499-8.81 2.484-3.11-.014-6.16-.904-8.79-2.568-2.63-1.663-4.74-4.033-6.09-6.838-1.35-2.805-1.88-5.933-1.53-9.025.34-3.093 1.55-6.025 3.49-8.463.19-.235.36-.482.53-.716h-71.81c-4.53 0-8.88 1.8-12.09 5.006-3.21 3.205-5.01 7.553-5.01 12.086v167.958c.01 4.529 1.81 8.87 5.02 12.07 3.21 3.2 7.55 4.997 12.08 4.997h168.03c4.54 0 8.89-1.801 12.09-5.006 3.21-3.205 5.01-7.553 5.01-12.086V708.034c0-2.245-.44-4.468-1.3-6.541-.87-2.073-2.13-3.956-3.72-5.541-1.59-1.586-3.48-2.842-5.55-3.697-2.08-.856-4.31-1.293-6.55-1.288z"/>
        <path fill="#212353" d="M1208.18 877.853c1.74-16.722 4.69-33.135 5.62-49.968-9.96 2.335-17.38 6.842-21.55 14.005-5.86 10.139-8.06 19.155-8.25 27.923-.01 1.055.19 2.102.58 3.079.4.977.99 1.866 1.73 2.614.75.748 1.63 1.341 2.61 1.744.97.403 2.02.608 3.07.603h16.19z"/>
        <path fill="#fff" d="M1260.8 877.853c-.49-16.475-.48-32.925-.75-49.474l-1.92-.518c-17.49-2.47-32.65-2.717-44.33 0-.93 16.833-3.88 33.246-5.62 49.967l52.62.025z"/>
        <path fill="#2C2655" d="M1286.29 877.853c1.32.002 2.62-.289 3.81-.852 1.2-.563 2.25-1.385 3.09-2.405.83-1.02 1.43-2.214 1.75-3.494.32-1.28.35-2.614.08-3.907 0-.296-.13-.605-.19-.914-.74-3.587-1.85-7.088-3.3-10.448-9.66-22.909-9.39-24.329-31.48-27.454.27 16.549.26 32.999.75 49.474h25.49z"/>
        <path fill="#212353" d="M1291.8 877.853c1.36-.003 2.69-.333 3.89-.965 1.2-.631 2.23-1.543 3-2.659.77-1.116 1.26-2.401 1.42-3.747.17-1.346 0-2.711-.48-3.979-1.98-5.261-4.1-10.728-6.36-16.4-5.56-13.029-14.36-19.118-22.34-19.661-1.67-.089-3.31.41-4.65 1.41-1.33 1-2.28 2.437-2.66 4.061-3.43 13.786-3.43 28.203 0 41.989l28.18-.049z"/>
        <path fill="#D3A079" d="M1253.19 832.405c0 4.459-15.63 11.51-22.04 12.857-.89.179-1.81.169-2.69-.029-.89-.197-1.72-.579-2.45-1.12-2.47-1.803-5.91-4.94-5.91-8.472 0-5.57 7.49-10.09 16.73-10.09s16.36 1.272 16.36 6.854z"/>
        <path fill="#7A7268" d="M1259.82 779.684c1.44-3.89 4.34-7.966 3.06-11.831-.44-1.322-1.35-2.47-1.72-3.792-.21-1.132-.33-2.281-.36-3.433-.77-7.052-7.23-9.373-11.8-13.041-4.16-3.322-6.18-9.25-11.37-11.016-.34-.307-.77-.505-1.23-.568-.38-.035-.76-.002-1.13.098-1.43-.074-2.87.098-4.25.507-.66-.53-1.36-1.005-2.1-1.421-2.55-1-4.84 2.322-7.57 2.47-1.84.112-3.58-1.235-5.4-.951-1.82.285-3.05 2.31-3.71 4.138-.65 1.827-1.23 3.89-2.84 4.94-1.04.537-2.11 1.015-3.21 1.432-2.47 1.359-3.56 4.458-4.13 7.299-.69 3.565-1.04 7.187-1.05 10.818 0 1.322-.07 2.297 1 3.224.39.32.85.541 1.34.642.51-4.286 2.22-8.341 4.94-11.695 9.31 7.692 20.32 13.052 32.12 15.635l-2.22 7.187c-2.26 7.311-2.98 8.855-10.34 10.535-8.65 1.988-22.24.37-23.33.234h-.08l.51 14.462c.67 4.236 4.95 8.805 9.16 9.04 2.47.136 6.89.568 11.12.469 3.36-.074 6.56-.481 8.51-1.655 3.06-1.954 5.91-4.227 8.49-6.78 3.71-4.001 5.03-10.015 4.83-15.499l.09-12.078c3.11.185 5.52 3.372 5.38 7.2 0 1.044-.23 2.076-.65 3.03-.43.954-1.05 1.81-1.82 2.515l.1 9.547c.99-.606 2.31-.445 3.36-.976 2.67-1.334 1.73-5.644 3.61-7.99 1.24-1.581 3.63-1.989 4.73-3.705 1.1-1.717.44-4.175-.53-6.077-.57-.889-1.12-1.889-1.51-2.914zm-46.46 16.672l9.05-.531c-.21 1.433-1.1 3.162-4.56 3.545 0 0-5.06.382-4.49-3.014z"/>
        <path fill="#D3A079" d="M1249.98 791.873c.77-.705 1.39-1.561 1.81-2.515.43-.954.65-1.985.66-3.03.13-3.828-2.28-7.015-5.39-7.2l-.09 12.078c.2 5.484-1.13 11.498-4.83 15.499-2.58 2.553-5.42 4.826-8.48 6.78-1.96 1.235-5.16 1.581-8.52 1.655l.16 15.709h25.03l-.29-29.429-.06-9.547z"/>
        <path fill="#564A3A" d="M1222.72 773.719l4.94.198c.34-.018.65-.159.88-.396.24-.237.38-.554.39-.887.01-.333-.1-.658-.32-.913-.21-.254-.52-.418-.85-.46l-4.94-.197c-.34-.014-.68.108-.94.338-.25.231-.41.553-.43.897-.01.177.01.354.07.521.06.167.15.321.27.453.12.132.26.239.42.316.16.076.33.121.51.13zM1209.56 771.805c.02-.347-.1-.686-.33-.945-.23-.259-.56-.416-.9-.439l-4.94-.197h-.12c-.32.02-.62.157-.85.384-.22.228-.36.53-.38.851-.01.345.11.681.34.938.23.257.55.417.89.445l4.95.198c.34.004.66-.122.91-.351.25-.23.41-.546.43-.884z"/>
        <path fill="#0E0911" d="M1208.09 774.201c-.83 0-1.55 1-1.6 2.309-.05 1.309.59 2.384 1.42 2.47.83.087 1.55-1 1.6-2.309.05-1.309-.58-2.433-1.42-2.47z"/>
        <path fill="#150D19" d="M1226.6 775.312c-.84 0-1.56.988-1.61 2.297-.04 1.309.59 2.384 1.43 2.47.84.086 1.55-1 1.6-2.297.05-1.297-.59-2.445-1.42-2.47z"/>
        <path fill="#B78B6C" d="M1219.08 786.501v-.259c-.25.338-.59.591-.98.724-.4.133-.82.139-1.22.017l-2.54-.84c-.48-.162-.91-.466-1.23-.873-.32-.406-.51-.898-.54-1.412l-.21.432c-.17.345-.25.719-.26 1.099 0 .38.07.757.22 1.107.15.349.37.664.65.922s.61.455.97.577l2.47.828c.34.114.7.137 1.05.067.35-.069.68-.23.95-.464.27-.235.47-.536.59-.874.12-.337.14-.7.08-1.051z"/>
        <path fill="#fff" d="M1217.85 799.37c3.46-.383 4.35-2.112 4.56-3.545l-9.05.531c-.57 3.396 4.49 3.014 4.49 3.014z"/>
        <path fill="#D3A079" d="M1227.86 791.009c7.41-1.68 8.08-3.224 10.34-10.535l2.23-7.187c-11.8-2.582-22.82-7.943-32.13-15.635-2.72 3.354-4.43 7.409-4.94 11.695 0 .321-.07.642-.1.963h.11l4.94.198c.36.013.69.166.93.426.24.259.37.603.36.957-.01.354-.17.688-.43.929-.26.241-.6.369-.95.356l-4.95-.198 1.24 17.191v1.099c1.09.05 14.68 1.667 23.35-.259zm-19.95-12.017c-.83 0-1.47-1.123-1.42-2.47.05-1.346.77-2.334 1.6-2.309.83.025 1.49 1.124 1.42 2.47-.06 1.346-.8 2.272-1.6 2.248v.061zm18.53 1.1c-.84 0-1.47-1.124-1.42-2.47.05-1.347.77-2.335 1.61-2.298.84.038 1.47 1.112 1.42 2.47-.05 1.359-.81 2.273-1.63 2.236l.02.062zm-3.58-9.016l4.94.198c.33.042.63.206.85.46.21.254.33.579.31.913-.01.333-.14.649-.38.886-.23.238-.55.379-.88.396l-4.94-.198c-.35-.028-.67-.187-.9-.445-.23-.257-.35-.593-.34-.938 0-.173.03-.346.1-.506.06-.161.16-.308.28-.432.12-.124.27-.222.43-.29.16-.068.33-.104.5-.106l.03.062zm-6.4 17.809l-2.47-.828c-.36-.122-.69-.319-.97-.577-.28-.259-.5-.573-.65-.922-.15-.35-.23-.727-.22-1.107.01-.38.09-.754.25-1.099l.21-.432c.04.514.23 1.005.55 1.412.31.407.74.71 1.23.873l2.54.839c.39.123.82.117 1.22-.016.39-.133.73-.386.98-.724v.259c.05.349.02.707-.11 1.039-.12.331-.33.625-.6.853-.27.227-.6.381-.95.445-.34.065-.7.038-1.04-.077l.03.062z"/>
        <path fill="#E3F1F3" d="M1229.46 888.453l.23-5.928c0-3.631-1.87-7.187-4.13-10.028-1.4-1.758-2.27-3.874-2.52-6.105-.25-2.231.13-4.488 1.1-6.512.97-2.024 2.49-3.735 4.39-4.936 1.9-1.2 4.1-1.844 6.34-1.855 2.25-.012 4.45.608 6.36 1.789 1.91 1.181 3.45 2.875 4.44 4.889 1 2.014 1.4 4.267 1.18 6.5-.23 2.234-1.08 4.358-2.46 6.131-2.25 2.903-4.25 6.459-4.25 10.127l.23 5.94c.06 1.27.59 2.474 1.47 3.384.89.911 2.08 1.464 3.35 1.556h-20.2c1.21-.17 2.32-.759 3.14-1.664.81-.905 1.29-2.069 1.33-3.288z"/>
        <path fill="#E8B592" d="M1075.22 479.285l7-1.853.3 1.025c.26.982.46 1.981.58 2.989l-6.6 1.791c-.43-1.309-.86-2.631-1.28-3.952z"/>
        <path fill="#00034F" d="M1056.82 371.396v-.765l.1-2.47 26.81-1.026h3.1l-.16 2.804-.07.729c-3.4 23.156-6.46 68.43 1.07 102.985.08.529.06 1.068-.08 1.585-.14.518-.38 1.001-.72 1.419-.33.419-.74.764-1.22 1.015-.47.25-.99.399-1.52.439l-8.91 1.235c-1 .18-2.03-.022-2.89-.566-.86-.545-1.48-1.392-1.74-2.373-8.69-41.78-13.08-81.558-13.77-105.011z"/>
        <path fill="#E8B592" d="M1058.33 479.285l7-1.853c.11.346.2.692.3 1.025.26.982.46 1.981.58 2.989l-6.6 1.791c-.43-1.309-.86-2.631-1.28-3.952z"/>
        <path fill="#272B59" d="M1039.93 371.396v-.765l.1-2.47 26.81-1.026h3.1l-.16 2.804c0 .21 0 .531-.07.729-3.4 23.156-6.45 68.43 1.07 102.985.08.529.06 1.068-.08 1.585-.14.518-.38 1.001-.71 1.419-.34.419-.75.764-1.23 1.015-.47.25-.99.399-1.52.439l-8.91 1.235c-1 .18-2.03-.022-2.89-.566-.86-.545-1.48-1.392-1.74-2.373-8.69-41.78-13.08-81.558-13.77-105.011z"/>
        <path fill="#00034F" d="M1050.45 486.941l14.32-4.939c.7-.235 1.56 0 1.71.518l2.34 7.892c.13.457-.42.889-1.16.889l-15.39.173c-4.02.049-5.39-3.372-1.82-4.533z"/>
        <path fill="#00034F" d="M1067.27 486.744l14.34-4.866c.7-.247 1.56 0 1.71.519l2.34 7.879c.13.469-.42.889-1.16.902l-15.39.16c-4.06.05-5.42-3.384-1.84-4.594z"/>
        <path fill="#452A51" d="M991.042 413.151c9.638-8.879 19.598-18.055 23.408-30.479 4.75-15.425-.87-30.529-6.84-46.522-3.71-9.88-7.41-20.019-8.649-30.307-3.286-29.207 15.209-56.525 29.409-74.531.48-.618.96-1.235 1.45-1.914 1.48-2.13 3.19-4.085 5.11-5.829 1.66-1.34 3.01-3.032 3.95-4.953.93-1.921 1.43-4.026 1.46-6.162V75h.99v137.466c-.03 2.28-.56 4.525-1.56 6.576-.99 2.052-2.43 3.859-4.2 5.292-1.85 1.702-3.51 3.603-4.94 5.669-.5.654-.98 1.309-1.47 1.914-14.09 17.87-32.447 44.966-29.198 73.815 1.148 10.164 4.938 20.279 8.578 30.072 5.75 15.437 11.71 31.406 6.85 47.164-3.89 12.683-13.96 21.946-23.681 30.875-1.755 1.646-3.505 3.293-5.251 4.94H985c2.002-1.902 4.028-3.779 6.042-5.632z"/>
        <path fill="#E8B592" d="M1035.72 264.311c-.57-.603-1.02-1.312-1.32-2.088-.29-.776-.43-1.602-.41-2.432V254.283c.14-8.692.94-17.361 2.37-25.935.16-1.421.61-2.793 1.34-4.026.29-.432.75-.939 1.23-.865.48.075 1.72 1.087 2.47 3.1.2.866.25 1.761.14 2.643-.05.868-.05 1.738 0 2.606.21 2.68.12 6.484 0 10.497 0 1.717 0 7.052-.08 11.56 0 1.431.3 2.847.88 4.156.58 1.308 1.43 2.48 2.5 3.439 7.01 6.311 20.35 18.216 23.47 20.031l-14.53 7.065c3.57-.84-15.74-21.835-18.16-24.268l.1.025z"/>
        <path fill="#CBCBCB" d="M1083.08 291.37l-24.71-20.588c-.33-.273-.71-.473-1.13-.586-.41-.114-.84-.138-1.26-.071-.42.066-.82.222-1.18.457-.35.235-.66.543-.88.904l-6.29 9.979c-.42.692-.6 1.505-.5 2.309.09.803.46 1.552 1.03 2.125l17.19 17.154 17.73-11.683z"/>
        <path fill="#E8B592" d="M1071.62 285.034c-.1-.065-.2-.139-.29-.222-1.64-1.187-2.93-2.783-3.76-4.627-.82-1.845-1.15-3.874-.94-5.883l-.07-.284c.83-.368 1.51-1.014 1.91-1.828.87-1.605.57-3.347-.63-3.89-.48-.18-1-.18-1.48 0-.38.12-.74.313-1.05.568-.22-.173 0-.988.07-1.235.16-.506.45-.976.62-1.482.22-.918.27-1.869.14-2.803l-3.81 7.41c-.56 1.279-.82 2.668-.77 4.064.04 1.396.41 2.763 1.06 4 .57 1.152 1.34 2.194 2.28 3.075.14 1.235-.32 8.299.26 10.041.21.617 1.53-.173 2.11.111 2.28 1.124 5.06 2.778 7.42 1.753.81-.358.75-8.274.8-9.176-1.14.161-2.89 1.013-3.87.408z"/>
        <path fill="#AF9251" d="M1081.83 281.501c.85-.997 1.88-1.834 3.02-2.47 1.87-1.196 3.34-2.914 4.23-4.939.11-.309.22-.618.31-.939.41-1.553.29-3.198-.32-4.681-.1-.241-.23-.473-.37-.691.29-.916.29-1.9 0-2.816-.19-.66-.47-1.289-.84-1.865-1.08-1.43-2.29-2.758-3.61-3.964-.74-.844-1.53-1.633-2.39-2.359l-.13-.111c-.46-.376-.98-.652-1.55-.811-.57-.16-1.17-.199-1.75-.115-.57.19-1.15.351-1.74.481-.69-.014-1.37-.126-2.03-.333-1.86-.408-4.06-1.544-5.6-.395-1.61 1.435-2.68 3.385-3.02 5.52-.07.789-.07 1.582 0 2.371.13.935.08 1.886-.14 2.804-.17.506-.46.975-.62 1.482 0 .21-.29 1.025-.07 1.235.31-.247.67-.435 1.05-.556.48-.18 1-.18 1.48 0 1.24.543 1.5 2.285.63 3.89-.4.814-1.08 1.46-1.91 1.828l.07.284c-.21 2.009.12 4.038.94 5.883.83 1.844 2.12 3.44 3.76 4.627.08.076.17.146.27.21.31.216.67.337 1.05.345.51-.049 1.02-.136 1.52-.259 1.83-.222 2.56 0 4.26-1 1.35-.547 2.52-1.447 3.4-2.606l.1-.05z"/>
        <path fill="#E8B592" d="M1001.58 282.922c-.46.235-.53.914-.52 1.433.11 1.424.53 2.807 1.24 4.05 3.83 7.789 8.24 15.281 13.18 22.415l.8 1.149c1.02 1.464 2.4 2.641 4.01 3.416 1.61.774 3.39 1.121 5.17 1.005 3.43-.198 7.42-.556 10.17-.877.34 0 6.61-1.025 6.96-1.062l-2.47-9.88c-4.21 1.329-8.52 2.34-12.88 3.026l-1.94.445c-.62.15-1.27.113-1.87-.107-.59-.22-1.11-.612-1.49-1.128-1.94-2.68-5.64-7.818-7.24-10.14-2.26-3.334-4.41-6.471-6.18-8.533-.54-.673-1.04-1.378-1.5-2.112-.42-.787-.98-1.49-1.66-2.075-1.75-1.149-3.17-1.346-3.78-1.025z"/>
        <path fill="#CBCBCB" d="M1036.64 304.361c10.38-3.334 21.13-11.683 25.8-13.103 5.99-2.705 13.98-.642 17.73-.753 7.74-.235 10.1 19.414 9.56 23.576-2.24 17.363-10.92 7.693-1.05 37.123.97 2.878.12 8.447-.95 13.684-.94 4.631-5.22 10.053-10.14 12.757-13.42 7.546-28.66 9.435-35.93 1.988-.7-.741-3.48-5.532-2.91-7.014 7.95-21.094.6-21.748 6.17-40.841 1.04-3.47 2.05-7.089 3.05-10.572.72-2.47-1.23-4.446-3.57-3.593l-1.11.395c-2.21.778-5.32 1.716-8.65 2.655-.36.132-.75.182-1.14.147-.39-.035-.76-.154-1.1-.35-.33-.195-.62-.462-.84-.781-.22-.319-.37-.683-.44-1.066-.89-5.076.08-10.831 5.52-14.252z"/>
        <path fill="#E8B592" d="M1042.3 222.803c0 3.211-1.62 5.804-3.6 5.804-1.99 0-3.61-2.593-3.61-5.804 0-3.211 1.62-5.804 3.61-5.804 1.98 0 3.6 2.605 3.6 5.804zM1006.72 281.292c0 3.211-1.62 5.804-3.61 5.804-1.99 0-3.605-2.593-3.605-5.804 0-3.211 1.615-5.805 3.605-5.805s3.61 2.606 3.61 5.805z"/>
        <path fill="#FFB881" d="M1211 691H1259V719H1211z"/>
        <path fill="#E3F1F3" d="M1228.56 693.954l.22 5.943c0 3.62-1.86 7.191-4.12 10.033-1.4 1.76-2.27 3.877-2.52 6.109s.13 4.49 1.11 6.514c.97 2.025 2.49 3.735 4.39 4.935 1.9 1.2 4.09 1.842 6.34 1.853 2.24.01 4.45-.612 6.35-1.794 1.91-1.183 3.45-2.879 4.44-4.895.99-2.015 1.4-4.269 1.17-6.504-.23-2.234-1.08-4.359-2.46-6.132-2.25-2.891-4.25-6.449-4.25-10.119l.23-5.955c.06-1.271.58-2.477 1.47-3.388s2.08-1.464 3.35-1.554h-20.19c1.21.17 2.32.76 3.13 1.665.82.906 1.29 2.07 1.34 3.289z"/>
        <path fill="#BF7C56" d="M1385.31 968.074c-.18-19.587-.16-54.969.95-67.516h-17.68c.37 10.917 7.85 50.177 9.41 68.763.22 2.693.71 3.372 3.63 3.372h.26c3.43 0 3.46-1.47 3.43-4.619zM1413.42 967.729c-.63-14.894-1.72-37.791-3.87-67.999h-17.13c1.12 15.783 10.99 47.831 13.77 68.196.4 2.952-.12 4.1 3.04 4.1s4.33-1.259 4.19-4.297z"/>
        <path fill="#FF882C" d="M1400.69 759.288c1.77.767 3.23 2.096 4.17 3.78.93 1.683 1.28 3.628 1 5.532-.93 3.606-4.63 4.372-8.35 3.062-8.12-2.966-15.81-7.003-22.86-12.004l6.18-8.78c6.44 3.211 13.07 6.02 19.86 8.41z"/>
        <path fill="#BF7C56" d="M1336.1 717.459c7.06 7.835 14.99 14.837 23.64 20.871 1.23.914 2.6 1.803 3.93 2.68 5.51 3.639 11.23 6.938 17.14 9.88l-6.17 8.781c-14.29-9.88-27.36-23.094-38.55-36.012l.01-6.2z"/>
        <path fill="#212353" d="M1368.22 846.391c.17-1.623.71-3.186 1.57-4.569l11.85.074h32.35c.87.99 1.51 2.156 1.89 3.418.37 1.262.47 2.59.28 3.893-.34 4.495-.68 8.941-1.02 13.437.16 7.521-5.4 17.685-5.97 25.539-.63 8.583 3.06 15.166 2.47 23.749-3.95 2.11-8.33 3.301-12.81 3.483-11.12 0-13.39-1.347-16.06-2.557-.77-.364-1.56-.674-2.38-.926-3.07-.914-7.9-.519-10.4-.222-.21.026-.42.007-.62-.055-.21-.063-.39-.168-.55-.308-.16-.14-.29-.312-.38-.505-.08-.193-.13-.403-.13-.614-.79-21.217-2.3-42.62-.09-63.837z"/>
        <path fill="#FF882C" d="M1389.15 758.189l5.34 6.372c-3.59 5.177-8.71 9.102-14.64 11.226-.09 0-.17 4.002-.26 4.002-2.74.21-5.52.308-8.28.382l-2.38.087c-.56.018-1.12-.077-1.64-.281-.52-.204-.99-.511-1.39-.904-.4-.393-.71-.863-.92-1.382-.21-.518-.31-1.073-.3-1.632l.26-10.843c7.49-1.569 17.73-5.496 24.21-7.027z"/>
        <path fill="#BF7C56" d="M1390.97 748.506c-1.82-.185-3.56-.898-4.98-2.052-1.43-1.154-2.49-2.698-3.05-4.444 0-.061-.11-.136-.17-.21.53-.656.84-1.464.89-2.309.1-1.68-.78-2.964-1.96-2.865-.47.051-.9.265-1.23.605-.27.266-.48.575-.64.914-.49-.062-.4-1.976-.44-2.47-.16-.824-.47-1.611-.92-2.322l-.34 7.706c0 1.246.29 2.475.85 3.588s1.38 2.079 2.38 2.822c1.13.875 2.47 1.449 3.89 1.667.14.02.28.087.38.189.1.103.17.236.19.379v.531c.04 3.834.35 7.659.94 11.449.17.568.58.358 1.08.592 2.01.951 1.24 1.791 3.33.754.16-.087 4.41-.605 4.48-.778.08-.173-1.23-8.497-1.23-8.645-.25-1.057-.38-2.138-.4-3.224 0-.889.25-2.395.09-3.124-.02-.075-.05-.146-.09-.21-1.42.408-1.13.79-2.07 1.235-.3.166-.64.243-.98.222z"/>
        <path fill="#FF882C" d="M1387.12 845.008c3.26.148 6.47.729 9.74.568 3.39-.001 6.64-1.29 9.11-3.606 3.42-3.581 3.43-9.151 1.93-13.585-1.51-4.433-4.25-8.274-5.67-12.733-3.15-9.879.55-20.994 3.91-31.269 2.47-7.633 4.76-15.919 3.97-23.465 2.26 1.309 4.32 2.606 5.95 3.421-.28 7.488-1.56 14.906-3.8 22.057-2.23 7.916-6.02 15.388-4.87 23.637.57 4.138 2.47 7.867 3.81 11.696 1.5 3.986 2.77 8.061 3.78 12.201 1.01 4.319 1.49 8.743 1.44 13.178 0 0-5.12 5.347-18.46 5.347-11.12 0-12.04-3.841-20.26-5.31-1.31-.235-2.47-.371-3.5-.457 4.18-1.285 8.55-1.853 12.92-1.68z"/>
        <path fill="#FF882C" d="M1368.24 847.009c.42-4.111 1.36-8.153 2.79-12.029 3.48-9.213 5.3-42.224 6.33-60.576.43-7.719 2.24-14.005 13.5-17.166 1.99-.655 4.08-.981 6.18-.964 4.07-.271 8.88 2.211 13.02 4.632.79 7.57-1.48 15.857-3.97 23.464-3.36 10.3-7.06 21.378-3.91 31.27 1.42 4.458 4.15 8.311 5.67 12.733 1.52 4.421 1.49 9.991-1.93 13.585-2.47 2.315-5.72 3.605-9.11 3.606-3.27.16-6.48-.42-9.74-.568-4.37-.177-8.74.387-12.91 1.667-1.98-.257-3.99-.14-5.92.346z"/>
        <path fill="#231B12" d="M1427.64 781.122c-2.47-2.643-5.97-4.853-6.55-8.435-.42-2.544.79-5.063 1.15-7.619.2-1.816.04-3.652-.48-5.403-.52-1.751-1.38-3.382-2.53-4.798-2.32-2.82-5.29-5.032-8.65-6.447-1.39-.512-2.71-1.21-3.92-2.075-1.13-1.088-2.1-2.336-2.86-3.705-.7-.998-1.53-1.893-2.48-2.655 9.59-19.031-11.42-19.266-11.42-19.266l-.14.062c-1.39.054-2.76.355-4.04.889-1.38 1.136-.4 1.001-3.01 1.791-1.67.494-3.87.543-4.69 2.149-.79 1.837-.93 3.885-.42 5.817.25.659.56 1.292.93 1.889.45.711.76 1.498.93 2.322 0 .494 0 2.408.42 2.47.16-.343.38-.656.65-.926.33-.34.77-.554 1.24-.606 1.23-.098 2.05 1.235 1.95 2.866-.05.844-.36 1.653-.89 2.309.06.074.11.148.17.21.56 1.746 1.62 3.29 3.05 4.444 1.43 1.153 3.16 1.867 4.98 2.052.33.03.66-.034.95-.185 1.67 2.26 3.71 4.384 4.45 6.854.27 1.283.27 2.61-.02 3.889-.29 1.28-.86 2.481-1.66 3.521-1.61 2.067-3.46 3.933-5.52 5.557-4.94 4.273-9.6 9.349-10.8 15.685-.98 5.149.51 10.386 2.05 15.375 1.42 4.631 3.19 8.065 6.99 11.115 2.88 2.285 6.55 4.643 10.22 5.113 7.8 1.012 16.06.284 22.96-3.582 6.89-3.865 12.06-11.226 11.85-19.055-.16-4.335-1.88-8.465-4.86-11.622z"/>
        <path fill="#212353" d="M1398.4 971.569l13.12-4.013c.64-.198 1.39 0 1.49.444l1.52 6.669c.1.395-.43.753-1.09.753h-13.75c-3.6.062-4.58-2.84-1.29-3.853zM1370.03 971.483l13.12-4.026c.64-.198 1.4 0 1.49.445l1.52 6.681c.1.383-.43.741-1.08.753h-13.75c-3.61.062-4.59-2.877-1.3-3.853z"/>
        <path fill="#BF7C56" d="M1337.99 734.329c-.09-1.017-.37-2.009-.81-2.927-.37-.593-.82-1.129-1.34-1.593l-2.64-2.606c-.43-.42-.87-.852-1.35-1.235-.05-.049-.1-.089-.16-.116-.06-.028-.13-.043-.2-.044-.09.02-.18.067-.25.134-.07.068-.12.154-.14.248-.05.182-.05.374 0 .556.18.463.45.883.8 1.235l1.41 1.581c.36.325.6.759.69 1.235.01.057.01.116 0 .173-.1.16-.31 0-.41-.087l-2.58-3.396c-.14-.175-.27-.365-.37-.568-.24-.664-.33-1.373-.26-2.075 0-.395-.12-.877-.48-.864-.36.012-.51.321-.63.605-.17.443-.29.902-.36 1.371-.25 1.457-.44 2.939-.58 4.396-.07.463-.07.933 0 1.396.1.409.28.793.53 1.127.26.335.58.611.95.812.69.42 1.48.691 2.2 1.074.76.359 1.35.99 1.66 1.766.34.988.94 2.334 2.74 1.816 1.31-.371 1.67-1.556 1.59-2.94l-.01-1.074z"/>
        <path fill="#BF7C56" d="M1336.09 732.587c4.4 9.275 6.89 22.23 10.62 32.876.35.976 1.05 1.79 1.96 2.284.91.495 1.98.636 2.99.396 3.7-.902 8.34-1.902 13.24-2.927l-.37 11.115c-6.89.16-16.58.321-18.78 0-.82-.092-1.61-.352-2.32-.766-.6-.357-1.11-.835-1.51-1.403-.4-.568-.67-1.214-.8-1.895-.15-.666-.32-1.309-.42-1.716-2.82-11.856-4.87-23.687-6.84-35.815l2.23-2.149z"/>
        <path fill="#F3E7DE" d="M1115.63 491.018H947.621c-9.444 0-17.1 7.652-17.1 17.092v167.933c0 9.44 7.656 17.092 17.1 17.092h168.009c9.44 0 17.1-7.652 17.1-17.092V508.11c0-9.44-7.66-17.092-17.1-17.092z"/>
        <path fill="#FFD176" d="M974.111 681.823h37.609c.42-2.47 1.14-4.582 2.71-5.743 1.6-.94 3.48-1.293 5.32-1 5.78.358 11.89 1.976 17.47 1.531 19.05-1.531 10.24-22.612 11.83-33.233 2.23-14.993 18.81-12.239 27.68-20.118 12.1-10.744 8.86-41.286.24-63.367-4.54-11.634-8.08-18.747-16.15-18.969-6.18-.186-6.36.494-12.9-3.878-4.43-2.952-7.72-5.694-12.35-6.83-13.09-3.186-24.97 1.606-31.62 12.758-4.066 6.841-6.178 15.857-10.91 21.958-7.414 9.67-19.979 10.682-29.863 16.437-25.946 15.092-29.183 62.441-11.713 88.623l.074.111c2.521 3.645 5.896 6.619 9.831 8.662 3.934 2.043 8.309 3.093 12.742 3.058z"/>
        <path fill="#fff" d="M1085.56 672.523v-5.149c0-21.539-18.69-39.149-41.51-39.149h-21.57c-21.27 0-38.682 16.425-38.682 36.493v7.805c.081 2.582 1.182 5.026 3.063 6.797 1.88 1.771 4.387 2.724 6.969 2.651h81.69c2.59.073 5.09-.88 6.97-2.651s2.98-4.215 3.07-6.797zM1036.7 595.954s5.41.692 4.94-3.334l-9.68-1.075c.11 1.717 1.05 3.792 4.74 4.409z"/>
        <path fill="#FBE9DC" d="M1029.85 566.871c.03-.383-.09-.763-.34-1.056-.25-.294-.6-.478-.99-.513h-4.94c-.37.066-.7.259-.94.546-.24.287-.37.649-.37 1.023 0 .374.13.736.37 1.023.24.286.57.48.94.545h4.94c.39-.034.74-.219.99-.512.25-.294.37-.673.34-1.056zM1054.31 568.439c.35-.088.66-.29.88-.574.22-.284.34-.634.34-.994s-.12-.71-.34-.994c-.22-.284-.53-.486-.88-.575h-4.6c-.35.089-.66.291-.88.575-.22.284-.34.634-.34.994s.12.71.34.994c.22.284.53.486.88.574h4.6z"/>
        <path fill="#EFACA0" d="M1042.65 580.801c-.04.573-.24 1.123-.58 1.586-.34.464-.81.821-1.34 1.032l-2.64.865c-.43.12-.89.089-1.3-.089-.4-.178-.74-.491-.94-.887v.297c-.33 1.803 1.1 3.371 2.62 2.877l2.64-.864c.81-.336 1.44-.975 1.78-1.777.33-.803.33-1.704 0-2.509l-.24-.531z"/>
        <path fill="#381B13" d="M1026.86 575.244c.97 0 1.77-1.235 1.77-2.717s-.8-2.73-1.77-2.73h-3.01l1.45 1.458c-.13.398-.2.815-.21 1.235 0 1.531.8 2.754 1.77 2.754zM1052.97 572.527c0-.42-.07-.837-.21-1.235l1.45-1.458h-3c-.98 0-1.77 1.235-1.77 2.73 0 1.494.79 2.717 1.77 2.717.97 0 1.76-1.26 1.76-2.754z"/>
        <path fill="#F7C3BA" d="M1063.09 581.345c.07-1.449-.28-2.888-.99-4.149-.72-1.261-1.78-2.293-3.06-2.977v-9.596c.04-4.556-1.15-9.038-3.43-12.98-2.97.26-6.05.297-6.81.346-15.94 1.037-25.24 10.275-28.75 15.586-2.88 4.384-4.44 9.571-7.42 13.881-.99 1.439-2.14 2.765-3.43 3.952.48 1.008 1.23 1.866 2.16 2.484.93.618 2.01.971 3.13 1.023.34 0 .68-.037 1.01-.111.55 3.199 1.73 6.256 3.47 8.993 1.75 2.738 4.02 5.101 6.69 6.951l-.15 28.491c-1.38 1.103-2.5 2.497-3.29 4.083-.78 1.586-1.2 3.325-1.23 5.093 0 7.187 6.95 13.004 15.54 13.004s15.56-5.817 15.56-13.004c-.04-1.64-.41-3.254-1.1-4.742-.69-1.488-1.68-2.817-2.91-3.903l.14-28.887c2.73-1.866 5.05-4.268 6.83-7.06 1.78-2.792 2.97-5.915 3.5-9.18 1.41-.61 2.6-1.636 3.41-2.94s1.21-2.824 1.13-4.358zm-22.03 4.273l-2.64.864c-1.52.494-2.95-1.074-2.62-2.877v-.297c.2.396.54.709.95.887.4.178.86.209 1.29.089l2.64-.865c.54-.211 1-.568 1.34-1.032.34-.463.54-1.013.58-1.586l.19.531c.34.799.34 1.695.02 2.497-.33.801-.95 1.444-1.75 1.789zm-4.36 10.337c-3.7-.618-4.58-2.693-4.74-4.409l9.69 1.074c.46 4.026-4.95 3.335-4.95 3.335zm-14.51-29.084c-.04-.383.09-.763.33-1.056.25-.294.6-.478.99-.513h4.94c.37.066.7.259.94.546.24.287.37.649.37 1.023 0 .374-.13.736-.37 1.023-.24.286-.57.479-.94.545h-4.94c-.39-.034-.74-.219-.99-.512-.24-.294-.37-.674-.33-1.056zm1.63 2.927h3c.97 0 1.78 1.235 1.78 2.729s-.81 2.717-1.78 2.717c-.98 0-1.77-1.235-1.77-2.717.01-.42.08-.837.21-1.235l-1.44-1.494zm24.57-2.927c-.04-.371.07-.742.3-1.035.23-.293.57-.484.94-.534h4.68c.35.089.66.291.88.575.22.284.34.634.34.994s-.12.709-.34.994c-.22.284-.53.486-.88.574h-4.6c-.18-.018-.37-.074-.53-.163-.17-.088-.32-.209-.43-.355-.12-.146-.21-.313-.27-.494-.05-.18-.07-.369-.05-.556h-.04zm1.01 5.656c0-1.507.79-2.729 1.77-2.729h3l-1.44 1.457c.13.398.2.815.21 1.235 0 1.494-.79 2.717-1.77 2.717s-1.73-1.186-1.73-2.68h-.04z"/>
        <path fill="#FFD176" d="M1012.67 581.456c2.99-4.31 4.55-9.497 7.41-13.882 3.51-5.31 12.82-14.548 28.76-15.585.76 0 3.84-.086 6.8-.346 2.97-.259 6.03-.728 6.28-1.667.3-1.136-4.82-3.31-8.23-5.063-.69-.359-1.23-.704-1.79-1.013-.45-.227-.83-.568-1.11-.988-.08-.413-.29-.788-.6-1.066-.32-.278-.71-.442-1.13-.466l-9.89-2.124c-4.51-1.092-9.11-1.831-13.74-2.21-3.85-.21-7.95 4.631-11.12 6.903-5.06 3.705-5.86 6.36-8.64 12.017-3.71 7.755-11.556 13.103-14.608 21.167-1.47 3.878-1.482 8.83 1.594 11.597 3.361 3.025 8.734 1.988 12.594-.346 2.92-1.769 5.45-4.129 7.41-6.928h.01z"/>
        <path fill="#F3E7DE" d="M928.879 590.557l-5.931.223c-3.632 0-7.19-1.865-10.032-4.125-1.759-1.394-3.876-2.266-6.107-2.515-2.231-.249-4.488.134-6.512 1.105-2.024.971-3.734 2.492-4.935 4.389-1.2 1.896-1.843 4.092-1.855 6.336-.012 2.244.608 4.447 1.789 6.356 1.18 1.909 2.874 3.447 4.888 4.44 2.014.992 4.266 1.399 6.5 1.173 2.234-.226 4.359-1.075 6.133-2.451 2.904-2.26 6.462-4.26 10.131-4.26l5.943.247c1.272.057 2.478.58 3.389 1.468.911.888 1.464 2.079 1.553 3.348v-20.192c-.172 1.206-.763 2.312-1.668 3.127-.906.815-2.069 1.286-3.286 1.331zM1035.36 488.054l-.23-5.928c0-3.631 1.87-7.2 4.13-10.041 1.39-1.758 2.26-3.872 2.5-6.099.25-2.227-.14-4.478-1.11-6.497-.98-2.018-2.5-3.723-4.39-4.919-1.9-1.197-4.09-1.836-6.33-1.847-2.24-.01-4.44.61-6.35 1.788-1.91 1.179-3.44 2.87-4.43 4.88-.99 2.009-1.4 4.257-1.18 6.486.23 2.229 1.08 4.351 2.45 6.122 2.26 2.89 4.26 6.447 4.26 10.115l-.25 5.952c-.05 1.272-.57 2.479-1.46 3.39s-2.08 1.463-3.35 1.55h20.2c-1.21-.173-2.32-.763-3.13-1.668-.82-.905-1.29-2.067-1.33-3.284z"/>
        <path fill="#E3F1F3" d="M1039.58 694.815l-.22-5.94c0-3.619 1.86-7.188 4.13-10.028 1.39-1.759 2.26-3.876 2.51-6.107.25-2.231-.13-4.487-1.1-6.511-.98-2.024-2.5-3.733-4.4-4.933-1.9-1.2-4.09-1.841-6.34-1.852-2.25-.01-4.45.611-6.36 1.794-1.91 1.182-3.45 2.877-4.44 4.892-.99 2.015-1.39 4.267-1.16 6.501.22 2.233 1.08 4.357 2.46 6.129 2.25 2.89 4.25 6.447 4.25 10.115l-.24 5.952c-.06 1.271-.58 2.476-1.47 3.387-.88.911-2.08 1.464-3.35 1.553h20.2c-1.2-.17-2.31-.759-3.13-1.664-.82-.905-1.29-2.069-1.34-3.288z"/>
        <path fill="#F3E7DE" d="M1136.38 593.488l5.93-.222c3.64 0 7.19 1.864 10.04 4.124 1.76 1.395 3.87 2.266 6.1 2.515 2.24.25 4.49-.133 6.52-1.105 2.02-.971 3.73-2.492 4.93-4.388 1.2-1.897 1.84-4.093 1.86-6.337.01-2.244-.61-4.446-1.79-6.355-1.18-1.909-2.88-3.448-4.89-4.441-2.02-.992-4.27-1.399-6.5-1.173-2.24.226-4.36 1.075-6.13 2.451-2.91 2.26-6.47 4.261-10.14 4.261l-5.94-.235c-1.27-.06-2.48-.585-3.39-1.475-.91-.89-1.46-2.084-1.55-3.354v20.192c.17-1.205.76-2.312 1.67-3.127.9-.814 2.07-1.286 3.28-1.331z"/>
        <path fill="#E2B393" d="M963.131 689.925c.023-.127.02-.257-.008-.383-.028-.125-.081-.244-.155-.35-.312-.326-.964-.122-1.25.258-.227.395-.384.827-.462 1.277-.053.231-.167.445-.329.619s-.367.302-.594.372c-.734-1.279-1.047-2.756-.897-4.223.068-.5.068-1.007 0-1.508-.246-.777-.719-1.463-1.358-1.969-.431-.539-1.045-.902-1.726-1.018-.472-.002-.938.11-1.358.326-1.559.546-2.845 1.675-3.587 3.15-.308 1.023-.308 2.114 0 3.137.526 2.372 1.445 4.639 2.717 6.708.226.497.558.939.974 1.293.416.355.904.613 1.431.758.963.111 1.937-.06 2.805-.491.868-.432 1.593-1.106 2.085-1.94.886-1.902 1.464-3.932 1.712-6.016zM1043.98 686.02c-.31.183-.56.468-.71.811-.14.343-.17.725-.08 1.086.26.928.4 1.888.4 2.853-.59 1.585-.74 3.31-.43 4.978.22.726.62 1.381 1.16 1.897.7.556 1.66.585 2.44 1.012.59.453 1.2.868 1.83 1.241.69.271 1.71 0 1.69-.813l1.4-2.196c-.16-1.49.04-2.996.57-4.393.29-.618.52-1.263.69-1.926.08-.33.08-.677 0-1.008-.08-.331-.24-.637-.46-.889-.77-.756-6.14-2.396-6.36-2.453-.69-.19-1.42-.258-2.14-.2z"/>
    </g>
    <defs>
        <clipPath id="prefix__clip0">
            <path fill="#fff" d="M0 0H1600V988H0z" transform="translate(-11 -15)"/>
        </clipPath>
    </defs>
</svg>
